<svg id="Laag_1" data-name="Laag 1" xmlns="http://www.w3.org/2000/svg" viewBox="0 0 56.69 56.69"><defs><style>.cls-1{fill:#736de1;}</style></defs><title>logo&amp;apos;s</title><path class="cls-1" d="M28.06,11.19a17.07,17.07,0,0,1,12.53,5.17,17,17,0,0,1,5.16,12.49,17.13,17.13,0,0,1-5.16,12.53,17,17,0,0,1-12.53,5.2,17,17,0,0,1-12.53-5.2,17.13,17.13,0,0,1-5.16-12.53,17,17,0,0,1,5.16-12.49A17.06,17.06,0,0,1,28.06,11.19Zm4.2,12.17V20.48H29.61a3.56,3.56,0,0,0-2.73,1.22,4.27,4.27,0,0,0-1.11,3v1.62H23V29h2.8v8.18h3.17V29h3.32V26.31H28.94V24.39c0-.69.22-1,.67-1Z"/></svg>