<svg id="Laag_1" data-name="Laag 1" xmlns="http://www.w3.org/2000/svg" viewBox="0 0 56.69 56.69"><defs><style>.cls-1{fill:#fff;}</style></defs><title>Naamloos-1</title><path class="cls-1" d="M35.51,23.77A2.89,2.89,0,0,0,33.78,22a8.14,8.14,0,0,0-2.19-.32c-.59,0-1.42,0-2.5,0H27.8c-1.08,0-1.92,0-2.51,0a8.49,8.49,0,0,0-2.18.32,2.93,2.93,0,0,0-1.74,1.74A8,8,0,0,0,21.05,26c0,.59,0,1.43,0,2.5v1.3c0,1.07,0,1.91,0,2.5a8.34,8.34,0,0,0,.32,2.18,3,3,0,0,0,1.74,1.74,8.49,8.49,0,0,0,2.18.32c.59,0,1.43,0,2.51,0h1.29c1.1,0,1.94,0,2.5,0a8.14,8.14,0,0,0,2.19-.32,3.05,3.05,0,0,0,1.73-1.74,8.69,8.69,0,0,0,.33-2.18c0-.59,0-1.43,0-2.5v-1.3c0-1.1,0-1.94,0-2.5A8.37,8.37,0,0,0,35.51,23.77Zm-3,7.65a4.59,4.59,0,0,1-1.69,1.7,4.61,4.61,0,0,1-4.65,0,4.7,4.7,0,0,1-1.7-1.7,4.65,4.65,0,0,1,0-4.64,4.7,4.7,0,0,1,1.7-1.7,4.61,4.61,0,0,1,4.65,0,4.59,4.59,0,0,1,1.69,1.7,4.59,4.59,0,0,1,0,4.64ZM34,25a1,1,0,0,1-.75.32,1.09,1.09,0,0,1-1.09-1.09,1.09,1.09,0,0,1,.32-.77,1.09,1.09,0,0,1,1.54,0,1.09,1.09,0,0,1,.32.77A1.29,1.29,0,0,1,34,25Z"/><path class="cls-1" d="M28.2,10.46A18.43,18.43,0,1,0,46.63,28.89,18.43,18.43,0,0,0,28.2,10.46Zm9.23,22.42a7.64,7.64,0,0,1-.34,2A4.59,4.59,0,0,1,36,36.63a4.86,4.86,0,0,1-1.76,1.12,8,8,0,0,1-2,.34q-1.16.06-3.78.06c-1.75,0-3,0-3.77-.06a6.4,6.4,0,0,1-2-.39,4.21,4.21,0,0,1-1.76-1.07,4.59,4.59,0,0,1-1.11-1.75,8.06,8.06,0,0,1-.35-2q-.06-1.16-.06-3.78t.06-3.78a8,8,0,0,1,.35-2,4.59,4.59,0,0,1,1.11-1.75,4.77,4.77,0,0,1,1.76-1.12,7.92,7.92,0,0,1,2-.34c.76,0,2-.06,3.77-.06s3,0,3.78.06a8,8,0,0,1,2,.34A4.86,4.86,0,0,1,36,21.57a4.59,4.59,0,0,1,1.11,1.75,8,8,0,0,1,.36,2c0,.76,0,2,0,3.76S37.47,32.11,37.43,32.88Z"/><path class="cls-1" d="M28.44,26.07A3,3,0,0,0,26.3,27a3,3,0,0,0,0,4.28,3,3,0,0,0,2.14.89,3,3,0,0,0,3-3A2.88,2.88,0,0,0,30.58,27,2.91,2.91,0,0,0,28.44,26.07Z"/></svg>