<svg id="Laag_1" data-name="Laag 1" xmlns="http://www.w3.org/2000/svg" viewBox="0 0 105.46 11.83"><title>logo_happyhouse_liggend</title><path d="M5.79.81a5.29,5.29,0,1,0,5.28,5.28A5.29,5.29,0,0,0,5.79.81ZM8.58,8.3c0,.38-.17.53-.58.53H3.81c-.39,0-.59-.11-.59-.52L3.16,4.94a.42.42,0,0,1,.1-.35L4.56,2.7a.37.37,0,0,1,.49-.11l3.3,2A.52.52,0,0,1,8.61,5Z" style="fill:#736de1"/><path d="M17.9,1.93A.29.29,0,0,1,18,1.75a.22.22,0,0,1,.19-.08h1.78a.27.27,0,0,1,.18.07.23.23,0,0,1,.1.19V4.78h3V1.93a.29.29,0,0,1,.08-.19.25.25,0,0,1,.19-.07h1.75a.37.37,0,0,1,.21.06.21.21,0,0,1,.09.19v8.39a.24.24,0,0,1-.07.2.3.3,0,0,1-.21.07H23.47a.26.26,0,0,1-.27-.27V6.9h-3v3.41a.26.26,0,0,1-.08.2.38.38,0,0,1-.22.07H18.16c-.17,0-.26-.08-.26-.24Z" style="fill:#736de1"/><path d="M30,1.9a.16.16,0,0,1,0-.08l.09-.08a.31.31,0,0,1,.1-.05.18.18,0,0,1,.1,0H31.9a.27.27,0,0,1,.17.06l.11.11.15.34,3.15,8.13a.18.18,0,0,1,0,.19.29.29,0,0,1-.23.08H33.51a.41.41,0,0,1-.21-.05.37.37,0,0,1-.12-.17C33.1,10.15,33,10,33,9.75s-.16-.41-.23-.61H29.53c-.07.2-.15.4-.23.61s-.15.4-.23.61a.3.3,0,0,1-.31.22H27a.31.31,0,0,1-.19-.06c-.05,0-.05-.1,0-.18Zm1.09,2.57c-.08.2-.16.42-.23.66s-.16.47-.23.71l-.24.71c-.07.24-.15.46-.23.66h1.85Z" style="fill:#736de1"/><path d="M36.56,1.94a.32.32,0,0,1,.06-.2.26.26,0,0,1,.2-.07h3.84a2.54,2.54,0,0,1,.78.11,2.75,2.75,0,0,1,.67.32,2.5,2.5,0,0,1,.55.48,3.22,3.22,0,0,1,.42.6,3.29,3.29,0,0,1,.26.68,3,3,0,0,1,.09.72,3,3,0,0,1-.2,1.06,3,3,0,0,1-.55.92,3,3,0,0,1-.87.65,2.52,2.52,0,0,1-1.11.25H38.88v2.86c0,.17-.09.26-.28.26H36.82a.25.25,0,0,1-.19-.07.22.22,0,0,1-.07-.19Zm4.52,2.63A1.15,1.15,0,0,0,41,4.21a.92.92,0,0,0-.18-.32,1.09,1.09,0,0,0-.29-.23.86.86,0,0,0-.39-.09H38.88v2h1.27a1,1,0,0,0,.39-.08,1,1,0,0,0,.29-.23A.92.92,0,0,0,41,4.94,1.16,1.16,0,0,0,41.08,4.57Z" style="fill:#736de1"/><path d="M44.61,1.94a.32.32,0,0,1,.07-.2.24.24,0,0,1,.2-.07h3.83a2.45,2.45,0,0,1,.78.11,2.65,2.65,0,0,1,.68.32,2.88,2.88,0,0,1,1,1.08,2.81,2.81,0,0,1,.26.68,2.54,2.54,0,0,1,.09.72,2.93,2.93,0,0,1-.75,2,2.83,2.83,0,0,1-.86.65,2.56,2.56,0,0,1-1.12.25H46.94v2.86c0,.17-.1.26-.28.26H44.88a.24.24,0,0,1-.19-.07.23.23,0,0,1-.08-.19Zm4.52,2.63a1.13,1.13,0,0,0-.06-.36.92.92,0,0,0-.18-.32,1.09,1.09,0,0,0-.29-.23.86.86,0,0,0-.39-.09H46.94v2h1.27a1,1,0,0,0,.39-.08,1.09,1.09,0,0,0,.29-.23.92.92,0,0,0,.18-.32A1.15,1.15,0,0,0,49.13,4.57Z" style="fill:#736de1"/><path d="M56.05,5l1.45-3.1.06-.1,0-.05,0,0H60l.06,0a.09.09,0,0,1,0,.07.28.28,0,0,1-.08.15l-2.85,5v3.35c0,.19-.09.29-.27.29h-1.8A.22.22,0,0,1,55,10.5a.28.28,0,0,1-.07-.21V6.93L52,1.91A.25.25,0,0,1,52,1.76a.09.09,0,0,1,0-.07l.07,0h2.37l0,0s0,0,.05.05a.64.64,0,0,1,.06.1Z" style="fill:#736de1"/><path d="M61.27,1.93a.25.25,0,0,1,.08-.18.19.19,0,0,1,.18-.08h1.78a.32.32,0,0,1,.19.07.25.25,0,0,1,.09.19V4.78h3V1.93a.29.29,0,0,1,.08-.19.25.25,0,0,1,.19-.07H68.6a.37.37,0,0,1,.21.06.21.21,0,0,1,.09.19v8.39a.25.25,0,0,1-.08.2.27.27,0,0,1-.2.07H66.84a.26.26,0,0,1-.27-.27V6.9h-3v3.41a.23.23,0,0,1-.08.2.36.36,0,0,1-.22.07H61.53c-.17,0-.26-.08-.26-.24Z" style="fill:#736de1"/><path d="M70.44,6.13a4.49,4.49,0,0,1,.17-1.22,4.27,4.27,0,0,1,.46-1.1,4.63,4.63,0,0,1,.72-.93,4.31,4.31,0,0,1,.92-.72,4.65,4.65,0,0,1,1.1-.46,4.46,4.46,0,0,1,2.44,0,4.57,4.57,0,0,1,3.21,3.21,4.49,4.49,0,0,1,.17,1.22,4.44,4.44,0,0,1-.17,1.22A4.41,4.41,0,0,1,79,8.44a4.63,4.63,0,0,1-.72.93,4.58,4.58,0,0,1-.93.71,4.68,4.68,0,0,1-1.1.47,4.73,4.73,0,0,1-2.44,0,4.68,4.68,0,0,1-1.1-.47,4.26,4.26,0,0,1-.92-.71,4.63,4.63,0,0,1-.72-.93,4.06,4.06,0,0,1-.46-1.09A4.44,4.44,0,0,1,70.44,6.13Zm2.33,0a2.52,2.52,0,0,0,.16.93,2.56,2.56,0,0,0,.47.76A2.21,2.21,0,0,0,75,8.49,2.32,2.32,0,0,0,76,8.31a2.2,2.2,0,0,0,1.18-1.26,2.33,2.33,0,0,0,.17-.93,2.39,2.39,0,0,0-.17-.92A2.26,2.26,0,0,0,76,3.93,2.33,2.33,0,0,0,75,3.74a2.28,2.28,0,0,0-.91.19,2.15,2.15,0,0,0-.72.51,2.44,2.44,0,0,0-.47.76A2.58,2.58,0,0,0,72.77,6.12Z" style="fill:#736de1"/><path d="M83.38,7a2.13,2.13,0,0,0,.12.76,1.5,1.5,0,0,0,.33.5,1.2,1.2,0,0,0,.47.29,1.71,1.71,0,0,0,.55.09,1.56,1.56,0,0,0,.57-.11,1.25,1.25,0,0,0,.47-.31,1.48,1.48,0,0,0,.32-.51A2,2,0,0,0,86.33,7V1.93a.28.28,0,0,1,.07-.19.27.27,0,0,1,.2-.07h1.76a.27.27,0,0,1,.29.26V7a4.33,4.33,0,0,1-.31,1.76,3,3,0,0,1-.83,1.15,3.25,3.25,0,0,1-1.21.63,5.68,5.68,0,0,1-1.44.18,5.29,5.29,0,0,1-1.45-.19,3.13,3.13,0,0,1-1.21-.64,2.92,2.92,0,0,1-.83-1.15A4.27,4.27,0,0,1,81.06,7V1.93a.24.24,0,0,1,.07-.18.19.19,0,0,1,.17-.08h1.79a.3.3,0,0,1,.19.07.23.23,0,0,1,.1.19Z" style="fill:#736de1"/><path d="M91.51,7.7l.26.22a3.44,3.44,0,0,0,.36.28,3.27,3.27,0,0,0,.61.32,1.9,1.9,0,0,0,.63.11,1.46,1.46,0,0,0,.51-.07.75.75,0,0,0,.33-.18.56.56,0,0,0,.17-.26.86.86,0,0,0,.05-.32.43.43,0,0,0-.14-.33A1.28,1.28,0,0,0,94,7.21a2.39,2.39,0,0,0-.43-.2l-.38-.13a8.34,8.34,0,0,1-1.26-.55,4,4,0,0,1-.9-.64,2.42,2.42,0,0,1-.54-.79,2.45,2.45,0,0,1-.18-1,2.23,2.23,0,0,1,.22-1,2.39,2.39,0,0,1,.64-.78,3.29,3.29,0,0,1,1-.5,4.91,4.91,0,0,1,2.36,0,4.07,4.07,0,0,1,1,.39c.13.08.26.16.38.25a3.27,3.27,0,0,1,.32.25,1.15,1.15,0,0,1,.22.23.28.28,0,0,1,.08.18.4.4,0,0,1,0,.15l-.12.15-.92,1a.31.31,0,0,1-.2.11.3.3,0,0,1-.16,0l-.15-.12-.05-.05-.27-.21a1.69,1.69,0,0,0-.32-.19,1.84,1.84,0,0,0-.35-.15,1.21,1.21,0,0,0-.38-.06,2.21,2.21,0,0,0-.37,0,.94.94,0,0,0-.31.1.76.76,0,0,0-.21.19.52.52,0,0,0-.07.29.47.47,0,0,0,.08.29.94.94,0,0,0,.25.23,2.09,2.09,0,0,0,.42.19c.17.07.36.13.58.2q.63.21,1.17.45A3.79,3.79,0,0,1,96,6a2.25,2.25,0,0,1,.61.76,2.41,2.41,0,0,1,.22,1.06A2.57,2.57,0,0,1,96.56,9a2.76,2.76,0,0,1-.74.92,3.45,3.45,0,0,1-1.11.58,4.32,4.32,0,0,1-1.37.21A3.8,3.8,0,0,1,92,10.44a5.11,5.11,0,0,1-1.24-.66,2.83,2.83,0,0,1-.4-.34l-.26-.27,0,0h0s0,0,0,0h0a.44.44,0,0,1-.14-.24c0-.07,0-.14.14-.23l1-1a.37.37,0,0,1,.2-.09.19.19,0,0,1,.12,0A.6.6,0,0,1,91.51,7.7Z" style="fill:#736de1"/><path d="M98.26,1.94a.27.27,0,0,1,.07-.2.25.25,0,0,1,.19-.07h6a.27.27,0,0,1,.2.07.31.31,0,0,1,.07.21V3.44a.28.28,0,0,1-.07.19.27.27,0,0,1-.21.1h-3.89V5.21h3a.29.29,0,0,1,.19.06.19.19,0,0,1,.08.18V6.74a.26.26,0,0,1-.07.16.21.21,0,0,1-.19.08h-3V8.52h4a.24.24,0,0,1,.27.27V10.3a.15.15,0,0,1,0,.11c0,.11-.1.17-.25.17H98.52a.25.25,0,0,1-.19-.07.22.22,0,0,1-.07-.19Z" style="fill:#736de1"/></svg>