<?xml version="1.0" encoding="utf-8"?>
<!-- Generator: Adobe Illustrator 22.1.0, SVG Export Plug-In . SVG Version: 6.00 Build 0)  -->
<svg version="1.1" id="Laag_1" xmlns="http://www.w3.org/2000/svg" xmlns:xlink="http://www.w3.org/1999/xlink" x="0px" y="0px"
	 viewBox="0 0 242 115" style="enable-background:new 0 0 242 115;" xml:space="preserve">
<style type="text/css">
	.st0{fill:#736DE1;}
</style>
<title>logo_happyhouse_blauw</title>
<path class="st0" d="M1.2,2.6c0-0.4,0.2-0.7,0.4-1c0.2-0.3,0.6-0.5,1-0.4h9.5c0.4,0,0.7,0.2,1,0.4c0.3,0.2,0.5,0.6,0.5,1v15.2h15.9
	V2.6c0-0.8,0.6-1.4,1.3-1.4c0,0,0.1,0,0.1,0h9.4c0.4,0,0.8,0.1,1.1,0.3c0.3,0.2,0.5,0.6,0.5,1v44.8c0,0.4-0.1,0.8-0.4,1.1
	c-0.3,0.2-0.7,0.4-1.1,0.3h-9.5c-0.4,0-0.7-0.1-1-0.3c-0.3-0.3-0.4-0.7-0.4-1.1V29.1H13.6v18.2c0,0.4-0.1,0.7-0.4,1
	c-0.3,0.3-0.7,0.4-1.2,0.4H2.6c-0.9,0-1.4-0.4-1.4-1.3V2.6z"/>
<path class="st0" d="M65.9,2.4c0-0.2,0.1-0.3,0.2-0.4c0.1-0.2,0.3-0.3,0.4-0.4c0.2-0.1,0.4-0.2,0.6-0.3c0.2-0.1,0.4-0.1,0.5-0.1h8.2
	c0.3,0,0.7,0.1,0.9,0.3c0.2,0.2,0.4,0.4,0.6,0.6l0.8,1.8l16.8,43.3c0.2,0.3,0.1,0.7-0.1,1c-0.3,0.3-0.8,0.4-1.2,0.4h-9.2
	c-0.4,0-0.8-0.1-1.1-0.3c-0.3-0.2-0.5-0.5-0.6-0.9c-0.4-1.1-0.8-2.2-1.3-3.3s-0.8-2.1-1.2-3.2h-17c-0.4,1.1-0.8,2.2-1.2,3.3
	s-0.8,2.2-1.2,3.3c-0.2,0.7-0.9,1.2-1.6,1.2h-9.4c-0.4,0-0.7-0.1-1-0.3c-0.3-0.2-0.3-0.5-0.1-1L65.9,2.4z M71.7,16.1
	c-0.4,1.1-0.8,2.3-1.2,3.5s-0.8,2.5-1.2,3.8S68.4,26,68,27.2s-0.8,2.4-1.2,3.5h9.8L71.7,16.1z"/>
<path class="st0" d="M100.7,2.6c0-0.4,0.1-0.8,0.3-1.1c0.3-0.3,0.6-0.4,1-0.4h20.4c1.4,0,2.8,0.2,4.2,0.6c1.3,0.4,2.5,0.9,3.6,1.7
	c1.1,0.7,2.1,1.6,3,2.5c0.9,1,1.6,2.1,2.2,3.2c0.6,1.2,1.1,2.4,1.4,3.6c0.3,1.3,0.5,2.6,0.5,3.9c0,1.9-0.3,3.8-1,5.6
	c-0.7,1.8-1.7,3.5-3,4.9c-1.3,1.4-2.9,2.6-4.6,3.5c-1.8,0.9-3.9,1.4-5.9,1.4H113v15.2c0,0.9-0.5,1.4-1.5,1.4H102
	c-0.4,0-0.7-0.1-1-0.3c-0.3-0.3-0.4-0.6-0.4-1L100.7,2.6z M124.8,16.6c0-0.7-0.1-1.3-0.3-1.9c-0.2-0.6-0.6-1.2-1-1.7
	c-0.4-0.5-1-0.9-1.6-1.2c-0.6-0.3-1.3-0.5-2.1-0.5H113V22h6.8c0.7,0,1.4-0.2,2.1-0.5c0.6-0.3,1.1-0.7,1.6-1.2
	c0.4-0.5,0.7-1.1,0.9-1.7C124.6,18,124.7,17.3,124.8,16.6L124.8,16.6z"/>
<path class="st0" d="M143.6,2.6c0-0.4,0.1-0.8,0.4-1.1c0.3-0.3,0.7-0.4,1.1-0.4h20.4c1.4,0,2.8,0.2,4.2,0.6c1.3,0.4,2.5,0.9,3.6,1.7
	c1.1,0.7,2.1,1.6,2.9,2.5c0.9,1,1.6,2.1,2.2,3.2c0.6,1.2,1.1,2.4,1.4,3.6c0.3,1.3,0.5,2.6,0.5,3.9c0,1.9-0.3,3.8-1,5.6
	c-0.7,1.8-1.7,3.5-3,4.9c-1.3,1.4-2.9,2.6-4.6,3.5c-1.8,0.9-3.9,1.4-5.9,1.4H156v15.2c0,0.9-0.5,1.4-1.5,1.4H145
	c-0.4,0-0.7-0.1-1-0.3c-0.3-0.3-0.4-0.6-0.4-1V2.6z M167.7,16.6c0-0.7-0.1-1.3-0.3-1.9c-0.2-0.6-0.6-1.2-1-1.7
	c-0.4-0.5-1-0.9-1.6-1.2c-0.6-0.3-1.3-0.5-2.1-0.5H156V22h6.8c0.7,0,1.4-0.2,2.1-0.5c0.6-0.3,1.1-0.7,1.6-1.2c0.4-0.5,0.8-1.1,1-1.7
	C167.6,18,167.7,17.3,167.7,16.6L167.7,16.6z"/>
<path class="st0" d="M204.6,18.7l7.7-16.5c0.1-0.2,0.2-0.4,0.3-0.6c0.1-0.1,0.2-0.2,0.3-0.3c0.1,0,0.2-0.1,0.3-0.1
	c0.1,0,0.2,0,0.3-0.1h12.3c0.3,0,0.5,0.2,0.5,0.4c0,0,0,0,0,0c0,0.3-0.2,0.6-0.4,0.8l-15.2,26.8v17.9c0.1,0.7-0.4,1.4-1.1,1.5
	c-0.1,0-0.3,0-0.4,0h-9.6c-0.4,0-0.7-0.1-1-0.4c-0.2-0.3-0.4-0.7-0.4-1.1V29.2L183.2,2.4c-0.2-0.2-0.4-0.5-0.4-0.8
	c0-0.1,0-0.2,0.1-0.3c0.1-0.1,0.2-0.1,0.4-0.1h12.3c0.1,0,0.2,0.1,0.4,0.1c0.1,0,0.2,0,0.3,0.1c0.1,0.1,0.2,0.2,0.3,0.3
	c0.1,0.2,0.2,0.4,0.4,0.6L204.6,18.7z"/>
<path class="st0" d="M0.8,54.7c0-0.3,0.2-0.7,0.4-0.9c0.2-0.3,0.6-0.4,0.9-0.4h9.1c0.4,0,0.7,0.1,1,0.4c0.3,0.2,0.5,0.6,0.5,1v14.6
	h15.3V54.7c0-0.7,0.6-1.3,1.3-1.4c0,0,0.1,0,0.1,0h9c0.4,0,0.8,0.1,1.1,0.3c0.3,0.2,0.5,0.6,0.5,1v43.1c0,0.4-0.1,0.7-0.4,1
	c-0.3,0.2-0.6,0.3-1,0.3h-9.1c-0.4,0-0.7-0.1-1-0.3c-0.3-0.3-0.4-0.6-0.4-1V80.3H12.8v17.5c0,0.4-0.1,0.7-0.4,1
	c-0.3,0.2-0.7,0.4-1.1,0.3h-9c-0.9,0-1.3-0.4-1.3-1.2L0.8,54.7z"/>
<path class="st0" d="M47.9,76.3c0-2.1,0.3-4.2,0.8-6.3c1.1-3.9,3.2-7.5,6.1-10.4c1.4-1.4,3-2.7,4.8-3.7c1.8-1,3.7-1.8,5.6-2.4
	c4.1-1.1,8.4-1.1,12.5,0c2,0.5,3.9,1.3,5.6,2.4c1.7,1,3.3,2.3,4.8,3.7c1.4,1.4,2.7,3,3.7,4.8c1,1.8,1.8,3.7,2.4,5.6
	c1.1,4.1,1.1,8.4,0,12.5c-0.6,2-1.4,3.8-2.4,5.6c-1,1.7-2.2,3.3-3.7,4.7c-2.9,2.9-6.5,5-10.4,6.1c-6.1,1.7-12.7,0.8-18.2-2.4
	C52.3,92.4,47.9,84.7,47.9,76.3L47.9,76.3z M59.8,76.3c0,1.6,0.3,3.2,0.9,4.7c0.5,1.4,1.4,2.7,2.4,3.9c1,1.1,2.3,2,3.7,2.6
	c1.5,0.6,3.1,1,4.7,0.9c1.6,0,3.2-0.3,4.7-0.9c1.4-0.6,2.7-1.5,3.7-2.6c1-1.1,1.9-2.4,2.4-3.9c1.1-3.1,1.1-6.5,0-9.5
	c-0.5-1.4-1.4-2.8-2.4-3.9c-1-1.1-2.3-2-3.7-2.6c-1.5-0.7-3.1-1-4.7-1c-3.2,0-6.2,1.3-8.3,3.6c-1,1.1-1.9,2.4-2.4,3.9
	C60.1,73,59.8,74.6,59.8,76.3L59.8,76.3z"/>
<path class="st0" d="M114.3,80.9c0,1.3,0.2,2.6,0.6,3.9c0.4,1,0.9,1.9,1.7,2.6c0.7,0.7,1.5,1.2,2.4,1.5c0.9,0.3,1.9,0.5,2.9,0.5
	c1,0,2-0.2,2.9-0.5c0.9-0.4,1.7-0.9,2.4-1.6c0.7-0.8,1.3-1.7,1.6-2.6c0.4-1.2,0.6-2.4,0.6-3.6V54.7c0-0.7,0.6-1.4,1.3-1.4
	c0,0,0.1,0,0.1,0h9c0.4,0,0.8,0.1,1.1,0.4c0.3,0.2,0.4,0.6,0.4,0.9v26c0.1,3.1-0.4,6.2-1.6,9.1c-0.9,2.3-2.4,4.3-4.3,5.9
	c-1.8,1.5-3.9,2.6-6.2,3.2c-2.4,0.7-4.9,1-7.4,1c-2.5,0-5-0.3-7.4-1c-2.3-0.6-4.4-1.7-6.2-3.3c-1.9-1.6-3.3-3.6-4.3-5.9
	c-1.1-2.8-1.7-5.9-1.6-8.9v-26c0-0.3,0.1-0.7,0.4-0.9c0.2-0.3,0.5-0.4,0.9-0.4h9.2c0.4,0,0.7,0.1,1,0.4c0.3,0.2,0.5,0.6,0.5,1
	L114.3,80.9z"/>
<path class="st0" d="M156,84.3c0.4,0.3,0.8,0.7,1.3,1.2c0.6,0.5,1.2,1,1.9,1.4c1,0.7,2,1.2,3.1,1.6c1,0.4,2.1,0.6,3.2,0.6
	c0.9,0,1.8-0.1,2.6-0.3c0.6-0.2,1.2-0.5,1.7-0.9c0.4-0.4,0.7-0.8,0.9-1.3c0.2-0.5,0.3-1.1,0.3-1.6c0-0.6-0.3-1.3-0.7-1.7
	c-0.5-0.5-1.1-1-1.8-1.3c-0.7-0.4-1.4-0.7-2.2-1c-0.8-0.3-1.4-0.5-2-0.7c-2.2-0.8-4.4-1.7-6.5-2.8c-1.7-0.9-3.2-2-4.6-3.3
	c-2.4-2.3-3.8-5.6-3.7-8.9c-0.1-3.6,1.6-7,4.4-9.2c1.5-1.2,3.3-2,5.2-2.6c2.2-0.6,4.5-0.9,6.8-0.9c1.8,0,3.6,0.2,5.4,0.6
	c1.8,0.4,3.5,1.1,5.1,2c0.7,0.4,1.4,0.8,2,1.3c0.6,0.4,1.1,0.8,1.6,1.3c0.4,0.3,0.8,0.7,1.1,1.2c0.2,0.3,0.4,0.6,0.4,0.9
	c0,0.3-0.1,0.5-0.2,0.7c-0.2,0.3-0.4,0.5-0.6,0.8l-4.7,5c-0.3,0.3-0.6,0.5-1.1,0.5c-0.3,0-0.6-0.1-0.8-0.3c-0.2-0.2-0.5-0.4-0.8-0.6
	l-0.3-0.2c-0.4-0.3-0.9-0.7-1.4-1.1c-0.5-0.4-1-0.7-1.6-1c-0.6-0.3-1.2-0.5-1.8-0.7c-0.6-0.2-1.3-0.3-1.9-0.3c-0.6,0-1.3,0-1.9,0.2
	c-0.5,0.1-1.1,0.3-1.6,0.5c-0.4,0.2-0.8,0.6-1.1,1c-0.6,0.9-0.6,2.1,0,3c0.3,0.5,0.8,0.9,1.3,1.2c0.7,0.4,1.4,0.7,2.1,1
	c0.9,0.3,1.8,0.7,3,1c2.2,0.7,4.2,1.5,6,2.3c1.7,0.7,3.3,1.7,4.8,2.8c1.3,1,2.4,2.4,3.1,3.9c0.8,1.7,1.2,3.6,1.1,5.4
	c0,2.1-0.4,4.2-1.4,6.1c-0.9,1.8-2.2,3.4-3.8,4.7c-1.7,1.3-3.6,2.3-5.7,3c-2.3,0.7-4.6,1.1-7,1.1c-2.4,0-4.8-0.4-7-1.3
	c-2.3-0.8-4.4-2-6.4-3.4c-0.7-0.5-1.4-1.1-2.1-1.8c-0.6-0.6-1-1-1.3-1.4l-0.1-0.1c0,0,0-0.1-0.1-0.1h-0.1c0,0,0-0.1-0.1-0.1h-0.1
	c-0.4-0.3-0.6-0.8-0.7-1.2c0.1-0.5,0.3-0.9,0.7-1.2l5.4-5.2c0.3-0.3,0.7-0.4,1.1-0.5c0.2,0,0.4,0.1,0.6,0.2
	C155.5,83.9,155.8,84.1,156,84.3z"/>
<path class="st0" d="M190.7,54.8c0-0.4,0.1-0.7,0.4-1c0.3-0.3,0.6-0.4,1-0.4h30.6c0.4,0,0.7,0.1,1,0.4c0.3,0.3,0.4,0.7,0.4,1.1v7.6
	c0,0.4-0.1,0.7-0.4,1c-0.3,0.3-0.7,0.5-1.1,0.5h-20v7.6H218c0.4,0,0.7,0.1,1,0.3c0.3,0.2,0.4,0.6,0.4,0.9v6.7c0,0.3-0.1,0.6-0.3,0.8
	c-0.3,0.3-0.6,0.4-1,0.4h-15.4v7.9h20.7c0.7-0.1,1.3,0.4,1.4,1.1c0,0.1,0,0.2,0,0.4v7.7c0,0.2-0.1,0.4-0.2,0.6
	c-0.1,0.6-0.5,0.9-1.3,0.9H192c-0.4,0-0.7-0.1-1-0.3c-0.3-0.3-0.4-0.6-0.4-1L190.7,54.8z"/>
<path class="st0" d="M234.7,89.9l4.8,2.9v4.8h-6.4l-0.1-5.1v-0.1v-0.1L234.7,89.9 M234.5,88.2c-0.3,0-0.5,0.1-0.7,0.3l-2.1,3.1
	l-0.2,0.6l0.1,5.9c0,0.5,0.5,0.9,1,0.9h7.3c0.5,0,1-0.4,1-0.9v-5.7c0-0.3-0.2-0.6-0.4-0.8l-5.4-3.4
	C234.9,88.2,234.7,88.2,234.5,88.2L234.5,88.2z"/>
<path class="st0" d="M101.9,105.5c0-0.1,0-0.1,0.1-0.2c0.1-0.1,0.1-0.1,0.2-0.1h1.2c0.1,0,0.1,0,0.2,0.1c0.1,0,0.1,0.1,0.1,0.2v3.2
	h4.1v-3.2c0-0.1,0-0.1,0.1-0.2c0-0.1,0.1-0.1,0.2-0.1h1.2c0.1,0,0.2,0,0.2,0.1c0.1,0,0.1,0.1,0.1,0.2v8.6c0,0.2-0.1,0.3-0.3,0.3
	h-1.2c-0.1,0-0.3-0.1-0.3-0.2c0,0,0,0,0-0.1v-3.7h-4.1v3.7c0,0.2-0.1,0.3-0.3,0.3h-1.2c-0.2,0-0.3-0.1-0.3-0.3V105.5z"/>
<path class="st0" d="M113.7,109.8c0-0.8,0.2-1.7,0.6-2.4c0.2-0.4,0.5-0.7,0.7-1c0.6-0.6,1.3-1,2.1-1.2c0.4-0.1,0.8-0.2,1.3-0.2
	c0.4,0,0.8,0.1,1.2,0.2c0.4,0.1,0.8,0.3,1.1,0.5c0.4,0.2,0.7,0.5,1,0.7c0.3,0.3,0.5,0.6,0.7,1c0.2,0.4,0.4,0.7,0.5,1.1
	c0.2,0.8,0.2,1.7,0,2.5c-0.1,0.4-0.3,0.8-0.5,1.1c-0.4,0.7-1,1.3-1.7,1.7c-1.1,0.6-2.4,0.8-3.6,0.5c-0.4-0.1-0.8-0.3-1.1-0.5
	c-0.4-0.2-0.7-0.4-1-0.7c-0.3-0.3-0.5-0.6-0.7-1C113.9,111.4,113.7,110.6,113.7,109.8L113.7,109.8z M115.5,109.8
	c0,0.4,0.1,0.8,0.2,1.2c0.3,0.7,0.8,1.3,1.5,1.6c0.7,0.3,1.6,0.3,2.3,0c0.3-0.1,0.7-0.4,0.9-0.6c0.3-0.3,0.5-0.6,0.6-0.9
	c0.3-0.7,0.3-1.6,0-2.3c-0.1-0.4-0.3-0.7-0.6-1c-0.3-0.3-0.6-0.5-0.9-0.6c-0.7-0.3-1.6-0.3-2.3,0c-0.3,0.2-0.7,0.4-0.9,0.6
	c-0.3,0.3-0.5,0.6-0.6,1C115.5,109,115.5,109.4,115.5,109.8L115.5,109.8z"/>
<path class="st0" d="M128.9,110.6c0,0.3,0,0.6,0.1,0.9c0.1,0.3,0.2,0.5,0.4,0.7c0.2,0.2,0.4,0.3,0.6,0.4c0.3,0.1,0.5,0.2,0.8,0.2
	c0.3,0,0.6,0,0.9-0.2c0.2-0.1,0.5-0.3,0.6-0.4c0.2-0.2,0.3-0.4,0.4-0.7c0.1-0.3,0.1-0.6,0.1-0.9v-5.2c0-0.1,0-0.1,0.1-0.2
	c0.1-0.1,0.1-0.1,0.2-0.1h1.2c0.1,0,0.2,0,0.2,0.1c0.1,0,0.1,0.1,0.1,0.2v5.2c0,0.6-0.1,1.1-0.3,1.7c-0.2,0.4-0.5,0.9-0.8,1.2
	c-0.4,0.3-0.8,0.6-1.2,0.7c-0.5,0.2-1,0.2-1.5,0.2c-0.5,0-1-0.1-1.5-0.3c-0.5-0.2-0.9-0.4-1.2-0.7c-0.4-0.3-0.6-0.7-0.8-1.2
	c-0.2-0.5-0.3-1.1-0.3-1.6v-5.2c0-0.1,0-0.1,0.1-0.2c0-0.1,0.1-0.1,0.2-0.1h1.3c0.1,0,0.1,0,0.2,0.1c0.1,0,0.1,0.1,0.1,0.2V110.6z"
	/>
<path class="st0" d="M144.3,107.6c0,0-0.1,0-0.1,0c-0.1,0-0.1-0.1-0.1-0.1l0,0c-0.1-0.1-0.2-0.2-0.3-0.3c-0.1-0.1-0.3-0.2-0.4-0.3
	c-0.2-0.1-0.3-0.2-0.5-0.2c-0.2-0.1-0.4-0.1-0.5-0.1c-0.2,0-0.4,0-0.6,0.1c-0.2,0.1-0.3,0.1-0.4,0.2c-0.1,0.1-0.2,0.2-0.3,0.3
	c-0.1,0.1-0.1,0.3-0.1,0.4c0,0.1,0,0.3,0.1,0.4c0.1,0.1,0.2,0.2,0.4,0.3c0.2,0.1,0.4,0.2,0.6,0.2l0.6,0.2l0.8,0.3
	c0.3,0.1,0.5,0.2,0.7,0.3c0.2,0.1,0.4,0.2,0.6,0.4c0.2,0.1,0.4,0.3,0.5,0.5c0.1,0.2,0.3,0.4,0.4,0.6c0.1,0.2,0.1,0.5,0.1,0.8
	c0,0.4-0.1,0.8-0.3,1.2c-0.2,0.4-0.4,0.7-0.8,0.9c-0.3,0.3-0.7,0.5-1.1,0.6c-0.4,0.1-0.9,0.2-1.4,0.2c-0.3,0-0.6,0-0.9-0.1
	c-0.6-0.2-1.2-0.4-1.7-0.8c-0.3-0.2-0.5-0.4-0.7-0.6l0,0l0,0c-0.1-0.1-0.1-0.2-0.1-0.3c0,0,0-0.1,0-0.1c0-0.1,0.1-0.1,0.1-0.1
	l0.2-0.2l0.2-0.2l0.2-0.2c0.1-0.1,0.1-0.1,0.2-0.1c0,0,0.1,0,0.1,0c0.1,0,0.1,0,0.2,0l0.1,0.1l0,0l0,0c0.2,0.1,0.3,0.3,0.5,0.4
	c0.2,0.1,0.4,0.2,0.6,0.3c0.2,0.1,0.4,0.2,0.6,0.2c0.2,0,0.3,0.1,0.5,0.1c0.2,0,0.4,0,0.6-0.1c0.2-0.1,0.4-0.1,0.5-0.3
	c0.1-0.1,0.3-0.2,0.3-0.4c0.1-0.2,0.1-0.3,0.1-0.5c0-0.2-0.1-0.3-0.2-0.5c-0.1-0.1-0.3-0.3-0.4-0.3c-0.2-0.1-0.4-0.2-0.6-0.3
	l-0.6-0.2c-0.5-0.1-0.9-0.3-1.3-0.5c-0.3-0.2-0.7-0.3-0.9-0.6c-0.2-0.2-0.4-0.5-0.6-0.7c-0.1-0.3-0.2-0.6-0.2-0.9
	c0-0.3,0.1-0.7,0.2-1c0.2-0.3,0.4-0.6,0.7-0.8c0.3-0.2,0.6-0.4,1-0.5c0.4-0.1,0.9-0.2,1.3-0.2c0.4,0,0.8,0.1,1.1,0.2
	c0.4,0.1,0.7,0.3,1.1,0.5l0.3,0.2l0.3,0.2c0.1,0.1,0.1,0.2,0.2,0.2c0,0.1,0.1,0.1,0.1,0.2c0,0.1,0,0.1,0,0.2c0,0-0.1,0.1-0.1,0.1
	l-0.2,0.2l0,0l-0.2,0.2c-0.1,0.1-0.1,0.1-0.2,0.2l-0.2,0.1C144.4,107.7,144.3,107.7,144.3,107.6z"/>
<path class="st0" d="M149.7,105.5c0-0.2,0.1-0.3,0.3-0.3h6c0.1,0,0.2,0,0.2,0.1c0,0.1,0.1,0.1,0.1,0.2v1.1c0,0.1,0,0.1-0.1,0.2
	c-0.1,0.1-0.2,0.1-0.2,0.1h-4.4v1.9h3.4c0.1,0,0.1,0,0.2,0c0,0.1,0.1,0.1,0.1,0.2v1.1c0,0.1,0,0.1-0.1,0.2c0,0.1-0.1,0.1-0.2,0.1
	h-3.4v2.2h4.5c0.1,0,0.2,0,0.2,0.1c0,0.1,0.1,0.1,0.1,0.2v1.1c0,0.1-0.1,0.2-0.2,0.3c0,0,0,0-0.1,0H150c-0.1,0-0.1,0-0.2-0.1
	c-0.1,0-0.1-0.1-0.1-0.2L149.7,105.5z"/>
<path class="st0" d="M165.5,107.6c0,0-0.1,0-0.1,0l-0.2-0.1l0,0c-0.1-0.1-0.2-0.2-0.3-0.3c-0.1-0.1-0.3-0.2-0.4-0.3
	c-0.2-0.1-0.3-0.2-0.5-0.2c-0.2-0.1-0.4-0.1-0.5-0.1c-0.2,0-0.4,0-0.6,0.1c-0.2,0-0.3,0.1-0.4,0.2c-0.1,0.1-0.2,0.2-0.3,0.3
	c-0.1,0.1-0.1,0.3-0.1,0.4c0,0.1,0,0.3,0.1,0.4c0.1,0.1,0.2,0.2,0.4,0.3c0.2,0.1,0.4,0.2,0.6,0.2l0.6,0.2l0.8,0.3
	c0.2,0.1,0.5,0.2,0.7,0.3c0.2,0.1,0.4,0.2,0.6,0.4c0.2,0.1,0.4,0.3,0.5,0.5c0.2,0.2,0.3,0.4,0.4,0.6c0.1,0.2,0.1,0.5,0.1,0.8
	c0,0.4-0.1,0.8-0.3,1.2c-0.2,0.4-0.4,0.7-0.8,0.9c-0.3,0.3-0.7,0.5-1.1,0.6c-0.8,0.2-1.6,0.3-2.3,0.1c-0.3-0.1-0.6-0.2-0.9-0.3
	c-0.3-0.1-0.6-0.3-0.8-0.5c-0.3-0.2-0.5-0.4-0.7-0.6l0,0l0,0c-0.1-0.1-0.1-0.2-0.1-0.3c0,0,0-0.1,0-0.1c0-0.1,0.1-0.1,0.1-0.1
	l0.2-0.2l0.2-0.2l0.2-0.2l0.2-0.1c0,0,0.1,0,0.1,0c0.1,0,0.1,0,0.2,0c0,0,0.1,0.1,0.1,0.1l0,0l0,0c0.1,0.1,0.3,0.3,0.5,0.4
	c0.2,0.1,0.4,0.2,0.6,0.3c0.2,0.1,0.4,0.2,0.6,0.2c0.2,0,0.4,0.1,0.5,0.1c0.2,0,0.4,0,0.6-0.1c0.2-0.1,0.4-0.1,0.5-0.3
	c0.1-0.1,0.3-0.2,0.3-0.4c0.1-0.1,0.1-0.3,0.1-0.5c0-0.2-0.1-0.3-0.2-0.5c-0.1-0.1-0.3-0.3-0.4-0.3c-0.2-0.1-0.4-0.2-0.6-0.3
	l-0.6-0.2c-0.4-0.1-0.9-0.3-1.3-0.5c-0.3-0.1-0.7-0.3-0.9-0.6c-0.2-0.2-0.4-0.5-0.6-0.7c-0.1-0.3-0.2-0.6-0.2-0.9
	c0-0.7,0.3-1.4,0.9-1.9c0.3-0.2,0.6-0.4,1-0.5c0.8-0.2,1.7-0.2,2.5,0c0.4,0.1,0.7,0.3,1.1,0.5c0.1,0.1,0.2,0.1,0.3,0.2l0.3,0.2
	c0.1,0.1,0.1,0.2,0.2,0.2c0,0.1,0.1,0.1,0.1,0.2c0,0.1,0,0.1,0,0.2c0,0-0.1,0.1-0.1,0.1l-0.2,0.2l0,0l-0.2,0.2l-0.2,0.2l-0.2,0.1
	C165.6,107.7,165.6,107.6,165.5,107.6z"/>
<path class="st0" d="M170.9,105.5c0-0.1,0-0.1,0.1-0.2c0.1-0.1,0.1-0.1,0.2-0.1h1.2c0.1,0,0.1,0,0.2,0.1c0.1,0,0.1,0.1,0.1,0.2v8.6
	c0,0.2-0.1,0.3-0.3,0.3h-1.2c-0.1,0-0.3-0.1-0.3-0.2c0,0,0,0,0-0.1V105.5z"/>
<path class="st0" d="M176.6,105.5c0-0.1,0-0.1,0.1-0.2c0.1,0,0.1-0.1,0.2-0.1h6.5c0.1,0,0.1,0,0.2,0.1c0.1,0,0.1,0.1,0.1,0.2v1.1
	c0,0.1,0,0.2-0.1,0.2c-0.1,0.1-0.1,0.1-0.2,0.1H181v7.2c0,0.1,0,0.1-0.1,0.2c-0.1,0.1-0.1,0.1-0.2,0.1h-1.2c-0.1,0-0.1,0-0.2-0.1
	c-0.1,0-0.1-0.1-0.1-0.2v-7.2h-2.4c-0.1,0-0.1,0-0.2-0.1c-0.1-0.1-0.1-0.1-0.1-0.2L176.6,105.5z"/>
<path class="st0" d="M187,105.5c0-0.1,0-0.1,0.1-0.2c0.1,0,0.1-0.1,0.2-0.1h6.5c0.1,0,0.2,0,0.2,0.1c0.1,0.1,0.1,0.1,0.1,0.2v1.1
	c0,0.1,0,0.2-0.1,0.2c-0.1,0.1-0.1,0.1-0.2,0.1h-2.3v7.2c0,0.1,0,0.1-0.1,0.2c-0.1,0.1-0.1,0.1-0.2,0.1h-1.2c-0.1,0-0.1,0-0.2-0.1
	c-0.1,0-0.1-0.1-0.1-0.2v-7.2h-2.4c-0.1,0-0.1,0-0.2-0.1c-0.1-0.1-0.1-0.1-0.1-0.2L187,105.5z"/>
<path class="st0" d="M198,105.5c0-0.1,0-0.1,0.1-0.2c0.1-0.1,0.1-0.1,0.2-0.1h1.2c0.1,0,0.1,0,0.2,0.1c0.1,0,0.1,0.1,0.1,0.2v8.6
	c0,0.2-0.1,0.3-0.3,0.3h-1.2c-0.1,0-0.3-0.1-0.3-0.2c0,0,0,0,0-0.1V105.5z"/>
<path class="st0" d="M204.3,105.5c0-0.1,0-0.1,0.1-0.2c0-0.1,0.1-0.1,0.2-0.1h1.5c0.1,0,0.1,0,0.2,0c0.1,0,0.1,0.1,0.1,0.1l2.1,3
	l2.1,3v-5.9c0-0.1,0-0.1,0.1-0.2c0.1,0,0.1-0.1,0.2-0.1h1.2c0.1,0,0.2,0,0.2,0.1c0.1,0,0.1,0.1,0.1,0.2v8.6c0,0.2-0.1,0.3-0.3,0.3
	h-1.3c-0.1,0-0.2-0.1-0.3-0.2l-2.2-3.2l-2.1-3.1v6.2c0,0.1,0,0.1-0.1,0.2c-0.1,0.1-0.1,0.1-0.2,0.1h-1.2c-0.1,0-0.2,0-0.2-0.1
	c0-0.1-0.1-0.1-0.1-0.2V105.5z"/>
<path class="st0" d="M222.4,110.5c0-0.1,0-0.1,0.1-0.2c0.1-0.1,0.1-0.1,0.2-0.1h1c0.1,0,0.1,0,0.2,0.1c0.1,0,0.1,0.1,0.1,0.2v2.8
	c0,0,0,0.1,0,0.1c0,0.1-0.1,0.1-0.1,0.1l0,0c-0.2,0.1-0.4,0.3-0.6,0.4c-0.2,0.1-0.5,0.2-0.7,0.3c-0.2,0.1-0.5,0.1-0.8,0.2
	c-0.3,0-0.5,0.1-0.8,0.1c-0.4,0-0.8-0.1-1.3-0.2c-0.4-0.1-0.8-0.3-1.1-0.5c-0.3-0.2-0.7-0.5-0.9-0.7c-0.3-0.3-0.5-0.6-0.7-1
	c-0.2-0.4-0.4-0.7-0.5-1.1c-0.2-0.8-0.2-1.7,0-2.5c0.3-1.2,1.1-2.2,2.2-2.8c0.3-0.2,0.7-0.4,1.1-0.5c0.4-0.1,0.8-0.2,1.3-0.2
	c0.3,0,0.6,0,0.9,0.1c0.3,0,0.6,0.1,0.8,0.2l0.4,0.2l0.4,0.2l0.3,0.2c0.1,0.1,0.1,0.1,0.1,0.2c0,0.1,0,0.1-0.1,0.2l-0.1,0.2
	c-0.1,0.1-0.1,0.2-0.2,0.3l-0.2,0.3l-0.2,0.2c-0.1,0.1-0.1,0.1-0.1,0.1h-0.1c0,0-0.1,0-0.1-0.1c-0.3-0.2-0.6-0.3-0.9-0.4
	c-0.3-0.1-0.7-0.2-1-0.2c-0.4,0-0.8,0.1-1.2,0.3c-0.4,0.2-0.7,0.4-0.9,0.7c-0.5,0.6-0.8,1.3-0.8,2.1c0,0.4,0.1,0.8,0.2,1.2
	c0.1,0.4,0.4,0.7,0.6,1c0.3,0.3,0.6,0.5,1,0.7c0.4,0.2,0.8,0.2,1.1,0.2c0.1,0,0.3,0,0.4,0l0.4-0.1l0.4-0.1c0.1,0,0.2-0.1,0.3-0.1
	L222.4,110.5z"/>
</svg>
