<svg id="Laag_1" data-name="Laag 1" xmlns="http://www.w3.org/2000/svg" viewBox="0 0 56.69 56.69"><defs><style>.cls-1{fill:#fff;}</style></defs><title>Naamloos-1</title><path class="cls-1" d="M28.11,11.19a17.07,17.07,0,0,1,12.53,5.17A17,17,0,0,1,45.8,28.85a17.13,17.13,0,0,1-5.16,12.53,17,17,0,0,1-12.53,5.2,17,17,0,0,1-12.54-5.2,17.13,17.13,0,0,1-5.16-12.53,17,17,0,0,1,5.16-12.49A17.08,17.08,0,0,1,28.11,11.19ZM29.29,33A4.71,4.71,0,0,0,34,30.66a8.66,8.66,0,0,0,1.26-6,5.41,5.41,0,0,0-2.73-4.06,8.28,8.28,0,0,0-5.38-1,7.48,7.48,0,0,0-4.31,2.06,6,6,0,0,0-2,4.35q-.15,3.69,2.58,4.28a2.9,2.9,0,0,0,.33-1.22,2.2,2.2,0,0,0-.37-.88,2.93,2.93,0,0,1-.4-1,4.77,4.77,0,0,1,2.87-5.3q3.41-1.77,5.83.66c1.18,1.18,1.42,3,.74,5.45s-1.9,3.52-3.62,3.17c-1-.19-1.38-.86-1.21-2A13,13,0,0,1,28.51,26a1.54,1.54,0,0,0-.77-2.21c-1-.44-1.83,0-2.4,1.22a3.31,3.31,0,0,0,0,3.28q-.15.73-.78,3.06a19,19,0,0,0-.66,3.21c0,.58,0,1.79,0,3.61,1.28-.94,2.23-3,2.87-6.34A6.72,6.72,0,0,0,29.29,33Z"/></svg>