<svg id="Laag_1" data-name="Laag 1" xmlns="http://www.w3.org/2000/svg" viewBox="0 0 267.46 133.46"><defs><style>.cls-1{fill:#fff;}</style></defs><title>logo happyhousesiting</title><path class="cls-1" d="M14.2,13.57a1.7,1.7,0,0,1,.4-1,1.22,1.22,0,0,1,1-.43h9.5a1.6,1.6,0,0,1,1,.4,1.22,1.22,0,0,1,.51,1V28.77h15.9V13.58a1.38,1.38,0,0,1,1.43-1.41h9.35a1.94,1.94,0,0,1,1.12.32,1.15,1.15,0,0,1,.47,1V58.25a1.34,1.34,0,0,1-.41,1.06,1.66,1.66,0,0,1-1.09.35H43.91a1.51,1.51,0,0,1-1-.35,1.34,1.34,0,0,1-.4-1.06V40.09H26.58V58.25a1.27,1.27,0,0,1-.43,1,1.73,1.73,0,0,1-1.17.37h-9.4c-.9,0-1.35-.42-1.38-1.25Z"/><path class="cls-1" d="M78.9,13.41a.94.94,0,0,1,.21-.41,2.45,2.45,0,0,1,.43-.42,2,2,0,0,1,.55-.3,1.37,1.37,0,0,1,.54-.11h8.19a1.35,1.35,0,0,1,.92.33,4.45,4.45,0,0,1,.58.59l.8,1.83,16.79,43.3a1,1,0,0,1-.09,1,1.56,1.56,0,0,1-1.22.4H97.42a2,2,0,0,1-1.13-.27,1.77,1.77,0,0,1-.63-.91c-.42-1.09-.84-2.17-1.25-3.25S93.6,53.07,93.2,52h-17c-.41,1.09-.82,2.18-1.23,3.25s-.83,2.16-1.24,3.25a1.59,1.59,0,0,1-1.63,1.18H62.69a1.58,1.58,0,0,1-1-.32c-.27-.21-.31-.53-.14-1ZM84.72,27.1c-.4,1.09-.81,2.26-1.23,3.52s-.82,2.53-1.23,3.81S81.45,37,81,38.22s-.83,2.41-1.23,3.5h9.82Z"/><path class="cls-1" d="M113.67,13.64a1.52,1.52,0,0,1,.35-1.07,1.31,1.31,0,0,1,1-.4h20.44a13.77,13.77,0,0,1,4.16.61,14.14,14.14,0,0,1,3.58,1.67A14.62,14.62,0,0,1,146.19,17a16.39,16.39,0,0,1,2.23,3.22,16.6,16.6,0,0,1,1.39,3.63,15.68,15.68,0,0,1,.48,3.85,15.85,15.85,0,0,1-1,5.63,15.62,15.62,0,0,1-3,4.89,15,15,0,0,1-4.61,3.47,13.44,13.44,0,0,1-5.94,1.36H126V58.29c0,.91-.49,1.37-1.47,1.37h-9.5a1.48,1.48,0,0,1-1-.34,1.31,1.31,0,0,1-.38-1Zm24.08,14a5.64,5.64,0,0,0-.34-1.92,5.16,5.16,0,0,0-1-1.71,5.05,5.05,0,0,0-1.55-1.23,4.38,4.38,0,0,0-2.06-.48H126V33h6.79a4.54,4.54,0,0,0,2.07-.47,4.79,4.79,0,0,0,1.56-1.2,5.28,5.28,0,0,0,.95-1.69A5.81,5.81,0,0,0,137.75,27.65Z"/><path class="cls-1" d="M156.62,13.64a1.57,1.57,0,0,1,.35-1.07,1.34,1.34,0,0,1,1.06-.4h20.43a13.77,13.77,0,0,1,4.16.61,14,14,0,0,1,3.58,1.67A14.62,14.62,0,0,1,189.14,17a16.39,16.39,0,0,1,2.23,3.22,16.6,16.6,0,0,1,1.39,3.63,15.68,15.68,0,0,1,.48,3.85,15.85,15.85,0,0,1-1,5.63,15.43,15.43,0,0,1-3,4.89,14.89,14.89,0,0,1-4.61,3.47,13.44,13.44,0,0,1-5.94,1.36H169V58.29c0,.91-.5,1.37-1.48,1.37H158a1.49,1.49,0,0,1-1-.34,1.31,1.31,0,0,1-.38-1Zm24.08,14a5.87,5.87,0,0,0-.33-1.92,5.37,5.37,0,0,0-1-1.71,5.05,5.05,0,0,0-1.55-1.23,4.38,4.38,0,0,0-2.06-.48H169V33h6.78a4.61,4.61,0,0,0,2.08-.47,4.85,4.85,0,0,0,1.55-1.2,5.5,5.5,0,0,0,1-1.69A6,6,0,0,0,180.7,27.65Z"/><path class="cls-1" d="M217.59,29.69l7.73-16.53a4.05,4.05,0,0,1,.31-.56,1.06,1.06,0,0,1,.26-.26.72.72,0,0,1,.27-.09,1.81,1.81,0,0,0,.34-.08h12.31a.48.48,0,0,1,.51.48,1.27,1.27,0,0,1-.44.8L223.72,40.28V58.16a1.31,1.31,0,0,1-1.47,1.5h-9.57a1.23,1.23,0,0,1-1-.4,1.61,1.61,0,0,1-.35-1.1V40.21L196.21,13.45a1.17,1.17,0,0,1-.41-.8.52.52,0,0,1,.12-.34.45.45,0,0,1,.36-.14h12.31a2.66,2.66,0,0,0,.35.08.67.67,0,0,1,.26.09,1,1,0,0,1,.25.26,6.06,6.06,0,0,1,.35.56Z"/><path class="cls-1" d="M13.83,65.72a1.57,1.57,0,0,1,.39-.94,1.18,1.18,0,0,1,.94-.41H24.3a1.57,1.57,0,0,1,1,.39,1.15,1.15,0,0,1,.49,1V80.35H41.06V65.73a1.33,1.33,0,0,1,1.38-1.36h9a1.82,1.82,0,0,1,1.07.31,1.08,1.08,0,0,1,.46,1v43.08a1.24,1.24,0,0,1-.4,1,1.52,1.52,0,0,1-1,.34H42.44a1.44,1.44,0,0,1-1-.34,1.26,1.26,0,0,1-.38-1V91.25H25.75v17.49a1.25,1.25,0,0,1-.42,1,1.69,1.69,0,0,1-1.12.35h-9c-.87,0-1.31-.4-1.33-1.2Z"/><path class="cls-1" d="M60.92,87.28A23.65,23.65,0,0,1,61.75,81a23.63,23.63,0,0,1,6.06-10.42,22.69,22.69,0,0,1,4.76-3.68,23.72,23.72,0,0,1,5.62-2.37,23.51,23.51,0,0,1,12.53,0,23.87,23.87,0,0,1,5.64,2.37,23.28,23.28,0,0,1,4.77,3.68,22.79,22.79,0,0,1,3.68,4.79A24.43,24.43,0,0,1,107.19,81a23.55,23.55,0,0,1,0,12.54,23.84,23.84,0,0,1-2.38,5.6,22.5,22.5,0,0,1-3.68,4.74A23.37,23.37,0,0,1,90.72,110a23.55,23.55,0,0,1-18.15-2.37,23.34,23.34,0,0,1-11.65-20.3Zm11.92,0A12.91,12.91,0,0,0,73.7,92a11.83,11.83,0,0,0,2.41,3.87,11.13,11.13,0,0,0,3.68,2.58,11.33,11.33,0,0,0,4.67.94,11.46,11.46,0,0,0,4.69-.94,11,11,0,0,0,3.69-2.58A11.85,11.85,0,0,0,95.26,92a13.63,13.63,0,0,0,0-9.53,11.84,11.84,0,0,0-2.42-3.89A11.07,11.07,0,0,0,89.15,76a11.3,11.3,0,0,0-4.69-1,11.24,11.24,0,0,0-8.35,3.58,11.81,11.81,0,0,0-2.41,3.89A13,13,0,0,0,72.84,87.25Z"/><path class="cls-1" d="M127.31,91.86a10.31,10.31,0,0,0,.64,3.87,7.27,7.27,0,0,0,1.66,2.59A6.16,6.16,0,0,0,132,99.78a8.83,8.83,0,0,0,2.85.47,7.93,7.93,0,0,0,2.92-.54,6.85,6.85,0,0,0,2.41-1.61,7.72,7.72,0,0,0,1.63-2.63,10.08,10.08,0,0,0,.6-3.61V65.73a1.35,1.35,0,0,1,1.42-1.36h9a1.5,1.5,0,0,1,1.11.41,1.33,1.33,0,0,1,.4.94v26a23,23,0,0,1-1.58,9.06,15.59,15.59,0,0,1-4.27,5.9,16.5,16.5,0,0,1-6.2,3.2,28.14,28.14,0,0,1-7.41,1,27.41,27.41,0,0,1-7.42-1,16.43,16.43,0,0,1-6.22-3.27,15.87,15.87,0,0,1-4.27-5.91,22.36,22.36,0,0,1-1.59-8.95v-26a1.42,1.42,0,0,1,.36-.94,1.11,1.11,0,0,1,.87-.41h9.22a1.66,1.66,0,0,1,1,.38,1.2,1.2,0,0,1,.5,1Z"/><path class="cls-1" d="M169,95.32c.35.29.8.67,1.34,1.15a17.42,17.42,0,0,0,1.86,1.44,16.35,16.35,0,0,0,3.11,1.63,9.07,9.07,0,0,0,3.24.58,8.33,8.33,0,0,0,2.63-.35,4.48,4.48,0,0,0,1.68-.94,3.4,3.4,0,0,0,.88-1.35,5.2,5.2,0,0,0,.26-1.63,2.37,2.37,0,0,0-.73-1.71,7.22,7.22,0,0,0-1.77-1.34,15.36,15.36,0,0,0-2.18-1c-.76-.28-1.42-.51-2-.69a44.18,44.18,0,0,1-6.47-2.79A19.72,19.72,0,0,1,166.3,85a12,12,0,0,1-3.7-8.94,11.31,11.31,0,0,1,4.45-9.2,15.8,15.8,0,0,1,5.16-2.57,23.55,23.55,0,0,1,6.75-.91,22.5,22.5,0,0,1,5.37.63,21.2,21.2,0,0,1,5.07,2c.69.41,1.36.84,2,1.28A19.51,19.51,0,0,1,193,68.59a7.46,7.46,0,0,1,1.12,1.17,1.7,1.7,0,0,1,.42.95,1.44,1.44,0,0,1-.2.74,4.29,4.29,0,0,1-.6.77l-4.71,5a1.52,1.52,0,0,1-1.05.53,1.34,1.34,0,0,1-.78-.25c-.24-.17-.5-.37-.79-.62l-.28-.24c-.41-.35-.86-.71-1.37-1.08a11.43,11.43,0,0,0-1.61-1,10.68,10.68,0,0,0-1.82-.74,6.43,6.43,0,0,0-1.94-.29,9.63,9.63,0,0,0-1.91.17,5.37,5.37,0,0,0-1.57.53,3.07,3.07,0,0,0-1.08,1,2.85,2.85,0,0,0,0,3,4.29,4.29,0,0,0,1.3,1.17,11.6,11.6,0,0,0,2.14,1c.85.32,1.84.66,3,1q3.25,1.08,6,2.26a20.48,20.48,0,0,1,4.76,2.81,11.52,11.52,0,0,1,3.12,3.86,12.06,12.06,0,0,1,1.13,5.45,13.49,13.49,0,0,1-1.39,6.14,14,14,0,0,1-3.8,4.7,18,18,0,0,1-5.69,3,22.45,22.45,0,0,1-7,1.07,20,20,0,0,1-7-1.27,26.55,26.55,0,0,1-6.37-3.4,16.18,16.18,0,0,1-2.08-1.76c-.57-.58-1-1-1.34-1.39l-.09-.09a.18.18,0,0,0-.06-.08l-.07,0a.14.14,0,0,0-.06-.08l-.06,0a2.15,2.15,0,0,1-.71-1.23,1.79,1.79,0,0,1,.71-1.18L166.67,95a2,2,0,0,1,1.05-.46,1.15,1.15,0,0,1,.58.18A6,6,0,0,1,169,95.32Z"/><path class="cls-1" d="M203.68,65.78a1.45,1.45,0,0,1,.36-1,1.3,1.3,0,0,1,1-.38h30.55a1.36,1.36,0,0,1,1,.4,1.52,1.52,0,0,1,.36,1.07v7.62a1.64,1.64,0,0,1-.36,1,1.31,1.31,0,0,1-1.08.47h-20v7.64H231a1.59,1.59,0,0,1,1,.28,1,1,0,0,1,.39.92v6.65a1.29,1.29,0,0,1-.34.83,1.23,1.23,0,0,1-1,.4H215.6v7.89h20.7a1.23,1.23,0,0,1,1.38,1.41v7.74a.77.77,0,0,1-.24.55c-.09.57-.51.86-1.27.86H205a1.49,1.49,0,0,1-1-.32,1.29,1.29,0,0,1-.37-1Z"/><path class="cls-1" d="M247.71,100.87l4.75,2.87,0,4.78H246.1l-.1-5.07,0-.06,0-.08,1.67-2.44m-.18-1.7a.82.82,0,0,0-.7.35l-2.15,3.14-.17.58.11,5.86a1,1,0,0,0,1,.91h7.27a1,1,0,0,0,1-.92l0-5.69a.88.88,0,0,0-.45-.76L248,99.29a.93.93,0,0,0-.46-.12Z"/><path class="cls-1" d="M114.87,116.46a.34.34,0,0,1,.07-.19.26.26,0,0,1,.2-.08h1.23a.25.25,0,0,1,.19.08.26.26,0,0,1,.1.19v3.2h4.14v-3.2a.26.26,0,0,1,.07-.19.23.23,0,0,1,.2-.08h1.21a.31.31,0,0,1,.21.07.23.23,0,0,1,.09.19v8.63c0,.18-.1.27-.29.27h-1.22a.24.24,0,0,1-.27-.27v-3.73h-4.14v3.73c0,.18-.1.27-.31.27h-1.21c-.18,0-.27-.08-.27-.25Z"/><path class="cls-1" d="M126.68,120.78a4.81,4.81,0,0,1,.64-2.38,4.92,4.92,0,0,1,.74-1,4.55,4.55,0,0,1,2.08-1.21,4.73,4.73,0,0,1,1.26-.17,4.64,4.64,0,0,1,1.24.17,4.72,4.72,0,0,1,1.13.47,4.92,4.92,0,0,1,1,.74,4.87,4.87,0,0,1,.73,1,4.37,4.37,0,0,1,.48,1.13,4.72,4.72,0,0,1,0,2.51,4.46,4.46,0,0,1-.48,1.12,4.67,4.67,0,0,1-1.69,1.69,4.75,4.75,0,0,1-3.64.47,4.46,4.46,0,0,1-1.12-.48,4.87,4.87,0,0,1-1-.73,4.8,4.8,0,0,1-.73-1,4.81,4.81,0,0,1-.64-2.38Zm1.78,0a3,3,0,0,0,.23,1.16,2.89,2.89,0,0,0,1.54,1.58,2.9,2.9,0,0,0,2.31,0,2.89,2.89,0,0,0,.93-.63,3,3,0,0,0,.62-.95,3.17,3.17,0,0,0,0-2.32,3,3,0,0,0-.62-1,2.91,2.91,0,0,0-.93-.64,3,3,0,0,0-2.31,0,3,3,0,0,0-.92.64,3,3,0,0,0-.62,1A3,3,0,0,0,128.46,120.77Z"/><path class="cls-1" d="M141.91,121.63a2.67,2.67,0,0,0,.15.93,2.09,2.09,0,0,0,.41.7,1.83,1.83,0,0,0,.65.44,2.19,2.19,0,0,0,.83.15,2.13,2.13,0,0,0,.86-.16,1.65,1.65,0,0,0,.64-.45,2.07,2.07,0,0,0,.41-.71,2.83,2.83,0,0,0,.14-.9v-5.17a.24.24,0,0,1,.08-.19.24.24,0,0,1,.2-.08h1.19a.29.29,0,0,1,.22.08.25.25,0,0,1,.09.19v5.24a4.11,4.11,0,0,1-.31,1.67,3.53,3.53,0,0,1-.83,1.19,3.62,3.62,0,0,1-1.22.71,4.82,4.82,0,0,1-1.48.23,4.24,4.24,0,0,1-1.47-.25,3.67,3.67,0,0,1-1.22-.73,3.4,3.4,0,0,1-.83-1.19,4,4,0,0,1-.31-1.63v-5.24a.28.28,0,0,1,.07-.19.25.25,0,0,1,.18-.08h1.26a.26.26,0,0,1,.19.08.23.23,0,0,1,.1.19Z"/><path class="cls-1" d="M157.3,118.63a.28.28,0,0,1-.15,0,1.12,1.12,0,0,1-.15-.11h0a1.65,1.65,0,0,0-.3-.26,2.42,2.42,0,0,0-.41-.27,3.61,3.61,0,0,0-.49-.21,2,2,0,0,0-.54-.08,2.27,2.27,0,0,0-.61.07,2,2,0,0,0-.44.21,1,1,0,0,0-.27.31.86.86,0,0,0-.09.39.59.59,0,0,0,.13.39,1.27,1.27,0,0,0,.38.29,3.13,3.13,0,0,0,.55.24l.65.21.77.26c.25.09.49.19.73.3a4.61,4.61,0,0,1,.65.38,2.6,2.6,0,0,1,.52.47,2.25,2.25,0,0,1,.35.6,2.19,2.19,0,0,1,.12.75,2.69,2.69,0,0,1-.27,1.21,2.8,2.8,0,0,1-.75.93,3.42,3.42,0,0,1-1.12.59,4.45,4.45,0,0,1-1.39.21,4.24,4.24,0,0,1-.94-.11,4.86,4.86,0,0,1-1.72-.81,3.83,3.83,0,0,1-.69-.64h0v0a.46.46,0,0,1-.14-.28.28.28,0,0,1,0-.13.45.45,0,0,1,.11-.14l.2-.2.2-.18.21-.18a1.86,1.86,0,0,1,.2-.14.34.34,0,0,1,.14,0,.3.3,0,0,1,.16,0l.13.11,0,0h0a3.81,3.81,0,0,0,.49.39,6.16,6.16,0,0,0,.55.33,3.4,3.4,0,0,0,.57.23,2,2,0,0,0,.52.08,2.61,2.61,0,0,0,.64-.08,1.52,1.52,0,0,0,.51-.25,1.12,1.12,0,0,0,.34-.38,1,1,0,0,0,.12-.49.71.71,0,0,0-.16-.47,1.33,1.33,0,0,0-.42-.34,3.48,3.48,0,0,0-.58-.25l-.65-.19a10.83,10.83,0,0,1-1.32-.5,3.88,3.88,0,0,1-.94-.59,2.17,2.17,0,0,1-.56-.74,2.13,2.13,0,0,1-.19-.92,2.38,2.38,0,0,1,.23-1,2.15,2.15,0,0,1,.66-.81,3.06,3.06,0,0,1,1-.52,4.34,4.34,0,0,1,1.34-.19,4.2,4.2,0,0,1,1.14.17,4.41,4.41,0,0,1,1.08.49l.3.21.28.23a1.44,1.44,0,0,1,.21.24.35.35,0,0,1,.09.19.53.53,0,0,1,0,.16.6.6,0,0,1-.09.13l-.19.2h0l-.19.21a1.8,1.8,0,0,1-.2.19l-.17.14A.34.34,0,0,1,157.3,118.63Z"/><path class="cls-1" d="M162.71,116.48c0-.19.09-.29.27-.29h6a.25.25,0,0,1,.22.09.32.32,0,0,1,.07.22v1.09a.29.29,0,0,1-.07.2.31.31,0,0,1-.24.09h-4.38v1.87h3.38a.26.26,0,0,1,.2,0,.32.32,0,0,1,.07.22v1.12a.31.31,0,0,1-.06.19.23.23,0,0,1-.2.09h-3.39v2.24h4.54a.27.27,0,0,1,.23.08.32.32,0,0,1,.06.22v1.13a.24.24,0,0,1-.27.26H163a.29.29,0,0,1-.19-.06.22.22,0,0,1-.08-.2Z"/><path class="cls-1" d="M178.51,118.63a.23.23,0,0,1-.14,0l-.16-.11h0a2.81,2.81,0,0,0-.3-.26,2.52,2.52,0,0,0-.42-.27,3.14,3.14,0,0,0-.49-.21,1.89,1.89,0,0,0-.53-.08,2.22,2.22,0,0,0-.61.07,1.89,1.89,0,0,0-.45.21,1.31,1.31,0,0,0-.27.31.86.86,0,0,0-.09.39.6.6,0,0,0,.14.39,1.22,1.22,0,0,0,.37.29,3.5,3.5,0,0,0,.55.24l.65.21.77.26a7,7,0,0,1,.73.3,4.61,4.61,0,0,1,.65.38,2.35,2.35,0,0,1,.52.47,2,2,0,0,1,.35.6,2.18,2.18,0,0,1,.13.75,2.57,2.57,0,0,1-.28,1.21,2.8,2.8,0,0,1-.75.93,3.32,3.32,0,0,1-1.12.59,4.43,4.43,0,0,1-2.33.1,4.82,4.82,0,0,1-.9-.32,4.56,4.56,0,0,1-.82-.49,4.13,4.13,0,0,1-.68-.64h0l0,0a.44.44,0,0,1-.13-.28.28.28,0,0,1,0-.13.75.75,0,0,1,.12-.14l.2-.2.2-.18.21-.18.19-.14a.37.37,0,0,1,.15,0,.33.33,0,0,1,.16,0,.65.65,0,0,1,.12.11l0,0h0a3.14,3.14,0,0,0,.48.39,6.32,6.32,0,0,0,.56.33,3,3,0,0,0,.56.23,2.07,2.07,0,0,0,.53.08,2.53,2.53,0,0,0,.63-.08,1.67,1.67,0,0,0,.52-.25,1.1,1.1,0,0,0,.33-.38.92.92,0,0,0,.13-.49.76.76,0,0,0-.16-.47,1.6,1.6,0,0,0-.42-.34,3.61,3.61,0,0,0-.59-.25l-.65-.19a10.05,10.05,0,0,1-1.31-.5,3.69,3.69,0,0,1-.94-.59,2.34,2.34,0,0,1-.57-.74,2.29,2.29,0,0,1-.19-.92,2.29,2.29,0,0,1,.89-1.86,3.12,3.12,0,0,1,1-.52,4.36,4.36,0,0,1,2.48,0,4.52,4.52,0,0,1,1.07.49,2.73,2.73,0,0,1,.3.21l.29.23c.08.09.15.16.21.24a.41.41,0,0,1,.08.19.34.34,0,0,1,0,.16.38.38,0,0,1-.09.13l-.18.2h0l-.19.21-.2.19-.18.14A.3.3,0,0,1,178.51,118.63Z"/><path class="cls-1" d="M183.93,116.46a.31.31,0,0,1,.06-.19.25.25,0,0,1,.21-.08h1.22a.32.32,0,0,1,.2.07.25.25,0,0,1,.09.2v8.62c0,.18-.1.27-.29.27H184.2a.24.24,0,0,1-.27-.27Z"/><path class="cls-1" d="M189.6,116.46a.24.24,0,0,1,.08-.2.27.27,0,0,1,.2-.07h6.49a.31.31,0,0,1,.2.07.26.26,0,0,1,.1.2v1.08a.36.36,0,0,1-.07.22.3.3,0,0,1-.23.09H194v7.22a.32.32,0,0,1-.08.2.29.29,0,0,1-.21.08h-1.22a.27.27,0,0,1-.2-.08.25.25,0,0,1-.09-.2v-7.22h-2.35a.28.28,0,0,1-.2-.08.28.28,0,0,1-.08-.23Z"/><path class="cls-1" d="M200,116.46a.28.28,0,0,1,.08-.2.27.27,0,0,1,.2-.07h6.49a.31.31,0,0,1,.21.07.3.3,0,0,1,.1.2v1.08a.37.37,0,0,1-.08.22.29.29,0,0,1-.23.09h-2.34v7.22a.32.32,0,0,1-.08.2.29.29,0,0,1-.21.08h-1.22a.27.27,0,0,1-.2-.08.25.25,0,0,1-.09-.2v-7.22h-2.35a.28.28,0,0,1-.2-.08.32.32,0,0,1-.08-.23Z"/><path class="cls-1" d="M211,116.46a.31.31,0,0,1,.06-.19.25.25,0,0,1,.21-.08h1.22a.32.32,0,0,1,.2.07.25.25,0,0,1,.09.2v8.62c0,.18-.1.27-.29.27h-1.22a.24.24,0,0,1-.27-.27Z"/><path class="cls-1" d="M217.26,116.47a.27.27,0,0,1,.07-.2.23.23,0,0,1,.2-.08H219a.29.29,0,0,1,.16,0,.53.53,0,0,1,.14.12l2.09,3,2.09,3v-5.91a.32.32,0,0,1,.1-.17.28.28,0,0,1,.18-.06h1.19a.31.31,0,0,1,.21.07.25.25,0,0,1,.09.2v8.64c0,.17-.1.25-.29.25h-1.34a.31.31,0,0,1-.25-.16L221.15,122,219,118.89v6.19a.24.24,0,0,1-.07.2.26.26,0,0,1-.22.07h-1.18a.27.27,0,0,1-.21-.07.29.29,0,0,1-.06-.19Z"/><path class="cls-1" d="M235.36,121.52a.32.32,0,0,1,.07-.2.26.26,0,0,1,.2-.07h1a.31.31,0,0,1,.2.07.25.25,0,0,1,.09.2v2.83a.23.23,0,0,1,0,.14.32.32,0,0,1-.13.13h0a4.89,4.89,0,0,1-.63.36,4.12,4.12,0,0,1-.69.27,6.74,6.74,0,0,1-.75.17,5,5,0,0,1-.77.06,4.71,4.71,0,0,1-1.25-.17,4.52,4.52,0,0,1-1.13-.48,5.11,5.11,0,0,1-.95-.73,4.8,4.8,0,0,1-.73-1,4.37,4.37,0,0,1-.48-1.13,4.68,4.68,0,0,1,0-2.5,4.71,4.71,0,0,1,2.17-2.82,4.46,4.46,0,0,1,1.12-.48,4.73,4.73,0,0,1,1.26-.17,4.27,4.27,0,0,1,.87.08,4,4,0,0,1,.84.23l.37.15.41.2.32.23a.32.32,0,0,1,.13.23.47.47,0,0,1-.05.16l-.14.24c-.06.09-.12.19-.19.28l-.2.27-.18.19c-.06.05-.1.08-.13.08l-.09,0a.27.27,0,0,1-.1-.06,3.43,3.43,0,0,0-.88-.43,3.11,3.11,0,0,0-1-.16,2.82,2.82,0,0,0-1.21.25,2.9,2.9,0,0,0-.95.66,3.25,3.25,0,0,0-.84,2.14,2.93,2.93,0,0,0,.24,1.18,3,3,0,0,0,.64,1,3,3,0,0,0,1,.65,2.82,2.82,0,0,0,1.15.24,2.15,2.15,0,0,0,.45,0l.42-.08.35-.12a1,1,0,0,0,.25-.13Z"/></svg>