<svg id="Laag_1" data-name="Laag 1" xmlns="http://www.w3.org/2000/svg" viewBox="0 0 56.69 56.69"><defs><style>.cls-1{fill:#736de1;}</style></defs><title>logo&amp;apos;s</title><path class="cls-1" d="M9.72,28.89a17.79,17.79,0,0,1,5.42-13,17.6,17.6,0,0,1,13-5.38A18.13,18.13,0,0,1,41.2,15.84a17.3,17.3,0,0,1,5.38,13.05,18.06,18.06,0,0,1-5.38,13,17.84,17.84,0,0,1-13.05,5.38,17.33,17.33,0,0,1-13-5.38A18.6,18.6,0,0,1,9.72,28.89Zm9-4.46,9.43,5.31,9.44-5.31V21.77H18.72Zm0,9.44,4.82-5.06-4.82-2.72Zm0,2.13H37.59l-6.12-6.41-3.32,1.88-3.31-1.88Zm14-7.19,4.83,5.06V26.09Z"/></svg>