<svg xmlns="http://www.w3.org/2000/svg" viewBox="0 0 283.46 283.46"><title>4 kleuren images</title><g id="Laag_1" data-name="Laag 1"><rect x="1.07" y="1" width="283.46" height="283.46" style="fill:#f2f2f2"/></g><g id="Laag_2" data-name="Laag 2"><path d="M46.68,98.79a.39.39,0,0,1,.4-.42h3.09a.5.5,0,0,1,.57.55v14.39a4.54,4.54,0,0,1-.42,1.94,5,5,0,0,1-1.11,1.59,5.1,5.1,0,0,1-1.63,1.06,5,5,0,0,1-1.95.39,5.32,5.32,0,0,1-1.2-.13,4.84,4.84,0,0,1-1.12-.41,5.33,5.33,0,0,1-1-.66,4.39,4.39,0,0,1-.8-.91s0-.06,0-.17a.43.43,0,0,1,.17-.39l1.82-1.72a.94.94,0,0,1,.18-.12.42.42,0,0,1,.18,0,.45.45,0,0,1,.3.11l.31.26a2.63,2.63,0,0,0,.41.26,1.33,1.33,0,0,0,.56.11,1.31,1.31,0,0,0,.47-.09,1.38,1.38,0,0,0,.4-.26,1,1,0,0,0,.28-.37,1,1,0,0,0,.11-.45Z" style="fill:#acacff"/><path d="M64.91,112.37a6.78,6.78,0,0,1-2.08,1.33,6.25,6.25,0,0,1-2.44.48,7.09,7.09,0,0,1-2.72-.53,7.19,7.19,0,0,1-2.25-1.45A7.08,7.08,0,0,1,53.89,110a6.59,6.59,0,0,1-.57-2.74,7.08,7.08,0,0,1,.23-1.79,6.76,6.76,0,0,1,.64-1.62,6.55,6.55,0,0,1,1-1.4,6.24,6.24,0,0,1,1.32-1.08,6.4,6.4,0,0,1,3.42-1,6.38,6.38,0,0,1,1.69.23,7,7,0,0,1,1.54.65,6.73,6.73,0,0,1,1.31,1,6.35,6.35,0,0,1,1,1.29,6.07,6.07,0,0,1,.67,1.49,5.59,5.59,0,0,1,.24,1.63c0,.37,0,.66,0,.89a1.09,1.09,0,0,1-.16.56.81.81,0,0,1-.49.28,4.93,4.93,0,0,1-1,.08H57.19a2.62,2.62,0,0,0,.42,1.12,2.66,2.66,0,0,0,.74.72,2.78,2.78,0,0,0,.89.38,3.72,3.72,0,0,0,.9.12,4.11,4.11,0,0,0,.77-.08,5,5,0,0,0,.78-.21,6.06,6.06,0,0,0,.68-.3,2.6,2.6,0,0,0,.5-.37,1.68,1.68,0,0,1,.28-.2.48.48,0,0,1,.26-.07.46.46,0,0,1,.28.1A2.18,2.18,0,0,1,64,110l1.11,1.26a.61.61,0,0,1,.15.25.78.78,0,0,1,0,.22.61.61,0,0,1-.11.36A1.44,1.44,0,0,1,64.91,112.37Zm-5-8.75a2,2,0,0,0-.79.17,3.12,3.12,0,0,0-.72.43,3.92,3.92,0,0,0-.6.62,3.6,3.6,0,0,0-.44.71h5.37a6.18,6.18,0,0,0-.48-.76,3.41,3.41,0,0,0-.59-.61,2.72,2.72,0,0,0-.75-.41A3,3,0,0,0,59.86,103.62Z" style="fill:#acacff"/><path d="M76.46,100.82A4.17,4.17,0,0,1,76.88,99,5,5,0,0,1,78,97.48a5.5,5.5,0,0,1,1.61-1,5,5,0,0,1,1.91-.37h.21a.73.73,0,0,1,.56.21.84.84,0,0,1,.19.59v2a1,1,0,0,1-.2.64.65.65,0,0,1-.55.26h-.21a1.25,1.25,0,0,0-.42.08,1.15,1.15,0,0,0-.35.22.87.87,0,0,0-.25.32.77.77,0,0,0-.1.4V102h1.65a.74.74,0,0,1,.55.19.85.85,0,0,1,.2.62v1.92a1,1,0,0,1-.2.66.71.71,0,0,1-.55.21H80.41v7.53a.7.7,0,0,1-.27.6.9.9,0,0,1-.58.21H77.29a.78.78,0,0,1-.6-.24.81.81,0,0,1-.23-.57v-7.53H75.38a.84.84,0,0,1-.59-.21.87.87,0,0,1-.23-.66v-1.92a.79.79,0,0,1,.23-.62.87.87,0,0,1,.59-.19h1.08Z" style="fill:#acacff"/><path d="M98,113.19a1,1,0,0,1-.06.34.61.61,0,0,1-.21.26.59.59,0,0,1-.28.15l-.27,0H95.13a.93.93,0,0,1-.36-.06.6.6,0,0,1-.22-.16,1.26,1.26,0,0,1-.14-.26q-.06-.15-.12-.33l-.13-.47a6.05,6.05,0,0,1-.65.55,4.88,4.88,0,0,1-.8.49,5.42,5.42,0,0,1-.93.35,4.49,4.49,0,0,1-1,.13,6.91,6.91,0,0,1-1.83-.24,6.79,6.79,0,0,1-1.64-.69,7.5,7.5,0,0,1-1.38-1.07,6.9,6.9,0,0,1-1.75-3,7.06,7.06,0,0,1-.24-1.85,6.93,6.93,0,0,1,.53-2.71,7.06,7.06,0,0,1,1.46-2.19,6.83,6.83,0,0,1,4.85-2,4.74,4.74,0,0,1,1.22.15,4.61,4.61,0,0,1,1,.4,4.05,4.05,0,0,1,.85.6,5.21,5.21,0,0,1,.66.76l.31-1c.07-.18.12-.32.17-.43a.55.55,0,0,1,.15-.24.32.32,0,0,1,.19-.1,1.42,1.42,0,0,1,.33,0H97.2l.27,0a.51.51,0,0,1,.28.15A.75.75,0,0,1,98,101a.9.9,0,0,1,.06.34Zm-10.34-5.88a4,4,0,0,0,.21,1.3,3.09,3.09,0,0,0,.62,1,2.71,2.71,0,0,0,1,.7,3,3,0,0,0,1.24.26,3.33,3.33,0,0,0,1.31-.26,3.27,3.27,0,0,0,1-.7,3.13,3.13,0,0,0,.7-1,3.34,3.34,0,0,0,.25-1.3,3.28,3.28,0,0,0-.25-1.28,3.35,3.35,0,0,0-1.75-1.8,3.17,3.17,0,0,0-1.31-.27,2.82,2.82,0,0,0-1.24.27,2.79,2.79,0,0,0-1,.73,3.34,3.34,0,0,0-.62,1.07A3.9,3.9,0,0,0,87.68,107.31Z" style="fill:#acacff"/><path d="M99.65,101.67a.85.85,0,0,1-.08-.73c.09-.21.29-.31.62-.31h2.69a.78.78,0,0,1,.77.57c.12.37.25.79.39,1.25s.3.93.45,1.42.32,1,.47,1.45.3.92.43,1.32.24.76.34,1,.18.51.23.64l2.22-7.13a.92.92,0,0,1,.31-.45.87.87,0,0,1,.49-.12h2.76a1.05,1.05,0,0,1,.46.08.38.38,0,0,1,.22.19.56.56,0,0,1,0,.29,1.5,1.5,0,0,1-.11.34l-5,12a1.18,1.18,0,0,1-.27.32.77.77,0,0,1-.47.13h-1.25a1.12,1.12,0,0,1-.6-.12.7.7,0,0,1-.25-.33Z" style="fill:#acacff"/><path d="M112.92,107.31a6.79,6.79,0,0,1,.25-1.86,6.69,6.69,0,0,1,.69-1.65,6.67,6.67,0,0,1,2.46-2.45,6.69,6.69,0,0,1,1.65-.69,7.13,7.13,0,0,1,1.86-.24,6.81,6.81,0,0,1,6.33,4.18,6.77,6.77,0,0,1,.55,2.71,7.06,7.06,0,0,1-.25,1.85,7.64,7.64,0,0,1-.69,1.66,6.93,6.93,0,0,1-2.47,2.46,6.79,6.79,0,0,1-1.64.69,6.91,6.91,0,0,1-1.83.24A7.13,7.13,0,0,1,118,114a6.69,6.69,0,0,1-1.65-.69,7.25,7.25,0,0,1-1.39-1.07,6.87,6.87,0,0,1-1.07-1.39,6.76,6.76,0,0,1-.69-1.66A6.66,6.66,0,0,1,112.92,107.31Zm3.83,0a3.74,3.74,0,0,0,.22,1.3,2.92,2.92,0,0,0,.61,1,2.76,2.76,0,0,0,1,.7,3,3,0,0,0,1.27.26,2.91,2.91,0,0,0,1.23-.26,2.6,2.6,0,0,0,.93-.7,2.88,2.88,0,0,0,.59-1,4,4,0,0,0,.21-1.3,3.9,3.9,0,0,0-.21-1.28A3.1,3.1,0,0,0,122,105a2.67,2.67,0,0,0-.93-.73,2.77,2.77,0,0,0-1.23-.27,2.89,2.89,0,0,0-1.27.27,2.84,2.84,0,0,0-1,.73A3.14,3.14,0,0,0,117,106,3.67,3.67,0,0,0,116.75,107.31Z" style="fill:#acacff"/><path d="M128.79,101.41a.78.78,0,0,1,.08-.35.65.65,0,0,1,.19-.24.82.82,0,0,1,.28-.14,1,1,0,0,1,.3-.05h1.58a.54.54,0,0,1,.42.16,1.34,1.34,0,0,1,.27.4,3.65,3.65,0,0,1,.19.53c.06.2.13.39.2.57l.63-.68a4.65,4.65,0,0,1,.66-.6,3.17,3.17,0,0,1,.79-.43,2.86,2.86,0,0,1,1-.16,5.12,5.12,0,0,1,1,.09,4,4,0,0,1,.85.24,5,5,0,0,1,.79.42c.26.17.55.36.85.59a.75.75,0,0,1,.46.62,1.08,1.08,0,0,1-.18.53l-1,1.63a.84.84,0,0,1-.7.41,1.13,1.13,0,0,1-.47-.12,3.46,3.46,0,0,0-.92-.65A2.44,2.44,0,0,0,135,104a2,2,0,0,0-.72.12,1.85,1.85,0,0,0-.56.32,2.57,2.57,0,0,0-.47.51,5.66,5.66,0,0,0-.44.65v7.6a.73.73,0,0,1-.84.81h-2.37a.72.72,0,0,1-.82-.81Z" style="fill:#acacff"/><path d="M140.87,96.14a.85.85,0,0,1,.19-.63.82.82,0,0,1,.59-.18h2.43a1,1,0,0,1,.6.18.78.78,0,0,1,.22.63v2a.74.74,0,0,1-.06.27.88.88,0,0,1-.16.28,1,1,0,0,1-.26.23.64.64,0,0,1-.34.09h-2.43q-.78,0-.78-.87Zm0,5.31a.9.9,0,0,1,.19-.58.69.69,0,0,1,.59-.24h2.4a.66.66,0,0,1,.27.06.91.91,0,0,1,.28.17,1.27,1.27,0,0,1,.21.25.64.64,0,0,1,.09.34v11.71a.76.76,0,0,1-.22.6.89.89,0,0,1-.63.21h-2.4q-.78,0-.78-.81Z" style="fill:#acacff"/><path d="M158.59,112.37a6.9,6.9,0,0,1-2.08,1.33,6.28,6.28,0,0,1-2.44.48,7.09,7.09,0,0,1-2.72-.53,7,7,0,0,1-2.25-1.45,7.08,7.08,0,0,1-1.53-2.19,6.59,6.59,0,0,1-.57-2.74,7.08,7.08,0,0,1,.23-1.79,6.76,6.76,0,0,1,.64-1.62,6.55,6.55,0,0,1,1-1.4,6.24,6.24,0,0,1,1.32-1.08,6.4,6.4,0,0,1,3.42-1,6.38,6.38,0,0,1,1.69.23,6.71,6.71,0,0,1,1.53.65,6.8,6.8,0,0,1,1.32,1,6.71,6.71,0,0,1,1,1.29,6.07,6.07,0,0,1,.67,1.49,5.58,5.58,0,0,1,.23,1.63c0,.37,0,.66,0,.89a1.09,1.09,0,0,1-.16.56.84.84,0,0,1-.49.28,5,5,0,0,1-1,.08h-7.55a2.5,2.5,0,0,0,.42,1.12,2.66,2.66,0,0,0,.74.72,2.78,2.78,0,0,0,.89.38,3.72,3.72,0,0,0,.9.12,4.11,4.11,0,0,0,.77-.08,4.58,4.58,0,0,0,.77-.21,5.5,5.5,0,0,0,.69-.3,2.6,2.6,0,0,0,.5-.37,1.68,1.68,0,0,1,.28-.2.48.48,0,0,1,.26-.07.46.46,0,0,1,.28.1,1.76,1.76,0,0,1,.32.27l1.11,1.26a.61.61,0,0,1,.15.25.78.78,0,0,1,0,.22.61.61,0,0,1-.11.36A1.44,1.44,0,0,1,158.59,112.37Zm-5.05-8.75a2,2,0,0,0-.79.17,2.92,2.92,0,0,0-.72.43,3.92,3.92,0,0,0-.6.62,3.6,3.6,0,0,0-.44.71h5.37a6.18,6.18,0,0,0-.48-.76,3.41,3.41,0,0,0-.59-.61,2.72,2.72,0,0,0-.75-.41A3,3,0,0,0,153.54,103.62Z" style="fill:#acacff"/><path d="M162.28,98.55a.59.59,0,0,1,.21-.49,3,3,0,0,1,.62-.31l2.38-.82h.19a.55.55,0,0,1,.52.22,1.15,1.15,0,0,1,.13.59v2.89h1.44a.79.79,0,0,1,.55.2.78.78,0,0,1,.21.6v2a.85.85,0,0,1-.21.64.75.75,0,0,1-.55.21h-1.44v8.86a.77.77,0,0,1-.23.6.91.91,0,0,1-.64.21h-2.37a.72.72,0,0,1-.81-.81V104.3h-1.08c-.54,0-.81-.29-.81-.85v-2a.71.71,0,0,1,.81-.8h1.08Z" style="fill:#acacff"/><path d="M181.26,112.37a6.9,6.9,0,0,1-2.08,1.33,6.28,6.28,0,0,1-2.44.48,7.09,7.09,0,0,1-2.72-.53,7,7,0,0,1-2.25-1.45,7.08,7.08,0,0,1-1.53-2.19,6.59,6.59,0,0,1-.57-2.74,7.08,7.08,0,0,1,.23-1.79,6.76,6.76,0,0,1,.64-1.62,6.87,6.87,0,0,1,1-1.4,6.56,6.56,0,0,1,1.33-1.08,6.4,6.4,0,0,1,3.42-1,6.38,6.38,0,0,1,1.69.23,6.9,6.9,0,0,1,1.53.65,6.8,6.8,0,0,1,1.32,1,6.71,6.71,0,0,1,1,1.29,6.07,6.07,0,0,1,.67,1.49,5.58,5.58,0,0,1,.23,1.63c0,.37,0,.66,0,.89a1.09,1.09,0,0,1-.16.56.84.84,0,0,1-.49.28,5,5,0,0,1-1,.08h-7.56a2.63,2.63,0,0,0,.43,1.12,2.66,2.66,0,0,0,.74.72,2.78,2.78,0,0,0,.89.38,3.64,3.64,0,0,0,.89.12,4.13,4.13,0,0,0,.78-.08,4.58,4.58,0,0,0,.77-.21,5.5,5.5,0,0,0,.69-.3,2.6,2.6,0,0,0,.5-.37,1.68,1.68,0,0,1,.28-.2.47.47,0,0,1,.54,0,2.18,2.18,0,0,1,.32.27l1.11,1.26a.61.61,0,0,1,.15.25.78.78,0,0,1,0,.22.61.61,0,0,1-.11.36A1.44,1.44,0,0,1,181.26,112.37Zm-5-8.75a2,2,0,0,0-.79.17,2.92,2.92,0,0,0-.72.43,3.52,3.52,0,0,0-.6.62,3.6,3.6,0,0,0-.44.71H179a6.18,6.18,0,0,0-.48-.76,3.41,3.41,0,0,0-.59-.61,2.64,2.64,0,0,0-.76-.41A3,3,0,0,0,176.21,103.62Z" style="fill:#acacff"/><path d="M45.07,126.55a.59.59,0,0,1,.21-.49,3,3,0,0,1,.62-.31l2.38-.82h.19a.55.55,0,0,1,.52.22,1.15,1.15,0,0,1,.13.59v2.89h1.44a.79.79,0,0,1,.55.2.78.78,0,0,1,.21.6v2a.85.85,0,0,1-.21.64.75.75,0,0,1-.55.21H49.11v8.86a.77.77,0,0,1-.23.6.91.91,0,0,1-.64.21H45.88a.72.72,0,0,1-.81-.81V132.3H44c-.54,0-.81-.29-.81-.85v-2a.71.71,0,0,1,.81-.8h1.08Z" style="fill:#acacff"/><path d="M52.87,129.67a.85.85,0,0,1-.08-.73c.09-.21.3-.31.63-.31H56.1a.78.78,0,0,1,.48.15.8.8,0,0,1,.29.42c.12.37.25.79.39,1.25l.46,1.42c.15.49.31,1,.46,1.45s.3.92.43,1.32.24.76.34,1.05l.23.64,2.23-7.13a.86.86,0,0,1,.31-.45.81.81,0,0,1,.48-.12H65a1.12,1.12,0,0,1,.46.08.39.39,0,0,1,.21.19.56.56,0,0,1,0,.29,1.5,1.5,0,0,1-.11.34l-5,12a1.43,1.43,0,0,1-.28.32.75.75,0,0,1-.47.13H58.56a1.06,1.06,0,0,1-.59-.12.71.71,0,0,1-.26-.33Z" style="fill:#acacff"/><path d="M67.65,134.55a.42.42,0,0,1,.47-.46h7.16a.47.47,0,0,1,.32.12.44.44,0,0,1,.14.34v2.14a.56.56,0,0,1-.13.33.39.39,0,0,1-.33.17H68.12c-.31,0-.47-.17-.47-.5Z" style="fill:#acacff"/><path d="M78.71,129.41a.78.78,0,0,1,.07-.35.68.68,0,0,1,.2-.24.87.87,0,0,1,.27-.14,1,1,0,0,1,.3-.05h1.59a.57.57,0,0,1,.42.16,1.32,1.32,0,0,1,.26.4,3.65,3.65,0,0,1,.2.53,3.49,3.49,0,0,0,.2.57l.62-.68a4.72,4.72,0,0,1,.67-.6,3.3,3.3,0,0,1,.78-.43,2.9,2.9,0,0,1,1-.16,5.05,5.05,0,0,1,1,.09,4,4,0,0,1,.85.24,4.64,4.64,0,0,1,.79.42c.27.17.55.36.86.59a.73.73,0,0,1,.45.62,1.08,1.08,0,0,1-.18.53l-1,1.63a.85.85,0,0,1-.71.41,1.16,1.16,0,0,1-.47-.12,3.31,3.31,0,0,0-.92-.65,2.42,2.42,0,0,0-1.06-.22,1.94,1.94,0,0,0-.72.12,1.64,1.64,0,0,0-.56.32,2.94,2.94,0,0,0-.48.51c-.14.19-.29.41-.44.65v7.6a.83.83,0,0,1-.19.6.86.86,0,0,1-.65.21H79.53a.72.72,0,0,1-.82-.81Z" style="fill:#acacff"/><path d="M101.65,140.37a6.9,6.9,0,0,1-2.08,1.33,6.28,6.28,0,0,1-2.44.48,7.09,7.09,0,0,1-2.72-.53,7,7,0,0,1-2.25-1.45A7.08,7.08,0,0,1,90.63,138a6.59,6.59,0,0,1-.57-2.74,7.08,7.08,0,0,1,.23-1.79,6.76,6.76,0,0,1,.64-1.62,6.87,6.87,0,0,1,1-1.4,6.57,6.57,0,0,1,2.93-1.79,6.72,6.72,0,0,1,1.82-.25,6.38,6.38,0,0,1,1.69.23,6.9,6.9,0,0,1,1.53.65,6.8,6.8,0,0,1,1.32,1,6.71,6.71,0,0,1,1,1.29,6.07,6.07,0,0,1,.67,1.49,5.94,5.94,0,0,1,.23,1.63c0,.37,0,.66,0,.89a1.09,1.09,0,0,1-.16.56.84.84,0,0,1-.49.28,5,5,0,0,1-1,.08H93.92a2.63,2.63,0,0,0,.43,1.12,2.66,2.66,0,0,0,.74.72,2.78,2.78,0,0,0,.89.38,3.64,3.64,0,0,0,.89.12,4.13,4.13,0,0,0,.78-.08,4.85,4.85,0,0,0,.77-.21,5.5,5.5,0,0,0,.69-.3,2.24,2.24,0,0,0,.49-.37,2.21,2.21,0,0,1,.29-.2.47.47,0,0,1,.54,0,2.18,2.18,0,0,1,.32.27l1.11,1.26a.61.61,0,0,1,.15.25.78.78,0,0,1,0,.22.61.61,0,0,1-.11.36A1.44,1.44,0,0,1,101.65,140.37Zm-5.05-8.75a2,2,0,0,0-.79.17,2.92,2.92,0,0,0-.72.43,3.52,3.52,0,0,0-.6.62,3.6,3.6,0,0,0-.44.71h5.37a6.18,6.18,0,0,0-.48-.76,3.41,3.41,0,0,0-.59-.61,2.64,2.64,0,0,0-.76-.41A3,3,0,0,0,96.6,131.62Z" style="fill:#acacff"/><path d="M116.52,140.37a7,7,0,0,1-2.08,1.33,6.3,6.3,0,0,1-2.45.48,7.13,7.13,0,0,1-2.72-.53A7,7,0,0,1,107,140.2a6.94,6.94,0,0,1-1.54-2.19,6.75,6.75,0,0,1-.56-2.74,7.08,7.08,0,0,1,.22-1.79,7.2,7.2,0,0,1,.64-1.62,7.33,7.33,0,0,1,1-1.4,6.57,6.57,0,0,1,2.93-1.79,6.71,6.71,0,0,1,1.81-.25,6.32,6.32,0,0,1,1.69.23,6.59,6.59,0,0,1,2.86,1.66,6.71,6.71,0,0,1,1,1.29,6,6,0,0,1,.66,1.49,5.59,5.59,0,0,1,.24,1.63c0,.37,0,.66,0,.89a1.09,1.09,0,0,1-.17.56.81.81,0,0,1-.49.28,4.86,4.86,0,0,1-1,.08h-7.56a2.5,2.5,0,0,0,.43,1.12,2.66,2.66,0,0,0,.74.72,2.69,2.69,0,0,0,.89.38,3.58,3.58,0,0,0,.89.12,4.3,4.3,0,0,0,.78-.08,5.16,5.16,0,0,0,.77-.21,4.79,4.79,0,0,0,.68-.3,2.09,2.09,0,0,0,.5-.37,1.7,1.7,0,0,1,.29-.2.47.47,0,0,1,.54,0,2.18,2.18,0,0,1,.32.27l1.11,1.26a.61.61,0,0,1,.15.25.78.78,0,0,1,0,.22.56.56,0,0,1-.12.36A1.38,1.38,0,0,1,116.52,140.37Zm-5-8.75a2,2,0,0,0-.79.17,2.92,2.92,0,0,0-.72.43,3.58,3.58,0,0,0-.61.62,4.07,4.07,0,0,0-.43.71h5.36a5.14,5.14,0,0,0-.47-.76,3.79,3.79,0,0,0-.59-.61,2.78,2.78,0,0,0-.76-.41A3,3,0,0,0,111.47,131.62Z" style="fill:#acacff"/><path d="M120.22,125.47a3.11,3.11,0,0,1,0-.32.39.39,0,0,1,.09-.26.48.48,0,0,1,.24-.16,1.45,1.45,0,0,1,.47-.06h2.51a.82.82,0,0,1,.34.07.72.72,0,0,1,.21.18.55.55,0,0,1,.1.22,1,1,0,0,1,0,.23v7.77l3.78-4.2a.83.83,0,0,1,.65-.31h3.22c.39,0,.58.15.58.45a.36.36,0,0,1,0,.19.84.84,0,0,1-.15.21L127.94,134l5.43,7h0a.71.71,0,0,1,.25.54.37.37,0,0,1-.13.33.7.7,0,0,1-.39.09h-3.55a.53.53,0,0,1-.34-.14,2.23,2.23,0,0,1-.34-.41l-3.44-4.86-1.16,1.21v3.39a1.12,1.12,0,0,1,0,.22,1,1,0,0,1-.1.27.92.92,0,0,1-.22.22.57.57,0,0,1-.36.1h-2.63a.59.59,0,0,1-.33-.1.76.76,0,0,1-.21-.23,1.71,1.71,0,0,1-.12-.23.87.87,0,0,1,0-.14Z" style="fill:#acacff"/><path d="M137.05,137.82a3.07,3.07,0,0,0,.61.48,4.15,4.15,0,0,0,.64.31,4.76,4.76,0,0,0,.53.18l.32.05.51,0a2.9,2.9,0,0,0,.59-.09,1.36,1.36,0,0,0,.49-.26.65.65,0,0,0,.2-.5.74.74,0,0,0-.45-.76A2.25,2.25,0,0,0,140,137l-.72-.22a8.36,8.36,0,0,1-2.08-.81,4.64,4.64,0,0,1-1.29-1.05,3.5,3.5,0,0,1-.67-1.26,5.07,5.07,0,0,1-.19-1.42,3.54,3.54,0,0,1,1.33-2.81,4.56,4.56,0,0,1,1.54-.78,6.44,6.44,0,0,1,2-.28,7,7,0,0,1,1.24.11,4.56,4.56,0,0,1,1.1.35,5.73,5.73,0,0,1,1,.6,8.83,8.83,0,0,1,1,.89.62.62,0,0,1,.18.4c0,.12-.07.25-.23.39s-.54.44-.79.66-.5.46-.77.73a.6.6,0,0,1-.25.13.65.65,0,0,1-.24,0,.62.62,0,0,1-.22-.1.81.81,0,0,1-.19-.18,1.79,1.79,0,0,0-.84-.55,3,3,0,0,0-.88-.15,1.58,1.58,0,0,0-.82.18.55.55,0,0,0-.29.55.61.61,0,0,0,.21.42,1.22,1.22,0,0,0,.45.25,3.4,3.4,0,0,0,.57.15l.55.13a16.94,16.94,0,0,1,1.73.67,5.26,5.26,0,0,1,1.37.87,3.61,3.61,0,0,1,.89,1.25,4.23,4.23,0,0,1,.32,1.76,4,4,0,0,1-.41,1.86,4.12,4.12,0,0,1-1.14,1.38,5.22,5.22,0,0,1-1.72.85,7.67,7.67,0,0,1-2.13.29,7.56,7.56,0,0,1-1.33-.12,6,6,0,0,1-1.3-.37,5.87,5.87,0,0,1-1.2-.66,4.88,4.88,0,0,1-1-1,1.09,1.09,0,0,1-.18-.31,1.25,1.25,0,0,1-.05-.32.88.88,0,0,1,.06-.29.59.59,0,0,1,.19-.23l1.35-1.35a.49.49,0,0,1,.45-.15A1.48,1.48,0,0,1,137.05,137.82Z" style="fill:#acacff"/><path d="M158.38,140.37a6.9,6.9,0,0,1-2.08,1.33,6.28,6.28,0,0,1-2.44.48,7.09,7.09,0,0,1-2.72-.53,7,7,0,0,1-2.25-1.45,7.08,7.08,0,0,1-1.53-2.19,6.59,6.59,0,0,1-.57-2.74,7.08,7.08,0,0,1,.23-1.79,6.76,6.76,0,0,1,.64-1.62,6.55,6.55,0,0,1,1-1.4,6.24,6.24,0,0,1,1.32-1.08,6.4,6.4,0,0,1,3.42-1,6.38,6.38,0,0,1,1.69.23,6.9,6.9,0,0,1,1.53.65,6.8,6.8,0,0,1,1.32,1,6.71,6.71,0,0,1,1,1.29,6.07,6.07,0,0,1,.67,1.49,5.58,5.58,0,0,1,.23,1.63c0,.37,0,.66,0,.89a1.09,1.09,0,0,1-.16.56.84.84,0,0,1-.49.28,5,5,0,0,1-1,.08h-7.56a2.63,2.63,0,0,0,.43,1.12,2.66,2.66,0,0,0,.74.72,2.78,2.78,0,0,0,.89.38,3.66,3.66,0,0,0,.9.12,4.11,4.11,0,0,0,.77-.08,4.58,4.58,0,0,0,.77-.21,5.5,5.5,0,0,0,.69-.3,2.6,2.6,0,0,0,.5-.37,1.68,1.68,0,0,1,.28-.2.48.48,0,0,1,.26-.07.46.46,0,0,1,.28.1,2.18,2.18,0,0,1,.32.27l1.11,1.26a.61.61,0,0,1,.15.25.78.78,0,0,1,0,.22.61.61,0,0,1-.11.36A1.44,1.44,0,0,1,158.38,140.37Zm-5-8.75a2,2,0,0,0-.79.17,2.92,2.92,0,0,0-.72.43,3.92,3.92,0,0,0-.6.62,3.6,3.6,0,0,0-.44.71h5.37a6.18,6.18,0,0,0-.48-.76,3.41,3.41,0,0,0-.59-.61,2.64,2.64,0,0,0-.76-.41A3,3,0,0,0,153.33,131.62Z" style="fill:#acacff"/><path d="M162.35,128.82a.62.62,0,0,1,.29-.15l.29,0h1.59a.66.66,0,0,1,.32.07.68.68,0,0,1,.23.18,1,1,0,0,1,.15.26,2.83,2.83,0,0,1,.11.31l.22.92a2.65,2.65,0,0,1,.51-.67,4.05,4.05,0,0,1,.88-.63,5.09,5.09,0,0,1,1.2-.46,5.5,5.5,0,0,1,1.52-.19,4.64,4.64,0,0,1,3.73,1.72,5.55,5.55,0,0,1,1,1.86,7.34,7.34,0,0,1,.34,2.27v6.88a.93.93,0,0,1-.17.6.68.68,0,0,1-.55.21h-2.43a.89.89,0,0,1-.62-.16.78.78,0,0,1-.17-.59v-6.83a1.81,1.81,0,0,0-.2-.86,2.52,2.52,0,0,0-.54-.71,2.67,2.67,0,0,0-.76-.49,2.22,2.22,0,0,0-.87-.18,2,2,0,0,0-.77.17,2.71,2.71,0,0,0-.73.46,2.76,2.76,0,0,0-.55.71,2,2,0,0,0-.26.87v6.83a.92.92,0,0,1-.07.36.51.51,0,0,1-.2.27,1.19,1.19,0,0,1-.26.12,1.14,1.14,0,0,1-.28,0h-2.37a.86.86,0,0,1-.65-.22.88.88,0,0,1-.2-.59V129.42a.75.75,0,0,1,.09-.37.67.67,0,0,1,.24-.26Z" style="fill:#acacff"/><path d="M43.42,157.67a.85.85,0,0,1-.08-.73c.09-.21.3-.31.63-.31h2.68a.76.76,0,0,1,.48.15.8.8,0,0,1,.29.42l.4,1.24c.14.46.29.93.45,1.4s.31.95.46,1.42.3.9.43,1.3.24.74.35,1,.17.51.22.63l2.23-7a.86.86,0,0,1,.31-.45.81.81,0,0,1,.48-.12h2.49a1.37,1.37,0,0,1,.47.07.45.45,0,0,1,.21.2.56.56,0,0,1,0,.29,1.5,1.5,0,0,1-.11.34l-1.15,2.83c0,.12.14.32.28.6l.48,1c.18.36.36.74.54,1.13s.34.77.47,1.11l2.57-7a1.08,1.08,0,0,1,.28-.45.67.67,0,0,1,.43-.12h2.32a1,1,0,0,1,.69.19c.13.13.13.36,0,.71l-4.92,12a.81.81,0,0,1-.29.32A1,1,0,0,1,57,170H55.88a1,1,0,0,1-.59-.14.93.93,0,0,1-.31-.34L53,164.73l-1.92,4.78a1.1,1.1,0,0,1-.28.32.69.69,0,0,1-.47.14H49.11a1,1,0,0,1-.59-.13.71.71,0,0,1-.26-.33Z" style="fill:#acacff"/><path d="M63.47,163.31a7.13,7.13,0,0,1,.24-1.86,7.36,7.36,0,0,1,.69-1.65,6.91,6.91,0,0,1,1.08-1.39,6.6,6.6,0,0,1,1.39-1.07,7,7,0,0,1,3.5-.92,6.9,6.9,0,0,1,2.69.53,6.79,6.79,0,0,1,2.18,1.46,7,7,0,0,1,1.47,2.18,6.84,6.84,0,0,1,.54,2.72,6.66,6.66,0,0,1-.25,1.85,6.79,6.79,0,0,1-1.76,3.05,6.87,6.87,0,0,1-3,1.76,7,7,0,0,1-1.84.24,6.86,6.86,0,0,1-3.5-.93,6.93,6.93,0,0,1-2.47-2.46,7.85,7.85,0,0,1-.69-1.66A7.06,7.06,0,0,1,63.47,163.31Zm3.83,0a4,4,0,0,0,.21,1.3,3.25,3.25,0,0,0,.61,1,2.84,2.84,0,0,0,1,.7,3,3,0,0,0,1.26.26,2.93,2.93,0,0,0,1.24-.26,2.82,2.82,0,0,0,.93-.7,3,3,0,0,0,.59-1,4.26,4.26,0,0,0,.2-1.3,4.13,4.13,0,0,0-.2-1.28,3.17,3.17,0,0,0-.59-1.07,2.74,2.74,0,0,0-2.17-1,2.84,2.84,0,0,0-1.26.27,2.79,2.79,0,0,0-1,.73,3.4,3.4,0,0,0-.61,1.07A3.86,3.86,0,0,0,67.3,163.31Z" style="fill:#acacff"/><path d="M79.34,157.41a1,1,0,0,1,.07-.35.68.68,0,0,1,.2-.24.87.87,0,0,1,.27-.14,1,1,0,0,1,.3-.05h1.59a.57.57,0,0,1,.42.16,1.32,1.32,0,0,1,.26.4,3.65,3.65,0,0,1,.2.53,3.49,3.49,0,0,0,.2.57l.62-.68a4.18,4.18,0,0,1,.67-.6,3.3,3.3,0,0,1,.78-.43,2.9,2.9,0,0,1,1-.16,6.21,6.21,0,0,1,1,.08,4.78,4.78,0,0,1,.84.25,4.64,4.64,0,0,1,.79.42c.27.16.55.36.86.58a.76.76,0,0,1,.45.62,1.08,1.08,0,0,1-.18.54l-1,1.63A.85.85,0,0,1,88,161a1.16,1.16,0,0,1-.47-.12,3.59,3.59,0,0,0-.92-.66,2.54,2.54,0,0,0-1.06-.21,1.94,1.94,0,0,0-.72.12,1.64,1.64,0,0,0-.56.32,3.27,3.27,0,0,0-.48.5c-.14.2-.29.42-.44.66v7.6a.83.83,0,0,1-.19.6.86.86,0,0,1-.65.21H80.16a.72.72,0,0,1-.82-.81Z" style="fill:#acacff"/><path d="M100.61,168.65a6,6,0,0,1-.64.56,4.59,4.59,0,0,1-.79.5,4.54,4.54,0,0,1-.91.36,3.9,3.9,0,0,1-1,.14,6.38,6.38,0,0,1-4.7-2A6.78,6.78,0,0,1,91.18,166a7.77,7.77,0,0,1,0-5.43,6.84,6.84,0,0,1,1.35-2.18A6.22,6.22,0,0,1,94.6,157a6.5,6.5,0,0,1,2.63-.53,5,5,0,0,1,1.06.1,3.7,3.7,0,0,1,.87.29,4.37,4.37,0,0,1,.72.45,6.87,6.87,0,0,1,.63.58v-4.38a.88.88,0,0,1,.2-.57.8.8,0,0,1,.62-.23h2.36a.79.79,0,0,1,.29.06,1.12,1.12,0,0,1,.28.16,1,1,0,0,1,.2.25.73.73,0,0,1,.08.33v15.7c0,.54-.28.81-.85.81h-2.06a.67.67,0,0,1-.32-.06.43.43,0,0,1-.2-.15,1.17,1.17,0,0,1-.14-.25,3.32,3.32,0,0,0-.16-.35Zm-6.14-5.34a3.74,3.74,0,0,0,.22,1.3,2.92,2.92,0,0,0,.61,1,3,3,0,0,0,1,.7,3,3,0,0,0,1.25.26,3.15,3.15,0,0,0,1.26-.25,3.1,3.1,0,0,0,1.74-1.67,3.18,3.18,0,0,0,.3-1.23v-.15a3.36,3.36,0,0,0-1-2.35,3.26,3.26,0,0,0-2.35-1,2.86,2.86,0,0,0-1.25.27,3,3,0,0,0-1,.73,3.05,3.05,0,0,0-.61,1.07A3.63,3.63,0,0,0,94.47,163.31Z" style="fill:#acacff"/><path d="M118.51,168.37a7,7,0,0,1-2.08,1.33,6.33,6.33,0,0,1-2.45.48,7.09,7.09,0,0,1-2.72-.53A7.19,7.19,0,0,1,109,168.2a7.08,7.08,0,0,1-1.53-2.19,6.59,6.59,0,0,1-.57-2.74,7.24,7.24,0,0,1,.87-3.42,7.14,7.14,0,0,1,1-1.39,6.29,6.29,0,0,1,1.33-1.08,6.71,6.71,0,0,1,1.59-.71,6.54,6.54,0,0,1,3.51,0,6.79,6.79,0,0,1,1.54.65,6.45,6.45,0,0,1,1.31,1,6.35,6.35,0,0,1,1,1.29,6.07,6.07,0,0,1,.67,1.49,5.59,5.59,0,0,1,.24,1.63c0,.36,0,.66,0,.89a1,1,0,0,1-.16.56.81.81,0,0,1-.49.28,4.93,4.93,0,0,1-1,.08h-7.56a2.67,2.67,0,0,0,.42,1.12,2.8,2.8,0,0,0,.74.72,2.74,2.74,0,0,0,.9.38,3.58,3.58,0,0,0,.89.12,4.3,4.3,0,0,0,.78-.08,5.16,5.16,0,0,0,.77-.21,6.06,6.06,0,0,0,.68-.3,2.32,2.32,0,0,0,.5-.37,1.7,1.7,0,0,1,.29-.2.45.45,0,0,1,.25-.07.49.49,0,0,1,.28.09,2.45,2.45,0,0,1,.32.28l1.12,1.26a.77.77,0,0,1,.14.24.91.91,0,0,1,0,.23.55.55,0,0,1-.11.36A1.72,1.72,0,0,1,118.51,168.37Zm-5.06-8.75a2,2,0,0,0-.79.17,3,3,0,0,0-.72.43,3.92,3.92,0,0,0-.6.62,4.49,4.49,0,0,0-.44.7h5.37a6.89,6.89,0,0,0-.48-.75,3.11,3.11,0,0,0-.59-.61,2.48,2.48,0,0,0-.75-.41A3,3,0,0,0,113.45,159.62Z" style="fill:#acacff"/><path d="M122.47,156.82a.67.67,0,0,1,.29-.15l.29,0h1.59a.66.66,0,0,1,.32.07.68.68,0,0,1,.23.18,1,1,0,0,1,.16.26c0,.1.07.2.11.31l.22.92a2.25,2.25,0,0,1,.51-.67,3.75,3.75,0,0,1,.87-.63,5.56,5.56,0,0,1,1.2-.47,5.92,5.92,0,0,1,1.52-.18,4.68,4.68,0,0,1,3.74,1.72,5.71,5.71,0,0,1,1,1.86,7.29,7.29,0,0,1,.34,2.27v6.88a.88.88,0,0,1-.17.6.67.67,0,0,1-.55.21H131.7a.91.91,0,0,1-.62-.16.8.8,0,0,1-.16-.59v-6.84a1.81,1.81,0,0,0-.21-.85,2.35,2.35,0,0,0-.54-.71,2.54,2.54,0,0,0-.76-.49,2.19,2.19,0,0,0-.87-.18,1.82,1.82,0,0,0-.77.17,2.52,2.52,0,0,0-.72.46,2.79,2.79,0,0,0-.56.71,2,2,0,0,0-.26.87v6.83a.92.92,0,0,1-.07.36.51.51,0,0,1-.2.27.81.81,0,0,1-.26.11.79.79,0,0,1-.28,0h-2.37a.86.86,0,0,1-.65-.22.88.88,0,0,1-.2-.59V157.42a.75.75,0,0,1,.09-.37.63.63,0,0,1,.25-.26Z" style="fill:#acacff"/><path d="M43.85,191.31a6.74,6.74,0,0,1,.25-1.86,6.54,6.54,0,0,1,.69-1.65,6.8,6.8,0,0,1,2.46-2.46,7.15,7.15,0,0,1,1.66-.68,7.06,7.06,0,0,1,1.85-.24,6.85,6.85,0,0,1,2.68.53,6.73,6.73,0,0,1,2.19,1.46,7,7,0,0,1,1.47,2.18,6.84,6.84,0,0,1,.54,2.72,6.66,6.66,0,0,1-.25,1.85,7.36,7.36,0,0,1-.69,1.66,7.25,7.25,0,0,1-1.07,1.39,7,7,0,0,1-3,1.76,6.85,6.85,0,0,1-1.83.24,7.06,7.06,0,0,1-1.85-.24,7.17,7.17,0,0,1-1.66-.69,7.25,7.25,0,0,1-1.39-1.07,6.79,6.79,0,0,1-1.76-3.05A6.66,6.66,0,0,1,43.85,191.31Zm3.83,0a4,4,0,0,0,.22,1.3,3,3,0,0,0,1.56,1.74,3.07,3.07,0,0,0,1.27.26,2.91,2.91,0,0,0,1.23-.26,2.86,2.86,0,0,0,.94-.7,3,3,0,0,0,.58-1,4,4,0,0,0,.21-1.3,3.86,3.86,0,0,0-.21-1.28A3.15,3.15,0,0,0,52.9,189a2.81,2.81,0,0,0-.94-.73,2.77,2.77,0,0,0-1.23-.27,2.92,2.92,0,0,0-1.27.27,2.84,2.84,0,0,0-1,.73A3.05,3.05,0,0,0,47.9,190,3.87,3.87,0,0,0,47.68,191.31Z" style="fill:#acacff"/><path d="M60,184.76a.64.64,0,0,1,.28-.15l.29,0h1.58a.78.78,0,0,1,.33.06.62.62,0,0,1,.22.17,1.59,1.59,0,0,1,.14.26c0,.09.07.19.11.31l.44,1.27.59-.77a4,4,0,0,1,.71-.72,3.81,3.81,0,0,1,1-.53,4,4,0,0,1,1.39-.21,6.64,6.64,0,0,1,2.65.53,6.3,6.3,0,0,1,2.09,1.46,6.89,6.89,0,0,1,1.37,2.18,7.77,7.77,0,0,1,0,5.43,6.83,6.83,0,0,1-1.37,2.19,6.47,6.47,0,0,1-4.74,2,3.72,3.72,0,0,1-1.18-.17,3.41,3.41,0,0,1-.88-.42,4.23,4.23,0,0,1-.67-.58l-.58-.63v4.89a.79.79,0,0,1-.19.54.73.73,0,0,1-.59.22h-2.4a1,1,0,0,1-.28-.05l-.27-.15a.93.93,0,0,1-.21-.23.62.62,0,0,1-.08-.33V185.36a.63.63,0,0,1,.08-.35A.92.92,0,0,1,60,184.76Zm9.81,6.55a3.91,3.91,0,0,0-.22-1.28A3.43,3.43,0,0,0,69,189a3.11,3.11,0,0,0-1-.72,2.91,2.91,0,0,0-1.23-.26,3.1,3.1,0,0,0-1.25.25,3.32,3.32,0,0,0-1,.67,3.29,3.29,0,0,0-1,2.23v.16a3.15,3.15,0,0,0,.27,1.3,3.24,3.24,0,0,0,.71,1.06,3.72,3.72,0,0,0,1.06.71,3.34,3.34,0,0,0,1.29.26,2.91,2.91,0,0,0,1.23-.26,3.24,3.24,0,0,0,1-.71,3.37,3.37,0,0,0,.62-1.06A3.94,3.94,0,0,0,69.81,191.31Z" style="fill:#acacff"/><path d="M85.42,197.5a1.63,1.63,0,0,0,.09-.46,4.41,4.41,0,0,0,0-.52v-.14s0-.06,0-.08,0-.05,0-.08v-.14c-.2.21-.4.43-.62.64a4.69,4.69,0,0,1-.69.56,3.85,3.85,0,0,1-.87.4,3.8,3.8,0,0,1-1.12.15,7.07,7.07,0,0,1-2.63-.48A6.6,6.6,0,0,1,77.5,196a6.08,6.08,0,0,1-1.37-2.08,6.91,6.91,0,0,1-.5-2.65,7.32,7.32,0,0,1,.5-2.7,6.72,6.72,0,0,1,1.37-2.18,6.41,6.41,0,0,1,2.09-1.46,6.54,6.54,0,0,1,2.63-.53,4.33,4.33,0,0,1,1.18.15,4,4,0,0,1,1,.4,4.72,4.72,0,0,1,.81.6,9.46,9.46,0,0,1,.68.74l.3-.93.11-.33a.86.86,0,0,1,.14-.25.66.66,0,0,1,.21-.15,1.06,1.06,0,0,1,.34,0h1.57a1,1,0,0,1,.29,0,.89.89,0,0,1,.27.15.68.68,0,0,1,.2.24.89.89,0,0,1,.07.34V196a7.42,7.42,0,0,1-.54,2.92,6.15,6.15,0,0,1-1.46,2.17,6.47,6.47,0,0,1-2.2,1.34,7.9,7.9,0,0,1-2.73.46,8.83,8.83,0,0,1-2.52-.4,7.46,7.46,0,0,1-1.25-.51,4.71,4.71,0,0,1-1.06-.72.9.9,0,0,1-.27-.28.77.77,0,0,1-.11-.39,1,1,0,0,1,.2-.55l1-1.38a2.6,2.6,0,0,1,.27-.24.52.52,0,0,1,.27-.07,1,1,0,0,1,.58.25,2.17,2.17,0,0,0,.6.4,4.64,4.64,0,0,0,1.42.36l.64,0a4.33,4.33,0,0,0,1-.13,4.07,4.07,0,0,0,1-.37,3.2,3.2,0,0,0,.79-.61A1.84,1.84,0,0,0,85.42,197.5Zm-6-6.23a3.9,3.9,0,0,0,.22,1.3,2.89,2.89,0,0,0,2.82,2,3.28,3.28,0,0,0,2.3-.89,3.38,3.38,0,0,0,.71-1,3.27,3.27,0,0,0,.3-1.22v-.35a3.32,3.32,0,0,0-.3-1.21,3.47,3.47,0,0,0-.71-1,3.37,3.37,0,0,0-1-.69,3,3,0,0,0-1.26-.26,2.86,2.86,0,0,0-1.25.27,2.82,2.82,0,0,0-1,.72,3.17,3.17,0,0,0-.61,1.06A3.87,3.87,0,0,0,79.41,191.27Z" style="fill:#acacff"/><path d="M103.07,196.37A7,7,0,0,1,101,197.7a6.28,6.28,0,0,1-2.44.48,7.09,7.09,0,0,1-2.72-.53,7,7,0,0,1-2.25-1.45A6.76,6.76,0,0,1,92.05,194a6.59,6.59,0,0,1-.57-2.74,7,7,0,0,1,.22-1.79,8,8,0,0,1,.64-1.63,7.59,7.59,0,0,1,1-1.39,6.57,6.57,0,0,1,2.93-1.79,6.5,6.5,0,0,1,3.5,0,6.59,6.59,0,0,1,2.86,1.66,6.71,6.71,0,0,1,1,1.29,6.07,6.07,0,0,1,.67,1.49,5.94,5.94,0,0,1,.23,1.63c0,.36,0,.66,0,.89a1,1,0,0,1-.17.56.78.78,0,0,1-.49.28,4.86,4.86,0,0,1-1,.08H95.34a2.55,2.55,0,0,0,.43,1.12,2.66,2.66,0,0,0,.74.72,2.78,2.78,0,0,0,.89.38,3.64,3.64,0,0,0,.89.12,4.21,4.21,0,0,0,.78-.08,4.85,4.85,0,0,0,.77-.21,4.79,4.79,0,0,0,.68-.3,2.09,2.09,0,0,0,.5-.37,2.21,2.21,0,0,1,.29-.2.48.48,0,0,1,.26-.07.54.54,0,0,1,.28.09,3.34,3.34,0,0,1,.32.28l1.11,1.26a.66.66,0,0,1,.15.24.91.91,0,0,1,0,.23.56.56,0,0,1-.12.36A1.15,1.15,0,0,1,103.07,196.37Zm-5-8.75a2,2,0,0,0-.79.17,2.65,2.65,0,0,0-.72.43,3.58,3.58,0,0,0-.61.62,4.41,4.41,0,0,0-.43.7h5.36a5.6,5.6,0,0,0-.47-.75,3.42,3.42,0,0,0-.59-.61,2.42,2.42,0,0,0-.76-.41A3,3,0,0,0,98,187.62Z" style="fill:#acacff"/><path d="M107,184.82a.62.62,0,0,1,.29-.15l.29,0h1.58a.67.67,0,0,1,.33.07.68.68,0,0,1,.23.18,1.35,1.35,0,0,1,.15.26,2.83,2.83,0,0,1,.11.31l.22.92a2.65,2.65,0,0,1,.51-.67,4,4,0,0,1,.87-.63,5.54,5.54,0,0,1,2.73-.65,4.7,4.7,0,0,1,2.13.46,4.82,4.82,0,0,1,1.6,1.26,5.55,5.55,0,0,1,1,1.86,7.29,7.29,0,0,1,.34,2.27v6.88a.93.93,0,0,1-.17.6.69.69,0,0,1-.56.21h-2.42a.89.89,0,0,1-.62-.16.8.8,0,0,1-.17-.59v-6.84a1.93,1.93,0,0,0-.2-.85,2.52,2.52,0,0,0-.54-.71,2.59,2.59,0,0,0-.77-.49,2.18,2.18,0,0,0-.86-.18,1.82,1.82,0,0,0-.77.17,2.43,2.43,0,0,0-.73.46,2.76,2.76,0,0,0-.55.71,1.91,1.91,0,0,0-.26.87v6.83a1.15,1.15,0,0,1-.07.36.52.52,0,0,1-.21.27.77.77,0,0,1-.25.11.82.82,0,0,1-.28,0h-2.37a.86.86,0,0,1-.65-.22.83.83,0,0,1-.2-.59V185.42a.75.75,0,0,1,.09-.37.6.6,0,0,1,.24-.26Z" style="fill:#acacff"/><path d="M121.53,191.31a6.74,6.74,0,0,1,.25-1.86,6.54,6.54,0,0,1,.69-1.65,6.8,6.8,0,0,1,2.46-2.46,7,7,0,0,1,3.51-.92,6.89,6.89,0,0,1,2.68.53,6.73,6.73,0,0,1,2.19,1.46,7.13,7.13,0,0,1,1.46,2.18,6.68,6.68,0,0,1,.55,2.72,7.06,7.06,0,0,1-.25,1.85,7.85,7.85,0,0,1-.69,1.66,6.73,6.73,0,0,1-2.47,2.46,7,7,0,0,1-1.64.69,6.91,6.91,0,0,1-1.83.24,6.86,6.86,0,0,1-3.51-.93,7.25,7.25,0,0,1-1.39-1.07,6.79,6.79,0,0,1-1.76-3.05A6.66,6.66,0,0,1,121.53,191.31Zm3.83,0a3.74,3.74,0,0,0,.22,1.3,3,3,0,0,0,1.56,1.74,3.07,3.07,0,0,0,1.27.26,2.91,2.91,0,0,0,1.23-.26,2.72,2.72,0,0,0,.93-.7,2.88,2.88,0,0,0,.59-1,4,4,0,0,0,.21-1.3,3.86,3.86,0,0,0-.21-1.28,3,3,0,0,0-.59-1.07,2.67,2.67,0,0,0-.93-.73,2.77,2.77,0,0,0-1.23-.27,2.92,2.92,0,0,0-1.27.27,2.84,2.84,0,0,0-1,.73,3.05,3.05,0,0,0-.61,1.07A3.63,3.63,0,0,0,125.36,191.31Z" style="fill:#acacff"/><path d="M137.68,184.82a.58.58,0,0,1,.29-.15,1.43,1.43,0,0,1,.29,0h1.58a.67.67,0,0,1,.33.07.8.8,0,0,1,.23.18,1.35,1.35,0,0,1,.15.26c0,.1.07.2.11.31l.22.92a3.14,3.14,0,0,1,.45-.67,3.38,3.38,0,0,1,.75-.63,4.6,4.6,0,0,1,1.07-.47,5.38,5.38,0,0,1,1.47-.18,5,5,0,0,1,1.2.13,3.93,3.93,0,0,1,1,.39,3.53,3.53,0,0,1,.81.63,5.33,5.33,0,0,1,.69.85,3.56,3.56,0,0,1,.6-.68,4.57,4.57,0,0,1,.94-.65,6.46,6.46,0,0,1,1.22-.48,5,5,0,0,1,1.42-.19,4.44,4.44,0,0,1,2.09.46,4.33,4.33,0,0,1,1.49,1.26A5.73,5.73,0,0,1,157,188a8.71,8.71,0,0,1,.29,2.27v6.88a.93.93,0,0,1-.17.6.68.68,0,0,1-.55.21H154.1a.89.89,0,0,1-.62-.16.8.8,0,0,1-.17-.59v-6.94a2.55,2.55,0,0,0-.14-.84,2.28,2.28,0,0,0-.39-.68,1.87,1.87,0,0,0-.62-.45,1.91,1.91,0,0,0-.8-.16,1.79,1.79,0,0,0-.76.16,2.08,2.08,0,0,0-.63.43,2.2,2.2,0,0,0-.43.67,2.25,2.25,0,0,0-.17.87v6.88a.88.88,0,0,1-.17.6.67.67,0,0,1-.55.21h-2.42a.87.87,0,0,1-.62-.16.76.76,0,0,1-.17-.59v-6.94a2.84,2.84,0,0,0-.13-.84,2.25,2.25,0,0,0-.38-.68,1.89,1.89,0,0,0-.6-.45,1.83,1.83,0,0,0-.79-.16,1.88,1.88,0,0,0-.74.15,2.16,2.16,0,0,0-.65.43,2.37,2.37,0,0,0-.49.67,2.18,2.18,0,0,0-.22.86v6.93a1.15,1.15,0,0,1-.07.36.58.58,0,0,1-.21.27.77.77,0,0,1-.25.11.82.82,0,0,1-.28,0h-2.37a.89.89,0,0,1-.66-.22.88.88,0,0,1-.2-.59V185.42a.75.75,0,0,1,.09-.37.69.69,0,0,1,.25-.26Z" style="fill:#acacff"/><path d="M171,196.37a6.9,6.9,0,0,1-2.08,1.33,6.28,6.28,0,0,1-2.44.48,7.09,7.09,0,0,1-2.72-.53,7,7,0,0,1-2.25-1.45,7.08,7.08,0,0,1-1.53-2.19,6.59,6.59,0,0,1-.57-2.74,7.05,7.05,0,0,1,1.87-4.81,6.57,6.57,0,0,1,2.93-1.79,6.54,6.54,0,0,1,3.51,0,6.9,6.9,0,0,1,1.53.65,6.8,6.8,0,0,1,1.32,1,6.71,6.71,0,0,1,1,1.29,6.07,6.07,0,0,1,.67,1.49,5.94,5.94,0,0,1,.23,1.63c0,.36,0,.66,0,.89a1,1,0,0,1-.17.56.78.78,0,0,1-.48.28,5,5,0,0,1-1,.08h-7.56a2.6,2.6,0,0,0,1.17,1.84,2.78,2.78,0,0,0,.89.38,3.64,3.64,0,0,0,.89.12,4.13,4.13,0,0,0,.78-.08,4.58,4.58,0,0,0,.77-.21,5.5,5.5,0,0,0,.69-.3,2.24,2.24,0,0,0,.49-.37,2.21,2.21,0,0,1,.29-.2.48.48,0,0,1,.26-.07.54.54,0,0,1,.28.09,3.34,3.34,0,0,1,.32.28l1.11,1.26a.66.66,0,0,1,.15.24.91.91,0,0,1,0,.23.61.61,0,0,1-.11.36A1.44,1.44,0,0,1,171,196.37Zm-5-8.75a2,2,0,0,0-.79.17,2.65,2.65,0,0,0-.72.43,3.52,3.52,0,0,0-.6.62,3.85,3.85,0,0,0-.44.7h5.37a6.89,6.89,0,0,0-.48-.75,3.11,3.11,0,0,0-.59-.61,2.42,2.42,0,0,0-.76-.41A3,3,0,0,0,165.9,187.62Z" style="fill:#acacff"/><path d="M174.92,184.82a.62.62,0,0,1,.29-.15l.29,0h1.58a.67.67,0,0,1,.33.07.68.68,0,0,1,.23.18,1.35,1.35,0,0,1,.15.26,2.83,2.83,0,0,1,.11.31l.22.92a2.65,2.65,0,0,1,.51-.67,4.23,4.23,0,0,1,.87-.63,5.61,5.61,0,0,1,2.73-.65,4.77,4.77,0,0,1,2.14.46,4.88,4.88,0,0,1,1.59,1.26,5.55,5.55,0,0,1,1,1.86,7.29,7.29,0,0,1,.34,2.27v6.88a.93.93,0,0,1-.17.6.68.68,0,0,1-.55.21h-2.43a.89.89,0,0,1-.62-.16.8.8,0,0,1-.17-.59v-6.84a1.8,1.8,0,0,0-.2-.85,2.52,2.52,0,0,0-.54-.71,2.67,2.67,0,0,0-.76-.49,2.26,2.26,0,0,0-.87-.18,1.82,1.82,0,0,0-.77.17,2.56,2.56,0,0,0-.73.46,2.76,2.76,0,0,0-.55.71,2,2,0,0,0-.26.87v6.83a.92.92,0,0,1-.07.36.51.51,0,0,1-.2.27.81.81,0,0,1-.26.11.79.79,0,0,1-.28,0H175.5a.86.86,0,0,1-.65-.22.83.83,0,0,1-.2-.59V185.42a.75.75,0,0,1,.09-.37.67.67,0,0,1,.24-.26Z" style="fill:#acacff"/><path d="M190,194.94a.49.49,0,0,1,.11-.33.45.45,0,0,1,.35-.13h2.78a.48.48,0,0,1,.33.13.41.41,0,0,1,.16.33v2.54a.48.48,0,0,1-.13.34.43.43,0,0,1-.36.15h-2.78c-.31,0-.46-.17-.46-.49Z" style="fill:#acacff"/><rect x="43" y="227.83" width="30" height="5" style="fill:#acacff"/></g></svg>