<?xml version="1.0" encoding="utf-8"?>
<!-- Generator: Adobe Illustrator 22.1.0, SVG Export Plug-In . SVG Version: 6.00 Build 0)  -->
<svg version="1.1" id="Laag_1" xmlns="http://www.w3.org/2000/svg" xmlns:xlink="http://www.w3.org/1999/xlink" x="0px" y="0px"
	 viewBox="0 0 283.5 283.5" style="enable-background:new 0 0 283.5 283.5;" xml:space="preserve">
<style type="text/css">
	.st0{fill:#ACACFF;}
	.st1{fill:#FFFFFF;}
</style>
<g id="Laag_1_2_">
	<title>4 kleuren images</title>
	<g id="Laag_1_1_">
		<rect x="-0.2" y="0.3" class="st0" width="283.5" height="283.5"/>
	</g>
	<path class="st1" d="M46.7,125.8c0-0.2,0.1-0.4,0.4-0.4l0,0h3.1c0.3,0,0.5,0.1,0.6,0.4v0.1v14.4c0,0.7-0.1,1.3-0.4,1.9
		c-0.3,0.6-0.6,1.1-1.1,1.6s-1,0.8-1.6,1.1s-1.3,0.4-2,0.4c-1.2,0-2.4-0.4-3.3-1.2c-0.3-0.3-0.6-0.6-0.8-0.9c0,0,0-0.1,0-0.2
		c0-0.2,0-0.3,0.2-0.4l1.8-1.7c0.1,0,0.1-0.1,0.2-0.1c0.1,0,0.1,0,0.2,0c0.1,0,0.2,0,0.3,0.1l0.3,0.3c0.1,0.1,0.3,0.2,0.4,0.3
		c0.2,0.1,0.4,0.1,0.6,0.1c0.2,0,0.3,0,0.5-0.1c0.1-0.1,0.3-0.2,0.4-0.3c0.1-0.1,0.2-0.2,0.3-0.4c0.1-0.1,0.1-0.3,0.1-0.5
		L46.7,125.8z"/>
	<path class="st1" d="M64.9,139.4c-0.6,0.6-1.3,1-2.1,1.3s-1.6,0.5-2.4,0.5c-2.8,0-5.4-1.6-6.5-4.2c-0.4-0.9-0.6-1.8-0.6-2.7
		c0-1.2,0.3-2.4,0.9-3.4c0.3-0.5,0.6-1,1-1.4s0.8-0.8,1.3-1.1c1-0.7,2.2-1,3.4-1c0.6,0,1.1,0.1,1.7,0.2c1.1,0.3,2.1,0.9,2.9,1.7
		c0.4,0.4,0.7,0.8,1,1.3s0.5,1,0.7,1.5s0.2,1.1,0.2,1.6c0,0.4,0,0.7,0,0.9s-0.1,0.4-0.2,0.6c-0.1,0.1-0.3,0.2-0.5,0.3
		c-0.3,0.1-0.7,0.1-1,0.1h-7.5c0.1,0.4,0.2,0.8,0.4,1.1s0.4,0.5,0.7,0.7s0.6,0.3,0.9,0.4c0.3,0.1,0.6,0.1,0.9,0.1
		c0.3,0,0.5,0,0.8-0.1c0.3,0,0.5-0.1,0.8-0.2c0.2-0.1,0.5-0.2,0.7-0.3s0.3-0.2,0.5-0.4c0.1-0.1,0.2-0.1,0.3-0.2
		c0.1,0,0.2-0.1,0.3-0.1s0.2,0,0.3,0.1s0.2,0.2,0.3,0.3l1.1,1.3c0.1,0.1,0.1,0.2,0.2,0.2c0,0.1,0,0.2,0,0.2c0,0.1,0,0.3-0.1,0.4
		C65.1,139.2,65,139.3,64.9,139.4z M59.9,130.6c-0.3,0-0.5,0.1-0.8,0.2c-0.3,0.1-0.5,0.3-0.7,0.4c-0.2,0.2-0.4,0.4-0.6,0.6
		c-0.2,0.2-0.3,0.5-0.4,0.7h5.4c-0.1-0.3-0.3-0.5-0.5-0.8c-0.2-0.2-0.4-0.4-0.6-0.6c-0.2-0.2-0.5-0.3-0.8-0.4
		C60.6,130.7,60.2,130.6,59.9,130.6L59.9,130.6z"/>
	<path class="st1" d="M75.5,127.8c0.1-0.1,0.2-0.1,0.3-0.1H76h1.6c0.1,0,0.2,0,0.3,0.1c0.1,0,0.2,0.1,0.2,0.2
		c0.1,0.1,0.1,0.2,0.2,0.3l0.1,0.3l0.4,1.3l0.6-0.8c0.2-0.3,0.4-0.5,0.7-0.7c0.3-0.2,0.6-0.4,1-0.5c0.4-0.2,0.9-0.2,1.4-0.2
		c0.9,0,1.8,0.2,2.7,0.5c0.8,0.3,1.5,0.8,2.1,1.5c0.6,0.6,1.1,1.4,1.4,2.2c0.7,1.7,0.7,3.7,0,5.4c-0.3,0.8-0.8,1.6-1.4,2.2
		c-0.6,0.6-1.3,1.1-2.1,1.5c-0.8,0.4-1.7,0.5-2.7,0.5c-0.4,0-0.8-0.1-1.2-0.2c-0.3-0.1-0.6-0.2-0.9-0.4c-0.2-0.2-0.5-0.4-0.7-0.6
		l-0.6-0.6v4.9c0,0.2-0.1,0.4-0.2,0.5c-0.1,0.2-0.4,0.2-0.6,0.2H76c-0.1,0-0.2,0-0.3-0.1c-0.1,0-0.2-0.1-0.3-0.1
		c-0.1-0.1-0.2-0.1-0.2-0.2c-0.1-0.1-0.1-0.2-0.1-0.3v-16c0-0.1,0-0.2,0.1-0.4C75.3,127.9,75.4,127.8,75.5,127.8z M85.3,134.3
		c0-0.4-0.1-0.9-0.2-1.3c-0.1-0.4-0.3-0.7-0.6-1.1c-0.3-0.3-0.6-0.6-1-0.7c-0.4-0.2-0.8-0.3-1.2-0.3c-0.4,0-0.9,0.1-1.3,0.3
		s-0.7,0.4-1,0.7s-0.5,0.6-0.7,1s-0.3,0.8-0.3,1.2v0.2c0,0.4,0.1,0.9,0.3,1.3c0.2,0.4,0.4,0.8,0.7,1.1c0.3,0.3,0.7,0.5,1.1,0.7
		s0.8,0.3,1.3,0.3c0.4,0,0.8-0.1,1.2-0.3c0.4-0.2,0.7-0.4,1-0.7s0.5-0.7,0.6-1.1C85.2,135.2,85.3,134.8,85.3,134.3z"/>
	<path class="st1" d="M91.2,124.5c0-0.2,0.1-0.4,0.2-0.6s0.4-0.2,0.6-0.2h2.6c0.1,0,0.2,0,0.2,0.1c0.1,0,0.2,0.1,0.2,0.2
		c0.1,0.1,0.1,0.2,0.2,0.3c0,0.1,0.1,0.2,0.1,0.3v15.7c0,0.2-0.1,0.4-0.2,0.6c-0.2,0.1-0.4,0.2-0.6,0.2H92c-0.2,0-0.4-0.1-0.6-0.2
		c-0.1-0.2-0.2-0.4-0.2-0.6L91.2,124.5z"/>
	<path class="st1" d="M111.5,140.2c0,0.1,0,0.2-0.1,0.3c0,0.1-0.1,0.2-0.2,0.3s-0.2,0.1-0.3,0.1c-0.1,0-0.2,0-0.3,0h-2.1
		c-0.1,0-0.2,0-0.4-0.1c-0.1,0-0.2-0.1-0.2-0.2c-0.1-0.1-0.1-0.2-0.1-0.3s-0.1-0.2-0.1-0.3l-0.1-0.5c-0.2,0.2-0.4,0.4-0.7,0.6
		c-0.3,0.2-0.5,0.4-0.8,0.5s-0.6,0.3-0.9,0.4c-0.3,0.1-0.7,0.1-1,0.1c-0.6,0-1.2-0.1-1.8-0.2c-0.6-0.2-1.1-0.4-1.6-0.7
		c-1-0.6-1.9-1.4-2.4-2.5c-0.3-0.5-0.5-1.1-0.7-1.7c-0.2-0.6-0.2-1.2-0.2-1.9c0-0.9,0.2-1.9,0.5-2.7s0.8-1.6,1.5-2.2
		c1.3-1.3,3-2,4.8-2c0.4,0,0.8,0,1.2,0.1c0.3,0.1,0.7,0.2,1,0.4s0.6,0.4,0.8,0.6c0.2,0.2,0.5,0.5,0.7,0.8l0.3-1
		c0.1-0.2,0.1-0.3,0.2-0.4c0-0.1,0.1-0.2,0.2-0.2c0.1-0.1,0.1-0.1,0.2-0.1h0.3h1.6h0.3c0.1,0,0.2,0.1,0.3,0.1
		c0.1,0.1,0.2,0.2,0.2,0.3s0.1,0.2,0.1,0.3L111.5,140.2z M101.1,134.3c0,0.4,0.1,0.9,0.2,1.3c0.1,0.4,0.3,0.7,0.6,1
		c0.3,0.3,0.6,0.5,1,0.7s0.8,0.3,1.2,0.3c0.4,0,0.9-0.1,1.3-0.3s0.7-0.4,1.1-0.7c0.3-0.3,0.5-0.6,0.7-1s0.2-0.9,0.3-1.3
		c0-0.4-0.1-0.9-0.3-1.3c-0.3-0.8-1-1.4-1.8-1.8c-0.4-0.2-0.9-0.3-1.3-0.3s-0.9,0.1-1.2,0.3c-0.4,0.2-0.7,0.4-1,0.7
		s-0.5,0.7-0.6,1.1C101.2,133.4,101.1,133.9,101.1,134.3z"/>
	<path class="st1" d="M114.3,127.8c0.1-0.1,0.2-0.1,0.3-0.1h0.3h1.6c0.1,0,0.2,0,0.3,0.1c0.1,0,0.2,0.1,0.2,0.2
		c0.1,0.1,0.1,0.2,0.2,0.3c0,0.1,0.1,0.2,0.1,0.3l0.2,0.9c0.1-0.2,0.3-0.5,0.5-0.7c0.3-0.2,0.6-0.5,0.9-0.6c0.4-0.2,0.8-0.4,1.2-0.5
		c0.5-0.1,1-0.2,1.5-0.2c0.7,0,1.5,0.1,2.1,0.5c0.6,0.3,1.2,0.7,1.6,1.3s0.8,1.2,1,1.9s0.3,1.5,0.3,2.3v6.9c0,0.2,0,0.4-0.2,0.6
		c-0.1,0.1-0.3,0.2-0.6,0.2h-2.4c-0.2,0-0.4,0-0.6-0.2c-0.1-0.2-0.2-0.4-0.2-0.6v-6.8c0-0.3-0.1-0.6-0.2-0.9
		c-0.1-0.3-0.3-0.5-0.5-0.7s-0.5-0.4-0.8-0.5s-0.6-0.2-0.9-0.2s-0.5,0.1-0.8,0.2c-0.3,0.1-0.5,0.3-0.7,0.5s-0.4,0.4-0.6,0.7
		s-0.2,0.6-0.3,0.9v6.8c0,0.1,0,0.2-0.1,0.4c0,0.1-0.1,0.2-0.2,0.3s-0.2,0.1-0.3,0.1c-0.1,0-0.2,0-0.3,0h-2.4
		c-0.2,0-0.5-0.1-0.7-0.2c-0.1-0.2-0.2-0.4-0.2-0.6v-11.7c0-0.1,0-0.3,0.1-0.4C114.1,127.9,114.2,127.9,114.3,127.8L114.3,127.8z"/>
	<path class="st1" d="M130,125.6c0-0.2,0.1-0.4,0.2-0.5c0.2-0.1,0.4-0.2,0.6-0.3l2.4-0.8h0.2c0.2,0,0.4,0.1,0.5,0.2
		c0.1,0.2,0.1,0.4,0.1,0.6v2.9h1.4c0.2,0,0.4,0.1,0.6,0.2c0.2,0.2,0.2,0.4,0.2,0.6v2c0,0.2-0.1,0.5-0.2,0.6
		c-0.1,0.1-0.3,0.2-0.6,0.2H134v8.9c0,0.2-0.1,0.4-0.2,0.6c-0.2,0.1-0.4,0.2-0.6,0.2h-2.4c-0.4,0.1-0.8-0.2-0.8-0.6
		c0-0.1,0-0.1,0-0.2v-8.8h-1.1c-0.5,0-0.8-0.3-0.8-0.9v-2c-0.1-0.4,0.2-0.7,0.6-0.8c0.1,0,0.1,0,0.2,0h1.1V125.6z"/>
	<path class="st1" d="M138.2,128.4c0-0.2,0.1-0.5,0.3-0.6s0.4-0.2,0.6-0.2h2.4c0.2,0,0.4,0.1,0.6,0.2c0.1,0.2,0.2,0.4,0.2,0.6v12.1
		c0,0.6-0.1,1.3-0.4,1.8c-0.3,0.6-0.6,1.1-1.1,1.5s-1,0.8-1.6,1s-1.2,0.4-1.9,0.4H137c-0.2,0-0.4-0.1-0.6-0.2
		c-0.1-0.1-0.2-0.3-0.2-0.5V143c0-0.2,0.1-0.4,0.2-0.6c0.2-0.2,0.4-0.2,0.6-0.2h0.2c0.1,0,0.3-0.1,0.4-0.2c0.1-0.1,0.2-0.3,0.3-0.4
		c0.1-0.2,0.1-0.3,0.2-0.5c0-0.2,0.1-0.3,0.1-0.5V128.4z M138.2,123.1c0-0.2,0-0.5,0.2-0.6s0.4-0.2,0.6-0.2h2.4
		c0.2,0,0.4,0.1,0.6,0.2c0.2,0.2,0.2,0.4,0.2,0.6v2c0,0.1,0,0.2-0.1,0.3c0,0.1-0.1,0.2-0.2,0.3c-0.1,0.1-0.2,0.2-0.3,0.2
		c-0.1,0.1-0.2,0.1-0.3,0.1H139c-0.5,0-0.8-0.3-0.8-0.9V123.1z"/>
	<path class="st1" d="M155.9,139.4c-0.6,0.6-1.3,1-2.1,1.3s-1.6,0.5-2.4,0.5c-2.8,0-5.4-1.6-6.5-4.2c-0.4-0.9-0.6-1.8-0.6-2.7
		c0-1.2,0.3-2.4,0.9-3.4c0.3-0.5,0.6-1,1-1.4s0.8-0.8,1.3-1.1s1-0.5,1.6-0.7s1.2-0.2,1.8-0.3c0.6,0,1.1,0.1,1.7,0.2
		c1.1,0.3,2.1,0.9,2.9,1.7c0.4,0.4,0.7,0.8,1,1.3s0.5,1,0.7,1.5s0.2,1.1,0.2,1.6c0,0.4,0,0.7,0,0.9s-0.1,0.4-0.2,0.6
		c-0.1,0.1-0.3,0.2-0.5,0.3c-0.3,0.1-0.7,0.1-1,0.1h-7.6c0.1,0.4,0.2,0.8,0.4,1.1s0.5,0.5,0.7,0.7c0.3,0.2,0.6,0.3,0.9,0.4
		c0.3,0.1,0.6,0.1,0.9,0.1c0.3,0,0.5,0,0.8-0.1s0.5-0.1,0.8-0.2c0.2-0.1,0.5-0.2,0.7-0.3s0.4-0.2,0.5-0.4c0.1-0.1,0.2-0.1,0.3-0.2
		c0.1,0,0.2-0.1,0.3-0.1s0.2,0,0.3,0.1s0.2,0.2,0.3,0.3l1.1,1.3c0.1,0.1,0.1,0.2,0.1,0.2c0,0.1,0,0.2,0,0.2c0,0.1,0,0.3-0.1,0.4
		C156.1,139.2,156,139.3,155.9,139.4z M150.9,130.6c-0.3,0-0.5,0.1-0.8,0.2c-0.3,0.1-0.5,0.3-0.7,0.4c-0.2,0.2-0.4,0.4-0.6,0.6
		c-0.2,0.2-0.3,0.5-0.4,0.7h5.4c-0.1-0.3-0.3-0.5-0.5-0.8c-0.2-0.2-0.4-0.4-0.6-0.6c-0.2-0.2-0.5-0.3-0.8-0.4
		C151.6,130.7,151.2,130.6,150.9,130.6z"/>
	<path class="st1" d="M161.6,136.8c0.2,0.2,0.4,0.3,0.6,0.5c0.2,0.1,0.4,0.2,0.6,0.3c0.2,0.1,0.3,0.1,0.5,0.2c0.1,0,0.2,0.1,0.3,0.1
		h0.5c0.2,0,0.4,0,0.6-0.1c0.2-0.1,0.3-0.1,0.5-0.3c0.1-0.1,0.2-0.3,0.2-0.5s0-0.3-0.1-0.5c-0.1-0.1-0.2-0.2-0.3-0.3
		c-0.2-0.1-0.4-0.2-0.5-0.2l-0.7-0.2c-0.7-0.2-1.4-0.5-2.1-0.8c-0.5-0.3-0.9-0.6-1.3-1.1c-0.3-0.4-0.5-0.8-0.7-1.3
		c-0.1-0.5-0.2-0.9-0.2-1.4c0-1.1,0.5-2.1,1.3-2.8c0.5-0.4,1-0.6,1.5-0.8c0.6-0.2,1.3-0.3,2-0.3c0.4,0,0.8,0,1.2,0.1
		s0.7,0.2,1.1,0.3c0.4,0.2,0.7,0.4,1,0.6c0.4,0.3,0.7,0.6,1,0.9c0.1,0.1,0.2,0.2,0.2,0.4c0,0.1-0.1,0.3-0.2,0.4s-0.5,0.4-0.8,0.7
		l-0.8,0.7c-0.1,0.1-0.3,0.2-0.5,0.1c-0.1,0-0.2-0.1-0.2-0.1c-0.1-0.1-0.1-0.1-0.2-0.2c-0.2-0.3-0.5-0.5-0.8-0.6s-0.6-0.1-0.9-0.1
		c-0.3,0-0.6,0-0.8,0.2c-0.2,0.1-0.3,0.3-0.3,0.6c0,0.2,0.1,0.3,0.2,0.4c0.1,0.1,0.3,0.2,0.4,0.3c0.2,0.1,0.4,0.1,0.6,0.1l0.6,0.1
		c0.6,0.2,1.2,0.4,1.8,0.7c0.5,0.2,1,0.5,1.4,0.9c0.4,0.3,0.7,0.8,0.9,1.3c0.2,0.6,0.3,1.2,0.3,1.8s-0.1,1.3-0.4,1.9
		c-0.3,0.5-0.7,1-1.1,1.4c-0.5,0.4-1.1,0.7-1.7,0.9c-0.7,0.2-1.4,0.3-2.1,0.3c-0.4,0-0.9,0-1.3-0.1c-0.4-0.1-0.9-0.2-1.3-0.4
		c-0.4-0.2-0.8-0.4-1.2-0.7s-0.7-0.6-1-1c-0.1-0.1-0.1-0.2-0.2-0.3c0-0.1,0-0.2,0-0.3s0-0.2,0.1-0.3c0-0.1,0.1-0.2,0.2-0.2l1.4-1.4
		c0.1-0.1,0.3-0.2,0.4-0.1C161.4,136.6,161.5,136.7,161.6,136.8z"/>
	<path class="st1" d="M43.4,156.7c-0.1-0.2-0.2-0.5-0.1-0.7c0.1-0.2,0.3-0.3,0.6-0.3h2.7c0.2,0,0.3,0,0.5,0.1
		c0.1,0.1,0.2,0.3,0.3,0.4c0.1,0.4,0.3,0.8,0.4,1.2s0.3,0.9,0.5,1.4s0.3,0.9,0.5,1.4s0.3,0.9,0.4,1.3s0.2,0.7,0.3,1s0.2,0.5,0.2,0.6
		l2.2-7c0.1-0.2,0.2-0.3,0.3-0.4c0.1-0.1,0.3-0.1,0.5-0.1h2.5c0.2,0,0.3,0,0.5,0.1c0.1,0,0.2,0.1,0.2,0.2c0,0.1,0,0.2,0,0.3
		s-0.1,0.2-0.1,0.3l-1.2,2.8c0.1,0.2,0.2,0.4,0.3,0.6l0.5,1c0.2,0.4,0.4,0.7,0.5,1.1s0.3,0.8,0.5,1.1l2.6-7c0.1-0.2,0.2-0.3,0.3-0.4
		c0.1-0.1,0.3-0.1,0.4-0.1H62c0.2,0,0.5,0,0.7,0.2c0.1,0.1,0.1,0.4,0,0.7l-4.9,12c-0.1,0.1-0.2,0.2-0.3,0.3
		c-0.2,0.1-0.3,0.2-0.5,0.2h-1.1c-0.2,0-0.4,0-0.6-0.1c-0.1-0.1-0.2-0.2-0.3-0.3l-2-4.8l-1.9,4.8c-0.1,0.1-0.2,0.2-0.3,0.3
		s-0.3,0.2-0.5,0.1h-1.2c-0.2,0-0.4,0-0.6-0.1c-0.1-0.1-0.2-0.2-0.3-0.3L43.4,156.7z"/>
	<path class="st1" d="M63.5,162.3c0-0.6,0.1-1.3,0.2-1.9c0.2-0.6,0.4-1.1,0.7-1.6s0.7-1,1.1-1.4s0.9-0.8,1.4-1.1
		c1.1-0.6,2.3-0.9,3.5-0.9c0.9,0,1.8,0.2,2.7,0.5c0.8,0.3,1.6,0.8,2.2,1.5c0.6,0.6,1.1,1.4,1.5,2.2c0.4,0.9,0.5,1.8,0.5,2.7
		c0,0.6-0.1,1.2-0.3,1.9c-0.3,1.2-0.9,2.2-1.8,3.1c-0.8,0.8-1.9,1.4-3,1.8c-0.6,0.2-1.2,0.2-1.8,0.2c-1.2,0-2.4-0.3-3.5-0.9
		c-1-0.6-1.9-1.4-2.5-2.5c-0.3-0.5-0.5-1.1-0.7-1.7C63.6,163.6,63.5,162.9,63.5,162.3z M67.3,162.3c0,0.4,0.1,0.9,0.2,1.3
		c0.1,0.4,0.3,0.7,0.6,1c0.3,0.3,0.6,0.5,1,0.7s0.8,0.3,1.3,0.3c0.4,0,0.9-0.1,1.2-0.3c0.4-0.2,0.7-0.4,0.9-0.7
		c0.3-0.3,0.5-0.6,0.6-1s0.2-0.9,0.2-1.3c0-0.4-0.1-0.9-0.2-1.3c-0.1-0.4-0.3-0.8-0.6-1.1c-0.5-0.6-1.3-1-2.2-1
		c-0.4,0-0.9,0.1-1.3,0.3s-0.7,0.4-1,0.7s-0.5,0.7-0.6,1.1C67.4,161.4,67.3,161.9,67.3,162.3z"/>
	<path class="st1" d="M79.3,156.4c0-0.1,0-0.2,0.1-0.4c0-0.1,0.1-0.2,0.2-0.2c0.1-0.1,0.2-0.1,0.3-0.1c0.1,0,0.2,0,0.3-0.1h1.6
		c0.2,0,0.3,0.1,0.4,0.2c0.1,0.1,0.2,0.3,0.3,0.4c0.1,0.2,0.1,0.3,0.2,0.5s0.1,0.4,0.2,0.6l0.6-0.7c0.2-0.2,0.4-0.4,0.7-0.6
		c0.2-0.2,0.5-0.3,0.8-0.4c0.3-0.1,0.7-0.2,1-0.2s0.7,0,1,0.1s0.6,0.1,0.8,0.3c0.3,0.1,0.5,0.3,0.8,0.4c0.3,0.2,0.6,0.4,0.9,0.6
		c0.3,0.1,0.4,0.3,0.4,0.6c0,0.2-0.1,0.4-0.2,0.5l-1,1.6c-0.1,0.3-0.4,0.4-0.7,0.5c-0.2,0-0.3,0-0.5-0.1c-0.3-0.3-0.6-0.5-0.9-0.7
		c-0.3-0.1-0.7-0.2-1.1-0.2c-0.2,0-0.5,0-0.7,0.1s-0.4,0.2-0.6,0.3s-0.3,0.3-0.5,0.5c-0.1,0.2-0.3,0.4-0.4,0.7v7.6
		c0,0.2-0.1,0.4-0.2,0.6c-0.2,0.2-0.4,0.2-0.7,0.2h-2.3c-0.4,0.1-0.8-0.2-0.8-0.6c0-0.1,0-0.1,0-0.2L79.3,156.4z"/>
	<path class="st1" d="M100.6,167.6c-0.2,0.2-0.4,0.4-0.6,0.6c-0.2,0.2-0.5,0.4-0.8,0.5c-0.3,0.2-0.6,0.3-0.9,0.4
		c-0.3,0.1-0.7,0.1-1,0.1c-0.9,0-1.8-0.2-2.6-0.5c-0.8-0.3-1.5-0.8-2.1-1.5c-0.6-0.6-1.1-1.4-1.4-2.2c-0.7-1.8-0.7-3.7,0-5.4
		c0.3-0.8,0.8-1.5,1.3-2.2c0.6-0.6,1.3-1.1,2.1-1.4c0.8-0.4,1.7-0.5,2.6-0.5c0.4,0,0.7,0,1.1,0.1c0.3,0.1,0.6,0.2,0.9,0.3
		s0.5,0.3,0.7,0.4c0.2,0.2,0.4,0.4,0.6,0.6v-4.4c0-0.2,0.1-0.4,0.2-0.6c0.2-0.2,0.4-0.2,0.6-0.2h2.4c0.1,0,0.2,0,0.3,0.1
		c0.1,0,0.2,0.1,0.3,0.2c0.1,0.1,0.1,0.2,0.2,0.3s0.1,0.2,0.1,0.3v15.7c0,0.5-0.3,0.8-0.8,0.8h-2.1c-0.1,0-0.2,0-0.3-0.1
		c-0.1,0-0.1-0.1-0.2-0.1c-0.1-0.1-0.1-0.2-0.1-0.3s-0.1-0.2-0.2-0.4L100.6,167.6z M94.5,162.3c0,0.4,0.1,0.9,0.2,1.3
		c0.1,0.4,0.3,0.7,0.6,1c0.3,0.3,0.6,0.5,1,0.7s0.8,0.3,1.3,0.3c0.9,0,1.7-0.3,2.3-0.9c0.3-0.3,0.5-0.6,0.7-1s0.3-0.8,0.3-1.2v-0.1
		c0-0.4-0.1-0.9-0.3-1.3c-0.2-0.4-0.4-0.8-0.7-1.1c-0.3-0.3-0.6-0.6-1-0.7c-0.4-0.2-0.9-0.3-1.3-0.3s-0.9,0.1-1.3,0.3
		s-0.7,0.4-1,0.7s-0.5,0.7-0.6,1.1C94.6,161.4,94.5,161.9,94.5,162.3z"/>
	<path class="st1" d="M118.5,167.4c-0.6,0.6-1.3,1-2.1,1.3c-0.8,0.3-1.6,0.5-2.4,0.5c-0.9,0-1.9-0.2-2.7-0.5
		c-0.8-0.3-1.6-0.8-2.3-1.4c-0.6-0.6-1.2-1.4-1.5-2.2c-0.4-0.9-0.6-1.8-0.6-2.7c0-1.2,0.3-2.4,0.9-3.4c0.3-0.5,0.6-1,1-1.4
		s0.8-0.8,1.3-1.1s1-0.5,1.6-0.7c1.1-0.3,2.4-0.3,3.5,0c0.5,0.2,1.1,0.4,1.5,0.6c0.5,0.3,0.9,0.6,1.3,1s0.7,0.8,1,1.3s0.5,1,0.7,1.5
		s0.2,1.1,0.2,1.6c0,0.4,0,0.7,0,0.9s-0.1,0.4-0.2,0.6c-0.1,0.1-0.3,0.2-0.5,0.3c-0.3,0.1-0.7,0.1-1,0.1h-7.6
		c0.1,0.4,0.2,0.8,0.4,1.1c0.2,0.3,0.5,0.5,0.7,0.7c0.3,0.2,0.6,0.3,0.9,0.4c0.3,0.1,0.6,0.1,0.9,0.1s0.5,0,0.8-0.1s0.5-0.1,0.8-0.2
		c0.2-0.1,0.5-0.2,0.7-0.3s0.4-0.2,0.5-0.4c0.1-0.1,0.2-0.1,0.3-0.2c0.1,0,0.2-0.1,0.3-0.1c0.1,0,0.2,0,0.3,0.1
		c0.1,0.1,0.2,0.2,0.3,0.3l1.1,1.3c0.1,0.1,0.1,0.2,0.1,0.2c0,0.1,0,0.2,0,0.2c0,0.1,0,0.3-0.1,0.4
		C118.7,167.2,118.6,167.3,118.5,167.4z M113.5,158.6c-0.3,0-0.5,0.1-0.8,0.2c-0.3,0.1-0.5,0.3-0.7,0.4c-0.2,0.2-0.4,0.4-0.6,0.6
		c-0.2,0.2-0.3,0.5-0.4,0.7h5.4c-0.1-0.3-0.3-0.5-0.5-0.8c-0.2-0.2-0.4-0.4-0.6-0.6c-0.2-0.2-0.5-0.3-0.8-0.4
		C114.1,158.7,113.8,158.6,113.5,158.6z"/>
	<path class="st1" d="M122.5,155.8c0.1-0.1,0.2-0.1,0.3-0.1h0.3h1.6c0.1,0,0.2,0,0.3,0.1c0.1,0,0.2,0.1,0.2,0.2
		c0.1,0.1,0.1,0.2,0.2,0.3c0,0.1,0.1,0.2,0.1,0.3l0.2,0.9c0.1-0.3,0.3-0.5,0.5-0.7c0.3-0.3,0.6-0.5,0.9-0.6c0.4-0.2,0.8-0.4,1.2-0.5
		c0.5-0.1,1-0.2,1.5-0.2c0.7,0,1.5,0.1,2.1,0.5c0.6,0.3,1.2,0.7,1.6,1.3c0.4,0.6,0.8,1.2,1,1.9s0.3,1.5,0.3,2.3v6.9
		c0,0.2,0,0.4-0.2,0.6c-0.1,0.1-0.3,0.2-0.6,0.2h-2.4c-0.2,0-0.4,0-0.6-0.2c-0.1-0.2-0.2-0.4-0.2-0.6v-6.8c0-0.3-0.1-0.6-0.2-0.9
		c-0.3-0.5-0.7-1-1.3-1.2c-0.3-0.1-0.6-0.2-0.9-0.2c-0.3,0-0.5,0.1-0.8,0.2c-0.3,0.1-0.5,0.3-0.7,0.5s-0.4,0.4-0.6,0.7
		s-0.2,0.6-0.3,0.9v6.8c0,0.1,0,0.2-0.1,0.4c0,0.1-0.1,0.2-0.2,0.3s-0.2,0.1-0.3,0.1c-0.1,0-0.2,0-0.3,0H123c-0.2,0-0.5-0.1-0.7-0.2
		c-0.1-0.2-0.2-0.4-0.2-0.6v-11.7c0-0.1,0-0.3,0.1-0.4C122.3,155.9,122.4,155.9,122.5,155.8L122.5,155.8z"/>
	<rect x="43" y="226.8" class="st1" width="30" height="5"/>
</g>
<g id="Laag_2_1_">
	<g>
		<path class="st1" d="M43.1,184.7c-0.1-0.3-0.2-0.5-0.1-0.7c0.1-0.2,0.3-0.3,0.6-0.3h2.7c0.2,0,0.3,0,0.5,0.1
			c0.1,0.1,0.2,0.2,0.3,0.4c0.1,0.4,0.3,0.8,0.4,1.3c0.1,0.5,0.3,0.9,0.5,1.4s0.3,1,0.5,1.5s0.3,0.9,0.4,1.3s0.2,0.8,0.3,1.1
			s0.2,0.5,0.2,0.6l2.2-7.2c0.1-0.2,0.2-0.4,0.3-0.5s0.3-0.1,0.5-0.1h2.8c0.2,0,0.4,0,0.5,0.1s0.2,0.1,0.2,0.2s0,0.2,0,0.3
			s-0.1,0.2-0.1,0.3l-5,12c-0.1,0.1-0.2,0.2-0.3,0.3s-0.3,0.1-0.5,0.1h-1.3c-0.3,0-0.5,0-0.6-0.1s-0.2-0.2-0.3-0.3L43.1,184.7z"/>
		<path class="st1" d="M68.1,195.5c-0.6,0.6-1.3,1-2.1,1.3c-0.8,0.3-1.6,0.5-2.5,0.5c-1,0-1.9-0.2-2.7-0.5c-0.9-0.4-1.6-0.8-2.3-1.5
			c-0.6-0.6-1.2-1.4-1.5-2.2c-0.4-0.8-0.6-1.8-0.6-2.8c0-0.6,0.1-1.2,0.2-1.8s0.4-1.1,0.6-1.6c0.3-0.5,0.6-1,1-1.4s0.8-0.8,1.3-1.1
			s1-0.5,1.6-0.7s1.2-0.3,1.8-0.3s1.1,0.1,1.7,0.2c0.6,0.1,1.1,0.4,1.5,0.7c0.5,0.3,0.9,0.6,1.3,1s0.7,0.8,1,1.3s0.5,1,0.7,1.5
			s0.2,1.1,0.2,1.6c0,0.4,0,0.7,0,0.9s-0.1,0.4-0.2,0.6c-0.1,0.1-0.3,0.2-0.5,0.3s-0.6,0.1-1,0.1H60c0.1,0.5,0.2,0.8,0.4,1.1
			s0.5,0.5,0.7,0.7c0.3,0.2,0.6,0.3,0.9,0.4c0.3,0.1,0.6,0.1,0.9,0.1c0.3,0,0.5,0,0.8-0.1c0.3-0.1,0.5-0.1,0.8-0.2
			c0.2-0.1,0.5-0.2,0.7-0.3s0.4-0.2,0.5-0.4c0.1-0.1,0.2-0.2,0.3-0.2c0.1,0,0.2-0.1,0.3-0.1s0.2,0,0.3,0.1c0.1,0.1,0.2,0.2,0.3,0.3
			l1.1,1.3c0.1,0.1,0.1,0.2,0.1,0.2c0,0.1,0,0.1,0,0.2c0,0.1,0,0.3-0.1,0.4C68.3,195.3,68.2,195.4,68.1,195.5z M63,186.7
			c-0.3,0-0.5,0.1-0.8,0.2c-0.3,0.1-0.5,0.3-0.7,0.4c-0.2,0.2-0.4,0.4-0.6,0.6c-0.2,0.2-0.3,0.5-0.4,0.7h5.4
			c-0.1-0.3-0.3-0.5-0.5-0.8c-0.2-0.2-0.4-0.4-0.6-0.6c-0.2-0.2-0.5-0.3-0.8-0.4C63.7,186.8,63.4,186.7,63,186.7z"/>
		<path class="st1" d="M71.8,184.5c0-0.1,0-0.2,0.1-0.3s0.1-0.2,0.2-0.2c0.1-0.1,0.2-0.1,0.3-0.1c0.1,0,0.2,0,0.3,0h1.6
			c0.2,0,0.3,0.1,0.4,0.2s0.2,0.2,0.3,0.4c0.1,0.2,0.1,0.3,0.2,0.5s0.1,0.4,0.2,0.6c0.2-0.2,0.4-0.5,0.6-0.7s0.4-0.4,0.7-0.6
			c0.2-0.2,0.5-0.3,0.8-0.4c0.3-0.1,0.6-0.2,1-0.2s0.7,0,1,0.1s0.6,0.1,0.8,0.2c0.3,0.1,0.5,0.2,0.8,0.4s0.6,0.4,0.9,0.6
			c0.3,0.2,0.5,0.4,0.5,0.6c0,0.2-0.1,0.3-0.2,0.5l-1,1.6c-0.2,0.3-0.4,0.4-0.7,0.4c-0.1,0-0.3,0-0.5-0.1c-0.3-0.3-0.6-0.5-0.9-0.7
			c-0.3-0.1-0.7-0.2-1.1-0.2c-0.3,0-0.5,0-0.7,0.1s-0.4,0.2-0.6,0.3s-0.3,0.3-0.5,0.5c-0.1,0.2-0.3,0.4-0.4,0.7v7.6
			c0,0.3-0.1,0.5-0.2,0.6s-0.3,0.2-0.6,0.2h-2.4c-0.5,0-0.8-0.3-0.8-0.8v-11.8H71.8z"/>
		<path class="st1" d="M83.8,184.5c0-0.2,0.1-0.4,0.2-0.6c0.2-0.2,0.4-0.2,0.6-0.2h8.9c0.2,0,0.4,0.1,0.6,0.2
			c0.2,0.1,0.3,0.3,0.3,0.6v1.8c0,0.1,0,0.1,0,0.2c0,0.1,0,0.2-0.1,0.3l-5.8,6.9h5.2c0.3,0,0.5,0.1,0.6,0.2c0.2,0.1,0.2,0.4,0.2,0.6
			v1.7c0,0.1,0,0.2-0.1,0.3c0,0.1-0.1,0.2-0.2,0.3S94.1,197,94,197s-0.2,0.1-0.3,0.1h-9.3c-0.1,0-0.2,0-0.3-0.1
			c-0.1-0.1-0.2-0.1-0.3-0.2c-0.1-0.1-0.1-0.2-0.2-0.3c0-0.1-0.1-0.2-0.1-0.3v-1.5c0-0.1,0-0.2,0-0.3s0.1-0.2,0.2-0.3
			c0.5-0.5,1-1.1,1.5-1.7c0.5-0.6,1-1.2,1.6-1.9c0.5-0.6,1.1-1.2,1.6-1.9c0.5-0.6,1-1.2,1.5-1.7h-5.1c-0.3,0-0.5-0.1-0.6-0.2
			c-0.2-0.1-0.2-0.4-0.2-0.7v-1.5H83.8z"/>
		<path class="st1" d="M95.6,190.4c0-0.6,0.1-1.3,0.2-1.9s0.4-1.2,0.7-1.7s0.7-1,1.1-1.4s0.9-0.8,1.4-1.1s1.1-0.5,1.7-0.7
			s1.2-0.2,1.9-0.2c1,0,1.9,0.2,2.7,0.5c0.8,0.4,1.6,0.8,2.2,1.5c0.6,0.6,1.1,1.4,1.5,2.2s0.5,1.7,0.5,2.7c0,0.6-0.1,1.3-0.2,1.9
			c-0.2,0.6-0.4,1.1-0.7,1.7c-0.3,0.5-0.7,1-1.1,1.4s-0.9,0.8-1.4,1.1s-1.1,0.5-1.7,0.7s-1.2,0.2-1.8,0.2c-0.6,0-1.3-0.1-1.9-0.2
			c-0.6-0.2-1.1-0.4-1.7-0.7s-1-0.7-1.4-1.1c-0.4-0.4-0.8-0.9-1.1-1.4c-0.3-0.5-0.5-1.1-0.7-1.7C95.6,191.7,95.6,191.1,95.6,190.4z
			 M99.4,190.4c0,0.5,0.1,0.9,0.2,1.3s0.3,0.8,0.6,1c0.3,0.3,0.6,0.5,1,0.7s0.8,0.3,1.3,0.3s0.9-0.1,1.2-0.3
			c0.4-0.2,0.7-0.4,0.9-0.7c0.3-0.3,0.5-0.6,0.6-1s0.2-0.8,0.2-1.3c0-0.4-0.1-0.9-0.2-1.3c-0.1-0.4-0.3-0.8-0.6-1.1
			c-0.3-0.3-0.6-0.6-0.9-0.7s-0.8-0.3-1.2-0.3c-0.5,0-0.9,0.1-1.3,0.3s-0.7,0.4-1,0.7s-0.5,0.7-0.6,1.1S99.4,190,99.4,190.4z"/>
		<path class="st1" d="M111.5,184.5c0-0.1,0-0.2,0.1-0.3s0.1-0.2,0.2-0.2c0.1-0.1,0.2-0.1,0.3-0.1c0.1,0,0.2,0,0.3,0h1.6
			c0.2,0,0.3,0.1,0.4,0.2s0.2,0.2,0.3,0.4c0.1,0.2,0.1,0.3,0.2,0.5s0.1,0.4,0.2,0.6c0.2-0.2,0.4-0.5,0.6-0.7s0.4-0.4,0.7-0.6
			c0.2-0.2,0.5-0.3,0.8-0.4c0.3-0.1,0.6-0.2,1-0.2s0.7,0,1,0.1s0.6,0.1,0.8,0.2c0.3,0.1,0.5,0.2,0.8,0.4s0.6,0.4,0.9,0.6
			c0.3,0.2,0.5,0.4,0.5,0.6c0,0.2-0.1,0.3-0.2,0.5l-1,1.6c-0.2,0.3-0.4,0.4-0.7,0.4c-0.1,0-0.3,0-0.5-0.1c-0.3-0.3-0.6-0.5-0.9-0.7
			c-0.3-0.1-0.7-0.2-1.1-0.2c-0.3,0-0.5,0-0.7,0.1s-0.4,0.2-0.6,0.3s-0.3,0.3-0.5,0.5c-0.1,0.2-0.3,0.4-0.4,0.7v7.6
			c0,0.3-0.1,0.5-0.2,0.6s-0.3,0.2-0.6,0.2h-2.4c-0.5,0-0.8-0.3-0.8-0.8v-11.8H111.5z"/>
		<path class="st1" d="M133,196.6c0-0.1,0.1-0.3,0.1-0.5s0-0.3,0-0.5c0-0.1,0-0.1,0-0.1v-0.1c0,0,0,0,0-0.1s0-0.1,0-0.1
			c-0.2,0.2-0.4,0.4-0.6,0.6s-0.4,0.4-0.7,0.6c-0.3,0.2-0.5,0.3-0.9,0.4c-0.3,0.1-0.7,0.2-1.1,0.2c-0.9,0-1.8-0.2-2.6-0.5
			s-1.5-0.8-2.1-1.4c-0.6-0.6-1.1-1.3-1.4-2.1s-0.5-1.7-0.5-2.7s0.2-1.9,0.5-2.7s0.8-1.6,1.4-2.2c0.6-0.6,1.3-1.1,2.1-1.5
			s1.7-0.5,2.6-0.5c0.4,0,0.8,0,1.2,0.1s0.7,0.2,1,0.4s0.6,0.4,0.8,0.6c0.2,0.2,0.5,0.5,0.7,0.7l0.3-0.9c0-0.1,0.1-0.2,0.1-0.3
			s0.1-0.2,0.1-0.2s0.1-0.1,0.2-0.2s0.2-0.1,0.3-0.1h1.6c0.1,0,0.2,0,0.3,0.1c0.1,0,0.2,0.1,0.3,0.1c0.1,0.1,0.1,0.1,0.2,0.2
			s0.1,0.2,0.1,0.3v10.7c0,1.1-0.2,2.1-0.5,2.9c-0.4,0.9-0.8,1.6-1.5,2.2c-0.6,0.6-1.4,1-2.2,1.4c-0.9,0.3-1.8,0.5-2.7,0.5
			c-0.4,0-0.8,0-1.2-0.1s-0.9-0.2-1.3-0.3c-0.4-0.1-0.9-0.3-1.3-0.5s-0.8-0.4-1.1-0.7c-0.1-0.1-0.2-0.2-0.3-0.3s-0.1-0.2-0.1-0.4
			s0.1-0.4,0.2-0.6l1-1.4c0.1-0.1,0.2-0.2,0.3-0.2s0.2-0.1,0.3-0.1c0.2,0,0.3,0.1,0.6,0.3c0.2,0.2,0.4,0.3,0.6,0.4
			c0.2,0.1,0.5,0.2,0.7,0.2s0.5,0.1,0.7,0.1s0.4,0,0.6,0c0.3,0,0.6,0,1-0.1c0.3-0.1,0.7-0.2,1-0.4s0.6-0.4,0.8-0.6
			S132.9,196.9,133,196.6z M127,190.4c0,0.5,0.1,0.9,0.2,1.3c0.1,0.4,0.3,0.8,0.6,1c0.3,0.3,0.6,0.5,1,0.7s0.8,0.3,1.3,0.3
			c0.4,0,0.9-0.1,1.3-0.2c0.4-0.2,0.7-0.4,1-0.7s0.5-0.6,0.7-1s0.3-0.8,0.3-1.2v-0.3c0-0.4-0.1-0.8-0.3-1.2s-0.4-0.7-0.7-1
			s-0.6-0.5-1-0.7s-0.8-0.3-1.3-0.3s-0.9,0.1-1.3,0.3c-0.4,0.2-0.7,0.4-1,0.7s-0.5,0.7-0.6,1.1C127.1,189.5,127,189.9,127,190.4z"/>
		<path class="st1" d="M149.1,195.8c-0.2,0.2-0.4,0.4-0.6,0.6s-0.5,0.4-0.8,0.5s-0.6,0.3-0.9,0.4c-0.3,0.1-0.7,0.1-1,0.1
			c-1,0-1.8-0.2-2.6-0.5c-0.8-0.4-1.5-0.8-2.1-1.5s-1-1.4-1.4-2.2c-0.3-0.8-0.5-1.8-0.5-2.7c0-1,0.2-1.9,0.5-2.7s0.8-1.6,1.4-2.2
			s1.3-1.1,2.1-1.5s1.7-0.5,2.6-0.5c0.4,0,0.7,0,1.1,0.1s0.6,0.2,0.9,0.3c0.3,0.1,0.5,0.3,0.7,0.5s0.4,0.4,0.6,0.6v-4.4
			c0-0.2,0.1-0.4,0.2-0.6c0.1-0.2,0.3-0.2,0.6-0.2h2.4c0.1,0,0.2,0,0.3,0.1c0.1,0,0.2,0.1,0.3,0.2s0.2,0.2,0.2,0.3s0.1,0.2,0.1,0.3
			v15.8c0,0.5-0.3,0.8-0.9,0.8h-2.1c-0.1,0-0.3,0-0.3-0.1c-0.1,0-0.1-0.1-0.2-0.2c-0.1-0.1-0.1-0.2-0.1-0.3s-0.1-0.2-0.2-0.4
			L149.1,195.8z M142.9,190.4c0,0.5,0.1,0.9,0.2,1.3s0.3,0.8,0.6,1c0.3,0.3,0.6,0.5,1,0.7s0.8,0.3,1.3,0.3c0.4,0,0.9-0.1,1.3-0.2
			c0.4-0.2,0.7-0.4,1-0.7s0.5-0.6,0.7-1s0.3-0.8,0.3-1.2v-0.1c0-0.4-0.1-0.9-0.3-1.3c-0.2-0.4-0.4-0.8-0.7-1.1s-0.7-0.6-1.1-0.7
			s-0.8-0.3-1.3-0.3s-0.9,0.1-1.3,0.3c-0.4,0.2-0.7,0.4-1,0.7s-0.5,0.7-0.6,1.1C143,189.5,142.9,190,142.9,190.4z"/>
		<path class="st1" d="M156,194.1c0-0.1,0-0.3,0.1-0.3c0.1-0.1,0.2-0.1,0.3-0.1h2.8c0.1,0,0.2,0,0.3,0.1s0.2,0.2,0.2,0.3v2.6
			c0,0.1,0,0.2-0.1,0.3s-0.2,0.1-0.4,0.1h-2.8c-0.3,0-0.5-0.2-0.5-0.5L156,194.1L156,194.1z"/>
	</g>
</g>
</svg>
