<svg xmlns="http://www.w3.org/2000/svg" viewBox="0 0 283.46 283.46"><title>mozaiek_deel1</title><g id="Laag_1" data-name="Laag 1"><rect x="-0.07" y="-0.4" width="283.46" height="283.46" style="fill:#736dff"/></g><g id="Laag_2" data-name="Laag 2"><path d="M46.67,98.79c0-.25.14-.39.41-.42h3.09a.5.5,0,0,1,.57.55v14.39a4.54,4.54,0,0,1-.42,1.94,5,5,0,0,1-1.11,1.59,5.1,5.1,0,0,1-1.63,1.06,5,5,0,0,1-1.95.39,5.32,5.32,0,0,1-1.2-.13,4.84,4.84,0,0,1-1.12-.41,5.33,5.33,0,0,1-1-.66,4.39,4.39,0,0,1-.8-.91s0-.06,0-.17a.43.43,0,0,1,.17-.39l1.82-1.72a.94.94,0,0,1,.18-.12.39.39,0,0,1,.18,0,.47.47,0,0,1,.3.11l.31.26a2.63,2.63,0,0,0,.41.26,1.33,1.33,0,0,0,.56.11,1.31,1.31,0,0,0,.47-.09,1.38,1.38,0,0,0,.4-.26,1,1,0,0,0,.28-.37,1,1,0,0,0,.1-.45Z" style="fill:#fff"/><path d="M64.91,112.37a6.9,6.9,0,0,1-2.08,1.33,6.28,6.28,0,0,1-2.44.48,7,7,0,0,1-6.5-4.17,6.59,6.59,0,0,1-.57-2.74,7.08,7.08,0,0,1,.23-1.79,6.76,6.76,0,0,1,.64-1.62,6.55,6.55,0,0,1,1-1.4,6.24,6.24,0,0,1,1.32-1.08,6.4,6.4,0,0,1,3.42-1,6.38,6.38,0,0,1,1.69.23,6.48,6.48,0,0,1,2.85,1.66,6.71,6.71,0,0,1,1,1.29,6.07,6.07,0,0,1,.67,1.49,5.59,5.59,0,0,1,.24,1.63c0,.37,0,.66,0,.89a1.09,1.09,0,0,1-.16.56.81.81,0,0,1-.49.28,4.93,4.93,0,0,1-1,.08H57.19a2.62,2.62,0,0,0,.42,1.12,2.66,2.66,0,0,0,.74.72,2.78,2.78,0,0,0,.89.38,3.72,3.72,0,0,0,.9.12,4.11,4.11,0,0,0,.77-.08,4.58,4.58,0,0,0,.77-.21,5.5,5.5,0,0,0,.69-.3,2.6,2.6,0,0,0,.5-.37,1.68,1.68,0,0,1,.28-.2.48.48,0,0,1,.26-.07.46.46,0,0,1,.28.1A2.18,2.18,0,0,1,64,110l1.11,1.26a.61.61,0,0,1,.15.25.78.78,0,0,1,0,.22.61.61,0,0,1-.11.36A1.44,1.44,0,0,1,64.91,112.37Zm-5-8.75a2,2,0,0,0-.79.17,2.92,2.92,0,0,0-.72.43,3.92,3.92,0,0,0-.6.62,3.6,3.6,0,0,0-.44.71h5.37a6.18,6.18,0,0,0-.48-.76,3.41,3.41,0,0,0-.59-.61,2.64,2.64,0,0,0-.76-.41A3,3,0,0,0,59.86,103.62Z" style="fill:#fff"/><path d="M79.22,102a3.33,3.33,0,0,1,.56-.58,4.21,4.21,0,0,1,.8-.51,5.83,5.83,0,0,1,1-.37,4.93,4.93,0,0,1,1.17-.14,4.52,4.52,0,0,1,2.08.46,4.29,4.29,0,0,1,1.45,1.26,5.67,5.67,0,0,1,.85,1.86,9.23,9.23,0,0,1,.28,2.27v6.88a.88.88,0,0,1-.18.6.67.67,0,0,1-.55.21H84.27a.86.86,0,0,1-.61-.16.74.74,0,0,1-.17-.59v-6.94a2,2,0,0,0-.18-.84,2.08,2.08,0,0,0-1.15-1.13,2.13,2.13,0,0,0-.84-.16,2,2,0,0,0-.74.15,2.3,2.3,0,0,0-.65.43,2.54,2.54,0,0,0-.48.67,2.38,2.38,0,0,0-.23.86v6.93a1.13,1.13,0,0,1-.06.36.58.58,0,0,1-.21.27,1.19,1.19,0,0,1-.26.12,1.12,1.12,0,0,1-.27,0H76a.86.86,0,0,1-.65-.22.88.88,0,0,1-.2-.59V97.47a.85.85,0,0,1,.2-.58.82.82,0,0,1,.65-.22h2.38a1,1,0,0,1,.53.17.58.58,0,0,1,.21.27,1.06,1.06,0,0,1,.06.34Z" style="fill:#fff"/><path d="M102.32,113.79a.59.59,0,0,1-.28.15l-.29,0h-1.59a.66.66,0,0,1-.32-.07,1.08,1.08,0,0,1-.24-.18,1.17,1.17,0,0,1-.15-.27,2.09,2.09,0,0,1-.11-.3l-.22-1a2.49,2.49,0,0,1-.52.69,4.77,4.77,0,0,1-.91.67,5.78,5.78,0,0,1-2.78.7,4.66,4.66,0,0,1-2.12-.47,4.35,4.35,0,0,1-1.56-1.26,5.66,5.66,0,0,1-1-1.86,7.64,7.64,0,0,1-.33-2.27v-6.88a.86.86,0,0,1,.18-.6.67.67,0,0,1,.55-.21H93.1a.92.92,0,0,1,.61.15.78.78,0,0,1,.17.6v6.84a2.11,2.11,0,0,0,.18.86,2.29,2.29,0,0,0,.46.71,2.23,2.23,0,0,0,.69.49,2,2,0,0,0,.84.18,2.73,2.73,0,0,0,.81-.13,2.48,2.48,0,0,0,.82-.39,2.09,2.09,0,0,0,.63-.69,1.92,1.92,0,0,0,.26-1v-6.83a1.13,1.13,0,0,1,.06-.36.58.58,0,0,1,.21-.27.85.85,0,0,1,.26-.12,1.12,1.12,0,0,1,.27,0h2.38a.86.86,0,0,1,.65.22.88.88,0,0,1,.2.59v11.75a.78.78,0,0,1-.09.37.63.63,0,0,1-.25.26Z" style="fill:#fff"/><path d="M105.11,96.14a.85.85,0,0,1,.19-.63.81.81,0,0,1,.58-.18h2.44a.92.92,0,0,1,.59.18.78.78,0,0,1,.23.63v2a.74.74,0,0,1-.06.27,1.12,1.12,0,0,1-.16.28,1,1,0,0,1-.26.23.64.64,0,0,1-.34.09h-2.44c-.51,0-.77-.29-.77-.87Zm0,5.31a.9.9,0,0,1,.19-.58.69.69,0,0,1,.58-.24h2.41a.74.74,0,0,1,.27.06.77.77,0,0,1,.27.17,1,1,0,0,1,.22.25.64.64,0,0,1,.09.34v11.71a.76.76,0,0,1-.22.6.89.89,0,0,1-.63.21h-2.41c-.51,0-.77-.27-.77-.81Z" style="fill:#fff"/><path d="M113.65,109.82a3.13,3.13,0,0,0,.62.48,4.56,4.56,0,0,0,.63.31,4.85,4.85,0,0,0,.54.18l.31,0,.51,0a2.89,2.89,0,0,0,.6-.09,1.31,1.31,0,0,0,.48-.26.63.63,0,0,0,.21-.5.8.8,0,0,0-.12-.47.86.86,0,0,0-.33-.29,2.25,2.25,0,0,0-.54-.22l-.72-.22a8.2,8.2,0,0,1-2.08-.81,4.7,4.7,0,0,1-1.3-1,3.5,3.5,0,0,1-.67-1.26,5.47,5.47,0,0,1-.18-1.42,3.55,3.55,0,0,1,.34-1.58,3.46,3.46,0,0,1,1-1.23,4.6,4.6,0,0,1,1.53-.78,6.56,6.56,0,0,1,2-.28,7,7,0,0,1,1.24.11,4.7,4.7,0,0,1,1.1.35,5.34,5.34,0,0,1,1,.6,8,8,0,0,1,1,.89.7.7,0,0,1,.19.4.57.57,0,0,1-.24.39l-.78.66c-.25.22-.51.46-.77.73a.67.67,0,0,1-.25.13.69.69,0,0,1-.25,0,.72.72,0,0,1-.22-.1.77.77,0,0,1-.18-.18,1.76,1.76,0,0,0-.85-.55,2.85,2.85,0,0,0-.88-.15,1.63,1.63,0,0,0-.82.18.56.56,0,0,0-.28.55.54.54,0,0,0,.21.42,1.22,1.22,0,0,0,.45.25,3.29,3.29,0,0,0,.56.15l.55.13A18.12,18.12,0,0,1,119,106a5.2,5.2,0,0,1,1.36.87,3.51,3.51,0,0,1,.9,1.25,4.39,4.39,0,0,1,.32,1.76,4.17,4.17,0,0,1-.41,1.86A4.12,4.12,0,0,1,120,113.1a5.43,5.43,0,0,1-1.72.85,7.69,7.69,0,0,1-2.14.29,7.53,7.53,0,0,1-1.32-.12,6,6,0,0,1-2.5-1,4.93,4.93,0,0,1-1-1,1.34,1.34,0,0,1-.17-.31.74.74,0,0,1,0-.32.68.68,0,0,1,.06-.29.66.66,0,0,1,.18-.23l1.36-1.35a.48.48,0,0,1,.44-.15A1.39,1.39,0,0,1,113.65,109.82Z" style="fill:#fff"/><path d="M134.13,113.16a3.32,3.32,0,0,0-.16.35,1,1,0,0,1-.14.25.43.43,0,0,1-.2.15.66.66,0,0,1-.31.06h-2.08q-.84,0-.84-.81V97.47a.66.66,0,0,1,.07-.32.68.68,0,0,1,.18-.26.72.72,0,0,1,.25-.16.71.71,0,0,1,.28-.06h2.38a.85.85,0,0,1,.63.23.77.77,0,0,1,.23.57v4.37a6.87,6.87,0,0,1,.63-.58,4.16,4.16,0,0,1,.73-.44,3.7,3.7,0,0,1,.87-.29,4.77,4.77,0,0,1,1-.11,6.5,6.5,0,0,1,2.63.53,6.37,6.37,0,0,1,2.07,1.46,6.78,6.78,0,0,1,1.35,2.19,7.74,7.74,0,0,1,0,5.42,6.78,6.78,0,0,1-1.35,2.19,6.22,6.22,0,0,1-2.07,1.46,6.35,6.35,0,0,1-2.63.54,3.88,3.88,0,0,1-1-.14,4.54,4.54,0,0,1-.91-.36,4.88,4.88,0,0,1-.8-.49,7.36,7.36,0,0,1-.64-.57Zm6.33-5.85a3.67,3.67,0,0,0-.22-1.28,3.14,3.14,0,0,0-.61-1.07,2.88,2.88,0,0,0-1-.73,2.79,2.79,0,0,0-1.24-.27,3.12,3.12,0,0,0-1.3.27,3.36,3.36,0,0,0-1,.73,3.51,3.51,0,0,0-.69,1.07,3.12,3.12,0,0,0-.26,1.28v.15a3.31,3.31,0,0,0,1,2.24,3.33,3.33,0,0,0,1,.67,3.29,3.29,0,0,0,1.26.24,2.93,2.93,0,0,0,1.24-.26,2.8,2.8,0,0,0,1-.7,2.92,2.92,0,0,0,.61-1A3.74,3.74,0,0,0,140.46,107.31Z" style="fill:#fff"/><path d="M146.36,97.47a1,1,0,0,1,.17-.57.67.67,0,0,1,.58-.23h2.57a.49.49,0,0,1,.22.06.65.65,0,0,1,.21.16.78.78,0,0,1,.17.26.66.66,0,0,1,.07.32v15.69a.76.76,0,0,1-.22.6.85.85,0,0,1-.59.21h-2.43a.69.69,0,0,1-.58-.21.93.93,0,0,1-.17-.6Z" style="fill:#fff"/><path d="M152.86,96.14a.85.85,0,0,1,.19-.63.83.83,0,0,1,.59-.18h2.43a.93.93,0,0,1,.6.18.78.78,0,0,1,.22.63v2a.74.74,0,0,1-.06.27.88.88,0,0,1-.16.28.92.92,0,0,1-.25.23.7.7,0,0,1-.35.09h-2.43q-.78,0-.78-.87Zm0,5.31a.9.9,0,0,1,.19-.58.71.71,0,0,1,.59-.24H156a.74.74,0,0,1,.28.06,1,1,0,0,1,.27.17,1.27,1.27,0,0,1,.21.25.64.64,0,0,1,.09.34v11.71a.76.76,0,0,1-.22.6.86.86,0,0,1-.63.21h-2.4q-.78,0-.78-.81Z" style="fill:#fff"/><path d="M159.46,101.45a.71.71,0,0,1,.27-.61.87.87,0,0,1,.57-.21h2.39a.75.75,0,0,1,.59.24.86.86,0,0,1,.21.58v12a4.24,4.24,0,0,1-.41,1.84,4.73,4.73,0,0,1-1.11,1.5,5.07,5.07,0,0,1-1.59,1,4.76,4.76,0,0,1-1.87.37h-.25a.76.76,0,0,1-.58-.24.73.73,0,0,1-.2-.52V116a.82.82,0,0,1,.24-.61.78.78,0,0,1,.57-.23h.22a.57.57,0,0,0,.39-.17,1.5,1.5,0,0,0,.3-.43,2.22,2.22,0,0,0,.26-1Zm-.05-5.31a.89.89,0,0,1,.19-.63.83.83,0,0,1,.59-.18h2.44a.92.92,0,0,1,.59.18.78.78,0,0,1,.22.63v2a1,1,0,0,1-.05.27,1.17,1.17,0,0,1-.17.28A.92.92,0,0,1,163,99a.67.67,0,0,1-.34.09h-2.44q-.78,0-.78-.87Z" style="fill:#fff"/><path d="M167.28,100.82A4.17,4.17,0,0,1,167.7,99a5,5,0,0,1,1.12-1.5,5.43,5.43,0,0,1,1.62-1,5,5,0,0,1,1.91-.37h.21a.71.71,0,0,1,.55.21.84.84,0,0,1,.19.59v2a1,1,0,0,1-.2.64.65.65,0,0,1-.54.26h-.21a1.16,1.16,0,0,0-.42.08,1.2,1.2,0,0,0-.36.22,1,1,0,0,0-.25.32.88.88,0,0,0-.1.4V102h1.65a.74.74,0,0,1,.55.19.85.85,0,0,1,.2.62v1.92a1,1,0,0,1-.2.66.71.71,0,0,1-.55.21h-1.65v7.53a.7.7,0,0,1-.26.6,1,1,0,0,1-.59.21h-2.26a.79.79,0,0,1-.61-.24.8.8,0,0,1-.22-.57v-7.53H166.2a.84.84,0,0,1-.6-.21.86.86,0,0,1-.22-.66v-1.92a.78.78,0,0,1,.22-.62.88.88,0,0,1,.6-.19h1.08Z" style="fill:#fff"/><path d="M175.92,98.55a.59.59,0,0,1,.21-.49,3,3,0,0,1,.62-.31l2.38-.82h.19a.55.55,0,0,1,.52.22,1.15,1.15,0,0,1,.13.59v2.89h1.44a.81.81,0,0,1,.55.2.82.82,0,0,1,.21.6v2a.89.89,0,0,1-.21.64.77.77,0,0,1-.55.21H180v8.86a.77.77,0,0,1-.23.6.91.91,0,0,1-.64.21h-2.37a.72.72,0,0,1-.81-.81V104.3h-1.08c-.54,0-.81-.29-.81-.85v-2a.71.71,0,0,1,.81-.8h1.08Z" style="fill:#fff"/><path d="M44.53,128.82a.62.62,0,0,1,.29-.15l.29,0H46.7a.66.66,0,0,1,.32.07.68.68,0,0,1,.23.18.76.76,0,0,1,.15.26l.12.31.22.92a2.38,2.38,0,0,1,.5-.67,4.05,4.05,0,0,1,.88-.63,5.09,5.09,0,0,1,1.2-.46,5.5,5.5,0,0,1,1.52-.19,4.91,4.91,0,0,1,2.14.46,4.78,4.78,0,0,1,1.59,1.26,5.55,5.55,0,0,1,1,1.86,7.34,7.34,0,0,1,.34,2.27v6.88a.93.93,0,0,1-.17.6.68.68,0,0,1-.55.21H53.76a.89.89,0,0,1-.62-.16.79.79,0,0,1-.16-.59v-6.83a1.82,1.82,0,0,0-.21-.86,2.59,2.59,0,0,0-1.3-1.2,2.22,2.22,0,0,0-.87-.18,2,2,0,0,0-.77.17,2.52,2.52,0,0,0-.72.46,2.79,2.79,0,0,0-.56.71,2,2,0,0,0-.26.87v6.83a.92.92,0,0,1-.07.36.51.51,0,0,1-.2.27,1.19,1.19,0,0,1-.26.12,1.14,1.14,0,0,1-.28,0H45.11a.86.86,0,0,1-.65-.22.88.88,0,0,1-.2-.59V129.42a.75.75,0,0,1,.09-.37.63.63,0,0,1,.25-.26Z" style="fill:#fff"/><path d="M59.42,124.14a.85.85,0,0,1,.19-.63.83.83,0,0,1,.59-.18h2.43a.93.93,0,0,1,.6.18.78.78,0,0,1,.22.63v2a1,1,0,0,1-.05.27,1.17,1.17,0,0,1-.17.28A.92.92,0,0,1,63,127a.7.7,0,0,1-.35.09H60.2q-.78,0-.78-.87Zm0,5.31a.9.9,0,0,1,.19-.58.71.71,0,0,1,.59-.24h2.4a.74.74,0,0,1,.28.06.87.87,0,0,1,.27.17,1,1,0,0,1,.21.25.64.64,0,0,1,.09.34v11.71a.76.76,0,0,1-.22.6.86.86,0,0,1-.63.21H60.2q-.78,0-.78-.81Z" style="fill:#fff"/><path d="M77.15,140.37a7,7,0,0,1-2.08,1.33,6.33,6.33,0,0,1-2.45.48,7.09,7.09,0,0,1-2.72-.53,7.19,7.19,0,0,1-2.25-1.45A7.08,7.08,0,0,1,66.12,138a6.59,6.59,0,0,1-.57-2.74,7.08,7.08,0,0,1,.23-1.79,6.76,6.76,0,0,1,.64-1.62,6.92,6.92,0,0,1,1-1.4,6.29,6.29,0,0,1,1.33-1.08,6.71,6.71,0,0,1,1.59-.71,6.78,6.78,0,0,1,1.82-.25,6.38,6.38,0,0,1,1.69.23,7,7,0,0,1,1.54.65,6.45,6.45,0,0,1,1.31,1,6.35,6.35,0,0,1,1,1.29,6.07,6.07,0,0,1,.67,1.49,5.59,5.59,0,0,1,.24,1.63c0,.37,0,.66,0,.89a1,1,0,0,1-.16.56.81.81,0,0,1-.49.28,4.93,4.93,0,0,1-1,.08H69.42a2.62,2.62,0,0,0,.42,1.12,2.8,2.8,0,0,0,.74.72,2.74,2.74,0,0,0,.9.38,3.58,3.58,0,0,0,.89.12,4.3,4.3,0,0,0,.78-.08,5.16,5.16,0,0,0,.77-.21,5.35,5.35,0,0,0,.68-.3,2.32,2.32,0,0,0,.5-.37,1.7,1.7,0,0,1,.29-.2.45.45,0,0,1,.25-.07.46.46,0,0,1,.28.1,1.76,1.76,0,0,1,.32.27l1.12,1.26a.71.71,0,0,1,.14.25.78.78,0,0,1,0,.22.55.55,0,0,1-.11.36A1.72,1.72,0,0,1,77.15,140.37Zm-5.06-8.75a2,2,0,0,0-.79.17,3.34,3.34,0,0,0-.72.43,3.92,3.92,0,0,0-.6.62,4.14,4.14,0,0,0-.44.71h5.37a6.18,6.18,0,0,0-.48-.76,3.41,3.41,0,0,0-.59-.61,2.72,2.72,0,0,0-.75-.41A3,3,0,0,0,72.09,131.62Z" style="fill:#fff"/><path d="M80.83,126.55a.57.57,0,0,1,.22-.49,2.62,2.62,0,0,1,.61-.31l2.38-.82h.19c.26,0,.44.07.52.22a1.15,1.15,0,0,1,.13.59v2.89h1.44a.77.77,0,0,1,.55.2.78.78,0,0,1,.21.6v2a.85.85,0,0,1-.21.64.74.74,0,0,1-.55.21H84.87v8.86a.74.74,0,0,1-.23.6A.9.9,0,0,1,84,142H81.64a.72.72,0,0,1-.81-.81V132.3H79.74c-.54,0-.81-.29-.81-.85v-2a.71.71,0,0,1,.81-.8h1.08Z" style="fill:#fff"/><path d="M106.8,140.37a7,7,0,0,1-2.08,1.33,6.33,6.33,0,0,1-2.45.48,7.13,7.13,0,0,1-2.72-.53,7,7,0,0,1-2.24-1.45A6.94,6.94,0,0,1,95.77,138a6.59,6.59,0,0,1-.56-2.74,7.08,7.08,0,0,1,.22-1.79,6.76,6.76,0,0,1,.64-1.62,6.92,6.92,0,0,1,1-1.4,6.56,6.56,0,0,1,1.33-1.08,6.71,6.71,0,0,1,1.59-.71,6.78,6.78,0,0,1,1.82-.25,6.38,6.38,0,0,1,1.69.23,6.59,6.59,0,0,1,2.86,1.66,6.71,6.71,0,0,1,1,1.29,6.44,6.44,0,0,1,.66,1.49,5.59,5.59,0,0,1,.24,1.63c0,.37,0,.66,0,.89a1,1,0,0,1-.16.56.81.81,0,0,1-.49.28,4.93,4.93,0,0,1-1,.08H99.07a2.62,2.62,0,0,0,.42,1.12,2.8,2.8,0,0,0,.74.72,2.74,2.74,0,0,0,.9.38,3.58,3.58,0,0,0,.89.12,4.3,4.3,0,0,0,.78-.08,5.16,5.16,0,0,0,.77-.21,5.35,5.35,0,0,0,.68-.3,2.32,2.32,0,0,0,.5-.37,1.7,1.7,0,0,1,.29-.2.46.46,0,0,1,.26-.07.43.43,0,0,1,.27.1,1.76,1.76,0,0,1,.32.27l1.12,1.26a.71.71,0,0,1,.14.25.54.54,0,0,1,0,.22.56.56,0,0,1-.12.36A1.72,1.72,0,0,1,106.8,140.37Zm-5-8.75a2,2,0,0,0-.8.17,3.34,3.34,0,0,0-.72.43,3.92,3.92,0,0,0-.6.62,3.54,3.54,0,0,0-.43.71h5.36a6.18,6.18,0,0,0-.48-.76,3.35,3.35,0,0,0-.58-.61,2.93,2.93,0,0,0-.76-.41A3,3,0,0,0,101.75,131.62Z" style="fill:#fff"/><path d="M121.67,140.37a7,7,0,0,1-2.08,1.33,6.33,6.33,0,0,1-2.45.48,7.09,7.09,0,0,1-2.72-.53,7.19,7.19,0,0,1-2.25-1.45,7.08,7.08,0,0,1-1.53-2.19,6.59,6.59,0,0,1-.57-2.74,7.08,7.08,0,0,1,.23-1.79,6.76,6.76,0,0,1,.64-1.62,6.92,6.92,0,0,1,1-1.4,6.29,6.29,0,0,1,1.33-1.08,6.71,6.71,0,0,1,1.59-.71,6.78,6.78,0,0,1,1.82-.25,6.38,6.38,0,0,1,1.69.23,7,7,0,0,1,1.54.65,6.45,6.45,0,0,1,1.31,1,6.35,6.35,0,0,1,1,1.29,6.07,6.07,0,0,1,.67,1.49,5.59,5.59,0,0,1,.24,1.63c0,.37,0,.66,0,.89a1,1,0,0,1-.16.56.81.81,0,0,1-.49.28,4.93,4.93,0,0,1-1,.08h-7.56a2.62,2.62,0,0,0,.42,1.12,2.8,2.8,0,0,0,.74.72,2.74,2.74,0,0,0,.9.38,3.58,3.58,0,0,0,.89.12,4.3,4.3,0,0,0,.78-.08,5.16,5.16,0,0,0,.77-.21,5.35,5.35,0,0,0,.68-.3,2.32,2.32,0,0,0,.5-.37,1.7,1.7,0,0,1,.29-.2.45.45,0,0,1,.25-.07.46.46,0,0,1,.28.1,1.76,1.76,0,0,1,.32.27l1.12,1.26a.71.71,0,0,1,.14.25.78.78,0,0,1,0,.22.55.55,0,0,1-.11.36A1.72,1.72,0,0,1,121.67,140.37Zm-5.06-8.75a2,2,0,0,0-.79.17,3.34,3.34,0,0,0-.72.43,3.92,3.92,0,0,0-.6.62,4.14,4.14,0,0,0-.44.71h5.37a6.18,6.18,0,0,0-.48-.76,3.41,3.41,0,0,0-.59-.61,2.72,2.72,0,0,0-.75-.41A3,3,0,0,0,116.61,131.62Z" style="fill:#fff"/><path d="M125.63,128.82a.67.67,0,0,1,.29-.15l.29,0h1.59a.66.66,0,0,1,.32.07.68.68,0,0,1,.23.18,1,1,0,0,1,.16.26c0,.1.07.2.11.31l.22.92a2.25,2.25,0,0,1,.51-.67,3.75,3.75,0,0,1,.87-.63,5.09,5.09,0,0,1,1.2-.46,5.5,5.5,0,0,1,1.52-.19,4.91,4.91,0,0,1,2.14.46,4.68,4.68,0,0,1,1.59,1.26,5.55,5.55,0,0,1,1,1.86,7.34,7.34,0,0,1,.34,2.27v6.88a.88.88,0,0,1-.17.6.68.68,0,0,1-.55.21h-2.43a.91.91,0,0,1-.62-.16.79.79,0,0,1-.16-.59v-6.83a1.82,1.82,0,0,0-.21-.86,2.59,2.59,0,0,0-1.3-1.2,2.19,2.19,0,0,0-.87-.18,2,2,0,0,0-.77.17,2.52,2.52,0,0,0-.72.46,2.79,2.79,0,0,0-.56.71,2,2,0,0,0-.26.87v6.83a.92.92,0,0,1-.07.36.51.51,0,0,1-.2.27,1.19,1.19,0,0,1-.26.12,1.14,1.14,0,0,1-.28,0h-2.37a.86.86,0,0,1-.65-.22.88.88,0,0,1-.2-.59V129.42a.75.75,0,0,1,.09-.37.63.63,0,0,1,.25-.26Z" style="fill:#fff"/><path d="M140.41,129.4a.78.78,0,0,1,.22-.59.81.81,0,0,1,.62-.23h8.84a1,1,0,0,1,.59.2.76.76,0,0,1,.26.62v1.83c0,.06,0,.13,0,.22a.49.49,0,0,1-.11.25L145,138.56h5.18a.85.85,0,0,1,.61.21.84.84,0,0,1,.22.65v1.64a1.13,1.13,0,0,1,0,.32,1.11,1.11,0,0,1-.17.3.75.75,0,0,1-.26.21.82.82,0,0,1-.35.08H141a.72.72,0,0,1-.32-.08.9.9,0,0,1-.27-.21,1,1,0,0,1-.19-.29.88.88,0,0,1-.07-.33v-1.45a1.33,1.33,0,0,1,0-.28.7.7,0,0,1,.15-.28c.47-.52,1-1.08,1.48-1.69l1.56-1.84,1.56-1.85c.52-.61,1-1.17,1.48-1.7h-5.11a.88.88,0,0,1-.62-.21.86.86,0,0,1-.22-.66Z" style="fill:#fff"/><path d="M166.24,141.19a.8.8,0,0,1-.07.34.49.49,0,0,1-.21.26.52.52,0,0,1-.27.15l-.27,0h-2.07a.9.9,0,0,1-.36-.06.6.6,0,0,1-.22-.16,1.26,1.26,0,0,1-.14-.26l-.12-.33-.14-.47a5.91,5.91,0,0,1-.64.55,4.88,4.88,0,0,1-.8.49,5.42,5.42,0,0,1-.93.35,4.49,4.49,0,0,1-1,.13,6.85,6.85,0,0,1-1.83-.24,6.62,6.62,0,0,1-1.64-.69,6.89,6.89,0,0,1-1.38-1.07,7.25,7.25,0,0,1-1.07-1.39,7.15,7.15,0,0,1-.68-1.66,7.06,7.06,0,0,1-.24-1.85,6.75,6.75,0,0,1,.53-2.71,6.77,6.77,0,0,1,6.31-4.18,4.66,4.66,0,0,1,1.21.15,4.51,4.51,0,0,1,1,.4,4.33,4.33,0,0,1,.85.6,5.21,5.21,0,0,1,.66.76l.3-1c.07-.18.13-.32.18-.43a.66.66,0,0,1,.14-.24.38.38,0,0,1,.2-.1,1.33,1.33,0,0,1,.32,0h1.57l.27,0a.46.46,0,0,1,.27.15.58.58,0,0,1,.21.26.74.74,0,0,1,.07.34Zm-10.35-5.88a4,4,0,0,0,.22,1.3,3.07,3.07,0,0,0,.61,1,2.84,2.84,0,0,0,1,.7,2.93,2.93,0,0,0,1.24.26,3.37,3.37,0,0,0,1.31-.26,3.24,3.24,0,0,0,1.75-1.74,3.54,3.54,0,0,0,.25-1.3A3.47,3.47,0,0,0,162,134a3.54,3.54,0,0,0-.7-1.07,3.36,3.36,0,0,0-1-.73,3.2,3.2,0,0,0-1.31-.27,2.79,2.79,0,0,0-1.24.27,2.92,2.92,0,0,0-1,.73,3.32,3.32,0,0,0-.61,1.07A3.91,3.91,0,0,0,155.89,135.31Z" style="fill:#fff"/><path d="M182.48,141.19a1,1,0,0,1-.06.34.49.49,0,0,1-.21.26.61.61,0,0,1-.27.15l-.28,0h-2.07a.88.88,0,0,1-.35-.06.52.52,0,0,1-.22-.16.72.72,0,0,1-.14-.26l-.13-.33-.13-.47a6.05,6.05,0,0,1-.65.55,4.88,4.88,0,0,1-.8.49,5.42,5.42,0,0,1-.93.35,4.4,4.4,0,0,1-1,.13,7,7,0,0,1-1.84-.24,6.79,6.79,0,0,1-1.64-.69,7.5,7.5,0,0,1-1.38-1.07,7.2,7.2,0,0,1-1.06-1.39,6.76,6.76,0,0,1-.69-1.66,7.06,7.06,0,0,1-.24-1.85,6.93,6.93,0,0,1,.53-2.71,7.06,7.06,0,0,1,1.46-2.19,6.83,6.83,0,0,1,4.86-2,4.72,4.72,0,0,1,1.21.15,4.9,4.9,0,0,1,1,.4,4.26,4.26,0,0,1,.84.6,5.21,5.21,0,0,1,.66.76l.31-1,.17-.43a.83.83,0,0,1,.15-.24.35.35,0,0,1,.19-.1,1.42,1.42,0,0,1,.33,0h1.56l.28,0a.52.52,0,0,1,.27.15.58.58,0,0,1,.21.26.9.9,0,0,1,.06.34Zm-10.34-5.88a4,4,0,0,0,.21,1.3,3.09,3.09,0,0,0,.62,1,2.71,2.71,0,0,0,1,.7,3,3,0,0,0,1.24.26,3.33,3.33,0,0,0,1.31-.26,3.27,3.27,0,0,0,1.05-.7,3.13,3.13,0,0,0,.7-1,3.34,3.34,0,0,0,.25-1.3,3.28,3.28,0,0,0-.25-1.28,3.35,3.35,0,0,0-1.75-1.8,3.17,3.17,0,0,0-1.31-.27,2.82,2.82,0,0,0-1.24.27,2.79,2.79,0,0,0-1,.73,3.34,3.34,0,0,0-.62,1.07A3.9,3.9,0,0,0,172.14,135.31Z" style="fill:#fff"/><path d="M185.27,128.82a.67.67,0,0,1,.29-.15l.29,0h1.59a.66.66,0,0,1,.32.07.68.68,0,0,1,.23.18,1,1,0,0,1,.16.26c0,.1.07.2.11.31l.22.92a2.81,2.81,0,0,1,.45-.67,3.11,3.11,0,0,1,.74-.63,4.13,4.13,0,0,1,1.08-.46,4.92,4.92,0,0,1,1.46-.19,5.54,5.54,0,0,1,1.21.13,3.72,3.72,0,0,1,1,.39,3.81,3.81,0,0,1,.82.63,6.7,6.7,0,0,1,.69.85,3.43,3.43,0,0,1,.59-.68,5.19,5.19,0,0,1,.94-.65,6.74,6.74,0,0,1,1.22-.48,5.55,5.55,0,0,1,1.43-.19,4.6,4.6,0,0,1,2.09.46,4.42,4.42,0,0,1,1.49,1.26,5.52,5.52,0,0,1,.88,1.86,8.36,8.36,0,0,1,.3,2.27v6.88a.88.88,0,0,1-.18.6.67.67,0,0,1-.55.21H201.7a.89.89,0,0,1-.62-.16.74.74,0,0,1-.17-.59v-6.94a2.55,2.55,0,0,0-.14-.84,2.3,2.3,0,0,0-.4-.68,1.73,1.73,0,0,0-.61-.45,1.91,1.91,0,0,0-.8-.16,1.79,1.79,0,0,0-.76.16,2,2,0,0,0-.63.43,2.23,2.23,0,0,0-.44.67,2.49,2.49,0,0,0-.16.87v6.88a.93.93,0,0,1-.17.6.68.68,0,0,1-.55.21h-2.43a.89.89,0,0,1-.62-.16.78.78,0,0,1-.17-.59v-6.94a2.55,2.55,0,0,0-.13-.84,2.06,2.06,0,0,0-.38-.68,1.75,1.75,0,0,0-.59-.45,1.87,1.87,0,0,0-.8-.16,1.92,1.92,0,0,0-.74.15,2.16,2.16,0,0,0-.65.43,2.54,2.54,0,0,0-.48.67,2.19,2.19,0,0,0-.23.86v6.93a.92.92,0,0,1-.07.36.51.51,0,0,1-.2.27,1.19,1.19,0,0,1-.26.12,1.14,1.14,0,0,1-.28,0h-2.37a.86.86,0,0,1-.65-.22.88.88,0,0,1-.2-.59V129.42a.75.75,0,0,1,.09-.37.63.63,0,0,1,.25-.26Z" style="fill:#fff"/><path d="M55.43,168.37a6.9,6.9,0,0,1-2.08,1.33,6.28,6.28,0,0,1-2.44.48,7.09,7.09,0,0,1-2.72-.53,7,7,0,0,1-2.25-1.45A7.08,7.08,0,0,1,44.41,166a6.59,6.59,0,0,1-.57-2.74,7.05,7.05,0,0,1,1.87-4.81,6.57,6.57,0,0,1,2.93-1.79,6.54,6.54,0,0,1,3.51,0,6.9,6.9,0,0,1,1.53.65,6.8,6.8,0,0,1,1.32,1,6.71,6.71,0,0,1,1,1.29,6.07,6.07,0,0,1,.67,1.49,5.94,5.94,0,0,1,.23,1.63c0,.36,0,.66,0,.89a1,1,0,0,1-.17.56.78.78,0,0,1-.48.28,5,5,0,0,1-1,.08H47.7a2.6,2.6,0,0,0,1.17,1.84,2.78,2.78,0,0,0,.89.38,3.64,3.64,0,0,0,.89.12,4.13,4.13,0,0,0,.78-.08,4.85,4.85,0,0,0,.77-.21,5.5,5.5,0,0,0,.69-.3,2.24,2.24,0,0,0,.49-.37,2.21,2.21,0,0,1,.29-.2.48.48,0,0,1,.26-.07.54.54,0,0,1,.28.09,3.34,3.34,0,0,1,.32.28l1.11,1.26a.66.66,0,0,1,.15.24.91.91,0,0,1,0,.23.61.61,0,0,1-.11.36A1.44,1.44,0,0,1,55.43,168.37Zm-5-8.75a2,2,0,0,0-.79.17,2.65,2.65,0,0,0-.72.43,3.52,3.52,0,0,0-.6.62,3.85,3.85,0,0,0-.44.7H53.2a6.89,6.89,0,0,0-.48-.75,3.11,3.11,0,0,0-.59-.61,2.42,2.42,0,0,0-.76-.41A3,3,0,0,0,50.38,159.62Z" style="fill:#fff"/><path d="M59.4,156.82a.62.62,0,0,1,.29-.15l.29,0h1.58a.67.67,0,0,1,.33.07.68.68,0,0,1,.23.18,1.35,1.35,0,0,1,.15.26,2.83,2.83,0,0,1,.11.31l.22.92a2.65,2.65,0,0,1,.51-.67,4.23,4.23,0,0,1,.87-.63,5.61,5.61,0,0,1,2.73-.65,4.77,4.77,0,0,1,2.14.46,4.88,4.88,0,0,1,1.59,1.26,5.55,5.55,0,0,1,1,1.86,7.29,7.29,0,0,1,.34,2.27v6.88a.93.93,0,0,1-.17.6.68.68,0,0,1-.55.21H68.63a.89.89,0,0,1-.62-.16.8.8,0,0,1-.17-.59v-6.84a1.93,1.93,0,0,0-.2-.85,2.52,2.52,0,0,0-.54-.71,2.67,2.67,0,0,0-.76-.49,2.26,2.26,0,0,0-.87-.18,1.82,1.82,0,0,0-.77.17,2.56,2.56,0,0,0-.73.46,2.76,2.76,0,0,0-.55.71,2,2,0,0,0-.26.87v6.83a.92.92,0,0,1-.07.36.51.51,0,0,1-.2.27.81.81,0,0,1-.26.11.79.79,0,0,1-.28,0H60a.86.86,0,0,1-.65-.22.83.83,0,0,1-.2-.59V157.42a.75.75,0,0,1,.09-.37.67.67,0,0,1,.24-.26Z" style="fill:#fff"/><path d="M94.61,169.19a.8.8,0,0,1-.07.34.53.53,0,0,1-.21.26.5.5,0,0,1-.27.14,1,1,0,0,1-.27,0H91.72a.9.9,0,0,1-.36-.06.6.6,0,0,1-.22-.16,1.26,1.26,0,0,1-.14-.26l-.12-.33-.14-.48a6,6,0,0,1-.64.56,4.88,4.88,0,0,1-.8.49,5.22,5.22,0,0,1-.94.35,4.34,4.34,0,0,1-1,.13A6.85,6.85,0,0,1,85.5,170a7,7,0,0,1-1.64-.69,6.89,6.89,0,0,1-1.38-1.07,7.25,7.25,0,0,1-1.07-1.39,7.33,7.33,0,0,1-.68-1.66,6.66,6.66,0,0,1-.25-1.85,6.84,6.84,0,0,1,.54-2.72,7,7,0,0,1,1.46-2.18A6.75,6.75,0,0,1,84.65,157a6.89,6.89,0,0,1,2.68-.53,4.66,4.66,0,0,1,1.21.15,4.51,4.51,0,0,1,1,.4,4,4,0,0,1,.85.6,5.21,5.21,0,0,1,.66.76l.3-1c.07-.18.13-.32.18-.43a.66.66,0,0,1,.14-.24.49.49,0,0,1,.2-.11l.32,0h1.57l.27,0a.46.46,0,0,1,.27.15.58.58,0,0,1,.21.26.74.74,0,0,1,.07.34Zm-10.35-5.88a4,4,0,0,0,.22,1.3,2.94,2.94,0,0,0,1.57,1.74,3,3,0,0,0,1.25.26,3.37,3.37,0,0,0,1.31-.26,3.45,3.45,0,0,0,1-.7,3.1,3.1,0,0,0,.69-1,3.35,3.35,0,0,0,.26-1.3,3.48,3.48,0,0,0-1-2.35,3.36,3.36,0,0,0-1-.73A3.2,3.2,0,0,0,87.3,160a2.86,2.86,0,0,0-1.25.27,3,3,0,0,0-1,.73,3.21,3.21,0,0,0-.61,1.07A3.87,3.87,0,0,0,84.26,163.31Z" style="fill:#fff"/><path d="M97.13,153.47a1,1,0,0,1,.16-.57.7.7,0,0,1,.58-.23h2.57a.53.53,0,0,1,.23.06.85.85,0,0,1,.38.42.79.79,0,0,1,.07.32v15.69a.77.77,0,0,1-.23.6.81.81,0,0,1-.58.21H97.87a.72.72,0,0,1-.58-.21.93.93,0,0,1-.16-.6Z" style="fill:#fff"/><path d="M103.64,153.47a.92.92,0,0,1,.17-.57.66.66,0,0,1,.57-.23H107a.52.52,0,0,1,.22.06.85.85,0,0,1,.38.42.79.79,0,0,1,.07.32v15.69a.77.77,0,0,1-.23.6.81.81,0,0,1-.58.21h-2.44a.68.68,0,0,1-.57-.21.88.88,0,0,1-.17-.6Z" style="fill:#fff"/><path d="M121.32,168.37a7,7,0,0,1-2.08,1.33,6.33,6.33,0,0,1-2.45.48,7.13,7.13,0,0,1-2.72-.53,7,7,0,0,1-2.24-1.45,6.94,6.94,0,0,1-1.54-2.19,6.75,6.75,0,0,1-.56-2.74,7,7,0,0,1,.22-1.79,7.47,7.47,0,0,1,.64-1.63,7.59,7.59,0,0,1,1-1.39,6.57,6.57,0,0,1,2.93-1.79,6.5,6.5,0,0,1,3.5,0,6.59,6.59,0,0,1,2.86,1.66,6.71,6.71,0,0,1,1,1.29,6,6,0,0,1,.66,1.49,5.59,5.59,0,0,1,.24,1.63c0,.36,0,.66,0,.89a1,1,0,0,1-.16.56.81.81,0,0,1-.49.28,4.86,4.86,0,0,1-1,.08h-7.56a2.55,2.55,0,0,0,.43,1.12,2.66,2.66,0,0,0,.74.72,2.69,2.69,0,0,0,.89.38,3.58,3.58,0,0,0,.89.12,4.3,4.3,0,0,0,.78-.08,5.16,5.16,0,0,0,.77-.21,4.79,4.79,0,0,0,.68-.3,2.09,2.09,0,0,0,.5-.37,1.7,1.7,0,0,1,.29-.2.48.48,0,0,1,.26-.07.54.54,0,0,1,.28.09,3.34,3.34,0,0,1,.32.28l1.11,1.26a.83.83,0,0,1,.15.24.91.91,0,0,1,0,.23.56.56,0,0,1-.12.36A1.72,1.72,0,0,1,121.32,168.37Zm-5-8.75a2,2,0,0,0-.79.17,2.65,2.65,0,0,0-.72.43,3.58,3.58,0,0,0-.61.62,3.78,3.78,0,0,0-.43.7h5.36a4.79,4.79,0,0,0-.48-.75,3.06,3.06,0,0,0-.58-.61,2.53,2.53,0,0,0-.76-.41A3,3,0,0,0,116.27,159.62Z" style="fill:#fff"/><path d="M136.19,168.37a7,7,0,0,1-2.08,1.33,6.33,6.33,0,0,1-2.45.48,7,7,0,0,1-6.5-4.17,6.59,6.59,0,0,1-.57-2.74,7.24,7.24,0,0,1,.87-3.42,7.14,7.14,0,0,1,1-1.39,6.29,6.29,0,0,1,1.33-1.08,6.71,6.71,0,0,1,1.59-.71,6.54,6.54,0,0,1,3.51,0,6.59,6.59,0,0,1,2.86,1.66,6.66,6.66,0,0,1,1,1.29,6.07,6.07,0,0,1,.67,1.49,5.59,5.59,0,0,1,.24,1.63c0,.36,0,.66,0,.89a1,1,0,0,1-.16.56.81.81,0,0,1-.49.28,4.93,4.93,0,0,1-1,.08h-7.56a2.67,2.67,0,0,0,.42,1.12,2.8,2.8,0,0,0,.74.72,2.74,2.74,0,0,0,.9.38,3.58,3.58,0,0,0,.89.12,4.3,4.3,0,0,0,.78-.08,5.16,5.16,0,0,0,.77-.21,5.35,5.35,0,0,0,.68-.3,2.32,2.32,0,0,0,.5-.37,1.7,1.7,0,0,1,.29-.2.46.46,0,0,1,.26-.07.48.48,0,0,1,.27.09,2.45,2.45,0,0,1,.32.28l1.12,1.26a.77.77,0,0,1,.14.24.91.91,0,0,1,0,.23.55.55,0,0,1-.11.36A1.72,1.72,0,0,1,136.19,168.37Zm-5.05-8.75a2,2,0,0,0-.8.17,3,3,0,0,0-.72.43,3.92,3.92,0,0,0-.6.62,4.49,4.49,0,0,0-.44.7H134a6.89,6.89,0,0,0-.48-.75,3.11,3.11,0,0,0-.59-.61,2.48,2.48,0,0,0-.75-.41A3,3,0,0,0,131.14,159.62Z" style="fill:#fff"/><path d="M140.16,156.82a.59.59,0,0,1,.28-.15l.29,0h1.59a.66.66,0,0,1,.32.07.84.84,0,0,1,.24.18,1.35,1.35,0,0,1,.15.26c0,.1.07.2.11.31l.22.92a2.25,2.25,0,0,1,.51-.67,3.75,3.75,0,0,1,.87-.63,5.53,5.53,0,0,1,2.72-.65,4.68,4.68,0,0,1,3.74,1.72,5.53,5.53,0,0,1,1,1.86,7.29,7.29,0,0,1,.35,2.27v6.88a.88.88,0,0,1-.18.6.67.67,0,0,1-.55.21h-2.42a.87.87,0,0,1-.62-.16.76.76,0,0,1-.17-.59v-6.84a1.81,1.81,0,0,0-.21-.85,2.2,2.2,0,0,0-.54-.71,2.42,2.42,0,0,0-.76-.49,2.19,2.19,0,0,0-.87-.18,1.85,1.85,0,0,0-.77.17,2.52,2.52,0,0,0-.72.46,2.79,2.79,0,0,0-.56.71,2,2,0,0,0-.25.87v6.83a1.15,1.15,0,0,1-.07.36.58.58,0,0,1-.21.27.81.81,0,0,1-.26.11.77.77,0,0,1-.27,0h-2.38a.86.86,0,0,1-.65-.22.88.88,0,0,1-.2-.59V157.42a.75.75,0,0,1,.09-.37.63.63,0,0,1,.25-.26Z" style="fill:#fff"/><path d="M58,197.19a1,1,0,0,1-.06.34.53.53,0,0,1-.21.26.59.59,0,0,1-.27.14,1,1,0,0,1-.28,0H55.1a.9.9,0,0,1-.36-.06.52.52,0,0,1-.22-.16.92.92,0,0,1-.14-.26q-.06-.15-.12-.33l-.14-.48a5.25,5.25,0,0,1-.65.56,4.78,4.78,0,0,1-.79.49,5.52,5.52,0,0,1-.94.35,4.4,4.4,0,0,1-1,.13,6.72,6.72,0,0,1-3.47-.93,6.82,6.82,0,0,1-3.14-4.12,7.06,7.06,0,0,1-.24-1.85,6.89,6.89,0,0,1,2-4.9A6.64,6.64,0,0,1,48,185a6.82,6.82,0,0,1,2.68-.53A4.72,4.72,0,0,1,53,185a3.88,3.88,0,0,1,.84.6,4.74,4.74,0,0,1,.67.76l.3-1,.17-.43a.83.83,0,0,1,.15-.24.45.45,0,0,1,.19-.11l.33,0h1.56l.28,0a.52.52,0,0,1,.27.15.58.58,0,0,1,.21.26.9.9,0,0,1,.06.34Zm-10.34-5.88a3.74,3.74,0,0,0,.22,1.3,2.92,2.92,0,0,0,.61,1,3,3,0,0,0,1,.7,3,3,0,0,0,1.25.26,3.32,3.32,0,0,0,1.3-.26,3.22,3.22,0,0,0,1.05-.7,3.13,3.13,0,0,0,.7-1,3.34,3.34,0,0,0,.25-1.3A3.36,3.36,0,0,0,53,189a3.26,3.26,0,0,0-2.35-1,2.86,2.86,0,0,0-1.25.27,3,3,0,0,0-1,.73,3.05,3.05,0,0,0-.61,1.07A3.63,3.63,0,0,0,47.64,191.31Z" style="fill:#fff"/><path d="M69,193.86a.78.78,0,0,1,.28-.13l.2,0a.73.73,0,0,1,.33.08.81.81,0,0,1,.3.31l1.18,1.78.1.18a.58.58,0,0,1,0,.17.52.52,0,0,1-.16.4,1.64,1.64,0,0,1-.33.26,7.75,7.75,0,0,1-1.88,1,6.26,6.26,0,0,1-2.17.37,6.71,6.71,0,0,1-3.45-.93,7.25,7.25,0,0,1-1.39-1.07A6.52,6.52,0,0,1,61,194.82a7.36,7.36,0,0,1-.69-1.66,7.06,7.06,0,0,1-.25-1.85,7.14,7.14,0,0,1,.25-1.86A6.92,6.92,0,0,1,61,187.8a6.52,6.52,0,0,1,1.07-1.39,6.87,6.87,0,0,1,1.39-1.07,6.75,6.75,0,0,1,1.63-.68,7.22,7.22,0,0,1,3.94.07,6.57,6.57,0,0,1,1.82.9l0,0a1.12,1.12,0,0,1,.36.32.73.73,0,0,1,.14.45.67.67,0,0,1-.13.39l-.93,1.59a.84.84,0,0,1-.71.51.8.8,0,0,1-.24,0,1.58,1.58,0,0,1-.3-.17,5.11,5.11,0,0,0-1-.5,3.27,3.27,0,0,0-1.13-.19,2.76,2.76,0,0,0-1.22.27,2.84,2.84,0,0,0-1,.73,3.21,3.21,0,0,0-.61,1.07,3.63,3.63,0,0,0-.22,1.28,3.74,3.74,0,0,0,.22,1.3,3.07,3.07,0,0,0,.61,1,2.88,2.88,0,0,0,2.17,1A3,3,0,0,0,68,194.4,4.83,4.83,0,0,0,69,193.86Z" style="fill:#fff"/><path d="M77.5,186a3.26,3.26,0,0,1,.55-.58,4.65,4.65,0,0,1,.81-.51,5.54,5.54,0,0,1,1-.37,4.93,4.93,0,0,1,1.17-.14,4.4,4.4,0,0,1,2.08.46,4.16,4.16,0,0,1,1.44,1.26,5.49,5.49,0,0,1,.86,1.86,9.17,9.17,0,0,1,.27,2.27v6.88a.88.88,0,0,1-.17.6A.68.68,0,0,1,85,198H82.55a.91.91,0,0,1-.62-.16.8.8,0,0,1-.16-.59v-6.94a2,2,0,0,0-.18-.84,2.08,2.08,0,0,0-1.15-1.13,2.13,2.13,0,0,0-.84-.16,1.92,1.92,0,0,0-.74.15,2.16,2.16,0,0,0-.65.43,2.54,2.54,0,0,0-.48.67,2.19,2.19,0,0,0-.23.86v6.93a.92.92,0,0,1-.07.36.51.51,0,0,1-.2.27.81.81,0,0,1-.26.11.79.79,0,0,1-.28,0H74.32a.86.86,0,0,1-.65-.22.88.88,0,0,1-.2-.59V181.47a.85.85,0,0,1,.2-.58.82.82,0,0,1,.65-.22h2.37a1,1,0,0,1,.54.17.51.51,0,0,1,.2.27.85.85,0,0,1,.07.33Z" style="fill:#fff"/><path d="M89,182.55a.56.56,0,0,1,.22-.49,2.84,2.84,0,0,1,.61-.31l2.39-.83h.18a.54.54,0,0,1,.52.23,1.15,1.15,0,0,1,.13.59v2.89h1.44a.77.77,0,0,1,.55.2.78.78,0,0,1,.21.6v2a.88.88,0,0,1-.21.65.73.73,0,0,1-.55.2H93.07v8.87a.74.74,0,0,1-.23.6.9.9,0,0,1-.64.21H89.84a.72.72,0,0,1-.81-.81v-8.87H87.94c-.54,0-.81-.28-.81-.85v-2a.71.71,0,0,1,.81-.8H89Z" style="fill:#fff"/><path d="M108,196.37a7,7,0,0,1-2.08,1.33,6.33,6.33,0,0,1-2.45.48,7.09,7.09,0,0,1-2.72-.53,7.19,7.19,0,0,1-2.25-1.45A7.08,7.08,0,0,1,97,194a6.59,6.59,0,0,1-.57-2.74,7.24,7.24,0,0,1,.87-3.42,7.14,7.14,0,0,1,1-1.39,6.29,6.29,0,0,1,1.33-1.08,6.71,6.71,0,0,1,1.59-.71,6.54,6.54,0,0,1,3.51,0,7,7,0,0,1,1.54.65,6.45,6.45,0,0,1,1.31,1,6.35,6.35,0,0,1,1,1.29,6.07,6.07,0,0,1,.67,1.49,5.59,5.59,0,0,1,.24,1.63c0,.36,0,.66,0,.89a1,1,0,0,1-.16.56.81.81,0,0,1-.49.28,4.93,4.93,0,0,1-1,.08h-7.56a2.67,2.67,0,0,0,.42,1.12,2.8,2.8,0,0,0,.74.72,2.74,2.74,0,0,0,.9.38,3.58,3.58,0,0,0,.89.12,4.3,4.3,0,0,0,.78-.08,5.16,5.16,0,0,0,.77-.21,5.35,5.35,0,0,0,.68-.3,2.32,2.32,0,0,0,.5-.37,1.7,1.7,0,0,1,.29-.2.45.45,0,0,1,.25-.07.51.51,0,0,1,.28.09,2.45,2.45,0,0,1,.32.28l1.12,1.26a.77.77,0,0,1,.14.24.91.91,0,0,1,0,.23.55.55,0,0,1-.11.36A1.72,1.72,0,0,1,108,196.37ZM103,187.62a2,2,0,0,0-.79.17,3,3,0,0,0-.72.43,3.92,3.92,0,0,0-.6.62,4.49,4.49,0,0,0-.44.7h5.37a6.89,6.89,0,0,0-.48-.75,3.11,3.11,0,0,0-.59-.61,2.48,2.48,0,0,0-.75-.41A3,3,0,0,0,103,187.62Z" style="fill:#fff"/><path d="M111.71,185.41a.78.78,0,0,1,.08-.35.57.57,0,0,1,.19-.24.87.87,0,0,1,.27-.14,1,1,0,0,1,.3-.05h1.59a.57.57,0,0,1,.42.16,1.32,1.32,0,0,1,.26.4,3.65,3.65,0,0,1,.2.53,4.77,4.77,0,0,0,.2.57l.62-.68a4.18,4.18,0,0,1,.67-.6,3.3,3.3,0,0,1,.78-.43,2.94,2.94,0,0,1,1-.16,6.21,6.21,0,0,1,1,.08,4.54,4.54,0,0,1,.84.25,5.13,5.13,0,0,1,.8.42c.26.16.54.36.85.58a.76.76,0,0,1,.45.62,1.08,1.08,0,0,1-.18.54l-1,1.63a.85.85,0,0,1-.71.41,1.16,1.16,0,0,1-.47-.12,3.59,3.59,0,0,0-.92-.66,2.54,2.54,0,0,0-1.06-.21,2,2,0,0,0-.72.12,1.64,1.64,0,0,0-.56.32,3.27,3.27,0,0,0-.48.5c-.14.2-.29.42-.44.66v7.6a.83.83,0,0,1-.19.6.86.86,0,0,1-.65.21h-2.36a.72.72,0,0,1-.82-.81Z" style="fill:#fff"/><path d="M124,194.94a.45.45,0,0,1,.12-.33.43.43,0,0,1,.35-.13h2.78a.48.48,0,0,1,.33.13.4.4,0,0,1,.15.33v2.54a.52.52,0,0,1-.12.34.43.43,0,0,1-.36.15h-2.78a.43.43,0,0,1-.47-.49Z" style="fill:#fff"/><rect x="43" y="227.83" width="30" height="5" style="fill:#fff"/></g></svg>