<svg xmlns="http://www.w3.org/2000/svg" viewBox="0 0 283.46 283.46"><title>4 kleuren images</title><g id="Laag_1" data-name="Laag 1"><rect x="0.87" y="0.27" width="283.46" height="283.46" style="fill:#acacff"/></g><g id="Laag_2" data-name="Laag 2"><path d="M46.67,126.79c0-.25.14-.39.41-.42h3.09a.5.5,0,0,1,.57.55v14.39a4.69,4.69,0,0,1-.41,1.94,5.14,5.14,0,0,1-1.12,1.59,5.27,5.27,0,0,1-1.63,1.06,5,5,0,0,1-2,.39,5.29,5.29,0,0,1-1.19-.13,4.84,4.84,0,0,1-1.12-.41,5.33,5.33,0,0,1-1-.66,4.39,4.39,0,0,1-.8-.91s0-.06,0-.17a.43.43,0,0,1,.17-.39l1.82-1.72a.94.94,0,0,1,.18-.12.39.39,0,0,1,.18,0,.45.45,0,0,1,.3.11l.31.26a2.63,2.63,0,0,0,.41.26,1.38,1.38,0,0,0,1,0,1.38,1.38,0,0,0,.4-.26,1,1,0,0,0,.28-.37,1,1,0,0,0,.1-.45Z" style="fill:#fff"/><path d="M64.91,140.37a6.9,6.9,0,0,1-2.08,1.33,6.28,6.28,0,0,1-2.44.48,7,7,0,0,1-6.5-4.17,6.59,6.59,0,0,1-.57-2.74,7.08,7.08,0,0,1,.23-1.79,6.76,6.76,0,0,1,.64-1.62,6.55,6.55,0,0,1,1-1.4,6.24,6.24,0,0,1,1.32-1.08,6.4,6.4,0,0,1,3.42-1,6.38,6.38,0,0,1,1.69.23,6.71,6.71,0,0,1,1.53.65,6.8,6.8,0,0,1,1.32,1,6.71,6.71,0,0,1,1,1.29,6.07,6.07,0,0,1,.67,1.49,5.58,5.58,0,0,1,.23,1.63c0,.37,0,.66,0,.89a1.09,1.09,0,0,1-.16.56.81.81,0,0,1-.49.28,4.93,4.93,0,0,1-1,.08H57.19a2.62,2.62,0,0,0,.42,1.12,2.66,2.66,0,0,0,.74.72,2.78,2.78,0,0,0,.89.38,3.72,3.72,0,0,0,.9.12,4.11,4.11,0,0,0,.77-.08,4.58,4.58,0,0,0,.77-.21,5.5,5.5,0,0,0,.69-.3,2.6,2.6,0,0,0,.5-.37,1.38,1.38,0,0,1,.29-.2.45.45,0,0,1,.25-.07.46.46,0,0,1,.28.1A1.76,1.76,0,0,1,64,138l1.11,1.26a.61.61,0,0,1,.15.25.78.78,0,0,1,0,.22.61.61,0,0,1-.11.36A1.44,1.44,0,0,1,64.91,140.37Zm-5-8.75a2,2,0,0,0-.79.17,3.12,3.12,0,0,0-.72.43,3.92,3.92,0,0,0-.6.62,3.6,3.6,0,0,0-.44.71h5.37a6.18,6.18,0,0,0-.48-.76,3.41,3.41,0,0,0-.59-.61,2.72,2.72,0,0,0-.75-.41A3,3,0,0,0,59.86,131.62Z" style="fill:#fff"/><path d="M75.19,125.47c0-.12,0-.23,0-.32a.54.54,0,0,1,.09-.26.52.52,0,0,1,.25-.16,1.45,1.45,0,0,1,.47-.06h2.51a.81.81,0,0,1,.33.07.53.53,0,0,1,.21.18.57.57,0,0,1,.11.22,2,2,0,0,1,0,.23v7.77l3.78-4.2a.84.84,0,0,1,.65-.31h3.23c.38,0,.58.15.58.45a.49.49,0,0,1,0,.19l-.15.21L82.92,134l5.43,7h0a.82.82,0,0,1,.19.28.65.65,0,0,1,.06.26.37.37,0,0,1-.13.33.7.7,0,0,1-.39.09H84.51a.53.53,0,0,1-.34-.14,2.69,2.69,0,0,1-.35-.41l-3.43-4.86-1.17,1.21v3.39a1,1,0,0,1,0,.22.77.77,0,0,1-.11.27.73.73,0,0,1-.21.22.57.57,0,0,1-.36.1H75.89a.59.59,0,0,1-.33-.1.91.91,0,0,1-.33-.46.51.51,0,0,1,0-.14Z" style="fill:#fff"/><path d="M103.75,141.19a1,1,0,0,1-.06.34.49.49,0,0,1-.21.26.61.61,0,0,1-.27.15l-.28,0h-2.06a.9.9,0,0,1-.36-.06.52.52,0,0,1-.22-.16.72.72,0,0,1-.14-.26q-.06-.15-.12-.33l-.14-.47a6.05,6.05,0,0,1-.65.55,4.78,4.78,0,0,1-.79.49,5.86,5.86,0,0,1-.94.35,4.4,4.4,0,0,1-1,.13,7,7,0,0,1-1.84-.24,6.55,6.55,0,0,1-1.63-.69,6.67,6.67,0,0,1-2.45-2.46,6.76,6.76,0,0,1-.69-1.66,7.06,7.06,0,0,1-.24-1.85,6.76,6.76,0,0,1,.54-2.71,6.86,6.86,0,0,1,1.45-2.19A7,7,0,0,1,93.8,129a6.82,6.82,0,0,1,2.68-.53,4.72,4.72,0,0,1,2.24.55,4.34,4.34,0,0,1,1.5,1.36l.31-1,.17-.43a.83.83,0,0,1,.15-.24.35.35,0,0,1,.19-.1,1.42,1.42,0,0,1,.33,0h1.56l.28,0a.52.52,0,0,1,.27.15.58.58,0,0,1,.21.26.9.9,0,0,1,.06.34Zm-10.34-5.88a3.74,3.74,0,0,0,.22,1.3,2.94,2.94,0,0,0,1.57,1.74,3,3,0,0,0,1.24.26,3.33,3.33,0,0,0,1.31-.26,3.27,3.27,0,0,0,1-.7,3.13,3.13,0,0,0,.7-1,3.34,3.34,0,0,0,.25-1.3A3.28,3.28,0,0,0,99.5,134a3.35,3.35,0,0,0-1.75-1.8,3.17,3.17,0,0,0-1.31-.27,2.85,2.85,0,0,0-1.24.27,3,3,0,0,0-1,.73,3.14,3.14,0,0,0-.61,1.07A3.67,3.67,0,0,0,93.41,135.31Z" style="fill:#fff"/><path d="M107.08,126.55a.57.57,0,0,1,.22-.49,2.62,2.62,0,0,1,.61-.31l2.38-.82h.19a.55.55,0,0,1,.52.22,1.15,1.15,0,0,1,.13.59v2.89h1.44a.77.77,0,0,1,.55.2.78.78,0,0,1,.21.6v2a.85.85,0,0,1-.21.64.74.74,0,0,1-.55.21h-1.44v8.86a.74.74,0,0,1-.23.6.9.9,0,0,1-.64.21h-2.37a.72.72,0,0,1-.81-.81V132.3H106c-.54,0-.81-.29-.81-.85v-2a.71.71,0,0,1,.81-.8h1.08Z" style="fill:#fff"/><path d="M43.42,157.67a.85.85,0,0,1-.08-.73c.09-.21.3-.31.63-.31h2.68a.78.78,0,0,1,.48.15.8.8,0,0,1,.29.42c.12.37.25.78.39,1.24s.3.93.46,1.4.31.95.46,1.42.3.9.43,1.3.24.74.34,1,.18.51.23.63l2.23-7a.86.86,0,0,1,.31-.45.81.81,0,0,1,.48-.12h2.49a1.05,1.05,0,0,1,.46.08.33.33,0,0,1,.21.19.47.47,0,0,1,0,.29,2.24,2.24,0,0,1-.11.34l-1.15,2.83c0,.12.14.32.28.6l.48,1c.18.36.36.74.54,1.13a11.77,11.77,0,0,1,.47,1.11l2.57-7a1.08,1.08,0,0,1,.28-.45.67.67,0,0,1,.43-.12h2.32a1,1,0,0,1,.69.19c.13.13.13.36,0,.71l-4.92,12a.81.81,0,0,1-.29.32A1,1,0,0,1,57,170H55.88a1,1,0,0,1-.59-.14.93.93,0,0,1-.31-.34L53,164.73l-1.92,4.78a1.1,1.1,0,0,1-.28.32.69.69,0,0,1-.47.14H49.11a1.06,1.06,0,0,1-.59-.12.69.69,0,0,1-.26-.34Z" style="fill:#fff"/><path d="M63.46,163.31a7.19,7.19,0,0,1,.25-1.86,7.36,7.36,0,0,1,.69-1.65,6.91,6.91,0,0,1,1.08-1.39,6.56,6.56,0,0,1,1.39-1.06,6.69,6.69,0,0,1,1.65-.69,7.06,7.06,0,0,1,1.85-.24,6.81,6.81,0,0,1,6.34,4.18,6.76,6.76,0,0,1,.54,2.71,6.66,6.66,0,0,1-.25,1.85,6.76,6.76,0,0,1-.69,1.66,6.87,6.87,0,0,1-1.07,1.39,7.25,7.25,0,0,1-1.39,1.07,6.79,6.79,0,0,1-1.64.69,7,7,0,0,1-1.84.24,7.06,7.06,0,0,1-1.85-.24,6.69,6.69,0,0,1-1.65-.69,6.93,6.93,0,0,1-2.47-2.46,7.64,7.64,0,0,1-.69-1.66A7.06,7.06,0,0,1,63.46,163.31Zm3.84,0a4,4,0,0,0,.21,1.3,3.25,3.25,0,0,0,.61,1,2.71,2.71,0,0,0,1,.7,3,3,0,0,0,1.26.26,2.93,2.93,0,0,0,1.24-.26,2.78,2.78,0,0,0,.93-.7,3,3,0,0,0,.59-1,4,4,0,0,0,.2-1.3,3.86,3.86,0,0,0-.2-1.28,3.27,3.27,0,0,0-.59-1.07,2.87,2.87,0,0,0-.93-.73,2.79,2.79,0,0,0-1.24-.27,2.84,2.84,0,0,0-1.26.27,2.79,2.79,0,0,0-1,.73,3.51,3.51,0,0,0-.61,1.07A3.86,3.86,0,0,0,67.3,163.31Z" style="fill:#fff"/><path d="M79.34,157.41a1,1,0,0,1,.07-.35.68.68,0,0,1,.2-.24.87.87,0,0,1,.27-.14,1,1,0,0,1,.3-.05h1.59a.57.57,0,0,1,.42.16,1.32,1.32,0,0,1,.26.4,3.65,3.65,0,0,1,.2.53,3.49,3.49,0,0,0,.2.57l.62-.68a4.18,4.18,0,0,1,.67-.6,3.3,3.3,0,0,1,.78-.43,2.9,2.9,0,0,1,1-.16,5.23,5.23,0,0,1,1,.09,3.87,3.87,0,0,1,.84.24,4.64,4.64,0,0,1,.79.42c.27.16.55.36.86.58a.76.76,0,0,1,.45.63,1.08,1.08,0,0,1-.18.53l-1,1.63A.85.85,0,0,1,88,161a1.16,1.16,0,0,1-.47-.12,3.31,3.31,0,0,0-.92-.65,2.39,2.39,0,0,0-1.06-.22,1.94,1.94,0,0,0-.72.12,1.64,1.64,0,0,0-.56.32,2.94,2.94,0,0,0-.48.51c-.14.19-.29.41-.44.65v7.6a.83.83,0,0,1-.19.6.86.86,0,0,1-.65.21H80.16a.72.72,0,0,1-.82-.81Z" style="fill:#fff"/><path d="M100.61,168.65a7.36,7.36,0,0,1-.64.57,5.24,5.24,0,0,1-.79.49,4.54,4.54,0,0,1-.91.36,3.9,3.9,0,0,1-1,.14,6.35,6.35,0,0,1-2.63-.54,6.22,6.22,0,0,1-2.07-1.46A6.78,6.78,0,0,1,91.18,166a7.74,7.74,0,0,1,0-5.42,6.78,6.78,0,0,1,1.35-2.19A6.37,6.37,0,0,1,94.6,157a6.5,6.5,0,0,1,2.63-.53,5.7,5.7,0,0,1,1.06.1,3.7,3.7,0,0,1,.87.29,4.37,4.37,0,0,1,.72.45,6.87,6.87,0,0,1,.63.58v-4.38a.88.88,0,0,1,.2-.57.8.8,0,0,1,.62-.23h2.36a.79.79,0,0,1,.29.06,1.12,1.12,0,0,1,.28.16,1,1,0,0,1,.2.25.73.73,0,0,1,.08.33v15.7c0,.54-.28.81-.85.81h-2.06a.67.67,0,0,1-.32-.06.43.43,0,0,1-.2-.15,1,1,0,0,1-.14-.25,3.32,3.32,0,0,0-.16-.35Zm-6.14-5.34a3.74,3.74,0,0,0,.22,1.3,2.94,2.94,0,0,0,1.57,1.74,3,3,0,0,0,1.24.26,3.38,3.38,0,0,0,1.27-.24,3.33,3.33,0,0,0,1-.67,3.31,3.31,0,0,0,1-2.24v-.15a3.25,3.25,0,0,0-.25-1.28,3.36,3.36,0,0,0-.7-1.07,3.25,3.25,0,0,0-1-.73A3.17,3.17,0,0,0,97.5,160a2.85,2.85,0,0,0-1.24.27,3,3,0,0,0-1,.73,3.14,3.14,0,0,0-.61,1.07A3.63,3.63,0,0,0,94.47,163.31Z" style="fill:#fff"/><path d="M108.14,154.55a.57.57,0,0,1,.22-.49,2.62,2.62,0,0,1,.61-.31l2.39-.83h.18c.26,0,.44.07.52.22a1.14,1.14,0,0,1,.14.59l0,2.89h1.44a.77.77,0,0,1,.55.2.78.78,0,0,1,.21.6v2a.85.85,0,0,1-.21.64.74.74,0,0,1-.55.21h-1.44l0,8.86a.74.74,0,0,1-.24.6.9.9,0,0,1-.64.21H109a.72.72,0,0,1-.81-.81V160.3h-1.08c-.54,0-.81-.29-.81-.85v-2a.71.71,0,0,1,.81-.8h1.08Z" style="fill:#fff"/><path d="M53.92,197.5A1.63,1.63,0,0,0,54,197a4.41,4.41,0,0,0,0-.52v-.14s0-.06,0-.08v-.22l-.62.64a4.77,4.77,0,0,1-.7.56,3.85,3.85,0,0,1-.87.4,3.8,3.8,0,0,1-1.12.15,7.07,7.07,0,0,1-2.63-.48A6.6,6.6,0,0,1,46,196a6.08,6.08,0,0,1-1.37-2.08,6.91,6.91,0,0,1-.5-2.65,7.32,7.32,0,0,1,.5-2.7A6.72,6.72,0,0,1,46,186.39a6.41,6.41,0,0,1,2.09-1.46,6.54,6.54,0,0,1,2.63-.53,4.33,4.33,0,0,1,1.18.15,4,4,0,0,1,1,.4,4.72,4.72,0,0,1,.81.6,9.46,9.46,0,0,1,.68.74l.3-.93.11-.33a.86.86,0,0,1,.14-.25.66.66,0,0,1,.21-.15,1.06,1.06,0,0,1,.34,0h1.57a1,1,0,0,1,.29,0,.89.89,0,0,1,.27.15.68.68,0,0,1,.2.24.89.89,0,0,1,.07.34V196a7.42,7.42,0,0,1-.54,2.92,6.15,6.15,0,0,1-1.46,2.17,6.38,6.38,0,0,1-2.2,1.34,7.9,7.9,0,0,1-2.73.46,8.83,8.83,0,0,1-2.52-.4,7.46,7.46,0,0,1-1.25-.51,4.71,4.71,0,0,1-1.06-.72.9.9,0,0,1-.27-.28.77.77,0,0,1-.11-.39,1,1,0,0,1,.2-.55l1-1.38a2.6,2.6,0,0,1,.27-.24.52.52,0,0,1,.27-.07,1,1,0,0,1,.58.25,2.17,2.17,0,0,0,.6.4,4.64,4.64,0,0,0,1.42.36l.64,0a4.33,4.33,0,0,0,1-.13,4.07,4.07,0,0,0,1-.37,3.2,3.2,0,0,0,.79-.61A1.84,1.84,0,0,0,53.92,197.5Zm-6-6.23a3.9,3.9,0,0,0,.22,1.3,2.89,2.89,0,0,0,2.82,2,3.28,3.28,0,0,0,2.3-.89,3.38,3.38,0,0,0,.71-1,3.09,3.09,0,0,0,.3-1.22v-.35a3.13,3.13,0,0,0-.3-1.21,3.47,3.47,0,0,0-.71-1,3.37,3.37,0,0,0-1-.69,3,3,0,0,0-1.26-.26,2.86,2.86,0,0,0-1.25.27,2.82,2.82,0,0,0-1,.72,3.17,3.17,0,0,0-.61,1.06A3.87,3.87,0,0,0,47.91,191.27Z" style="fill:#fff"/><path d="M71.57,196.37a7,7,0,0,1-2.08,1.33,6.3,6.3,0,0,1-2.45.48,7.08,7.08,0,0,1-2.71-.53,7,7,0,0,1-2.25-1.45A6.76,6.76,0,0,1,60.55,194a6.59,6.59,0,0,1-.57-2.74,7,7,0,0,1,.22-1.79,7.47,7.47,0,0,1,.64-1.63,7.59,7.59,0,0,1,1-1.39,6.57,6.57,0,0,1,2.93-1.79,6.5,6.5,0,0,1,3.5,0,6.59,6.59,0,0,1,2.86,1.66,6.71,6.71,0,0,1,1,1.29,6.07,6.07,0,0,1,.67,1.49,5.94,5.94,0,0,1,.23,1.63c0,.36,0,.66,0,.89a1,1,0,0,1-.17.56.81.81,0,0,1-.48.28,5,5,0,0,1-1,.08H63.84a2.55,2.55,0,0,0,.43,1.12,2.66,2.66,0,0,0,.74.72,2.69,2.69,0,0,0,.89.38,3.64,3.64,0,0,0,.89.12,4.3,4.3,0,0,0,.78-.08,4.85,4.85,0,0,0,.77-.21,4.79,4.79,0,0,0,.68-.3,2.09,2.09,0,0,0,.5-.37,1.7,1.7,0,0,1,.29-.2.48.48,0,0,1,.26-.07.54.54,0,0,1,.28.09,3.34,3.34,0,0,1,.32.28l1.11,1.26a.66.66,0,0,1,.15.24.91.91,0,0,1,0,.23.56.56,0,0,1-.12.36A1.15,1.15,0,0,1,71.57,196.37Zm-5-8.75a2,2,0,0,0-.79.17,2.65,2.65,0,0,0-.72.43,3.58,3.58,0,0,0-.61.62,4.41,4.41,0,0,0-.43.7h5.36a5.6,5.6,0,0,0-.47-.75,3.42,3.42,0,0,0-.59-.61,2.42,2.42,0,0,0-.76-.41A3,3,0,0,0,66.52,187.62Z" style="fill:#fff"/><path d="M89,197.19a1,1,0,0,1-.06.34.59.59,0,0,1-.21.26.57.57,0,0,1-.28.14.93.93,0,0,1-.27,0H86.1a1,1,0,0,1-.36-.06.49.49,0,0,1-.21-.16.93.93,0,0,1-.15-.26q-.06-.15-.12-.33l-.13-.48a6.1,6.1,0,0,1-.65.56,4.88,4.88,0,0,1-.8.49,5.42,5.42,0,0,1-.93.35,4.49,4.49,0,0,1-1,.13,7,7,0,0,1-1.83-.24,7.21,7.21,0,0,1-1.64-.69,7.5,7.5,0,0,1-1.38-1.07,6.82,6.82,0,0,1-1.06-1.39,6.93,6.93,0,0,1-.69-1.66,7.25,7.25,0,0,1,.29-4.57,7.13,7.13,0,0,1,1.46-2.18A6.68,6.68,0,0,1,79,185a6.8,6.8,0,0,1,2.67-.53,4.74,4.74,0,0,1,1.22.15,4.61,4.61,0,0,1,1,.4,3.72,3.72,0,0,1,.85.6,5.21,5.21,0,0,1,.66.76l.31-1c.07-.18.12-.32.17-.43a.66.66,0,0,1,.15-.24.4.4,0,0,1,.19-.11l.33,0h1.56l.27,0a.51.51,0,0,1,.28.15.66.66,0,0,1,.21.26.9.9,0,0,1,.06.34Zm-10.34-5.88a4,4,0,0,0,.21,1.3,3.09,3.09,0,0,0,.62,1,2.84,2.84,0,0,0,1,.7,3,3,0,0,0,1.24.26,3.33,3.33,0,0,0,1.31-.26,3.45,3.45,0,0,0,1.05-.7,3.13,3.13,0,0,0,.7-1,3.34,3.34,0,0,0,.25-1.3A3.36,3.36,0,0,0,84,189a3.36,3.36,0,0,0-1.05-.73,3.17,3.17,0,0,0-1.31-.27,2.82,2.82,0,0,0-1.24.27,2.79,2.79,0,0,0-1,.73,3.23,3.23,0,0,0-.62,1.07A3.86,3.86,0,0,0,78.65,191.31Z" style="fill:#fff"/><path d="M105.23,197.19a1,1,0,0,1-.06.34.53.53,0,0,1-.21.26.59.59,0,0,1-.27.14,1,1,0,0,1-.28,0h-2.06a.9.9,0,0,1-.36-.06.52.52,0,0,1-.22-.16.72.72,0,0,1-.14-.26q-.06-.15-.12-.33l-.14-.48a6.1,6.1,0,0,1-.65.56,4.78,4.78,0,0,1-.79.49,5.86,5.86,0,0,1-.94.35,4.4,4.4,0,0,1-1,.13,6.72,6.72,0,0,1-3.47-.93,6.82,6.82,0,0,1-3.14-4.12,7.06,7.06,0,0,1-.24-1.85,6.89,6.89,0,0,1,2-4.9A6.64,6.64,0,0,1,95.28,185a6.82,6.82,0,0,1,2.68-.53,4.72,4.72,0,0,1,2.24.55,3.88,3.88,0,0,1,.84.6,4.23,4.23,0,0,1,.66.76l.31-1,.17-.43a.83.83,0,0,1,.15-.24.45.45,0,0,1,.19-.11l.33,0h1.56l.28,0a.52.52,0,0,1,.27.15.58.58,0,0,1,.21.26.9.9,0,0,1,.06.34Zm-10.34-5.88a3.74,3.74,0,0,0,.22,1.3,2.92,2.92,0,0,0,.61,1,3,3,0,0,0,1,.7,3,3,0,0,0,1.24.26,3.33,3.33,0,0,0,2.36-1,3.13,3.13,0,0,0,.7-1,3.34,3.34,0,0,0,.25-1.3,3.36,3.36,0,0,0-2-3.08,3.17,3.17,0,0,0-1.31-.27,2.85,2.85,0,0,0-1.24.27,3,3,0,0,0-1,.73,3.05,3.05,0,0,0-.61,1.07A3.63,3.63,0,0,0,94.89,191.31Z" style="fill:#fff"/><path d="M107.74,180.14a.88.88,0,0,1,.19-.63.83.83,0,0,1,.59-.18H111a.92.92,0,0,1,.59.18.77.77,0,0,1,.23.63v2a.74.74,0,0,1-.06.28,1.17,1.17,0,0,1-.17.28.92.92,0,0,1-.25.23.67.67,0,0,1-.34.09h-2.44c-.52,0-.78-.29-.78-.88Zm0,5.31a1,1,0,0,1,.19-.58.71.71,0,0,1,.59-.24h2.4a.74.74,0,0,1,.28.06.87.87,0,0,1,.27.17,1.31,1.31,0,0,1,.22.25.75.75,0,0,1,.09.34v11.71a.77.77,0,0,1-.23.6.86.86,0,0,1-.63.21h-2.4q-.78,0-.78-.81Z" style="fill:#fff"/><path d="M123.8,196.65a6.1,6.1,0,0,1-.65.56,4.24,4.24,0,0,1-.79.5,4.32,4.32,0,0,1-.91.36,3.88,3.88,0,0,1-1,.14,6.31,6.31,0,0,1-2.63-.54,6.16,6.16,0,0,1-2.07-1.46,6.8,6.8,0,0,1-1.36-2.19,7.77,7.77,0,0,1,0-5.43,6.87,6.87,0,0,1,1.36-2.18,6,6,0,0,1,2.07-1.46,6.47,6.47,0,0,1,2.63-.53,4.93,4.93,0,0,1,1,.1,3.7,3.7,0,0,1,.87.29,4.08,4.08,0,0,1,.73.45,5.67,5.67,0,0,1,.62.58v-4.38a.84.84,0,0,1,.21-.57.78.78,0,0,1,.61-.23h2.36a.79.79,0,0,1,.29.06,1,1,0,0,1,.28.16,1,1,0,0,1,.21.25.72.72,0,0,1,.07.33v15.7c0,.54-.28.81-.85.81h-2.05a.75.75,0,0,1-.33-.06.4.4,0,0,1-.19-.15,1.18,1.18,0,0,1-.15-.25l-.15-.35Zm-6.14-5.34a4,4,0,0,0,.21,1.3,3.07,3.07,0,0,0,.61,1,3,3,0,0,0,1,.7,2.93,2.93,0,0,0,1.24.26,3.12,3.12,0,0,0,1.26-.25,3.18,3.18,0,0,0,1-.66,3.47,3.47,0,0,0,.71-1,3.18,3.18,0,0,0,.3-1.23v-.15a3.48,3.48,0,0,0-1-2.35,3.36,3.36,0,0,0-1-.73,3.2,3.2,0,0,0-1.31-.27,2.79,2.79,0,0,0-1.24.27,2.92,2.92,0,0,0-1,.73,3.21,3.21,0,0,0-.61,1.07A3.86,3.86,0,0,0,117.66,191.31Z" style="fill:#fff"/><path d="M130.69,194.94a.44.44,0,0,1,.11-.33.43.43,0,0,1,.35-.13h2.78a.48.48,0,0,1,.33.13.4.4,0,0,1,.15.33v2.54a.52.52,0,0,1-.12.34.43.43,0,0,1-.36.15h-2.78c-.31,0-.46-.17-.46-.49Z" style="fill:#fff"/><rect x="43" y="227.83" width="30" height="5" style="fill:#fff"/></g></svg>