<?xml version="1.0" encoding="utf-8"?>
<!-- Generator: Adobe Illustrator 22.1.0, SVG Export Plug-In . SVG Version: 6.00 Build 0)  -->
<svg version="1.1" xmlns="http://www.w3.org/2000/svg" xmlns:xlink="http://www.w3.org/1999/xlink" x="0px" y="0px"
	 viewBox="0 0 283.5 283.5" style="enable-background:new 0 0 283.5 283.5;" xml:space="preserve">
<style type="text/css">
	.st0{fill:#ACACFF;}
	.st1{fill:#FFFFFF;}
</style>
<g id="Laag_1">
	<title>4 kleuren images</title>
	<g id="Laag_1_1_">
		<rect x="-0.2" y="1.3" class="st0" width="283.5" height="283.5"/>
	</g>
	<path class="st1" d="M46.7,126.8c0-0.2,0.1-0.4,0.4-0.4c0,0,0,0,0,0h3.1c0.3,0,0.5,0.1,0.6,0.4c0,0,0,0.1,0,0.1v14.4
		c0,0.7-0.1,1.3-0.4,1.9c-0.3,0.6-0.6,1.1-1.1,1.6c-0.5,0.5-1,0.8-1.6,1.1c-0.6,0.3-1.3,0.4-2,0.4c-1.2,0-2.4-0.4-3.3-1.2
		c-0.3-0.3-0.6-0.6-0.8-0.9c0,0,0-0.1,0-0.2c0-0.2,0-0.3,0.2-0.4l1.8-1.7c0.1,0,0.1-0.1,0.2-0.1c0.1,0,0.1,0,0.2,0
		c0.1,0,0.2,0,0.3,0.1l0.3,0.3c0.1,0.1,0.3,0.2,0.4,0.3c0.2,0.1,0.4,0.1,0.6,0.1c0.2,0,0.3,0,0.5-0.1c0.1-0.1,0.3-0.2,0.4-0.3
		c0.1-0.1,0.2-0.2,0.3-0.4c0.1-0.1,0.1-0.3,0.1-0.5L46.7,126.8z"/>
	<path class="st1" d="M64.9,140.4c-0.6,0.6-1.3,1-2.1,1.3c-0.8,0.3-1.6,0.5-2.4,0.5c-2.8,0-5.4-1.6-6.5-4.2
		c-0.4-0.9-0.6-1.8-0.6-2.7c0-1.2,0.3-2.4,0.9-3.4c0.3-0.5,0.6-1,1-1.4c0.4-0.4,0.8-0.8,1.3-1.1c1-0.7,2.2-1,3.4-1
		c0.6,0,1.1,0.1,1.7,0.2c1.1,0.3,2.1,0.9,2.9,1.7c0.4,0.4,0.7,0.8,1,1.3c0.3,0.5,0.5,1,0.7,1.5c0.2,0.5,0.2,1.1,0.2,1.6
		c0,0.4,0,0.7,0,0.9c0,0.2-0.1,0.4-0.2,0.6c-0.1,0.1-0.3,0.2-0.5,0.3c-0.3,0.1-0.7,0.1-1,0.1h-7.5c0.1,0.4,0.2,0.8,0.4,1.1
		c0.2,0.3,0.4,0.5,0.7,0.7c0.3,0.2,0.6,0.3,0.9,0.4c0.3,0.1,0.6,0.1,0.9,0.1c0.3,0,0.5,0,0.8-0.1c0.3,0,0.5-0.1,0.8-0.2
		c0.2-0.1,0.5-0.2,0.7-0.3c0.2-0.1,0.3-0.2,0.5-0.4c0.1-0.1,0.2-0.1,0.3-0.2c0.1,0,0.2-0.1,0.3-0.1c0.1,0,0.2,0,0.3,0.1
		c0.1,0.1,0.2,0.2,0.3,0.3l1.1,1.3c0.1,0.1,0.1,0.2,0.2,0.2c0,0.1,0,0.2,0,0.2c0,0.1,0,0.3-0.1,0.4C65.1,140.2,65,140.3,64.9,140.4z
		 M59.9,131.6c-0.3,0-0.5,0.1-0.8,0.2c-0.3,0.1-0.5,0.3-0.7,0.4c-0.2,0.2-0.4,0.4-0.6,0.6c-0.2,0.2-0.3,0.5-0.4,0.7h5.4
		c-0.1-0.3-0.3-0.5-0.5-0.8c-0.2-0.2-0.4-0.4-0.6-0.6c-0.2-0.2-0.5-0.3-0.8-0.4C60.6,131.7,60.2,131.6,59.9,131.6L59.9,131.6z"/>
	<path class="st1" d="M75.5,128.8c0.1-0.1,0.2-0.1,0.3-0.1H76h1.6c0.1,0,0.2,0,0.3,0.1c0.1,0,0.2,0.1,0.2,0.2
		c0.1,0.1,0.1,0.2,0.2,0.3l0.1,0.3l0.4,1.3l0.6-0.8c0.2-0.3,0.4-0.5,0.7-0.7c0.3-0.2,0.6-0.4,1-0.5c0.4-0.2,0.9-0.2,1.4-0.2
		c0.9,0,1.8,0.2,2.7,0.5c0.8,0.3,1.5,0.8,2.1,1.5c0.6,0.6,1.1,1.4,1.4,2.2c0.7,1.7,0.7,3.7,0,5.4c-0.3,0.8-0.8,1.6-1.4,2.2
		c-0.6,0.6-1.3,1.1-2.1,1.5c-0.8,0.4-1.7,0.5-2.7,0.5c-0.4,0-0.8-0.1-1.2-0.2c-0.3-0.1-0.6-0.2-0.9-0.4c-0.2-0.2-0.5-0.4-0.7-0.6
		l-0.6-0.6v4.9c0,0.2-0.1,0.4-0.2,0.5c-0.1,0.2-0.4,0.2-0.6,0.2H76c-0.1,0-0.2,0-0.3-0.1c-0.1,0-0.2-0.1-0.3-0.1
		c-0.1-0.1-0.2-0.1-0.2-0.2c-0.1-0.1-0.1-0.2-0.1-0.3v-16c0-0.1,0-0.2,0.1-0.4C75.3,128.9,75.4,128.8,75.5,128.8z M85.3,135.3
		c0-0.4-0.1-0.9-0.2-1.3c-0.1-0.4-0.3-0.7-0.6-1.1c-0.3-0.3-0.6-0.6-1-0.7c-0.4-0.2-0.8-0.3-1.2-0.3c-0.4,0-0.9,0.1-1.3,0.3
		c-0.4,0.2-0.7,0.4-1,0.7c-0.3,0.3-0.5,0.6-0.7,1c-0.2,0.4-0.3,0.8-0.3,1.2v0.2c0,0.4,0.1,0.9,0.3,1.3c0.2,0.4,0.4,0.8,0.7,1.1
		c0.3,0.3,0.7,0.5,1.1,0.7c0.4,0.2,0.8,0.3,1.3,0.3c0.4,0,0.8-0.1,1.2-0.3c0.4-0.2,0.7-0.4,1-0.7c0.3-0.3,0.5-0.7,0.6-1.1
		C85.2,136.2,85.3,135.8,85.3,135.3z"/>
	<path class="st1" d="M91.2,125.5c0-0.2,0.1-0.4,0.2-0.6c0.1-0.2,0.4-0.2,0.6-0.2h2.6c0.1,0,0.2,0,0.2,0.1c0.1,0,0.2,0.1,0.2,0.2
		c0.1,0.1,0.1,0.2,0.2,0.3c0,0.1,0.1,0.2,0.1,0.3v15.7c0,0.2-0.1,0.4-0.2,0.6c-0.2,0.1-0.4,0.2-0.6,0.2H92c-0.2,0-0.4-0.1-0.6-0.2
		c-0.1-0.2-0.2-0.4-0.2-0.6L91.2,125.5z"/>
	<path class="st1" d="M111.5,141.2c0,0.1,0,0.2-0.1,0.3c0,0.1-0.1,0.2-0.2,0.3c-0.1,0.1-0.2,0.1-0.3,0.1c-0.1,0-0.2,0-0.3,0h-2.1
		c-0.1,0-0.2,0-0.4-0.1c-0.1,0-0.2-0.1-0.2-0.2c-0.1-0.1-0.1-0.2-0.1-0.3c0-0.1-0.1-0.2-0.1-0.3l-0.1-0.5c-0.2,0.2-0.4,0.4-0.7,0.6
		c-0.3,0.2-0.5,0.4-0.8,0.5c-0.3,0.1-0.6,0.3-0.9,0.4c-0.3,0.1-0.7,0.1-1,0.1c-0.6,0-1.2-0.1-1.8-0.2c-0.6-0.2-1.1-0.4-1.6-0.7
		c-1-0.6-1.9-1.4-2.4-2.5c-0.3-0.5-0.5-1.1-0.7-1.7c-0.2-0.6-0.2-1.2-0.2-1.9c0-0.9,0.2-1.9,0.5-2.7c0.3-0.8,0.8-1.6,1.5-2.2
		c1.3-1.3,3-2,4.8-2c0.4,0,0.8,0,1.2,0.1c0.3,0.1,0.7,0.2,1,0.4c0.3,0.2,0.6,0.4,0.8,0.6c0.2,0.2,0.5,0.5,0.7,0.8l0.3-1
		c0.1-0.2,0.1-0.3,0.2-0.4c0-0.1,0.1-0.2,0.2-0.2c0.1-0.1,0.1-0.1,0.2-0.1h0.3h1.6h0.3c0.1,0,0.2,0.1,0.3,0.1
		c0.1,0.1,0.2,0.2,0.2,0.3c0,0.1,0.1,0.2,0.1,0.3L111.5,141.2z M101.1,135.3c0,0.4,0.1,0.9,0.2,1.3c0.1,0.4,0.3,0.7,0.6,1
		c0.3,0.3,0.6,0.5,1,0.7c0.4,0.2,0.8,0.3,1.2,0.3c0.4,0,0.9-0.1,1.3-0.3c0.4-0.2,0.7-0.4,1.1-0.7c0.3-0.3,0.5-0.6,0.7-1
		c0.2-0.4,0.2-0.9,0.3-1.3c0-0.4-0.1-0.9-0.3-1.3c-0.3-0.8-1-1.4-1.8-1.8c-0.4-0.2-0.9-0.3-1.3-0.3c-0.4,0-0.9,0.1-1.2,0.3
		c-0.4,0.2-0.7,0.4-1,0.7c-0.3,0.3-0.5,0.7-0.6,1.1C101.2,134.4,101.1,134.9,101.1,135.3z"/>
	<path class="st1" d="M114.3,128.8c0.1-0.1,0.2-0.1,0.3-0.1h0.3h1.6c0.1,0,0.2,0,0.3,0.1c0.1,0,0.2,0.1,0.2,0.2
		c0.1,0.1,0.1,0.2,0.2,0.3c0,0.1,0.1,0.2,0.1,0.3l0.2,0.9c0.1-0.2,0.3-0.5,0.5-0.7c0.3-0.2,0.6-0.5,0.9-0.6c0.4-0.2,0.8-0.4,1.2-0.5
		c0.5-0.1,1-0.2,1.5-0.2c0.7,0,1.5,0.1,2.1,0.5c0.6,0.3,1.2,0.7,1.6,1.3c0.4,0.6,0.8,1.2,1,1.9c0.2,0.7,0.3,1.5,0.3,2.3v6.9
		c0,0.2,0,0.4-0.2,0.6c-0.1,0.1-0.3,0.2-0.6,0.2h-2.4c-0.2,0-0.4,0-0.6-0.2c-0.1-0.2-0.2-0.4-0.2-0.6v-6.8c0-0.3-0.1-0.6-0.2-0.9
		c-0.1-0.3-0.3-0.5-0.5-0.7c-0.2-0.2-0.5-0.4-0.8-0.5c-0.3-0.1-0.6-0.2-0.9-0.2c-0.3,0-0.5,0.1-0.8,0.2c-0.3,0.1-0.5,0.3-0.7,0.5
		c-0.2,0.2-0.4,0.4-0.6,0.7c-0.2,0.3-0.2,0.6-0.3,0.9v6.8c0,0.1,0,0.2-0.1,0.4c0,0.1-0.1,0.2-0.2,0.3c-0.1,0.1-0.2,0.1-0.3,0.1
		c-0.1,0-0.2,0-0.3,0h-2.4c-0.2,0-0.5-0.1-0.7-0.2c-0.1-0.2-0.2-0.4-0.2-0.6v-11.7c0-0.1,0-0.3,0.1-0.4
		C114.1,128.9,114.2,128.9,114.3,128.8L114.3,128.8z"/>
	<path class="st1" d="M130,126.6c0-0.2,0.1-0.4,0.2-0.5c0.2-0.1,0.4-0.2,0.6-0.3l2.4-0.8h0.2c0.2,0,0.4,0.1,0.5,0.2
		c0.1,0.2,0.1,0.4,0.1,0.6v2.9h1.4c0.2,0,0.4,0.1,0.6,0.2c0.2,0.2,0.2,0.4,0.2,0.6v2c0,0.2-0.1,0.5-0.2,0.6
		c-0.1,0.1-0.3,0.2-0.6,0.2H134v8.9c0,0.2-0.1,0.4-0.2,0.6c-0.2,0.1-0.4,0.2-0.6,0.2h-2.4c-0.4,0.1-0.8-0.2-0.8-0.6
		c0-0.1,0-0.1,0-0.2v-8.8h-1.1c-0.5,0-0.8-0.3-0.8-0.9v-2c-0.1-0.4,0.2-0.7,0.6-0.8c0.1,0,0.1,0,0.2,0h1.1V126.6z"/>
	<path class="st1" d="M138.2,129.4c0-0.2,0.1-0.5,0.3-0.6c0.2-0.1,0.4-0.2,0.6-0.2h2.4c0.2,0,0.4,0.1,0.6,0.2
		c0.1,0.2,0.2,0.4,0.2,0.6v12.1c0,0.6-0.1,1.3-0.4,1.8c-0.3,0.6-0.6,1.1-1.1,1.5c-0.5,0.4-1,0.8-1.6,1c-0.6,0.2-1.2,0.4-1.9,0.4H137
		c-0.2,0-0.4-0.1-0.6-0.2c-0.1-0.1-0.2-0.3-0.2-0.5V144c0-0.2,0.1-0.4,0.2-0.6c0.2-0.2,0.4-0.2,0.6-0.2h0.2c0.1,0,0.3-0.1,0.4-0.2
		c0.1-0.1,0.2-0.3,0.3-0.4c0.1-0.2,0.1-0.3,0.2-0.5c0-0.2,0.1-0.3,0.1-0.5L138.2,129.4z M138.2,124.1c0-0.2,0-0.5,0.2-0.6
		c0.2-0.1,0.4-0.2,0.6-0.2h2.4c0.2,0,0.4,0.1,0.6,0.2c0.2,0.2,0.2,0.4,0.2,0.6v2c0,0.1,0,0.2-0.1,0.3c0,0.1-0.1,0.2-0.2,0.3
		c-0.1,0.1-0.2,0.2-0.3,0.2c-0.1,0.1-0.2,0.1-0.3,0.1H139c-0.5,0-0.8-0.3-0.8-0.9L138.2,124.1z"/>
	<path class="st1" d="M155.9,140.4c-0.6,0.6-1.3,1-2.1,1.3c-0.8,0.3-1.6,0.5-2.4,0.5c-2.8,0-5.4-1.6-6.5-4.2
		c-0.4-0.9-0.6-1.8-0.6-2.7c0-1.2,0.3-2.4,0.9-3.4c0.3-0.5,0.6-1,1-1.4c0.4-0.4,0.8-0.8,1.3-1.1c0.5-0.3,1-0.5,1.6-0.7
		c0.6-0.2,1.2-0.2,1.8-0.3c0.6,0,1.1,0.1,1.7,0.2c1.1,0.3,2.1,0.9,2.9,1.7c0.4,0.4,0.7,0.8,1,1.3c0.3,0.5,0.5,1,0.7,1.5
		c0.2,0.5,0.2,1.1,0.2,1.6c0,0.4,0,0.7,0,0.9c0,0.2-0.1,0.4-0.2,0.6c-0.1,0.1-0.3,0.2-0.5,0.3c-0.3,0.1-0.7,0.1-1,0.1h-7.6
		c0.1,0.4,0.2,0.8,0.4,1.1c0.2,0.3,0.5,0.5,0.7,0.7c0.3,0.2,0.6,0.3,0.9,0.4c0.3,0.1,0.6,0.1,0.9,0.1c0.3,0,0.5,0,0.8-0.1
		c0.3-0.1,0.5-0.1,0.8-0.2c0.2-0.1,0.5-0.2,0.7-0.3c0.2-0.1,0.4-0.2,0.5-0.4c0.1-0.1,0.2-0.1,0.3-0.2c0.1,0,0.2-0.1,0.3-0.1
		c0.1,0,0.2,0,0.3,0.1c0.1,0.1,0.2,0.2,0.3,0.3l1.1,1.3c0.1,0.1,0.1,0.2,0.1,0.2c0,0.1,0,0.2,0,0.2c0,0.1,0,0.3-0.1,0.4
		C156.1,140.2,156,140.3,155.9,140.4z M150.9,131.6c-0.3,0-0.5,0.1-0.8,0.2c-0.3,0.1-0.5,0.3-0.7,0.4c-0.2,0.2-0.4,0.4-0.6,0.6
		c-0.2,0.2-0.3,0.5-0.4,0.7h5.4c-0.1-0.3-0.3-0.5-0.5-0.8c-0.2-0.2-0.4-0.4-0.6-0.6c-0.2-0.2-0.5-0.3-0.8-0.4
		C151.6,131.7,151.2,131.6,150.9,131.6z"/>
	<path class="st1" d="M161.6,137.8c0.2,0.2,0.4,0.3,0.6,0.5c0.2,0.1,0.4,0.2,0.6,0.3c0.2,0.1,0.3,0.1,0.5,0.2c0.1,0,0.2,0.1,0.3,0.1
		h0.5c0.2,0,0.4,0,0.6-0.1c0.2-0.1,0.3-0.1,0.5-0.3c0.1-0.1,0.2-0.3,0.2-0.5c0-0.2,0-0.3-0.1-0.5c-0.1-0.1-0.2-0.2-0.3-0.3
		c-0.2-0.1-0.4-0.2-0.5-0.2l-0.7-0.2c-0.7-0.2-1.4-0.5-2.1-0.8c-0.5-0.3-0.9-0.6-1.3-1.1c-0.3-0.4-0.5-0.8-0.7-1.3
		c-0.1-0.5-0.2-0.9-0.2-1.4c0-1.1,0.5-2.1,1.3-2.8c0.5-0.4,1-0.6,1.5-0.8c0.6-0.2,1.3-0.3,2-0.3c0.4,0,0.8,0,1.2,0.1
		c0.4,0.1,0.7,0.2,1.1,0.3c0.4,0.2,0.7,0.4,1,0.6c0.4,0.3,0.7,0.6,1,0.9c0.1,0.1,0.2,0.2,0.2,0.4c0,0.1-0.1,0.3-0.2,0.4
		s-0.5,0.4-0.8,0.7l-0.8,0.7c-0.1,0.1-0.3,0.2-0.5,0.1c-0.1,0-0.2-0.1-0.2-0.1c-0.1-0.1-0.1-0.1-0.2-0.2c-0.2-0.3-0.5-0.5-0.8-0.6
		c-0.3-0.1-0.6-0.1-0.9-0.1c-0.3,0-0.6,0-0.8,0.2c-0.2,0.1-0.3,0.3-0.3,0.6c0,0.2,0.1,0.3,0.2,0.4c0.1,0.1,0.3,0.2,0.4,0.3
		c0.2,0.1,0.4,0.1,0.6,0.1l0.6,0.1c0.6,0.2,1.2,0.4,1.8,0.7c0.5,0.2,1,0.5,1.4,0.9c0.4,0.3,0.7,0.8,0.9,1.3c0.2,0.6,0.3,1.2,0.3,1.8
		c0,0.6-0.1,1.3-0.4,1.9c-0.3,0.5-0.7,1-1.1,1.4c-0.5,0.4-1.1,0.7-1.7,0.9c-0.7,0.2-1.4,0.3-2.1,0.3c-0.4,0-0.9,0-1.3-0.1
		c-0.4-0.1-0.9-0.2-1.3-0.4c-0.4-0.2-0.8-0.4-1.2-0.7c-0.4-0.3-0.7-0.6-1-1c-0.1-0.1-0.1-0.2-0.2-0.3c0-0.1,0-0.2,0-0.3
		c0-0.1,0-0.2,0.1-0.3c0-0.1,0.1-0.2,0.2-0.2l1.4-1.4c0.1-0.1,0.3-0.2,0.4-0.1C161.4,137.6,161.5,137.7,161.6,137.8z"/>
	<path class="st1" d="M43.4,157.7c-0.1-0.2-0.2-0.5-0.1-0.7c0.1-0.2,0.3-0.3,0.6-0.3h2.7c0.2,0,0.3,0,0.5,0.1
		c0.1,0.1,0.2,0.3,0.3,0.4c0.1,0.4,0.3,0.8,0.4,1.2s0.3,0.9,0.5,1.4s0.3,0.9,0.5,1.4s0.3,0.9,0.4,1.3s0.2,0.7,0.3,1s0.2,0.5,0.2,0.6
		l2.2-7c0.1-0.2,0.2-0.3,0.3-0.4c0.1-0.1,0.3-0.1,0.5-0.1h2.5c0.2,0,0.3,0,0.5,0.1c0.1,0,0.2,0.1,0.2,0.2c0,0.1,0,0.2,0,0.3
		c0,0.1-0.1,0.2-0.1,0.3l-1.2,2.8c0.1,0.2,0.2,0.4,0.3,0.6l0.5,1c0.2,0.4,0.4,0.7,0.5,1.1s0.3,0.8,0.5,1.1l2.6-7
		c0.1-0.2,0.2-0.3,0.3-0.4c0.1-0.1,0.3-0.1,0.4-0.1H62c0.2,0,0.5,0,0.7,0.2c0.1,0.1,0.1,0.4,0,0.7l-4.9,12c-0.1,0.1-0.2,0.2-0.3,0.3
		c-0.2,0.1-0.3,0.2-0.5,0.2h-1.1c-0.2,0-0.4,0-0.6-0.1c-0.1-0.1-0.2-0.2-0.3-0.3l-2-4.8l-1.9,4.8c-0.1,0.1-0.2,0.2-0.3,0.3
		c-0.1,0.1-0.3,0.2-0.5,0.1h-1.2c-0.2,0-0.4,0-0.6-0.1c-0.1-0.1-0.2-0.2-0.3-0.3L43.4,157.7z"/>
	<path class="st1" d="M63.5,163.3c0-0.6,0.1-1.3,0.2-1.9c0.2-0.6,0.4-1.1,0.7-1.6c0.3-0.5,0.7-1,1.1-1.4c0.4-0.4,0.9-0.8,1.4-1.1
		c1.1-0.6,2.3-0.9,3.5-0.9c0.9,0,1.8,0.2,2.7,0.5c0.8,0.3,1.6,0.8,2.2,1.5c0.6,0.6,1.1,1.4,1.5,2.2c0.4,0.9,0.5,1.8,0.5,2.7
		c0,0.6-0.1,1.2-0.3,1.9c-0.3,1.2-0.9,2.2-1.8,3.1c-0.8,0.8-1.9,1.4-3,1.8c-0.6,0.2-1.2,0.2-1.8,0.2c-1.2,0-2.4-0.3-3.5-0.9
		c-1-0.6-1.9-1.4-2.5-2.5c-0.3-0.5-0.5-1.1-0.7-1.7C63.6,164.6,63.5,163.9,63.5,163.3z M67.3,163.3c0,0.4,0.1,0.9,0.2,1.3
		c0.1,0.4,0.3,0.7,0.6,1c0.3,0.3,0.6,0.5,1,0.7c0.4,0.2,0.8,0.3,1.3,0.3c0.4,0,0.9-0.1,1.2-0.3c0.4-0.2,0.7-0.4,0.9-0.7
		c0.3-0.3,0.5-0.6,0.6-1c0.1-0.4,0.2-0.9,0.2-1.3c0-0.4-0.1-0.9-0.2-1.3c-0.1-0.4-0.3-0.8-0.6-1.1c-0.5-0.6-1.3-1-2.2-1
		c-0.4,0-0.9,0.1-1.3,0.3c-0.4,0.2-0.7,0.4-1,0.7c-0.3,0.3-0.5,0.7-0.6,1.1C67.4,162.4,67.3,162.9,67.3,163.3z"/>
	<path class="st1" d="M79.3,157.4c0-0.1,0-0.2,0.1-0.4c0-0.1,0.1-0.2,0.2-0.2c0.1-0.1,0.2-0.1,0.3-0.1c0.1,0,0.2,0,0.3-0.1h1.6
		c0.2,0,0.3,0.1,0.4,0.2c0.1,0.1,0.2,0.3,0.3,0.4c0.1,0.2,0.1,0.3,0.2,0.5c0.1,0.2,0.1,0.4,0.2,0.6l0.6-0.7c0.2-0.2,0.4-0.4,0.7-0.6
		c0.2-0.2,0.5-0.3,0.8-0.4c0.3-0.1,0.7-0.2,1-0.2c0.3,0,0.7,0,1,0.1c0.3,0.1,0.6,0.1,0.8,0.3c0.3,0.1,0.5,0.3,0.8,0.4
		c0.3,0.2,0.6,0.4,0.9,0.6c0.3,0.1,0.4,0.3,0.4,0.6c0,0.2-0.1,0.4-0.2,0.5l-1,1.6c-0.1,0.3-0.4,0.4-0.7,0.5c-0.2,0-0.3,0-0.5-0.1
		c-0.3-0.3-0.6-0.5-0.9-0.7c-0.3-0.1-0.7-0.2-1.1-0.2c-0.2,0-0.5,0-0.7,0.1c-0.2,0.1-0.4,0.2-0.6,0.3c-0.2,0.1-0.3,0.3-0.5,0.5
		c-0.1,0.2-0.3,0.4-0.4,0.7v7.6c0,0.2-0.1,0.4-0.2,0.6c-0.2,0.2-0.4,0.2-0.7,0.2h-2.3c-0.4,0.1-0.8-0.2-0.8-0.6c0-0.1,0-0.1,0-0.2
		L79.3,157.4z"/>
	<path class="st1" d="M100.6,168.6c-0.2,0.2-0.4,0.4-0.6,0.6c-0.2,0.2-0.5,0.4-0.8,0.5c-0.3,0.2-0.6,0.3-0.9,0.4
		c-0.3,0.1-0.7,0.1-1,0.1c-0.9,0-1.8-0.2-2.6-0.5c-0.8-0.3-1.5-0.8-2.1-1.5c-0.6-0.6-1.1-1.4-1.4-2.2c-0.7-1.8-0.7-3.7,0-5.4
		c0.3-0.8,0.8-1.5,1.3-2.2c0.6-0.6,1.3-1.1,2.1-1.4c0.8-0.4,1.7-0.5,2.6-0.5c0.4,0,0.7,0,1.1,0.1c0.3,0.1,0.6,0.2,0.9,0.3
		c0.3,0.1,0.5,0.3,0.7,0.4c0.2,0.2,0.4,0.4,0.6,0.6v-4.4c0-0.2,0.1-0.4,0.2-0.6c0.2-0.2,0.4-0.2,0.6-0.2h2.4c0.1,0,0.2,0,0.3,0.1
		c0.1,0,0.2,0.1,0.3,0.2c0.1,0.1,0.1,0.2,0.2,0.3c0.1,0.1,0.1,0.2,0.1,0.3v15.7c0,0.5-0.3,0.8-0.8,0.8h-2.1c-0.1,0-0.2,0-0.3-0.1
		c-0.1,0-0.1-0.1-0.2-0.1c-0.1-0.1-0.1-0.2-0.1-0.3c0-0.1-0.1-0.2-0.2-0.4L100.6,168.6z M94.5,163.3c0,0.4,0.1,0.9,0.2,1.3
		c0.1,0.4,0.3,0.7,0.6,1c0.3,0.3,0.6,0.5,1,0.7c0.4,0.2,0.8,0.3,1.3,0.3c0.9,0,1.7-0.3,2.3-0.9c0.3-0.3,0.5-0.6,0.7-1
		c0.2-0.4,0.3-0.8,0.3-1.2v-0.1c0-0.4-0.1-0.9-0.3-1.3c-0.2-0.4-0.4-0.8-0.7-1.1c-0.3-0.3-0.6-0.6-1-0.7c-0.4-0.2-0.9-0.3-1.3-0.3
		c-0.4,0-0.9,0.1-1.3,0.3c-0.4,0.2-0.7,0.4-1,0.7c-0.3,0.3-0.5,0.7-0.6,1.1C94.6,162.4,94.5,162.9,94.5,163.3z"/>
	<path class="st1" d="M118.5,168.4c-0.6,0.6-1.3,1-2.1,1.3c-0.8,0.3-1.6,0.5-2.4,0.5c-0.9,0-1.9-0.2-2.7-0.5
		c-0.8-0.3-1.6-0.8-2.3-1.4c-0.6-0.6-1.2-1.4-1.5-2.2c-0.4-0.9-0.6-1.8-0.6-2.7c0-1.2,0.3-2.4,0.9-3.4c0.3-0.5,0.6-1,1-1.4
		c0.4-0.4,0.8-0.8,1.3-1.1c0.5-0.3,1-0.5,1.6-0.7c1.1-0.3,2.4-0.3,3.5,0c0.5,0.2,1.1,0.4,1.5,0.6c0.5,0.3,0.9,0.6,1.3,1
		c0.4,0.4,0.7,0.8,1,1.3c0.3,0.5,0.5,1,0.7,1.5c0.2,0.5,0.2,1.1,0.2,1.6c0,0.4,0,0.7,0,0.9c0,0.2-0.1,0.4-0.2,0.6
		c-0.1,0.1-0.3,0.2-0.5,0.3c-0.3,0.1-0.7,0.1-1,0.1h-7.6c0.1,0.4,0.2,0.8,0.4,1.1c0.2,0.3,0.5,0.5,0.7,0.7c0.3,0.2,0.6,0.3,0.9,0.4
		c0.3,0.1,0.6,0.1,0.9,0.1c0.3,0,0.5,0,0.8-0.1c0.3-0.1,0.5-0.1,0.8-0.2c0.2-0.1,0.5-0.2,0.7-0.3c0.2-0.1,0.4-0.2,0.5-0.4
		c0.1-0.1,0.2-0.1,0.3-0.2c0.1,0,0.2-0.1,0.3-0.1c0.1,0,0.2,0,0.3,0.1c0.1,0.1,0.2,0.2,0.3,0.3l1.1,1.3c0.1,0.1,0.1,0.2,0.1,0.2
		c0,0.1,0,0.2,0,0.2c0,0.1,0,0.3-0.1,0.4C118.7,168.2,118.6,168.3,118.5,168.4z M113.5,159.6c-0.3,0-0.5,0.1-0.8,0.2
		c-0.3,0.1-0.5,0.3-0.7,0.4c-0.2,0.2-0.4,0.4-0.6,0.6c-0.2,0.2-0.3,0.5-0.4,0.7h5.4c-0.1-0.3-0.3-0.5-0.5-0.8
		c-0.2-0.2-0.4-0.4-0.6-0.6c-0.2-0.2-0.5-0.3-0.8-0.4C114.1,159.7,113.8,159.6,113.5,159.6z"/>
	<path class="st1" d="M122.5,156.8c0.1-0.1,0.2-0.1,0.3-0.1h0.3h1.6c0.1,0,0.2,0,0.3,0.1c0.1,0,0.2,0.1,0.2,0.2
		c0.1,0.1,0.1,0.2,0.2,0.3c0,0.1,0.1,0.2,0.1,0.3l0.2,0.9c0.1-0.3,0.3-0.5,0.5-0.7c0.3-0.3,0.6-0.5,0.9-0.6c0.4-0.2,0.8-0.4,1.2-0.5
		c0.5-0.1,1-0.2,1.5-0.2c0.7,0,1.5,0.1,2.1,0.5c0.6,0.3,1.2,0.7,1.6,1.3c0.4,0.6,0.8,1.2,1,1.9c0.2,0.7,0.3,1.5,0.3,2.3v6.9
		c0,0.2,0,0.4-0.2,0.6c-0.1,0.1-0.3,0.2-0.6,0.2h-2.4c-0.2,0-0.4,0-0.6-0.2c-0.1-0.2-0.2-0.4-0.2-0.6v-6.8c0-0.3-0.1-0.6-0.2-0.9
		c-0.3-0.5-0.7-1-1.3-1.2c-0.3-0.1-0.6-0.2-0.9-0.2c-0.3,0-0.5,0.1-0.8,0.2c-0.3,0.1-0.5,0.3-0.7,0.5c-0.2,0.2-0.4,0.4-0.6,0.7
		c-0.2,0.3-0.2,0.6-0.3,0.9v6.8c0,0.1,0,0.2-0.1,0.4c0,0.1-0.1,0.2-0.2,0.3c-0.1,0.1-0.2,0.1-0.3,0.1c-0.1,0-0.2,0-0.3,0H123
		c-0.2,0-0.5-0.1-0.7-0.2c-0.1-0.2-0.2-0.4-0.2-0.6v-11.7c0-0.1,0-0.3,0.1-0.4C122.3,156.9,122.4,156.9,122.5,156.8L122.5,156.8z"/>
	<rect x="43" y="227.8" class="st1" width="30" height="5"/>
</g>
<g id="Laag_2">
	<g>
		<path class="st1" d="M43.1,185.7c-0.1-0.3-0.2-0.5-0.1-0.7c0.1-0.2,0.3-0.3,0.6-0.3h2.7c0.2,0,0.3,0,0.5,0.1
			c0.1,0.1,0.2,0.2,0.3,0.4c0.1,0.4,0.3,0.8,0.4,1.3c0.1,0.5,0.3,0.9,0.5,1.4c0.2,0.5,0.3,1,0.5,1.5c0.2,0.5,0.3,0.9,0.4,1.3
			s0.2,0.8,0.3,1.1s0.2,0.5,0.2,0.6l2.2-7.2c0.1-0.2,0.2-0.4,0.3-0.5c0.1-0.1,0.3-0.1,0.5-0.1h2.8c0.2,0,0.4,0,0.5,0.1
			s0.2,0.1,0.2,0.2s0,0.2,0,0.3s-0.1,0.2-0.1,0.3l-5,12c-0.1,0.1-0.2,0.2-0.3,0.3s-0.3,0.1-0.5,0.1h-1.3c-0.3,0-0.5,0-0.6-0.1
			c-0.1-0.1-0.2-0.2-0.3-0.3L43.1,185.7z"/>
		<path class="st1" d="M68.1,196.5c-0.6,0.6-1.3,1-2.1,1.3c-0.8,0.3-1.6,0.5-2.5,0.5c-1,0-1.9-0.2-2.7-0.5c-0.9-0.4-1.6-0.8-2.3-1.5
			c-0.6-0.6-1.2-1.4-1.5-2.2c-0.4-0.8-0.6-1.8-0.6-2.8c0-0.6,0.1-1.2,0.2-1.8s0.4-1.1,0.6-1.6c0.3-0.5,0.6-1,1-1.4
			c0.4-0.4,0.8-0.8,1.3-1.1c0.5-0.3,1-0.5,1.6-0.7c0.6-0.2,1.2-0.3,1.8-0.3c0.6,0,1.1,0.1,1.7,0.2s1.1,0.4,1.5,0.7
			c0.5,0.3,0.9,0.6,1.3,1c0.4,0.4,0.7,0.8,1,1.3s0.5,1,0.7,1.5c0.2,0.5,0.2,1.1,0.2,1.6c0,0.4,0,0.7,0,0.9c0,0.2-0.1,0.4-0.2,0.6
			c-0.1,0.1-0.3,0.2-0.5,0.3s-0.6,0.1-1,0.1h-7.6c0.1,0.5,0.2,0.8,0.4,1.1c0.2,0.3,0.5,0.5,0.7,0.7c0.3,0.2,0.6,0.3,0.9,0.4
			c0.3,0.1,0.6,0.1,0.9,0.1c0.3,0,0.5,0,0.8-0.1s0.5-0.1,0.8-0.2c0.2-0.1,0.5-0.2,0.7-0.3c0.2-0.1,0.4-0.2,0.5-0.4
			c0.1-0.1,0.2-0.2,0.3-0.2c0.1,0,0.2-0.1,0.3-0.1s0.2,0,0.3,0.1c0.1,0.1,0.2,0.2,0.3,0.3l1.1,1.3c0.1,0.1,0.1,0.2,0.1,0.2
			c0,0.1,0,0.1,0,0.2c0,0.1,0,0.3-0.1,0.4C68.3,196.3,68.2,196.4,68.1,196.5z M63,187.7c-0.3,0-0.5,0.1-0.8,0.2
			c-0.3,0.1-0.5,0.3-0.7,0.4c-0.2,0.2-0.4,0.4-0.6,0.6c-0.2,0.2-0.3,0.5-0.4,0.7h5.4c-0.1-0.3-0.3-0.5-0.5-0.8
			c-0.2-0.2-0.4-0.4-0.6-0.6c-0.2-0.2-0.5-0.3-0.8-0.4C63.7,187.8,63.4,187.7,63,187.7z"/>
		<path class="st1" d="M71.8,185.5c0-0.1,0-0.2,0.1-0.3s0.1-0.2,0.2-0.2c0.1-0.1,0.2-0.1,0.3-0.1c0.1,0,0.2,0,0.3,0h1.6
			c0.2,0,0.3,0.1,0.4,0.2s0.2,0.2,0.3,0.4c0.1,0.2,0.1,0.3,0.2,0.5c0.1,0.2,0.1,0.4,0.2,0.6c0.2-0.2,0.4-0.5,0.6-0.7
			c0.2-0.2,0.4-0.4,0.7-0.6c0.2-0.2,0.5-0.3,0.8-0.4c0.3-0.1,0.6-0.2,1-0.2c0.4,0,0.7,0,1,0.1c0.3,0.1,0.6,0.1,0.8,0.2
			c0.3,0.1,0.5,0.2,0.8,0.4s0.6,0.4,0.9,0.6c0.3,0.2,0.5,0.4,0.5,0.6c0,0.2-0.1,0.3-0.2,0.5l-1,1.6c-0.2,0.3-0.4,0.4-0.7,0.4
			c-0.1,0-0.3,0-0.5-0.1c-0.3-0.3-0.6-0.5-0.9-0.7c-0.3-0.1-0.7-0.2-1.1-0.2c-0.3,0-0.5,0-0.7,0.1c-0.2,0.1-0.4,0.2-0.6,0.3
			c-0.2,0.1-0.3,0.3-0.5,0.5c-0.1,0.2-0.3,0.4-0.4,0.7v7.6c0,0.3-0.1,0.5-0.2,0.6c-0.1,0.1-0.3,0.2-0.6,0.2h-2.4
			c-0.5,0-0.8-0.3-0.8-0.8V185.5z"/>
		<path class="st1" d="M83.8,185.5c0-0.2,0.1-0.4,0.2-0.6c0.2-0.2,0.4-0.2,0.6-0.2h8.9c0.2,0,0.4,0.1,0.6,0.2
			c0.2,0.1,0.3,0.3,0.3,0.6v1.8c0,0.1,0,0.1,0,0.2c0,0.1,0,0.2-0.1,0.3l-5.8,6.9h5.2c0.3,0,0.5,0.1,0.6,0.2c0.2,0.1,0.2,0.4,0.2,0.6
			v1.7c0,0.1,0,0.2-0.1,0.3c0,0.1-0.1,0.2-0.2,0.3S94.1,198,94,198s-0.2,0.1-0.3,0.1h-9.3c-0.1,0-0.2,0-0.3-0.1
			c-0.1-0.1-0.2-0.1-0.3-0.2c-0.1-0.1-0.1-0.2-0.2-0.3c0-0.1-0.1-0.2-0.1-0.3v-1.5c0-0.1,0-0.2,0-0.3c0-0.1,0.1-0.2,0.2-0.3
			c0.5-0.5,1-1.1,1.5-1.7c0.5-0.6,1-1.2,1.6-1.9c0.5-0.6,1.1-1.2,1.6-1.9c0.5-0.6,1-1.2,1.5-1.7h-5.1c-0.3,0-0.5-0.1-0.6-0.2
			c-0.2-0.1-0.2-0.4-0.2-0.7V185.5z"/>
		<path class="st1" d="M95.6,191.4c0-0.6,0.1-1.3,0.2-1.9s0.4-1.2,0.7-1.7s0.7-1,1.1-1.4c0.4-0.4,0.9-0.8,1.4-1.1
			c0.5-0.3,1.1-0.5,1.7-0.7c0.6-0.2,1.2-0.2,1.9-0.2c1,0,1.9,0.2,2.7,0.5c0.8,0.4,1.6,0.8,2.2,1.5c0.6,0.6,1.1,1.4,1.5,2.2
			c0.4,0.8,0.5,1.7,0.5,2.7c0,0.6-0.1,1.3-0.2,1.9c-0.2,0.6-0.4,1.1-0.7,1.7c-0.3,0.5-0.7,1-1.1,1.4c-0.4,0.4-0.9,0.8-1.4,1.1
			s-1.1,0.5-1.7,0.7c-0.6,0.2-1.2,0.2-1.8,0.2c-0.6,0-1.3-0.1-1.9-0.2c-0.6-0.2-1.1-0.4-1.7-0.7s-1-0.7-1.4-1.1
			c-0.4-0.4-0.8-0.9-1.1-1.4c-0.3-0.5-0.5-1.1-0.7-1.7C95.6,192.7,95.6,192.1,95.6,191.4z M99.4,191.4c0,0.5,0.1,0.9,0.2,1.3
			s0.3,0.8,0.6,1c0.3,0.3,0.6,0.5,1,0.7c0.4,0.2,0.8,0.3,1.3,0.3c0.5,0,0.9-0.1,1.2-0.3c0.4-0.2,0.7-0.4,0.9-0.7
			c0.3-0.3,0.5-0.6,0.6-1c0.1-0.4,0.2-0.8,0.2-1.3c0-0.4-0.1-0.9-0.2-1.3c-0.1-0.4-0.3-0.8-0.6-1.1c-0.3-0.3-0.6-0.6-0.9-0.7
			s-0.8-0.3-1.2-0.3c-0.5,0-0.9,0.1-1.3,0.3c-0.4,0.2-0.7,0.4-1,0.7c-0.3,0.3-0.5,0.7-0.6,1.1C99.5,190.5,99.4,191,99.4,191.4z"/>
		<path class="st1" d="M111.5,185.5c0-0.1,0-0.2,0.1-0.3s0.1-0.2,0.2-0.2c0.1-0.1,0.2-0.1,0.3-0.1c0.1,0,0.2,0,0.3,0h1.6
			c0.2,0,0.3,0.1,0.4,0.2s0.2,0.2,0.3,0.4c0.1,0.2,0.1,0.3,0.2,0.5c0.1,0.2,0.1,0.4,0.2,0.6c0.2-0.2,0.4-0.5,0.6-0.7
			c0.2-0.2,0.4-0.4,0.7-0.6c0.2-0.2,0.5-0.3,0.8-0.4c0.3-0.1,0.6-0.2,1-0.2c0.4,0,0.7,0,1,0.1c0.3,0.1,0.6,0.1,0.8,0.2
			c0.3,0.1,0.5,0.2,0.8,0.4s0.6,0.4,0.9,0.6c0.3,0.2,0.5,0.4,0.5,0.6c0,0.2-0.1,0.3-0.2,0.5l-1,1.6c-0.2,0.3-0.4,0.4-0.7,0.4
			c-0.1,0-0.3,0-0.5-0.1c-0.3-0.3-0.6-0.5-0.9-0.7c-0.3-0.1-0.7-0.2-1.1-0.2c-0.3,0-0.5,0-0.7,0.1c-0.2,0.1-0.4,0.2-0.6,0.3
			c-0.2,0.1-0.3,0.3-0.5,0.5c-0.1,0.2-0.3,0.4-0.4,0.7v7.6c0,0.3-0.1,0.5-0.2,0.6c-0.1,0.1-0.3,0.2-0.6,0.2h-2.4
			c-0.5,0-0.8-0.3-0.8-0.8V185.5z"/>
		<path class="st1" d="M133,197.6c0-0.1,0.1-0.3,0.1-0.5c0-0.2,0-0.3,0-0.5c0-0.1,0-0.1,0-0.1s0-0.1,0-0.1c0,0,0,0,0-0.1
			s0-0.1,0-0.1c-0.2,0.2-0.4,0.4-0.6,0.6s-0.4,0.4-0.7,0.6c-0.3,0.2-0.5,0.3-0.9,0.4c-0.3,0.1-0.7,0.2-1.1,0.2
			c-0.9,0-1.8-0.2-2.6-0.5s-1.5-0.8-2.1-1.4c-0.6-0.6-1.1-1.3-1.4-2.1c-0.3-0.8-0.5-1.7-0.5-2.7c0-1,0.2-1.9,0.5-2.7
			c0.3-0.8,0.8-1.6,1.4-2.2c0.6-0.6,1.3-1.1,2.1-1.5c0.8-0.4,1.7-0.5,2.6-0.5c0.4,0,0.8,0,1.2,0.1s0.7,0.2,1,0.4
			c0.3,0.2,0.6,0.4,0.8,0.6c0.2,0.2,0.5,0.5,0.7,0.7l0.3-0.9c0-0.1,0.1-0.2,0.1-0.3c0-0.1,0.1-0.2,0.1-0.2s0.1-0.1,0.2-0.2
			s0.2-0.1,0.3-0.1h1.6c0.1,0,0.2,0,0.3,0.1c0.1,0,0.2,0.1,0.3,0.1c0.1,0.1,0.1,0.1,0.2,0.2s0.1,0.2,0.1,0.3v10.7
			c0,1.1-0.2,2.1-0.5,2.9c-0.4,0.9-0.8,1.6-1.5,2.2c-0.6,0.6-1.4,1-2.2,1.4c-0.9,0.3-1.8,0.5-2.7,0.5c-0.4,0-0.8,0-1.2-0.1
			c-0.4-0.1-0.9-0.2-1.3-0.3c-0.4-0.1-0.9-0.3-1.3-0.5c-0.4-0.2-0.8-0.4-1.1-0.7c-0.1-0.1-0.2-0.2-0.3-0.3s-0.1-0.2-0.1-0.4
			c0-0.2,0.1-0.4,0.2-0.6l1-1.4c0.1-0.1,0.2-0.2,0.3-0.2s0.2-0.1,0.3-0.1c0.2,0,0.3,0.1,0.6,0.3c0.2,0.2,0.4,0.3,0.6,0.4
			c0.2,0.1,0.5,0.2,0.7,0.2s0.5,0.1,0.7,0.1c0.2,0,0.4,0,0.6,0c0.3,0,0.6,0,1-0.1c0.3-0.1,0.7-0.2,1-0.4s0.6-0.4,0.8-0.6
			S132.9,197.9,133,197.6z M127,191.4c0,0.5,0.1,0.9,0.2,1.3c0.1,0.4,0.3,0.8,0.6,1c0.3,0.3,0.6,0.5,1,0.7s0.8,0.3,1.3,0.3
			c0.4,0,0.9-0.1,1.3-0.2c0.4-0.2,0.7-0.4,1-0.7c0.3-0.3,0.5-0.6,0.7-1c0.2-0.4,0.3-0.8,0.3-1.2v-0.3c0-0.4-0.1-0.8-0.3-1.2
			c-0.2-0.4-0.4-0.7-0.7-1c-0.3-0.3-0.6-0.5-1-0.7c-0.4-0.2-0.8-0.3-1.3-0.3c-0.5,0-0.9,0.1-1.3,0.3c-0.4,0.2-0.7,0.4-1,0.7
			c-0.3,0.3-0.5,0.7-0.6,1.1C127.1,190.5,127,190.9,127,191.4z"/>
		<path class="st1" d="M149.1,196.8c-0.2,0.2-0.4,0.4-0.6,0.6s-0.5,0.4-0.8,0.5s-0.6,0.3-0.9,0.4c-0.3,0.1-0.7,0.1-1,0.1
			c-1,0-1.8-0.2-2.6-0.5c-0.8-0.4-1.5-0.8-2.1-1.5s-1-1.4-1.4-2.2c-0.3-0.8-0.5-1.8-0.5-2.7c0-1,0.2-1.9,0.5-2.7
			c0.3-0.8,0.8-1.6,1.4-2.2s1.3-1.1,2.1-1.5c0.8-0.4,1.7-0.5,2.6-0.5c0.4,0,0.7,0,1.1,0.1s0.6,0.2,0.9,0.3c0.3,0.1,0.5,0.3,0.7,0.5
			s0.4,0.4,0.6,0.6v-4.4c0-0.2,0.1-0.4,0.2-0.6c0.1-0.2,0.3-0.2,0.6-0.2h2.4c0.1,0,0.2,0,0.3,0.1c0.1,0,0.2,0.1,0.3,0.2
			s0.2,0.2,0.2,0.3s0.1,0.2,0.1,0.3v15.8c0,0.5-0.3,0.8-0.9,0.8h-2.1c-0.1,0-0.3,0-0.3-0.1c-0.1,0-0.1-0.1-0.2-0.2
			c-0.1-0.1-0.1-0.2-0.1-0.3c0-0.1-0.1-0.2-0.2-0.4L149.1,196.8z M142.9,191.4c0,0.5,0.1,0.9,0.2,1.3s0.3,0.8,0.6,1
			c0.3,0.3,0.6,0.5,1,0.7c0.4,0.2,0.8,0.3,1.3,0.3c0.4,0,0.9-0.1,1.3-0.2c0.4-0.2,0.7-0.4,1-0.7c0.3-0.3,0.5-0.6,0.7-1
			s0.3-0.8,0.3-1.2v-0.1c0-0.4-0.1-0.9-0.3-1.3c-0.2-0.4-0.4-0.8-0.7-1.1c-0.3-0.3-0.7-0.6-1.1-0.7s-0.8-0.3-1.3-0.3
			c-0.5,0-0.9,0.1-1.3,0.3c-0.4,0.2-0.7,0.4-1,0.7c-0.3,0.3-0.5,0.7-0.6,1.1C143,190.5,142.9,191,142.9,191.4z"/>
		<path class="st1" d="M156,195.1c0-0.1,0-0.3,0.1-0.3c0.1-0.1,0.2-0.1,0.3-0.1h2.8c0.1,0,0.2,0,0.3,0.1c0.1,0.1,0.2,0.2,0.2,0.3
			v2.6c0,0.1,0,0.2-0.1,0.3s-0.2,0.1-0.4,0.1h-2.8c-0.3,0-0.5-0.2-0.5-0.5V195.1z"/>
	</g>
</g>
</svg>
