<?xml version="1.0" encoding="utf-8"?>
<!-- Generator: Adobe Illustrator 22.1.0, SVG Export Plug-In . SVG Version: 6.00 Build 0)  -->
<svg version="1.1" id="Laag_1" xmlns="http://www.w3.org/2000/svg" xmlns:xlink="http://www.w3.org/1999/xlink" x="0px" y="0px"
	 viewBox="0 0 283.5 283.5" style="enable-background:new 0 0 283.5 283.5;" xml:space="preserve">
<style type="text/css">
	.st0{fill:#F2F2F2;}
	.st1{fill:#ACACFF;}
</style>
<title>4 kleuren images</title>
<g id="Laag_1_1_">
	<rect x="0.1" y="0" class="st0" width="283.5" height="283.5"/>
</g>
<g id="Laag_2_1_">
	<path class="st1" d="M45.7,97.8c0-0.2,0.1-0.4,0.4-0.4c0,0,0,0,0,0h3.1c0.3,0,0.5,0.1,0.6,0.4c0,0,0,0.1,0,0.1v14.4
		c0,0.7-0.1,1.3-0.4,1.9c-0.3,0.6-0.6,1.1-1.1,1.6c-0.5,0.5-1,0.8-1.6,1.1c-0.6,0.3-1.3,0.4-2,0.4c-0.4,0-0.8,0-1.2-0.1
		c-0.4-0.1-0.8-0.2-1.1-0.4c-0.4-0.2-0.7-0.4-1-0.7c-0.3-0.3-0.6-0.6-0.8-0.9c0,0,0-0.1,0-0.2c0-0.2,0-0.3,0.2-0.4l1.8-1.7
		c0.1,0,0.1-0.1,0.2-0.1c0.1,0,0.1,0,0.2,0c0.1,0,0.2,0,0.3,0.1l0.3,0.3c0.1,0.1,0.3,0.2,0.4,0.3c0.2,0.1,0.4,0.1,0.6,0.1
		c0.2,0,0.3,0,0.5-0.1c0.1-0.1,0.3-0.2,0.4-0.3c0.1-0.1,0.2-0.2,0.3-0.4c0.1-0.1,0.1-0.3,0.1-0.4L45.7,97.8z"/>
	<path class="st1" d="M63.9,111.4c-0.6,0.6-1.3,1-2.1,1.3c-0.8,0.3-1.6,0.5-2.4,0.5c-0.9,0-1.9-0.2-2.7-0.5
		c-0.8-0.3-1.6-0.8-2.3-1.4c-0.6-0.6-1.2-1.4-1.5-2.2c-0.4-0.9-0.6-1.8-0.6-2.7c0-0.6,0.1-1.2,0.2-1.8c0.1-0.6,0.4-1.1,0.6-1.6
		c0.3-0.5,0.6-1,1-1.4c0.4-0.4,0.8-0.8,1.3-1.1c1-0.7,2.2-1,3.4-1c0.6,0,1.1,0.1,1.7,0.2c0.5,0.2,1.1,0.4,1.5,0.7
		c0.5,0.3,0.9,0.6,1.3,1c0.4,0.4,0.7,0.8,1,1.3c0.3,0.5,0.5,1,0.7,1.5c0.2,0.5,0.2,1.1,0.2,1.6c0,0.4,0,0.7,0,0.9
		c0,0.2-0.1,0.4-0.2,0.6c-0.1,0.1-0.3,0.2-0.5,0.3c-0.3,0.1-0.7,0.1-1,0.1h-7.5c0.1,0.4,0.2,0.8,0.4,1.1c0.2,0.3,0.4,0.5,0.7,0.7
		c0.3,0.2,0.6,0.3,0.9,0.4c0.3,0.1,0.6,0.1,0.9,0.1c0.3,0,0.5,0,0.8-0.1c0.3,0,0.5-0.1,0.8-0.2c0.2-0.1,0.5-0.2,0.7-0.3
		c0.2-0.1,0.3-0.2,0.5-0.4c0.1-0.1,0.2-0.1,0.3-0.2c0.1,0,0.2-0.1,0.3-0.1c0.1,0,0.2,0,0.3,0.1c0.1,0.1,0.2,0.2,0.3,0.3l1.1,1.3
		c0.1,0.1,0.1,0.2,0.2,0.3c0,0.1,0,0.1,0,0.2c0,0.1,0,0.3-0.1,0.4C64.1,111.2,64,111.3,63.9,111.4z M58.9,102.6
		c-0.3,0-0.5,0.1-0.8,0.2c-0.3,0.1-0.5,0.3-0.7,0.4c-0.2,0.2-0.4,0.4-0.6,0.6c-0.2,0.2-0.3,0.5-0.4,0.7h5.4
		c-0.1-0.3-0.3-0.5-0.5-0.8c-0.2-0.2-0.4-0.4-0.6-0.6c-0.2-0.2-0.5-0.3-0.8-0.4C59.6,102.7,59.2,102.6,58.9,102.6L58.9,102.6z"/>
	<path class="st1" d="M75.5,99.8c0-0.6,0.1-1.3,0.4-1.8c0.3-0.6,0.7-1.1,1.1-1.5c0.5-0.4,1-0.8,1.6-1c0.6-0.2,1.3-0.4,1.9-0.4h0.2
		c0.2,0,0.4,0.1,0.6,0.2c0.1,0.2,0.2,0.4,0.2,0.6v2c0,0.2-0.1,0.5-0.2,0.6c-0.1,0.2-0.3,0.3-0.6,0.3h-0.2c-0.1,0-0.3,0-0.4,0.1
		c-0.1,0.1-0.2,0.1-0.3,0.2c-0.1,0.1-0.2,0.2-0.3,0.3c-0.1,0.1-0.1,0.3-0.1,0.4v1.2h1.7c0.2,0,0.4,0.1,0.6,0.2
		c0.1,0.2,0.2,0.4,0.2,0.6v1.9c0,0.2-0.1,0.5-0.2,0.7c-0.1,0.1-0.3,0.2-0.6,0.2h-1.6v7.5c0,0.2-0.1,0.5-0.3,0.6
		c-0.2,0.1-0.4,0.2-0.6,0.2h-2.3c-0.2,0-0.4-0.1-0.6-0.2c-0.1-0.2-0.2-0.4-0.2-0.6v-7.5h-1.1c-0.2,0-0.4-0.1-0.6-0.2
		c-0.2-0.2-0.2-0.4-0.2-0.7v-1.9c0-0.2,0.1-0.5,0.2-0.6c0.2-0.1,0.4-0.2,0.6-0.2h1.1V99.8z"/>
	<path class="st1" d="M97,112.2c0,0.1,0,0.2-0.1,0.3c0,0.1-0.1,0.2-0.2,0.3c-0.1,0.1-0.2,0.1-0.3,0.2h-0.3h-2.1
		c-0.1,0-0.2,0-0.4-0.1c-0.1,0-0.2-0.1-0.2-0.2c-0.1-0.1-0.1-0.2-0.1-0.3c0-0.1-0.1-0.2-0.1-0.3l-0.1-0.5c-0.2,0.2-0.4,0.4-0.7,0.6
		c-0.3,0.2-0.5,0.4-0.8,0.5c-0.3,0.1-0.6,0.3-0.9,0.3c-0.3,0.1-0.7,0.1-1,0.1c-0.6,0-1.2-0.1-1.8-0.2c-0.6-0.2-1.1-0.4-1.6-0.7
		c-0.5-0.3-1-0.7-1.4-1.1c-0.8-0.8-1.4-1.9-1.8-3c-0.2-0.6-0.2-1.2-0.2-1.8c0-0.9,0.2-1.9,0.5-2.7c0.3-0.8,0.8-1.6,1.5-2.2
		c1.3-1.3,3-2,4.8-2c0.4,0,0.8,0,1.2,0.2c0.3,0.1,0.7,0.2,1,0.4c0.3,0.2,0.6,0.4,0.8,0.6c0.2,0.2,0.5,0.5,0.7,0.8l0.3-1
		c0.1-0.2,0.1-0.3,0.2-0.4c0-0.1,0.1-0.2,0.2-0.2c0-0.1,0.1-0.1,0.2-0.1c0.1,0,0.2,0,0.3,0h1.5h0.3c0.1,0,0.2,0.1,0.3,0.2
		c0.1,0.1,0.2,0.2,0.3,0.3c0,0.1,0.1,0.2,0.1,0.3L97,112.2z M86.7,106.3c0,0.4,0.1,0.9,0.2,1.3c0.1,0.4,0.4,0.7,0.6,1
		c0.3,0.3,0.6,0.5,1,0.7c0.4,0.2,0.8,0.3,1.2,0.3c0.4,0,0.9-0.1,1.3-0.3c0.4-0.2,0.7-0.4,1-0.7c0.3-0.3,0.5-0.6,0.7-1
		c0.2-0.4,0.3-0.9,0.3-1.3c0-0.4-0.1-0.9-0.3-1.3c-0.3-0.8-1-1.4-1.8-1.8c-0.4-0.2-0.9-0.3-1.3-0.3c-0.4,0-0.9,0.1-1.2,0.3
		c-0.4,0.2-0.7,0.4-1,0.7c-0.3,0.3-0.5,0.7-0.6,1.1C86.7,105.4,86.7,105.9,86.7,106.3L86.7,106.3z"/>
	<path class="st1" d="M98.7,100.7c-0.1-0.2-0.2-0.5-0.1-0.7c0.1-0.2,0.3-0.3,0.6-0.3h2.7c0.4,0,0.7,0.2,0.8,0.6
		c0.1,0.4,0.3,0.8,0.4,1.3s0.3,0.9,0.4,1.4s0.3,1,0.5,1.4s0.3,0.9,0.4,1.3s0.2,0.8,0.3,1s0.2,0.5,0.2,0.6l2.2-7.1
		c0.1-0.2,0.2-0.3,0.3-0.4c0.1-0.1,0.3-0.1,0.5-0.1h2.8c0.2,0,0.3,0,0.5,0.1c0.1,0,0.2,0.1,0.2,0.2c0,0.1,0,0.2,0,0.3
		c0,0.1-0.1,0.2-0.1,0.3l-5,12c-0.1,0.1-0.2,0.2-0.3,0.3c-0.1,0.1-0.3,0.1-0.5,0.1h-1.3c-0.2,0-0.4,0-0.6-0.1
		c-0.1-0.1-0.2-0.2-0.3-0.3L98.7,100.7z"/>
	<path class="st1" d="M111.9,106.3c0-0.6,0.1-1.3,0.3-1.9c0.2-0.6,0.4-1.1,0.7-1.7c0.6-1,1.4-1.9,2.5-2.4c0.5-0.3,1.1-0.5,1.7-0.7
		c0.6-0.2,1.2-0.2,1.9-0.2c2.8,0,5.3,1.6,6.3,4.2c0.4,0.9,0.6,1.8,0.6,2.7c0,0.6-0.1,1.2-0.3,1.8c-0.2,0.6-0.4,1.1-0.7,1.7
		c-0.6,1-1.5,1.9-2.5,2.5c-0.5,0.3-1.1,0.5-1.6,0.7c-0.6,0.2-1.2,0.2-1.8,0.2c-0.6,0-1.2-0.1-1.8-0.2c-0.6-0.2-1.1-0.4-1.7-0.7
		c-0.5-0.3-1-0.7-1.4-1.1c-0.4-0.4-0.8-0.9-1.1-1.4c-0.3-0.5-0.5-1.1-0.7-1.7C112,107.6,111.9,106.9,111.9,106.3z M115.8,106.3
		c0,0.4,0.1,0.9,0.2,1.3c0.1,0.4,0.3,0.7,0.6,1c0.3,0.3,0.6,0.5,1,0.7c0.4,0.2,0.8,0.3,1.3,0.3c0.4,0,0.8-0.1,1.2-0.3
		c0.4-0.2,0.7-0.4,0.9-0.7c0.3-0.3,0.5-0.6,0.6-1c0.1-0.4,0.2-0.9,0.2-1.3c0-0.4-0.1-0.9-0.2-1.3c-0.1-0.4-0.3-0.7-0.6-1
		c-0.3-0.3-0.6-0.6-0.9-0.7c-0.4-0.2-0.8-0.3-1.2-0.3c-0.4,0-0.9,0.1-1.3,0.3c-0.4,0.2-0.7,0.4-1,0.7c-0.2,0.3-0.4,0.6-0.6,1
		C115.8,105.4,115.8,105.9,115.8,106.3z"/>
	<path class="st1" d="M127.8,100.4c0-0.1,0-0.2,0.1-0.3c0-0.1,0.1-0.2,0.2-0.2c0.1-0.1,0.2-0.1,0.3-0.1c0.1,0,0.2,0,0.3-0.1h1.6
		c0.2,0,0.3,0,0.4,0.2c0.1,0.1,0.2,0.3,0.3,0.4c0.1,0.2,0.1,0.3,0.2,0.5c0.1,0.2,0.1,0.4,0.2,0.6l0.6-0.7c0.2-0.2,0.4-0.4,0.7-0.6
		c0.2-0.2,0.5-0.3,0.8-0.4c0.3-0.1,0.7-0.2,1-0.2c0.3,0,0.7,0,1,0.1c0.3,0,0.6,0.1,0.9,0.2c0.3,0.1,0.5,0.3,0.8,0.4
		c0.3,0.2,0.6,0.4,0.9,0.6c0.3,0.1,0.4,0.3,0.5,0.6c0,0.2-0.1,0.4-0.2,0.5l-1,1.6c-0.1,0.2-0.4,0.4-0.7,0.4c-0.2,0-0.3,0-0.5-0.1
		c-0.3-0.3-0.6-0.5-0.9-0.7c-0.3-0.1-0.7-0.2-1.1-0.2c-0.2,0-0.5,0-0.7,0.1c-0.2,0.1-0.4,0.2-0.6,0.3c-0.2,0.1-0.3,0.3-0.5,0.5
		c-0.2,0.2-0.3,0.4-0.4,0.7v7.6c0,0.4-0.2,0.8-0.6,0.8c-0.1,0-0.1,0-0.2,0h-2.4c-0.4,0.1-0.8-0.2-0.8-0.6c0-0.1,0-0.1,0-0.2
		L127.8,100.4z"/>
	<path class="st1" d="M139.9,95.1c0-0.2,0-0.5,0.2-0.6c0.2-0.1,0.4-0.2,0.6-0.2h2.4c0.2,0,0.4,0.1,0.6,0.2c0.2,0.2,0.2,0.4,0.2,0.6
		v2c0,0.1,0,0.2-0.1,0.3c0,0.1-0.1,0.2-0.2,0.3c-0.1,0.1-0.2,0.2-0.3,0.2c-0.1,0.1-0.2,0.1-0.3,0.1h-2.4c-0.5,0-0.8-0.3-0.8-0.9
		L139.9,95.1z M139.9,100.4c0-0.2,0.1-0.4,0.2-0.6c0.1-0.2,0.4-0.3,0.6-0.2h2.4c0.1,0,0.2,0,0.3,0.1c0.1,0,0.2,0.1,0.3,0.2
		c0.1,0.1,0.2,0.2,0.2,0.3c0.1,0.1,0.1,0.2,0.1,0.3v11.7c0,0.2-0.1,0.4-0.2,0.6c-0.2,0.1-0.4,0.2-0.6,0.2h-2.4
		c-0.5,0-0.8-0.3-0.8-0.8V100.4z"/>
	<path class="st1" d="M157.6,111.4c-0.6,0.6-1.3,1-2.1,1.3c-0.8,0.3-1.6,0.5-2.4,0.5c-0.9,0-1.9-0.2-2.7-0.5
		c-0.8-0.3-1.6-0.8-2.3-1.4c-0.6-0.6-1.2-1.4-1.5-2.2c-0.4-0.9-0.6-1.8-0.6-2.7c0-0.6,0.1-1.2,0.2-1.8c0.1-0.6,0.4-1.1,0.6-1.6
		c0.3-0.5,0.6-1,1-1.4c0.4-0.4,0.8-0.8,1.3-1.1c1-0.7,2.2-1,3.4-1c0.6,0,1.1,0.1,1.7,0.2c0.5,0.2,1,0.4,1.5,0.7
		c0.5,0.3,0.9,0.6,1.3,1c0.4,0.4,0.7,0.8,1,1.3c0.3,0.5,0.5,1,0.7,1.5c0.2,0.5,0.2,1.1,0.2,1.6c0,0.4,0,0.7,0,0.9
		c0,0.2-0.1,0.4-0.2,0.6c-0.1,0.1-0.3,0.2-0.5,0.3c-0.3,0.1-0.7,0.1-1,0.1h-7.6c0,0.4,0.2,0.8,0.4,1.1c0.2,0.3,0.4,0.5,0.7,0.7
		c0.3,0.2,0.6,0.3,0.9,0.4c0.3,0.1,0.6,0.1,0.9,0.1c0.3,0,0.5,0,0.8-0.1c0.3,0,0.5-0.1,0.8-0.2c0.2-0.1,0.5-0.2,0.7-0.3
		c0.2-0.1,0.3-0.2,0.5-0.4c0.1-0.1,0.2-0.1,0.3-0.2c0.1,0,0.2-0.1,0.3-0.1c0.1,0,0.2,0,0.3,0.1c0.1,0.1,0.2,0.2,0.3,0.3l1.1,1.3
		c0.1,0.1,0.1,0.2,0.1,0.3c0,0.1,0,0.1,0,0.2c0,0.1,0,0.3-0.1,0.4C157.8,111.2,157.7,111.3,157.6,111.4z M152.5,102.6
		c-0.3,0-0.5,0.1-0.8,0.2c-0.3,0.1-0.5,0.3-0.7,0.4c-0.2,0.2-0.4,0.4-0.6,0.6c-0.2,0.2-0.3,0.5-0.4,0.7h5.4
		c-0.1-0.3-0.3-0.5-0.5-0.8c-0.2-0.2-0.4-0.4-0.6-0.6c-0.2-0.2-0.5-0.3-0.8-0.4C153.2,102.7,152.9,102.6,152.5,102.6z"/>
	<path class="st1" d="M161.3,97.6c0-0.2,0.1-0.4,0.2-0.5c0.2-0.1,0.4-0.2,0.6-0.3l2.4-0.8h0.2c0.2,0,0.4,0.1,0.5,0.2
		c0.1,0.2,0.1,0.4,0.1,0.6v2.9h1.4c0.2,0,0.4,0.1,0.6,0.2c0.2,0.2,0.2,0.4,0.2,0.6v2c0,0.2-0.1,0.5-0.2,0.6
		c-0.1,0.1-0.3,0.2-0.6,0.2h-1.4v8.9c0,0.2-0.1,0.4-0.2,0.6c-0.2,0.1-0.4,0.2-0.6,0.2h-2.4c-0.4,0.1-0.8-0.2-0.8-0.6
		c0-0.1,0-0.1,0-0.2v-8.8h-1.1c-0.5,0-0.8-0.3-0.8-0.8v-2c-0.1-0.4,0.2-0.7,0.6-0.8c0.1,0,0.1,0,0.2,0h1.1L161.3,97.6z"/>
	<path class="st1" d="M180.3,111.4c-0.6,0.6-1.3,1-2.1,1.3c-0.8,0.3-1.6,0.5-2.4,0.5c-0.9,0-1.9-0.2-2.7-0.5
		c-0.8-0.3-1.6-0.8-2.3-1.4c-0.6-0.6-1.2-1.4-1.5-2.2c-0.4-0.9-0.6-1.8-0.6-2.7c0-0.6,0.1-1.2,0.2-1.8c0.1-0.6,0.4-1.1,0.6-1.6
		c0.3-0.5,0.6-1,1-1.4c0.4-0.4,0.8-0.8,1.3-1.1c1-0.7,2.2-1,3.4-1c0.6,0,1.1,0.1,1.7,0.2c0.5,0.2,1,0.4,1.5,0.7
		c0.5,0.3,0.9,0.6,1.3,1c0.4,0.4,0.7,0.8,1,1.3c0.3,0.5,0.5,1,0.7,1.5c0.2,0.5,0.2,1.1,0.2,1.6c0,0.4,0,0.7,0,0.9
		c0,0.2-0.1,0.4-0.2,0.6c-0.1,0.1-0.3,0.2-0.5,0.3c-0.3,0.1-0.7,0.1-1,0.1h-7.6c0.1,0.4,0.2,0.8,0.4,1.1c0.2,0.3,0.4,0.5,0.7,0.7
		c0.3,0.2,0.6,0.3,0.9,0.4c0.3,0.1,0.6,0.1,0.9,0.1c0.3,0,0.5,0,0.8-0.1c0.3,0,0.5-0.1,0.8-0.2c0.2-0.1,0.5-0.2,0.7-0.3
		c0.2-0.1,0.3-0.2,0.5-0.4c0.1-0.1,0.2-0.1,0.3-0.2c0.2-0.1,0.4-0.1,0.5,0c0.1,0.1,0.2,0.2,0.3,0.3l1.1,1.3c0.1,0.1,0.1,0.2,0.1,0.3
		c0,0.1,0,0.1,0,0.2c0,0.1,0,0.3-0.1,0.4C180.4,111.1,180.4,111.3,180.3,111.4z M175.3,102.6c-0.3,0-0.5,0.1-0.8,0.2
		c-0.3,0.1-0.5,0.3-0.7,0.4c-0.2,0.2-0.4,0.4-0.6,0.6c-0.2,0.2-0.3,0.5-0.4,0.7h5.3c-0.1-0.3-0.3-0.5-0.5-0.8
		c-0.2-0.2-0.4-0.4-0.6-0.6c-0.2-0.2-0.5-0.3-0.8-0.4C175.9,102.7,175.5,102.6,175.3,102.6L175.3,102.6z"/>
	<path class="st1" d="M44.1,125.6c0-0.2,0.1-0.4,0.2-0.5c0.2-0.1,0.4-0.2,0.6-0.3l2.4-0.8h0.2c0.2,0,0.4,0.1,0.5,0.2
		c0.1,0.2,0.1,0.4,0.1,0.6v2.9h1.4c0.2,0,0.4,0.1,0.5,0.2c0.2,0.2,0.2,0.4,0.2,0.6v2c0,0.2-0.1,0.5-0.2,0.6
		c-0.1,0.1-0.3,0.2-0.5,0.2h-1.4v8.9c0,0.2-0.1,0.4-0.2,0.6c-0.2,0.1-0.4,0.2-0.6,0.2h-2.4c-0.4,0.1-0.8-0.2-0.8-0.6
		c0-0.1,0-0.1,0-0.2v-8.8H43c-0.5,0-0.8-0.3-0.8-0.9v-2c-0.1-0.4,0.2-0.7,0.6-0.8c0.1,0,0.1,0,0.2,0h1.1L44.1,125.6z"/>
	<path class="st1" d="M51.9,128.7c-0.1-0.2-0.2-0.5-0.1-0.7c0.1-0.2,0.3-0.3,0.6-0.3h2.7c0.2,0,0.3,0,0.5,0.1
		c0.1,0.1,0.2,0.3,0.3,0.4c0.1,0.4,0.3,0.8,0.4,1.3l0.5,1.4c0.2,0.5,0.3,1,0.5,1.4s0.3,0.9,0.4,1.3s0.2,0.8,0.3,1.1l0.2,0.6l2.2-7.1
		c0.1-0.2,0.2-0.3,0.3-0.4c0.1-0.1,0.3-0.1,0.5-0.1H64c0.2,0,0.3,0,0.5,0.1c0.1,0,0.2,0.1,0.2,0.2c0,0.1,0,0.2,0,0.3
		c0,0.1-0.1,0.2-0.1,0.3l-5,12c-0.1,0.1-0.2,0.2-0.3,0.3c-0.1,0.1-0.3,0.1-0.5,0.1h-1.2c-0.2,0-0.4,0-0.6-0.1
		c-0.1-0.1-0.2-0.2-0.3-0.3L51.9,128.7z"/>
	<path class="st1" d="M66.7,133.6c0-0.2,0.1-0.4,0.4-0.5c0,0,0.1,0,0.1,0h7.2c0.1,0,0.2,0,0.3,0.1c0.1,0.1,0.1,0.2,0.1,0.3v2.1
		c0,0.1-0.1,0.2-0.1,0.3c-0.1,0.1-0.2,0.2-0.3,0.2h-7.2c-0.3,0-0.5-0.2-0.5-0.5V133.6z"/>
	<path class="st1" d="M77.7,128.4c0-0.1,0-0.2,0.1-0.4c0-0.1,0.1-0.2,0.2-0.2c0.1-0.1,0.2-0.1,0.3-0.1c0.1,0,0.2,0,0.3-0.1h1.6
		c0.2,0,0.3,0.1,0.4,0.2c0.1,0.1,0.2,0.3,0.3,0.4c0.1,0.2,0.1,0.3,0.2,0.5c0.1,0.2,0.1,0.4,0.2,0.6l0.6-0.7c0.2-0.2,0.4-0.4,0.7-0.6
		c0.2-0.2,0.5-0.3,0.8-0.4c0.3-0.1,0.7-0.2,1-0.2c0.3,0,0.7,0,1,0.1c0.3,0,0.6,0.1,0.8,0.2c0.3,0.1,0.5,0.3,0.8,0.4
		c0.3,0.2,0.6,0.4,0.9,0.6c0.3,0.1,0.4,0.3,0.4,0.6c0,0.2-0.1,0.4-0.2,0.5l-1,1.6c-0.2,0.2-0.4,0.4-0.7,0.4c-0.2,0-0.3,0-0.5-0.1
		c-0.3-0.3-0.6-0.5-0.9-0.6c-0.3-0.2-0.7-0.2-1.1-0.2c-0.2,0-0.5,0-0.7,0.1c-0.2,0.1-0.4,0.2-0.6,0.3c-0.2,0.2-0.3,0.3-0.5,0.5
		c-0.1,0.2-0.3,0.4-0.4,0.6v7.6c0,0.2-0.1,0.4-0.2,0.6c-0.2,0.2-0.4,0.2-0.7,0.2h-2.3c-0.4,0.1-0.8-0.2-0.8-0.6c0-0.1,0-0.1,0-0.2
		V128.4z"/>
	<path class="st1" d="M100.7,139.4c-0.6,0.6-1.3,1-2.1,1.3c-0.8,0.3-1.6,0.5-2.4,0.5c-0.9,0-1.9-0.2-2.7-0.5
		c-0.8-0.3-1.6-0.8-2.3-1.4c-0.6-0.6-1.2-1.4-1.5-2.2c-0.4-0.9-0.6-1.8-0.6-2.7c0-0.6,0.1-1.2,0.2-1.8c0.1-0.6,0.4-1.1,0.6-1.6
		c0.3-0.5,0.6-1,1-1.4c0.8-0.8,1.8-1.5,2.9-1.8c0.6-0.2,1.2-0.3,1.8-0.3c0.6,0,1.1,0.1,1.7,0.2c0.5,0.2,1,0.4,1.5,0.6
		c0.5,0.3,0.9,0.6,1.3,1c0.4,0.4,0.7,0.8,1,1.3c0.3,0.5,0.5,1,0.7,1.5c0.2,0.5,0.2,1.1,0.2,1.6c0,0.4,0,0.7,0,0.9
		c0,0.2-0.1,0.4-0.2,0.6c-0.1,0.1-0.3,0.2-0.5,0.3c-0.3,0.1-0.7,0.1-1,0.1h-7.6c0.1,0.4,0.2,0.8,0.4,1.1c0.2,0.3,0.4,0.5,0.7,0.7
		c0.3,0.2,0.6,0.3,0.9,0.4c0.3,0.1,0.6,0.1,0.9,0.1c0.3,0,0.5,0,0.8-0.1c0.3,0,0.5-0.1,0.8-0.2c0.2-0.1,0.5-0.2,0.7-0.3
		c0.2-0.1,0.3-0.2,0.5-0.4c0.1-0.1,0.2-0.1,0.3-0.2c0.2-0.1,0.4-0.1,0.5,0c0.1,0.1,0.2,0.2,0.3,0.3l1.1,1.3c0.1,0.1,0.1,0.2,0.2,0.3
		c0,0.1,0,0.1,0,0.2c0,0.1,0,0.3-0.1,0.4C100.8,139.2,100.7,139.3,100.7,139.4z M95.6,130.6c-0.3,0-0.5,0.1-0.8,0.2
		c-0.3,0.1-0.5,0.3-0.7,0.4c-0.2,0.2-0.4,0.4-0.6,0.6c-0.2,0.2-0.3,0.5-0.4,0.7h5.4c-0.1-0.3-0.3-0.5-0.5-0.8
		c-0.2-0.2-0.4-0.4-0.6-0.6c-0.2-0.2-0.5-0.3-0.8-0.4C96.3,130.7,95.9,130.6,95.6,130.6z"/>
	<path class="st1" d="M115.5,139.4c-0.6,0.6-1.3,1-2.1,1.3c-0.8,0.3-1.6,0.5-2.4,0.5c-0.9,0-1.9-0.2-2.7-0.5
		c-0.8-0.3-1.6-0.8-2.3-1.4c-0.7-0.6-1.2-1.4-1.5-2.2c-0.4-0.9-0.6-1.8-0.6-2.7c0-0.6,0.1-1.2,0.2-1.8c0.1-0.6,0.4-1.1,0.6-1.6
		c0.3-0.5,0.6-1,1-1.4c0.8-0.8,1.8-1.5,2.9-1.8c0.6-0.2,1.2-0.2,1.8-0.3c0.6,0,1.1,0.1,1.7,0.2c1.1,0.3,2.1,0.9,2.9,1.7
		c0.4,0.4,0.7,0.8,1,1.3c0.3,0.5,0.5,1,0.7,1.5c0.2,0.5,0.2,1.1,0.2,1.6c0,0.4,0,0.7,0,0.9c0,0.2-0.1,0.4-0.2,0.6
		c-0.1,0.1-0.3,0.2-0.5,0.3c-0.3,0.1-0.7,0.1-1,0.1h-7.6c0.1,0.4,0.2,0.8,0.4,1.1c0.2,0.3,0.4,0.5,0.7,0.7c0.3,0.2,0.6,0.3,0.9,0.4
		c0.3,0.1,0.6,0.1,0.9,0.1c0.3,0,0.5,0,0.8-0.1c0.3-0.1,0.5-0.1,0.8-0.2c0.2-0.1,0.5-0.2,0.7-0.3c0.2-0.1,0.4-0.2,0.5-0.4
		c0.1-0.1,0.2-0.1,0.3-0.2c0.2-0.1,0.4-0.1,0.5,0c0.1,0.1,0.2,0.2,0.3,0.3l1.1,1.3c0.1,0.1,0.1,0.2,0.2,0.3c0,0.1,0,0.1,0,0.2
		c0,0.1,0,0.3-0.1,0.4C115.7,139.2,115.6,139.3,115.5,139.4z M110.5,130.6c-0.3,0-0.5,0.1-0.8,0.2c-0.3,0.1-0.5,0.3-0.7,0.4
		c-0.2,0.2-0.4,0.4-0.6,0.6c-0.2,0.2-0.3,0.5-0.4,0.7h5.4c-0.1-0.3-0.3-0.5-0.5-0.8c-0.2-0.2-0.4-0.4-0.6-0.6
		c-0.2-0.2-0.5-0.3-0.8-0.4C111.2,130.7,110.8,130.6,110.5,130.6L110.5,130.6z"/>
	<path class="st1" d="M119.2,124.5c0-0.1,0-0.2,0-0.3c0-0.1,0-0.2,0.1-0.3c0.1-0.1,0.1-0.1,0.2-0.2c0.2,0,0.3-0.1,0.5-0.1h2.5
		c0.1,0,0.2,0,0.3,0.1c0.1,0,0.2,0.1,0.2,0.2c0,0.1,0.1,0.1,0.1,0.2c0,0.1,0,0.2,0,0.2v7.8l3.8-4.2c0.2-0.2,0.4-0.3,0.6-0.3h3.2
		c0.4,0,0.6,0.1,0.6,0.4c0,0.1,0,0.1,0,0.2c0,0.1-0.1,0.1-0.1,0.2l-4.3,4.5l5.4,7l0,0c0.2,0.1,0.2,0.3,0.3,0.5c0,0.1,0,0.2-0.1,0.3
		c-0.1,0.1-0.3,0.1-0.4,0.1h-3.6c-0.1,0-0.2-0.1-0.3-0.1c-0.1-0.1-0.2-0.3-0.3-0.4l-3.4-4.9l-1.2,1.2v3.4c0,0.1,0,0.1,0,0.2
		c0,0.1-0.1,0.2-0.1,0.3c-0.1,0.1-0.1,0.2-0.2,0.2c-0.1,0.1-0.2,0.1-0.4,0.1H120c-0.1,0-0.2,0-0.3-0.1c-0.1-0.1-0.2-0.1-0.2-0.2
		c0-0.1-0.1-0.2-0.1-0.2c0,0,0-0.1,0-0.1L119.2,124.5z"/>
	<path class="st1" d="M136.1,136.8c0.2,0.2,0.4,0.3,0.6,0.5c0.2,0.1,0.4,0.2,0.6,0.3c0.2,0.1,0.3,0.1,0.5,0.2l0.3,0.1h0.5
		c0.2,0,0.4,0,0.6-0.1c0.2-0.1,0.3-0.1,0.5-0.3c0.1-0.1,0.2-0.3,0.2-0.5c0-0.3-0.1-0.6-0.4-0.8c-0.2-0.1-0.3-0.2-0.5-0.2l-0.7-0.2
		c-0.7-0.2-1.4-0.4-2.1-0.8c-0.5-0.3-0.9-0.6-1.3-1.1c-0.3-0.4-0.5-0.8-0.7-1.3c-0.1-0.5-0.2-0.9-0.2-1.4c0-1.1,0.5-2.1,1.3-2.8
		c0.5-0.4,1-0.6,1.5-0.8c0.6-0.2,1.3-0.3,2-0.3c0.4,0,0.8,0,1.2,0.1c0.4,0.1,0.7,0.2,1.1,0.4c0.4,0.2,0.7,0.4,1,0.6
		c0.4,0.3,0.7,0.6,1,0.9c0.1,0.1,0.2,0.2,0.2,0.4c0,0.1-0.1,0.3-0.2,0.4s-0.5,0.4-0.8,0.7s-0.5,0.5-0.8,0.7
		c-0.1,0.1-0.2,0.1-0.3,0.1c-0.1,0-0.2,0-0.2,0c-0.1,0-0.2-0.1-0.2-0.1c-0.1,0-0.1-0.1-0.2-0.2c-0.2-0.3-0.5-0.5-0.8-0.6
		c-0.3-0.1-0.6-0.1-0.9-0.1c-0.3,0-0.6,0-0.8,0.2c-0.2,0.1-0.3,0.3-0.3,0.6c0,0.2,0.1,0.3,0.2,0.4c0.1,0.1,0.3,0.2,0.4,0.3
		c0.2,0.1,0.4,0.1,0.6,0.1l0.6,0.1c0.6,0.2,1.2,0.4,1.7,0.7c0.5,0.2,1,0.5,1.4,0.9c0.4,0.3,0.7,0.8,0.9,1.3c0.2,0.6,0.3,1.2,0.3,1.8
		c0,0.6-0.1,1.3-0.4,1.9c-0.3,0.5-0.7,1-1.1,1.4c-0.5,0.4-1.1,0.7-1.7,0.9c-0.7,0.2-1.4,0.3-2.1,0.3c-0.4,0-0.9,0-1.3-0.1
		c-0.4-0.1-0.9-0.2-1.3-0.4c-0.4-0.2-0.8-0.4-1.2-0.7c-0.4-0.3-0.7-0.6-1-1c-0.1-0.1-0.1-0.2-0.2-0.3c0-0.1,0-0.2-0.1-0.3
		c0-0.1,0-0.2,0.1-0.3c0-0.1,0.1-0.2,0.2-0.2l1.4-1.4c0.1-0.1,0.3-0.2,0.4-0.1C135.8,136.5,135.9,136.7,136.1,136.8z"/>
	<path class="st1" d="M157.4,139.4c-0.6,0.6-1.3,1-2.1,1.3c-0.8,0.3-1.6,0.5-2.4,0.5c-0.9,0-1.9-0.2-2.7-0.5
		c-0.8-0.3-1.6-0.8-2.3-1.4c-0.6-0.6-1.2-1.4-1.5-2.2c-0.4-0.9-0.6-1.8-0.6-2.7c0-0.6,0.1-1.2,0.2-1.8c0.1-0.6,0.4-1.1,0.6-1.6
		c0.3-0.5,0.6-1,1-1.4c0.4-0.4,0.8-0.8,1.3-1.1c1-0.7,2.2-1,3.4-1c0.6,0,1.1,0.1,1.7,0.2c0.5,0.2,1,0.4,1.5,0.6
		c0.5,0.3,0.9,0.6,1.3,1c0.4,0.4,0.7,0.8,1,1.3c0.3,0.5,0.5,1,0.7,1.5c0.2,0.5,0.2,1.1,0.2,1.6c0,0.4,0,0.7,0,0.9
		c0,0.2-0.1,0.4-0.2,0.6c-0.1,0.1-0.3,0.2-0.5,0.3c-0.3,0.1-0.7,0.1-1,0.1h-7.6c0.1,0.4,0.2,0.8,0.4,1.1c0.2,0.3,0.4,0.5,0.7,0.7
		c0.3,0.2,0.6,0.3,0.9,0.4c0.3,0.1,0.6,0.1,0.9,0.1c0.3,0,0.5,0,0.8-0.1c0.3,0,0.5-0.1,0.8-0.2c0.2-0.1,0.5-0.2,0.7-0.3
		c0.2-0.1,0.3-0.2,0.5-0.4c0.1-0.1,0.2-0.1,0.3-0.2c0.1,0,0.2-0.1,0.3-0.1c0.1,0,0.2,0,0.3,0.1c0.1,0.1,0.2,0.2,0.3,0.3l1.1,1.3
		c0.1,0.1,0.1,0.2,0.1,0.3c0,0.1,0,0.1,0,0.2c0,0.1,0,0.3-0.1,0.4C157.5,139.2,157.5,139.3,157.4,139.4z M152.4,130.6
		c-0.3,0-0.5,0.1-0.8,0.2c-0.3,0.1-0.5,0.3-0.7,0.4c-0.2,0.2-0.4,0.4-0.6,0.6c-0.2,0.2-0.3,0.5-0.4,0.7h5.4
		c-0.1-0.3-0.3-0.5-0.5-0.8c-0.2-0.2-0.4-0.4-0.6-0.6c-0.2-0.2-0.5-0.3-0.8-0.4C153,130.7,152.7,130.6,152.4,130.6L152.4,130.6z"/>
	<path class="st1" d="M161.4,127.8c0.1-0.1,0.2-0.1,0.3-0.1h0.3h1.6c0.1,0,0.2,0,0.3,0.1c0.1,0,0.2,0.1,0.2,0.2
		c0.1,0.1,0.1,0.2,0.1,0.3c0,0.1,0.1,0.2,0.1,0.3l0.2,0.9c0.1-0.2,0.3-0.5,0.5-0.7c0.3-0.2,0.6-0.5,0.9-0.6c0.4-0.2,0.8-0.4,1.2-0.5
		c0.5-0.1,1-0.2,1.5-0.2c1.4,0,2.8,0.6,3.7,1.7c0.4,0.6,0.8,1.2,1,1.9c0.2,0.7,0.3,1.5,0.3,2.3v6.9c0,0.2,0,0.4-0.2,0.6
		c-0.1,0.1-0.3,0.2-0.6,0.2h-2.4c-0.2,0-0.4,0-0.6-0.2c-0.1-0.2-0.2-0.4-0.2-0.6v-6.8c0-0.3-0.1-0.6-0.2-0.9
		c-0.1-0.3-0.3-0.5-0.5-0.7c-0.2-0.2-0.5-0.4-0.8-0.5c-0.3-0.1-0.6-0.2-0.9-0.2c-0.3,0-0.5,0.1-0.8,0.2c-0.3,0.1-0.5,0.3-0.7,0.5
		c-0.2,0.2-0.4,0.4-0.6,0.7c-0.2,0.3-0.2,0.6-0.3,0.9v6.8c0,0.1,0,0.2-0.1,0.4c0,0.1-0.1,0.2-0.2,0.3c-0.1,0.1-0.2,0.1-0.3,0.1
		c-0.1,0-0.2,0-0.3,0h-2.4c-0.2,0-0.5-0.1-0.6-0.2c-0.1-0.2-0.2-0.4-0.2-0.6v-11.7c0-0.1,0-0.3,0.1-0.4
		C161.2,127.9,161.3,127.9,161.4,127.8L161.4,127.8z"/>
	<path class="st1" d="M42.4,156.7c-0.1-0.2-0.2-0.5-0.1-0.7c0.1-0.2,0.3-0.3,0.6-0.3h2.7c0.2,0,0.3,0,0.5,0.1
		c0.1,0.1,0.2,0.3,0.3,0.4l0.4,1.2c0.1,0.5,0.3,0.9,0.5,1.4s0.3,0.9,0.5,1.4s0.3,0.9,0.4,1.3s0.2,0.7,0.3,1s0.2,0.5,0.2,0.6l2.2-7
		c0.1-0.2,0.2-0.3,0.3-0.4c0.1-0.1,0.3-0.1,0.5-0.1h2.5c0.2,0,0.3,0,0.5,0.1c0.1,0,0.2,0.1,0.2,0.2c0,0.1,0,0.2,0,0.3
		c0,0.1-0.1,0.2-0.1,0.3l-1.2,2.8c0,0.1,0.1,0.3,0.3,0.6l0.5,1c0.2,0.4,0.4,0.7,0.5,1.1s0.3,0.8,0.5,1.1l2.6-7
		c0.1-0.2,0.2-0.3,0.3-0.4c0.1-0.1,0.3-0.1,0.4-0.1H61c0.2,0,0.5,0,0.7,0.2c0.1,0.1,0.1,0.4,0,0.7l-4.9,12c-0.1,0.1-0.2,0.2-0.3,0.3
		c-0.2,0.1-0.3,0.2-0.5,0.2h-1.1c-0.2,0-0.4,0-0.6-0.1c-0.1-0.1-0.2-0.2-0.3-0.3l-2-4.8l-1.9,4.8c-0.1,0.1-0.2,0.2-0.3,0.3
		c-0.1,0.1-0.3,0.2-0.5,0.1h-1.2c-0.2,0-0.4,0-0.6-0.1c-0.1-0.1-0.2-0.2-0.3-0.3L42.4,156.7z"/>
	<path class="st1" d="M62.5,162.3c0-0.6,0.1-1.3,0.2-1.9c0.2-0.6,0.4-1.1,0.7-1.6c0.3-0.5,0.7-1,1.1-1.4c0.4-0.4,0.9-0.8,1.4-1.1
		c1.1-0.6,2.3-0.9,3.5-0.9c0.9,0,1.8,0.2,2.7,0.5c0.8,0.3,1.6,0.8,2.2,1.5c0.6,0.6,1.1,1.4,1.5,2.2c0.4,0.9,0.5,1.8,0.5,2.7
		c0,0.6-0.1,1.2-0.3,1.9c-0.3,1.2-0.9,2.2-1.8,3.1c-0.8,0.8-1.9,1.4-3,1.8c-0.6,0.2-1.2,0.2-1.8,0.2c-1.2,0-2.4-0.3-3.5-0.9
		c-1-0.6-1.9-1.4-2.5-2.5c-0.3-0.5-0.5-1.1-0.7-1.7C62.6,163.6,62.5,162.9,62.5,162.3z M66.3,162.3c0,0.4,0.1,0.9,0.2,1.3
		c0.1,0.4,0.3,0.7,0.6,1c0.3,0.3,0.6,0.5,1,0.7c0.4,0.2,0.8,0.3,1.3,0.3c0.4,0,0.9-0.1,1.2-0.3c0.4-0.2,0.7-0.4,0.9-0.7
		c0.3-0.3,0.5-0.6,0.6-1c0.1-0.4,0.2-0.9,0.2-1.3c0-0.4-0.1-0.9-0.2-1.3c-0.1-0.4-0.3-0.8-0.6-1.1c-0.5-0.6-1.3-1-2.2-1
		c-0.4,0-0.9,0.1-1.3,0.3c-0.4,0.2-0.7,0.4-1,0.7c-0.3,0.3-0.5,0.7-0.6,1.1C66.4,161.4,66.3,161.9,66.3,162.3z"/>
	<path class="st1" d="M78.3,156.4c0-0.1,0-0.2,0.1-0.4c0-0.1,0.1-0.2,0.2-0.2c0.1-0.1,0.2-0.1,0.3-0.1c0.1,0,0.2,0,0.3-0.1h1.6
		c0.2,0,0.3,0.1,0.4,0.2c0.1,0.1,0.2,0.3,0.3,0.4c0.1,0.2,0.1,0.3,0.2,0.5c0.1,0.2,0.1,0.4,0.2,0.6l0.6-0.7c0.2-0.2,0.4-0.4,0.7-0.6
		c0.2-0.2,0.5-0.3,0.8-0.4c0.3-0.1,0.7-0.2,1-0.2c0.3,0,0.7,0,1,0.1c0.3,0.1,0.6,0.1,0.8,0.3c0.3,0.1,0.5,0.3,0.8,0.4
		c0.3,0.2,0.6,0.4,0.9,0.6c0.3,0.1,0.4,0.3,0.4,0.6c0,0.2-0.1,0.4-0.2,0.5l-1,1.6c-0.1,0.3-0.4,0.4-0.7,0.5c-0.2,0-0.3,0-0.5-0.1
		c-0.3-0.3-0.6-0.5-0.9-0.7c-0.3-0.1-0.7-0.2-1.1-0.2c-0.2,0-0.5,0-0.7,0.1c-0.2,0.1-0.4,0.2-0.6,0.3c-0.2,0.1-0.3,0.3-0.5,0.5
		c-0.1,0.2-0.3,0.4-0.4,0.7v7.6c0,0.2-0.1,0.4-0.2,0.6c-0.2,0.2-0.4,0.2-0.7,0.2h-2.3c-0.4,0.1-0.8-0.2-0.8-0.6c0-0.1,0-0.1,0-0.2
		L78.3,156.4z"/>
	<path class="st1" d="M99.6,167.6c-0.2,0.2-0.4,0.4-0.6,0.6c-0.2,0.2-0.5,0.4-0.8,0.5c-0.3,0.2-0.6,0.3-0.9,0.4
		c-0.3,0.1-0.7,0.1-1,0.1c-1.8,0-3.5-0.7-4.7-2c-0.6-0.6-1.1-1.4-1.4-2.2c-0.7-1.8-0.7-3.7,0-5.4c0.3-0.8,0.8-1.5,1.3-2.2
		c0.6-0.6,1.3-1.1,2.1-1.4c0.8-0.4,1.7-0.5,2.6-0.5c0.4,0,0.7,0,1.1,0.1c0.3,0.1,0.6,0.2,0.9,0.3c0.3,0.1,0.5,0.3,0.7,0.4
		c0.2,0.2,0.4,0.4,0.6,0.6v-4.4c0-0.2,0.1-0.4,0.2-0.6c0.2-0.2,0.4-0.2,0.6-0.2h2.4c0.1,0,0.2,0,0.3,0.1c0.1,0,0.2,0.1,0.3,0.2
		c0.1,0.1,0.1,0.2,0.2,0.3c0.1,0.1,0.1,0.2,0.1,0.3v15.7c0,0.5-0.3,0.8-0.8,0.8h-2.1c-0.1,0-0.2,0-0.3-0.1c-0.1,0-0.1-0.1-0.2-0.1
		c-0.1-0.1-0.1-0.2-0.1-0.3c0-0.1-0.1-0.2-0.2-0.4L99.6,167.6z M93.5,162.3c0,0.4,0.1,0.9,0.2,1.3c0.1,0.4,0.3,0.7,0.6,1
		c0.3,0.3,0.6,0.5,1,0.7c0.4,0.2,0.8,0.3,1.3,0.3c0.4,0,0.9-0.1,1.3-0.3c0.8-0.3,1.4-0.9,1.7-1.7c0.2-0.4,0.3-0.8,0.3-1.2v-0.1
		c0-0.9-0.4-1.7-1-2.4c-0.6-0.6-1.5-1-2.3-1c-0.4,0-0.9,0.1-1.3,0.3c-0.4,0.2-0.7,0.4-1,0.7c-0.3,0.3-0.5,0.7-0.6,1.1
		C93.5,161.4,93.4,161.9,93.5,162.3z"/>
	<path class="st1" d="M117.5,167.4c-0.6,0.6-1.3,1-2.1,1.3c-0.8,0.3-1.6,0.5-2.4,0.5c-0.9,0-1.9-0.2-2.7-0.5
		c-0.8-0.3-1.6-0.8-2.3-1.4c-0.6-0.6-1.2-1.4-1.5-2.2c-0.4-0.9-0.6-1.8-0.6-2.7c0-1.2,0.3-2.4,0.9-3.4c0.3-0.5,0.6-1,1-1.4
		c0.4-0.4,0.8-0.8,1.3-1.1c0.5-0.3,1-0.5,1.6-0.7c1.1-0.3,2.4-0.3,3.5,0c0.5,0.2,1.1,0.4,1.5,0.6c0.5,0.3,0.9,0.6,1.3,1
		c0.4,0.4,0.7,0.8,1,1.3c0.3,0.5,0.5,1,0.7,1.5c0.2,0.5,0.2,1.1,0.2,1.6c0,0.4,0,0.7,0,0.9c0,0.2-0.1,0.4-0.2,0.6
		c-0.1,0.1-0.3,0.2-0.5,0.3c-0.3,0.1-0.7,0.1-1,0.1h-7.6c0.1,0.4,0.2,0.8,0.4,1.1c0.2,0.3,0.5,0.5,0.7,0.7c0.3,0.2,0.6,0.3,0.9,0.4
		c0.3,0.1,0.6,0.1,0.9,0.1c0.3,0,0.5,0,0.8-0.1c0.3-0.1,0.5-0.1,0.8-0.2c0.2-0.1,0.5-0.2,0.7-0.3c0.2-0.1,0.4-0.2,0.5-0.4
		c0.1-0.1,0.2-0.1,0.3-0.2c0.1,0,0.2-0.1,0.3-0.1c0.1,0,0.2,0,0.3,0.1c0.1,0.1,0.2,0.2,0.3,0.3l1.1,1.3c0.1,0.1,0.1,0.2,0.1,0.2
		c0,0.1,0,0.2,0,0.2c0,0.1,0,0.3-0.1,0.4C117.7,167.2,117.6,167.3,117.5,167.4z M112.5,158.6c-0.3,0-0.5,0.1-0.8,0.2
		c-0.3,0.1-0.5,0.3-0.7,0.4c-0.2,0.2-0.4,0.4-0.6,0.6c-0.2,0.2-0.3,0.5-0.4,0.7h5.4c-0.1-0.3-0.3-0.5-0.5-0.8
		c-0.2-0.2-0.4-0.4-0.6-0.6c-0.2-0.2-0.5-0.3-0.8-0.4C113.1,158.7,112.8,158.6,112.5,158.6z"/>
	<path class="st1" d="M121.5,155.8c0.1-0.1,0.2-0.1,0.3-0.1h0.3h1.6c0.1,0,0.2,0,0.3,0.1c0.1,0,0.2,0.1,0.2,0.2
		c0.1,0.1,0.1,0.2,0.2,0.3c0,0.1,0.1,0.2,0.1,0.3l0.2,0.9c0.1-0.3,0.3-0.5,0.5-0.7c0.3-0.3,0.6-0.5,0.9-0.6c0.4-0.2,0.8-0.4,1.2-0.5
		c0.5-0.1,1-0.2,1.5-0.2c1.4,0,2.8,0.6,3.7,1.7c0.4,0.6,0.8,1.2,1,1.9c0.2,0.7,0.3,1.5,0.3,2.3v6.9c0,0.2,0,0.4-0.2,0.6
		c-0.1,0.2-0.3,0.2-0.6,0.2h-2.4c-0.2,0-0.4,0-0.6-0.2c-0.1-0.2-0.2-0.4-0.2-0.6v-6.8c0-0.3-0.1-0.6-0.2-0.9
		c-0.1-0.3-0.3-0.5-0.5-0.7c-0.2-0.2-0.5-0.4-0.8-0.5c-0.3-0.1-0.6-0.2-0.9-0.2c-0.3,0-0.5,0.1-0.8,0.2c-0.3,0.1-0.5,0.3-0.7,0.5
		c-0.2,0.2-0.4,0.4-0.6,0.7c-0.2,0.3-0.2,0.6-0.3,0.9v6.8c0,0.1,0,0.2-0.1,0.4c0,0.1-0.1,0.2-0.2,0.3c-0.1,0.1-0.2,0.1-0.3,0.1
		c-0.1,0-0.2,0-0.3,0h-2.4c-0.2,0-0.5-0.1-0.7-0.2c-0.1-0.2-0.2-0.4-0.2-0.6v-11.7c0-0.1,0-0.3,0.1-0.4
		C121.3,155.9,121.4,155.9,121.5,155.8L121.5,155.8z"/>
	<path class="st1" d="M42.8,190.3c0-0.6,0.1-1.3,0.3-1.9c0.2-0.6,0.4-1.1,0.7-1.6c0.6-1,1.4-1.9,2.5-2.5c0.5-0.3,1.1-0.5,1.7-0.7
		c0.6-0.2,1.2-0.2,1.8-0.2c0.9,0,1.8,0.2,2.7,0.5c0.8,0.3,1.6,0.8,2.2,1.5c0.6,0.6,1.1,1.4,1.5,2.2c0.4,0.9,0.5,1.8,0.5,2.7
		c0,0.6-0.1,1.2-0.3,1.9c-0.2,0.6-0.4,1.1-0.7,1.7c-0.3,0.5-0.7,1-1.1,1.4c-0.8,0.8-1.9,1.4-3,1.8c-0.6,0.2-1.2,0.2-1.8,0.2
		c-0.6,0-1.2-0.1-1.8-0.2c-0.6-0.2-1.1-0.4-1.7-0.7c-0.5-0.3-1-0.7-1.4-1.1c-0.8-0.8-1.5-1.9-1.8-3.1
		C43,191.6,42.9,190.9,42.8,190.3z M46.7,190.3c0,0.4,0.1,0.9,0.2,1.3c0.3,0.8,0.8,1.4,1.6,1.7c0.4,0.2,0.8,0.3,1.3,0.3
		c0.4,0,0.8-0.1,1.2-0.3c0.4-0.2,0.7-0.4,0.9-0.7c0.3-0.3,0.5-0.6,0.6-1c0.1-0.4,0.2-0.9,0.2-1.3c0-0.4-0.1-0.9-0.2-1.3
		c-0.1-0.4-0.3-0.8-0.6-1.1c-0.3-0.3-0.6-0.6-0.9-0.7c-0.4-0.2-0.8-0.3-1.2-0.3c-0.4,0-0.9,0.1-1.3,0.3c-0.4,0.2-0.7,0.4-1,0.7
		c-0.2,0.3-0.4,0.6-0.6,1C46.8,189.4,46.7,189.9,46.7,190.3z"/>
	<path class="st1" d="M59,183.8c0.1-0.1,0.2-0.1,0.3-0.1h0.3h1.6c0.1,0,0.2,0,0.3,0.1c0.1,0,0.2,0.1,0.2,0.2
		c0.1,0.1,0.1,0.2,0.1,0.3c0,0.1,0.1,0.2,0.1,0.3l0.4,1.3l0.6-0.8c0.2-0.3,0.4-0.5,0.7-0.7c0.3-0.2,0.6-0.4,1-0.5
		c0.4-0.2,0.9-0.2,1.4-0.2c0.9,0,1.8,0.2,2.7,0.5c0.8,0.3,1.5,0.8,2.1,1.5c0.6,0.6,1.1,1.4,1.4,2.2c0.7,1.8,0.7,3.7,0,5.4
		c-0.3,0.8-0.8,1.6-1.4,2.2c-1.2,1.3-3,2-4.7,2c-0.4,0-0.8-0.1-1.2-0.2c-0.3-0.1-0.6-0.2-0.9-0.4c-0.2-0.2-0.5-0.4-0.7-0.6l-0.6-0.6
		v4.9c0,0.2-0.1,0.4-0.2,0.5c-0.2,0.2-0.4,0.2-0.6,0.2h-2.4c-0.1,0-0.2,0-0.3-0.1l-0.3-0.1c-0.1-0.1-0.2-0.1-0.2-0.2
		c-0.1-0.1-0.1-0.2-0.1-0.3v-16c0-0.1,0-0.2,0.1-0.4C58.9,183.9,58.9,183.8,59,183.8z M68.8,190.3c0-0.4-0.1-0.9-0.2-1.3
		c-0.1-0.4-0.3-0.7-0.6-1c-0.3-0.3-0.6-0.5-1-0.7c-0.4-0.2-0.8-0.3-1.2-0.3c-0.4,0-0.9,0.1-1.3,0.3c-0.4,0.2-0.7,0.4-1,0.7
		c-0.6,0.6-1,1.4-1,2.2v0.2c0,0.4,0.1,0.9,0.3,1.3c0.2,0.4,0.4,0.8,0.7,1.1c0.3,0.3,0.7,0.5,1.1,0.7c0.4,0.2,0.8,0.3,1.3,0.3
		c0.4,0,0.8-0.1,1.2-0.3c0.4-0.2,0.7-0.4,1-0.7c0.3-0.3,0.5-0.7,0.6-1.1C68.8,191.2,68.8,190.8,68.8,190.3z"/>
	<path class="st1" d="M84.4,196.5c0.1-0.1,0.1-0.3,0.1-0.5c0-0.2,0-0.3,0-0.5v-0.1c0,0,0-0.1,0-0.1s0-0.1,0-0.1v-0.1
		c-0.2,0.2-0.4,0.4-0.6,0.6c-0.2,0.2-0.4,0.4-0.7,0.6c-0.3,0.2-0.6,0.3-0.9,0.4c-0.4,0.1-0.7,0.2-1.1,0.1c-0.9,0-1.8-0.2-2.6-0.5
		c-0.8-0.3-1.5-0.8-2.1-1.3c-0.6-0.6-1.1-1.3-1.4-2.1c-0.3-0.8-0.5-1.7-0.5-2.6c0-0.9,0.2-1.8,0.5-2.7c0.3-0.8,0.8-1.5,1.4-2.2
		c0.6-0.6,1.3-1.1,2.1-1.5c0.8-0.4,1.7-0.5,2.6-0.5c0.4,0,0.8,0,1.2,0.1c0.3,0.1,0.7,0.2,1,0.4c0.3,0.2,0.6,0.4,0.8,0.6
		c0.2,0.2,0.5,0.5,0.7,0.7l0.3-0.9l0.1-0.3c0-0.1,0.1-0.2,0.1-0.3c0.1-0.1,0.1-0.1,0.2-0.1c0.1,0,0.2,0,0.3,0h1.6c0.1,0,0.2,0,0.3,0
		c0.1,0,0.2,0.1,0.3,0.1c0.1,0.1,0.2,0.1,0.2,0.2c0,0.1,0.1,0.2,0.1,0.3V195c0,1-0.2,2-0.5,2.9c-0.3,0.8-0.8,1.6-1.5,2.2
		c-0.6,0.6-1.4,1-2.2,1.3c-0.9,0.3-1.8,0.5-2.7,0.5c-0.9,0-1.7-0.1-2.5-0.4c-0.4-0.1-0.8-0.3-1.3-0.5c-0.4-0.2-0.7-0.4-1.1-0.7
		c-0.1-0.1-0.2-0.2-0.3-0.3c-0.1-0.1-0.1-0.3-0.1-0.4c0-0.2,0.1-0.4,0.2-0.6l1-1.4c0.1-0.1,0.2-0.2,0.3-0.2c0.1,0,0.2-0.1,0.3-0.1
		c0.2,0,0.4,0.1,0.6,0.3c0.2,0.2,0.4,0.3,0.6,0.4c0.5,0.2,0.9,0.3,1.4,0.4h0.6c0.3,0,0.7,0,1-0.1c0.3-0.1,0.7-0.2,1-0.4
		c0.3-0.2,0.6-0.4,0.8-0.6C84.2,197,84.3,196.8,84.4,196.5z M78.4,190.3c0,0.4,0.1,0.9,0.2,1.3c0.4,1.2,1.5,2,2.8,2
		c0.9,0,1.7-0.3,2.3-0.9c0.3-0.3,0.5-0.6,0.7-1c0.2-0.4,0.3-0.8,0.3-1.2v-0.4c0-0.4-0.1-0.8-0.3-1.2c-0.2-0.4-0.4-0.7-0.7-1
		c-0.3-0.3-0.6-0.5-1-0.7c-0.4-0.2-0.8-0.3-1.3-0.3c-0.4,0-0.9,0.1-1.3,0.3c-0.4,0.2-0.7,0.4-1,0.7c-0.3,0.3-0.5,0.7-0.6,1.1
		C78.5,189.4,78.4,189.8,78.4,190.3L78.4,190.3z"/>
	<path class="st1" d="M102.1,195.4c-0.6,0.6-1.3,1-2.1,1.3c-0.8,0.3-1.6,0.5-2.4,0.5c-0.9,0-1.9-0.2-2.7-0.5
		c-0.8-0.3-1.6-0.8-2.3-1.4c-0.7-0.6-1.2-1.4-1.5-2.2c-0.4-0.9-0.6-1.8-0.6-2.7c0-0.6,0.1-1.2,0.2-1.8c0.2-0.6,0.4-1.1,0.6-1.6
		c0.3-0.5,0.6-1,1-1.4c0.8-0.8,1.8-1.5,2.9-1.8c1.1-0.3,2.4-0.3,3.5,0c1.1,0.3,2.1,0.9,2.9,1.7c0.4,0.4,0.7,0.8,1,1.3
		c0.3,0.5,0.5,1,0.7,1.5c0.2,0.5,0.2,1.1,0.2,1.6c0,0.4,0,0.7,0,0.9c0,0.2-0.1,0.4-0.2,0.6c-0.1,0.2-0.3,0.3-0.5,0.3
		c-0.3,0.1-0.7,0.1-1,0.1h-7.5c0.1,0.4,0.2,0.8,0.4,1.1c0.2,0.3,0.4,0.5,0.7,0.7c0.3,0.2,0.6,0.3,0.9,0.4c0.3,0.1,0.6,0.1,0.9,0.1
		c0.3,0,0.5,0,0.8-0.1c0.3,0,0.5-0.1,0.8-0.2c0.2-0.1,0.5-0.2,0.7-0.3c0.2-0.1,0.4-0.2,0.5-0.4c0.1-0.1,0.2-0.1,0.3-0.2
		c0.1,0,0.2-0.1,0.3-0.1c0.1,0,0.2,0,0.3,0.1c0.1,0.1,0.2,0.2,0.3,0.3l1.1,1.3c0.1,0.1,0.1,0.2,0.2,0.2c0,0.1,0,0.2,0,0.2
		c0,0.1,0,0.3-0.1,0.4C102.2,195.2,102.2,195.3,102.1,195.4z M97.1,186.6c-0.3,0-0.5,0.1-0.8,0.2c-0.3,0.1-0.5,0.2-0.7,0.4
		c-0.2,0.2-0.4,0.4-0.6,0.6c-0.2,0.2-0.3,0.5-0.4,0.7h5.4c-0.1-0.3-0.3-0.5-0.5-0.8c-0.2-0.2-0.4-0.4-0.6-0.6
		c-0.2-0.2-0.5-0.3-0.8-0.4C97.7,186.7,97.4,186.6,97.1,186.6L97.1,186.6z"/>
	<path class="st1" d="M106,183.8c0.1-0.1,0.2-0.1,0.3-0.1h0.3h1.6c0.1,0,0.2,0,0.3,0.1c0.1,0,0.2,0.1,0.2,0.2
		c0.1,0.1,0.1,0.2,0.2,0.3c0,0.1,0.1,0.2,0.1,0.3l0.2,0.9c0.1-0.2,0.3-0.5,0.5-0.7c0.3-0.2,0.6-0.5,0.9-0.6c0.8-0.4,1.8-0.7,2.7-0.6
		c0.7,0,1.5,0.1,2.1,0.5c0.6,0.3,1.2,0.7,1.6,1.3c0.4,0.6,0.8,1.2,1,1.9c0.2,0.7,0.3,1.5,0.3,2.3v6.9c0,0.2,0,0.4-0.2,0.6
		c-0.1,0.2-0.4,0.2-0.6,0.2h-2.4c-0.2,0-0.4,0-0.6-0.2c-0.1-0.2-0.2-0.4-0.2-0.6v-6.8c0-0.3-0.1-0.6-0.2-0.9
		c-0.1-0.3-0.3-0.5-0.5-0.7c-0.2-0.2-0.5-0.4-0.8-0.5c-0.3-0.1-0.6-0.2-0.9-0.2c-0.3,0-0.5,0.1-0.8,0.2c-0.3,0.1-0.5,0.3-0.7,0.5
		c-0.2,0.2-0.4,0.4-0.6,0.7c-0.2,0.3-0.2,0.6-0.3,0.9v6.8c0,0.1,0,0.2-0.1,0.4c0,0.1-0.1,0.2-0.2,0.3c-0.1,0.1-0.2,0.1-0.3,0.1
		c-0.1,0-0.2,0-0.3,0h-2.4c-0.2,0-0.5-0.1-0.7-0.2c-0.1-0.2-0.2-0.4-0.2-0.6v-11.7c0-0.1,0-0.3,0.1-0.4
		C105.9,183.9,106,183.9,106,183.8L106,183.8z"/>
	<path class="st1" d="M120.5,190.3c0-0.6,0.1-1.3,0.3-1.9c0.2-0.6,0.4-1.1,0.7-1.6c0.6-1,1.4-1.9,2.5-2.5c1.1-0.6,2.3-0.9,3.5-0.9
		c0.9,0,1.8,0.2,2.7,0.5c0.8,0.3,1.6,0.8,2.2,1.5c0.6,0.6,1.1,1.4,1.5,2.2c0.4,0.9,0.6,1.8,0.6,2.7c0,0.6-0.1,1.2-0.3,1.9
		c-0.2,0.6-0.4,1.1-0.7,1.7c-0.6,1-1.4,1.9-2.5,2.5c-0.5,0.3-1.1,0.5-1.6,0.7c-0.6,0.2-1.2,0.2-1.8,0.2c-1.2,0-2.4-0.3-3.5-0.9
		c-0.5-0.3-1-0.7-1.4-1.1c-0.8-0.8-1.5-1.9-1.8-3.1C120.6,191.6,120.5,190.9,120.5,190.3z M124.4,190.3c0,0.4,0.1,0.9,0.2,1.3
		c0.3,0.8,0.8,1.4,1.6,1.7c0.4,0.2,0.8,0.3,1.3,0.3c0.4,0,0.8-0.1,1.2-0.3c0.4-0.2,0.7-0.4,0.9-0.7c0.3-0.3,0.5-0.6,0.6-1
		c0.1-0.4,0.2-0.9,0.2-1.3c0-0.4-0.1-0.9-0.2-1.3c-0.1-0.4-0.3-0.8-0.6-1.1c-0.3-0.3-0.6-0.6-0.9-0.7c-0.4-0.2-0.8-0.3-1.2-0.3
		c-0.4,0-0.9,0.1-1.3,0.3c-0.4,0.2-0.7,0.4-1,0.7c-0.3,0.3-0.5,0.7-0.6,1.1C124.4,189.5,124.3,189.9,124.4,190.3z"/>
	<path class="st1" d="M136.7,183.8c0.1-0.1,0.2-0.1,0.3-0.1c0.1,0,0.2,0,0.3,0h1.6c0.1,0,0.2,0,0.3,0.1c0.1,0,0.2,0.1,0.2,0.2
		c0.1,0.1,0.1,0.2,0.1,0.3c0,0.1,0.1,0.2,0.1,0.3l0.2,0.9c0.1-0.2,0.3-0.5,0.4-0.7c0.2-0.2,0.5-0.5,0.8-0.6c0.3-0.2,0.7-0.4,1.1-0.5
		c0.5-0.1,1-0.2,1.5-0.2c0.4,0,0.8,0,1.2,0.1c0.3,0.1,0.7,0.2,1,0.4c0.3,0.2,0.6,0.4,0.8,0.6c0.3,0.3,0.5,0.5,0.7,0.9
		c0.2-0.3,0.4-0.5,0.6-0.7c0.3-0.3,0.6-0.5,0.9-0.6c0.4-0.2,0.8-0.4,1.2-0.5c0.5-0.1,0.9-0.2,1.4-0.2c0.7,0,1.4,0.1,2.1,0.5
		c0.6,0.3,1.1,0.7,1.5,1.3c0.4,0.5,0.7,1.2,0.9,1.8c0.2,0.7,0.3,1.5,0.3,2.3v6.9c0,0.2,0,0.4-0.2,0.6c-0.1,0.1-0.3,0.2-0.6,0.2h-2.5
		c-0.2,0-0.4,0-0.6-0.2c-0.1-0.2-0.2-0.4-0.2-0.6v-6.9c0-0.3,0-0.6-0.1-0.8c-0.1-0.2-0.2-0.5-0.4-0.7c-0.2-0.2-0.4-0.3-0.6-0.4
		c-0.3-0.1-0.5-0.2-0.8-0.2c-0.3,0-0.5,0.1-0.8,0.2c-0.2,0.1-0.4,0.2-0.6,0.4c-0.2,0.2-0.3,0.4-0.4,0.7c-0.1,0.3-0.2,0.6-0.2,0.9
		v6.9c0,0.2,0,0.4-0.2,0.6c-0.1,0.2-0.3,0.2-0.6,0.2h-2.4c-0.2,0-0.4,0-0.6-0.2c-0.1-0.2-0.2-0.4-0.2-0.6v-6.9c0-0.3,0-0.6-0.1-0.8
		c-0.1-0.2-0.2-0.5-0.4-0.7c-0.2-0.2-0.4-0.3-0.6-0.4c-0.2-0.1-0.5-0.2-0.8-0.2c-0.3,0-0.5,0.1-0.7,0.1c-0.2,0.1-0.5,0.2-0.6,0.4
		c-0.2,0.2-0.4,0.4-0.5,0.7c-0.1,0.3-0.2,0.6-0.2,0.9v6.9c0,0.1,0,0.2-0.1,0.4c0,0.1-0.1,0.2-0.2,0.3c-0.1,0.1-0.2,0.1-0.3,0.1
		c-0.1,0-0.2,0-0.3,0h-2.4c-0.2,0-0.5-0.1-0.7-0.2c-0.1-0.2-0.2-0.4-0.2-0.6v-11.7c0-0.1,0-0.3,0.1-0.4
		C136.5,183.9,136.6,183.9,136.7,183.8L136.7,183.8z"/>
	<path class="st1" d="M170,195.4c-0.6,0.6-1.3,1-2.1,1.3c-0.8,0.3-1.6,0.5-2.4,0.5c-0.9,0-1.9-0.2-2.7-0.5c-0.8-0.3-1.6-0.8-2.3-1.4
		c-0.6-0.6-1.2-1.4-1.5-2.2c-0.4-0.9-0.6-1.8-0.6-2.7c0-1.8,0.7-3.5,1.9-4.8c0.8-0.8,1.8-1.5,2.9-1.8c1.1-0.3,2.4-0.3,3.5,0
		c0.5,0.2,1,0.4,1.5,0.6c0.5,0.3,0.9,0.6,1.3,1c0.4,0.4,0.7,0.8,1,1.3c0.3,0.5,0.5,1,0.7,1.5c0.2,0.5,0.2,1.1,0.2,1.6
		c0,0.4,0,0.7,0,0.9c0,0.2-0.1,0.4-0.2,0.6c-0.1,0.1-0.3,0.2-0.5,0.3c-0.3,0.1-0.7,0.1-1,0.1h-7.6c0.1,0.8,0.5,1.4,1.2,1.8
		c0.3,0.2,0.6,0.3,0.9,0.4c0.3,0.1,0.6,0.1,0.9,0.1c0.3,0,0.5,0,0.8-0.1c0.3,0,0.5-0.1,0.8-0.2c0.2-0.1,0.5-0.2,0.7-0.3
		c0.2-0.1,0.3-0.2,0.5-0.4c0.1-0.1,0.2-0.1,0.3-0.2c0.1,0,0.2-0.1,0.3-0.1c0.1,0,0.2,0,0.3,0.1c0.1,0.1,0.2,0.2,0.3,0.3l1.1,1.3
		c0.1,0.1,0.1,0.2,0.1,0.2c0,0.1,0,0.2,0,0.2c0,0.1,0,0.3-0.1,0.4C170.2,195.2,170.1,195.3,170,195.4z M165,186.6
		c-0.3,0-0.5,0.1-0.8,0.2c-0.3,0.1-0.5,0.2-0.7,0.4c-0.2,0.2-0.4,0.4-0.6,0.6c-0.2,0.2-0.3,0.5-0.4,0.7h5.4
		c-0.1-0.3-0.3-0.5-0.5-0.8c-0.2-0.2-0.4-0.4-0.6-0.6c-0.2-0.2-0.5-0.3-0.8-0.4c-0.4-0.1-0.7-0.2-1.1-0.1H165z"/>
	<path class="st1" d="M173.9,183.8c0.1-0.1,0.2-0.1,0.3-0.1h0.3h1.6c0.1,0,0.2,0,0.3,0.1c0.1,0,0.2,0.1,0.2,0.2
		c0.1,0.1,0.1,0.2,0.1,0.3c0,0.1,0.1,0.2,0.1,0.3l0.2,0.9c0.1-0.2,0.3-0.5,0.5-0.7c0.3-0.2,0.6-0.5,0.9-0.6c0.8-0.4,1.8-0.7,2.7-0.6
		c0.7,0,1.5,0.1,2.1,0.5c0.6,0.3,1.2,0.7,1.6,1.3c0.4,0.6,0.8,1.2,1,1.9c0.2,0.7,0.3,1.5,0.3,2.3v6.9c0,0.2,0,0.4-0.2,0.6
		c-0.1,0.1-0.3,0.2-0.6,0.2h-2.4c-0.2,0-0.4,0-0.6-0.2c-0.1-0.2-0.2-0.4-0.2-0.6v-6.8c0-0.3-0.1-0.6-0.2-0.9
		c-0.1-0.3-0.3-0.5-0.5-0.7c-0.2-0.2-0.5-0.4-0.8-0.5c-0.3-0.1-0.6-0.2-0.9-0.2c-0.3,0-0.5,0.1-0.8,0.2c-0.3,0.1-0.5,0.3-0.7,0.5
		c-0.2,0.2-0.4,0.4-0.6,0.7c-0.2,0.3-0.2,0.6-0.3,0.9v6.8c0,0.1,0,0.2-0.1,0.4c0,0.1-0.1,0.2-0.2,0.3c-0.1,0.1-0.2,0.1-0.3,0.1
		c-0.1,0-0.2,0-0.3,0h-2.4c-0.2,0-0.5-0.1-0.6-0.2c-0.1-0.2-0.2-0.4-0.2-0.6v-11.7c0-0.1,0-0.3,0.1-0.4
		C173.8,183.9,173.9,183.9,173.9,183.8L173.9,183.8z"/>
	<path class="st1" d="M189,193.9c0-0.1,0-0.2,0.1-0.3c0.1-0.1,0.2-0.1,0.4-0.1h2.8c0.1,0,0.2,0,0.3,0.1c0.1,0.1,0.2,0.2,0.2,0.3v2.5
		c0,0.1,0,0.2-0.1,0.3c-0.1,0.1-0.2,0.2-0.4,0.1h-2.8c-0.3,0-0.5-0.2-0.5-0.5V193.9z"/>
	<rect x="42" y="226.8" class="st1" width="30" height="5"/>
</g>
</svg>
