<svg xmlns="http://www.w3.org/2000/svg" viewBox="0 0 283.46 283.46"><title>4 kleuren images</title><g id="Laag_1" data-name="Laag 1"><rect x="-0.2" y="1.27" width="283.46" height="283.46" style="fill:#acacff"/></g><g id="Laag_2" data-name="Laag 2"><path d="M46.68,126.79a.39.39,0,0,1,.4-.42h3.09a.5.5,0,0,1,.57.55V141.3a4.55,4.55,0,0,1-.42,1.95,5,5,0,0,1-1.11,1.59,5.27,5.27,0,0,1-1.63,1.06,5,5,0,0,1-1.95.39,5,5,0,0,1-3.31-1.2,4.66,4.66,0,0,1-.8-.91s0-.06,0-.17a.46.46,0,0,1,.17-.4l1.82-1.71a.94.94,0,0,1,.18-.12.39.39,0,0,1,.18,0,.45.45,0,0,1,.3.11l.31.26a2.63,2.63,0,0,0,.41.26,1.33,1.33,0,0,0,.56.11,1.31,1.31,0,0,0,.47-.09,1.38,1.38,0,0,0,.4-.26,1,1,0,0,0,.28-.37,1,1,0,0,0,.11-.46Z" style="fill:#fff"/><path d="M64.91,140.37a6.9,6.9,0,0,1-2.08,1.33,6.28,6.28,0,0,1-2.44.48,7,7,0,0,1-6.5-4.17,6.59,6.59,0,0,1-.57-2.74,7.24,7.24,0,0,1,.87-3.42,6.75,6.75,0,0,1,1-1.39,6.24,6.24,0,0,1,1.32-1.08,6.4,6.4,0,0,1,3.42-1,6.38,6.38,0,0,1,1.69.23,6.48,6.48,0,0,1,2.85,1.66,6.71,6.71,0,0,1,1,1.29,6.07,6.07,0,0,1,.67,1.49,5.59,5.59,0,0,1,.24,1.63c0,.37,0,.66,0,.89a1.12,1.12,0,0,1-.16.56.81.81,0,0,1-.49.28,4.93,4.93,0,0,1-1,.08H57.19a2.62,2.62,0,0,0,.42,1.12,2.66,2.66,0,0,0,.74.72,2.78,2.78,0,0,0,.89.38,3.72,3.72,0,0,0,.9.12,4.11,4.11,0,0,0,.77-.08,4.58,4.58,0,0,0,.77-.21,5.5,5.5,0,0,0,.69-.3,2.6,2.6,0,0,0,.5-.37,1.68,1.68,0,0,1,.28-.2.48.48,0,0,1,.26-.07.51.51,0,0,1,.28.09A3.34,3.34,0,0,1,64,138l1.11,1.26a.66.66,0,0,1,.15.24.91.91,0,0,1,0,.23.61.61,0,0,1-.11.36A1.44,1.44,0,0,1,64.91,140.37Zm-5-8.75a2,2,0,0,0-.79.17,2.92,2.92,0,0,0-.72.43,3.92,3.92,0,0,0-.6.62,3.6,3.6,0,0,0-.44.71h5.37a6.18,6.18,0,0,0-.48-.76,3.41,3.41,0,0,0-.59-.61,2.64,2.64,0,0,0-.76-.41A3,3,0,0,0,59.86,131.62Z" style="fill:#fff"/><path d="M75.47,128.76a.59.59,0,0,1,.28-.15l.28,0h1.59a.81.81,0,0,1,.33.06.51.51,0,0,1,.21.17,1.1,1.1,0,0,1,.15.26l.11.31.44,1.27.59-.77a4,4,0,0,1,.71-.72,3.65,3.65,0,0,1,1-.53,4,4,0,0,1,1.38-.21,6.6,6.6,0,0,1,2.65.53,6.35,6.35,0,0,1,2.09,1.46,6.66,6.66,0,0,1,1.37,2.19,7.59,7.59,0,0,1,0,5.42,6.66,6.66,0,0,1-1.37,2.19,6.2,6.2,0,0,1-2.09,1.46,6.44,6.44,0,0,1-2.65.54,3.7,3.7,0,0,1-1.17-.17,3.26,3.26,0,0,1-.88-.42,4.32,4.32,0,0,1-.68-.58l-.58-.63v4.89a.79.79,0,0,1-.19.54.71.71,0,0,1-.58.22H76a1,1,0,0,1-.27-.05,1.17,1.17,0,0,1-.27-.15.66.66,0,0,1-.21-.23.63.63,0,0,1-.09-.33V129.36a.72.72,0,0,1,.08-.35A1,1,0,0,1,75.47,128.76Zm9.8,6.55a3.67,3.67,0,0,0-.22-1.28,3.07,3.07,0,0,0-.62-1.05,3,3,0,0,0-1-.72,2.91,2.91,0,0,0-1.23-.26,3.18,3.18,0,0,0-1.26.25,3.44,3.44,0,0,0-1,.67,3.65,3.65,0,0,0-.72,1,3.1,3.1,0,0,0-.31,1.23v.16a3.32,3.32,0,0,0,.26,1.3,3.43,3.43,0,0,0,.72,1.06,3.58,3.58,0,0,0,1.06.71,3.27,3.27,0,0,0,1.29.26,2.91,2.91,0,0,0,1.23-.26,3.07,3.07,0,0,0,1-.71,3,3,0,0,0,.62-1.06A3.7,3.7,0,0,0,85.27,135.31Z" style="fill:#fff"/><path d="M91.23,125.47a1,1,0,0,1,.16-.57.7.7,0,0,1,.58-.23h2.57a.46.46,0,0,1,.22.06.82.82,0,0,1,.22.16,1,1,0,0,1,.17.26.79.79,0,0,1,.07.32v15.69a.77.77,0,0,1-.23.6.83.83,0,0,1-.58.21H92a.72.72,0,0,1-.58-.21.93.93,0,0,1-.16-.6Z" style="fill:#fff"/><path d="M111.46,141.19a1,1,0,0,1-.06.34.67.67,0,0,1-.21.26.57.57,0,0,1-.28.14.93.93,0,0,1-.27,0h-2.07a1,1,0,0,1-.36-.06.6.6,0,0,1-.22-.16,1.26,1.26,0,0,1-.14-.26q-.06-.15-.12-.33l-.13-.47a7.48,7.48,0,0,1-.65.55,4.88,4.88,0,0,1-.8.49,5.42,5.42,0,0,1-.93.35,4.49,4.49,0,0,1-1,.13,6.91,6.91,0,0,1-1.83-.24,6.79,6.79,0,0,1-1.64-.69,6.75,6.75,0,0,1-2.44-2.46,6.76,6.76,0,0,1-.69-1.66,7.06,7.06,0,0,1-.24-1.85,6.75,6.75,0,0,1,.53-2.71,7.06,7.06,0,0,1,1.46-2.19,6.83,6.83,0,0,1,4.85-2,4.74,4.74,0,0,1,1.22.15,4.61,4.61,0,0,1,1,.4,4.05,4.05,0,0,1,.85.6,5.21,5.21,0,0,1,.66.76l.31-1c.07-.18.12-.32.17-.43a.55.55,0,0,1,.15-.24.4.4,0,0,1,.19-.11l.33,0h1.56l.27,0a.51.51,0,0,1,.28.15.75.75,0,0,1,.21.26.9.9,0,0,1,.06.34Zm-10.34-5.88a4,4,0,0,0,.21,1.3,2.94,2.94,0,0,0,.62,1,2.84,2.84,0,0,0,1,.7,3,3,0,0,0,1.24.26,3.33,3.33,0,0,0,1.31-.26,3.45,3.45,0,0,0,1.05-.7,3.13,3.13,0,0,0,.7-1,3.54,3.54,0,0,0,.25-1.3,3.43,3.43,0,0,0-.25-1.28,3.35,3.35,0,0,0-1.75-1.8,3.17,3.17,0,0,0-1.31-.27,2.82,2.82,0,0,0-1.24.27,2.79,2.79,0,0,0-1,.73,3.16,3.16,0,0,0-.62,1.07A3.86,3.86,0,0,0,101.12,135.31Z" style="fill:#fff"/><path d="M114.25,128.82a.62.62,0,0,1,.29-.15l.29,0h1.59a.66.66,0,0,1,.32.07.68.68,0,0,1,.23.18,1,1,0,0,1,.15.26,2.83,2.83,0,0,1,.11.31l.22.92a2.65,2.65,0,0,1,.51-.67,4.05,4.05,0,0,1,.88-.63,5.09,5.09,0,0,1,1.2-.46,5.5,5.5,0,0,1,1.52-.19,4.91,4.91,0,0,1,2.14.46,4.78,4.78,0,0,1,1.59,1.26,5.55,5.55,0,0,1,1,1.86,7.34,7.34,0,0,1,.34,2.27v6.88a.93.93,0,0,1-.17.6.68.68,0,0,1-.55.21h-2.43a.89.89,0,0,1-.62-.16.8.8,0,0,1-.17-.59v-6.83a1.81,1.81,0,0,0-.2-.86,2.52,2.52,0,0,0-.54-.71,2.67,2.67,0,0,0-.76-.49,2.22,2.22,0,0,0-.87-.18,2,2,0,0,0-.77.17,2.52,2.52,0,0,0-.72.46,2.59,2.59,0,0,0-.56.71,2,2,0,0,0-.26.87v6.83a.92.92,0,0,1-.07.36.51.51,0,0,1-.2.27.81.81,0,0,1-.26.11.79.79,0,0,1-.28,0h-2.37a.86.86,0,0,1-.65-.22.88.88,0,0,1-.2-.59V129.42a.75.75,0,0,1,.09-.37.63.63,0,0,1,.25-.26Z" style="fill:#fff"/><path d="M130,126.55a.57.57,0,0,1,.22-.49,2.62,2.62,0,0,1,.61-.31l2.38-.83h.19a.55.55,0,0,1,.52.23,1.15,1.15,0,0,1,.13.59v2.89h1.44a.77.77,0,0,1,.55.2.78.78,0,0,1,.21.6v2a.87.87,0,0,1-.21.64.74.74,0,0,1-.55.21H134v8.86a.74.74,0,0,1-.23.6.91.91,0,0,1-.64.21h-2.37a.72.72,0,0,1-.81-.81V132.3h-1.08c-.54,0-.81-.29-.81-.85v-2a.71.71,0,0,1,.81-.8H130Z" style="fill:#fff"/><path d="M138.22,129.45a.71.71,0,0,1,.27-.61.87.87,0,0,1,.57-.21h2.39a.73.73,0,0,1,.58.24.82.82,0,0,1,.21.58V141.5a4.23,4.23,0,0,1-.4,1.84,4.88,4.88,0,0,1-1.11,1.5,5.07,5.07,0,0,1-1.59,1,4.8,4.8,0,0,1-1.87.37H137a.8.8,0,0,1-.58-.24.69.69,0,0,1-.2-.52V144a.85.85,0,0,1,.23-.61.82.82,0,0,1,.58-.23h.22a.57.57,0,0,0,.39-.17,1.73,1.73,0,0,0,.3-.43,2.39,2.39,0,0,0,.19-.53,1.86,1.86,0,0,0,.07-.49Zm-.05-5.31a.85.85,0,0,1,.19-.63.83.83,0,0,1,.59-.18h2.43a.93.93,0,0,1,.6.18.78.78,0,0,1,.22.63v2a.74.74,0,0,1-.06.28.88.88,0,0,1-.16.28.83.83,0,0,1-.26.23.64.64,0,0,1-.34.09H139c-.52,0-.78-.29-.78-.88Z" style="fill:#fff"/><path d="M155.94,140.37a7,7,0,0,1-2.08,1.33,6.33,6.33,0,0,1-2.45.48,7,7,0,0,1-6.5-4.17,6.59,6.59,0,0,1-.57-2.74,7.24,7.24,0,0,1,.87-3.42,7.14,7.14,0,0,1,1-1.39,6.29,6.29,0,0,1,1.33-1.08,6.71,6.71,0,0,1,1.59-.71,6.78,6.78,0,0,1,1.82-.25,6.38,6.38,0,0,1,1.69.23,6.59,6.59,0,0,1,2.86,1.66,6.66,6.66,0,0,1,1,1.29,6.07,6.07,0,0,1,.67,1.49,5.59,5.59,0,0,1,.24,1.63c0,.37,0,.66,0,.89a1,1,0,0,1-.16.56.81.81,0,0,1-.49.28,4.93,4.93,0,0,1-1,.08h-7.56a2.62,2.62,0,0,0,.42,1.12,2.8,2.8,0,0,0,.74.72,2.74,2.74,0,0,0,.9.38,3.58,3.58,0,0,0,.89.12,4.3,4.3,0,0,0,.78-.08,5.16,5.16,0,0,0,.77-.21,5.35,5.35,0,0,0,.68-.3,2.32,2.32,0,0,0,.5-.37,1.7,1.7,0,0,1,.29-.2.45.45,0,0,1,.25-.07.49.49,0,0,1,.28.09,2.45,2.45,0,0,1,.32.28l1.12,1.26a.77.77,0,0,1,.14.24.91.91,0,0,1,0,.23.55.55,0,0,1-.11.36A1.72,1.72,0,0,1,155.94,140.37Zm-5.05-8.75a2,2,0,0,0-.8.17,3.34,3.34,0,0,0-.72.43,3.92,3.92,0,0,0-.6.62,4.14,4.14,0,0,0-.44.71h5.37a6.18,6.18,0,0,0-.48-.76,3.41,3.41,0,0,0-.59-.61,2.72,2.72,0,0,0-.75-.41A3,3,0,0,0,150.89,131.62Z" style="fill:#fff"/><path d="M161.63,137.82a3.07,3.07,0,0,0,.61.48,4.15,4.15,0,0,0,.64.31,3.18,3.18,0,0,0,.53.17,1.6,1.6,0,0,0,.32.06l.51,0a2.9,2.9,0,0,0,.59-.09,1.36,1.36,0,0,0,.49-.26.65.65,0,0,0,.2-.5.88.88,0,0,0-.11-.47,1,1,0,0,0-.34-.3,2.77,2.77,0,0,0-.54-.21l-.72-.22a8.76,8.76,0,0,1-2.08-.81,4.64,4.64,0,0,1-1.29-1.05,3.35,3.35,0,0,1-.67-1.26,5.07,5.07,0,0,1-.19-1.42,3.54,3.54,0,0,1,1.33-2.81,4.56,4.56,0,0,1,1.54-.78,6.44,6.44,0,0,1,2-.28,7,7,0,0,1,1.24.11,5.2,5.2,0,0,1,1.1.34,6.47,6.47,0,0,1,1,.61,8.83,8.83,0,0,1,1,.89.62.62,0,0,1,.18.4c0,.12-.07.25-.23.39s-.54.44-.79.66l-.77.72a.48.48,0,0,1-.49.13.88.88,0,0,1-.22-.1,1.07,1.07,0,0,1-.19-.18,1.79,1.79,0,0,0-.84-.55,3,3,0,0,0-.88-.15,1.58,1.58,0,0,0-.82.18.55.55,0,0,0-.29.55.61.61,0,0,0,.21.42,1.22,1.22,0,0,0,.45.25,4.74,4.74,0,0,0,.57.15l.55.13A16.94,16.94,0,0,1,167,134a5.26,5.26,0,0,1,1.37.87,3.61,3.61,0,0,1,.89,1.25,4.23,4.23,0,0,1,.32,1.76,4,4,0,0,1-.41,1.86,4,4,0,0,1-1.14,1.37,5.14,5.14,0,0,1-1.72.86,7.67,7.67,0,0,1-2.13.29,7.56,7.56,0,0,1-1.33-.12,6,6,0,0,1-1.3-.37,5.87,5.87,0,0,1-1.2-.66,4.88,4.88,0,0,1-1-1,1.09,1.09,0,0,1-.18-.31,1.25,1.25,0,0,1,0-.32.88.88,0,0,1,.06-.29.59.59,0,0,1,.19-.23l1.35-1.35a.49.49,0,0,1,.45-.15A1.48,1.48,0,0,1,161.63,137.82Z" style="fill:#fff"/><path d="M43.42,157.67a.85.85,0,0,1-.08-.73c.09-.21.3-.31.63-.31h2.68a.76.76,0,0,1,.48.15.8.8,0,0,1,.29.42c.12.37.25.78.39,1.24s.3.93.46,1.4.31.95.46,1.42.3.9.43,1.3.24.74.35,1,.17.51.22.63l2.23-7a.86.86,0,0,1,.31-.45.81.81,0,0,1,.48-.12h2.49a1.37,1.37,0,0,1,.47.07.45.45,0,0,1,.21.2.56.56,0,0,1,0,.29,1.5,1.5,0,0,1-.11.34l-1.15,2.83a6.08,6.08,0,0,0,.28.6l.48,1c.18.36.36.74.54,1.13s.34.77.47,1.11l2.57-7a1.08,1.08,0,0,1,.28-.45.67.67,0,0,1,.43-.12h2.32a1,1,0,0,1,.69.19c.13.13.13.36,0,.71l-4.92,12a.81.81,0,0,1-.29.32A1,1,0,0,1,57,170H55.88a1,1,0,0,1-.59-.14.93.93,0,0,1-.31-.34L53,164.73l-1.92,4.78a1.1,1.1,0,0,1-.28.32.69.69,0,0,1-.47.14H49.11a1.06,1.06,0,0,1-.59-.12.8.8,0,0,1-.26-.34Z" style="fill:#fff"/><path d="M63.47,163.31a7.19,7.19,0,0,1,.24-1.86,7.36,7.36,0,0,1,.69-1.65,6.91,6.91,0,0,1,1.08-1.39,6.6,6.6,0,0,1,1.39-1.07,7,7,0,0,1,3.5-.92,6.9,6.9,0,0,1,2.69.53,6.79,6.79,0,0,1,2.18,1.46,7,7,0,0,1,1.47,2.18,6.84,6.84,0,0,1,.54,2.72,6.66,6.66,0,0,1-.25,1.85,6.79,6.79,0,0,1-1.76,3.05,6.87,6.87,0,0,1-3,1.76,7,7,0,0,1-1.84.24,6.86,6.86,0,0,1-3.5-.93,6.93,6.93,0,0,1-2.47-2.46,7.85,7.85,0,0,1-.69-1.66A7.06,7.06,0,0,1,63.47,163.31Zm3.83,0a4,4,0,0,0,.21,1.3,3.25,3.25,0,0,0,.61,1,2.84,2.84,0,0,0,1,.7,3,3,0,0,0,1.26.26,2.93,2.93,0,0,0,1.24-.26,2.82,2.82,0,0,0,.93-.7,3,3,0,0,0,.59-1,4.26,4.26,0,0,0,.2-1.3,4.13,4.13,0,0,0-.2-1.28,3.27,3.27,0,0,0-.59-1.07,2.74,2.74,0,0,0-2.17-1,2.84,2.84,0,0,0-1.26.27,2.79,2.79,0,0,0-1,.73,3.51,3.51,0,0,0-.61,1.07A3.86,3.86,0,0,0,67.3,163.31Z" style="fill:#fff"/><path d="M79.34,157.41a1,1,0,0,1,.07-.35.68.68,0,0,1,.2-.24.87.87,0,0,1,.27-.14,1,1,0,0,1,.3-.05h1.59a.57.57,0,0,1,.42.16,1.32,1.32,0,0,1,.26.4,3.65,3.65,0,0,1,.2.53,3.49,3.49,0,0,0,.2.57l.62-.68a4.18,4.18,0,0,1,.67-.6,3.3,3.3,0,0,1,.78-.43,2.9,2.9,0,0,1,1-.16,6.21,6.21,0,0,1,1,.08,4.78,4.78,0,0,1,.84.25,4.64,4.64,0,0,1,.79.42c.27.16.55.36.86.58a.76.76,0,0,1,.45.62,1.08,1.08,0,0,1-.18.54l-1,1.63A.85.85,0,0,1,88,161a1.16,1.16,0,0,1-.47-.12,3.59,3.59,0,0,0-.92-.66,2.54,2.54,0,0,0-1.06-.21,1.94,1.94,0,0,0-.72.12,1.64,1.64,0,0,0-.56.32,3.27,3.27,0,0,0-.48.5c-.14.2-.29.42-.44.66v7.6a.83.83,0,0,1-.19.6.86.86,0,0,1-.65.21H80.16a.72.72,0,0,1-.82-.81Z" style="fill:#fff"/><path d="M100.61,168.65a6,6,0,0,1-.64.56,4.59,4.59,0,0,1-.79.5,4.54,4.54,0,0,1-.91.36,3.9,3.9,0,0,1-1,.14,6.35,6.35,0,0,1-2.63-.54,6.22,6.22,0,0,1-2.07-1.46A6.78,6.78,0,0,1,91.18,166a7.77,7.77,0,0,1,0-5.43,6.84,6.84,0,0,1,1.35-2.18A6.22,6.22,0,0,1,94.6,157a6.5,6.5,0,0,1,2.63-.53,5,5,0,0,1,1.06.1,3.7,3.7,0,0,1,.87.29,4.37,4.37,0,0,1,.72.45,6.87,6.87,0,0,1,.63.58v-4.38a.88.88,0,0,1,.2-.57.8.8,0,0,1,.62-.23h2.36a.79.79,0,0,1,.29.06,1.12,1.12,0,0,1,.28.16,1,1,0,0,1,.2.25.73.73,0,0,1,.08.33v15.7c0,.54-.28.81-.85.81h-2.06a.67.67,0,0,1-.32-.06.43.43,0,0,1-.2-.15,1,1,0,0,1-.14-.25,3.32,3.32,0,0,0-.16-.35Zm-6.14-5.34a3.74,3.74,0,0,0,.22,1.3,2.92,2.92,0,0,0,.61,1,3,3,0,0,0,1,.7,3,3,0,0,0,1.25.26,3.37,3.37,0,0,0,2.29-.91,3.2,3.2,0,0,0,.71-1,3.27,3.27,0,0,0,.3-1.24v-.15a3.25,3.25,0,0,0-.25-1.28,3.36,3.36,0,0,0-.7-1.07,3.25,3.25,0,0,0-1-.73,3.15,3.15,0,0,0-1.3-.27,2.86,2.86,0,0,0-1.25.27,3,3,0,0,0-1,.73,3.14,3.14,0,0,0-.61,1.07A3.63,3.63,0,0,0,94.47,163.31Z" style="fill:#fff"/><path d="M118.51,168.37a7,7,0,0,1-2.08,1.33,6.33,6.33,0,0,1-2.45.48,7.09,7.09,0,0,1-2.72-.53A7.19,7.19,0,0,1,109,168.2a7.08,7.08,0,0,1-1.53-2.19,6.59,6.59,0,0,1-.57-2.74,7.24,7.24,0,0,1,.87-3.42,7.14,7.14,0,0,1,1-1.39,6.29,6.29,0,0,1,1.33-1.08,6.71,6.71,0,0,1,1.59-.71,6.54,6.54,0,0,1,3.51,0,7,7,0,0,1,1.54.65,6.45,6.45,0,0,1,1.31,1,6.35,6.35,0,0,1,1,1.29,6.07,6.07,0,0,1,.67,1.49,5.59,5.59,0,0,1,.24,1.63c0,.36,0,.66,0,.89a1,1,0,0,1-.16.56.81.81,0,0,1-.49.28,4.93,4.93,0,0,1-1,.08h-7.56a2.62,2.62,0,0,0,.42,1.12,2.8,2.8,0,0,0,.74.72,2.74,2.74,0,0,0,.9.38,3.58,3.58,0,0,0,.89.12,4.3,4.3,0,0,0,.78-.08,5.16,5.16,0,0,0,.77-.21,6.06,6.06,0,0,0,.68-.3,2.32,2.32,0,0,0,.5-.37,1.7,1.7,0,0,1,.29-.2.45.45,0,0,1,.25-.07.49.49,0,0,1,.28.09,2.45,2.45,0,0,1,.32.28l1.12,1.26a.77.77,0,0,1,.14.24.91.91,0,0,1,0,.23.61.61,0,0,1-.11.36A1.72,1.72,0,0,1,118.51,168.37Zm-5.06-8.75a2,2,0,0,0-.79.17,3,3,0,0,0-.72.43,3.92,3.92,0,0,0-.6.62,3.85,3.85,0,0,0-.44.7h5.37a6.89,6.89,0,0,0-.48-.75,3.41,3.41,0,0,0-.59-.61,2.48,2.48,0,0,0-.75-.41A3,3,0,0,0,113.45,159.62Z" style="fill:#fff"/><path d="M122.47,156.82a.62.62,0,0,1,.29-.15l.29,0h1.59a.66.66,0,0,1,.32.07.68.68,0,0,1,.23.18,1,1,0,0,1,.16.26c0,.1.07.2.11.31l.22.92a2.25,2.25,0,0,1,.51-.67,3.75,3.75,0,0,1,.87-.63,5.09,5.09,0,0,1,1.2-.46,5.5,5.5,0,0,1,1.52-.19,4.77,4.77,0,0,1,2.14.46,4.68,4.68,0,0,1,1.59,1.26,5.55,5.55,0,0,1,1,1.86,7.34,7.34,0,0,1,.34,2.27v6.88a.88.88,0,0,1-.17.6.68.68,0,0,1-.55.21H131.7a.91.91,0,0,1-.62-.16.8.8,0,0,1-.16-.59v-6.84a1.81,1.81,0,0,0-.21-.85,2.59,2.59,0,0,0-1.3-1.2,2.19,2.19,0,0,0-.87-.18,2,2,0,0,0-.77.17,2.52,2.52,0,0,0-.72.46,2.79,2.79,0,0,0-.56.71,2,2,0,0,0-.26.87v6.83a.92.92,0,0,1-.07.36.51.51,0,0,1-.2.27.81.81,0,0,1-.26.11.79.79,0,0,1-.28,0h-2.37a.86.86,0,0,1-.65-.22.88.88,0,0,1-.2-.59V157.42a.75.75,0,0,1,.09-.37.63.63,0,0,1,.25-.26Z" style="fill:#fff"/><path d="M43.37,185.67a.85.85,0,0,1-.08-.73c.09-.21.29-.31.62-.31H46.6a.78.78,0,0,1,.77.57c.12.37.25.79.39,1.25s.3.93.45,1.42.32,1,.47,1.45.3.92.43,1.32l.34,1.05c.1.3.18.51.23.64l2.22-7.13a1,1,0,0,1,.31-.45.87.87,0,0,1,.49-.12h2.76a1.37,1.37,0,0,1,.47.07.45.45,0,0,1,.21.2.56.56,0,0,1,0,.29,1.5,1.5,0,0,1-.11.34l-5,12a.94.94,0,0,1-.27.32.69.69,0,0,1-.47.14H49.06a1,1,0,0,1-.59-.13.66.66,0,0,1-.26-.33Z" style="fill:#fff"/><path d="M68.22,196.37a7,7,0,0,1-2.08,1.33,6.28,6.28,0,0,1-2.44.48,7.09,7.09,0,0,1-2.72-.53A6.93,6.93,0,0,1,57.2,194a6.59,6.59,0,0,1-.57-2.74,7,7,0,0,1,.22-1.79,7.5,7.5,0,0,1,.65-1.63,7.09,7.09,0,0,1,1-1.39,6.57,6.57,0,0,1,2.93-1.79,6.33,6.33,0,0,1,1.81-.25,6.27,6.27,0,0,1,1.69.23,6.59,6.59,0,0,1,2.86,1.66,6.71,6.71,0,0,1,1,1.29,6.07,6.07,0,0,1,.67,1.49,5.94,5.94,0,0,1,.23,1.63c0,.36,0,.66,0,.89a1,1,0,0,1-.17.56.78.78,0,0,1-.48.28,5,5,0,0,1-1,.08H60.49a2.55,2.55,0,0,0,.43,1.12,2.66,2.66,0,0,0,.74.72,2.78,2.78,0,0,0,.89.38,3.64,3.64,0,0,0,.89.12,4.21,4.21,0,0,0,.78-.08,4.85,4.85,0,0,0,.77-.21,5.5,5.5,0,0,0,.69-.3,2.24,2.24,0,0,0,.49-.37,2.21,2.21,0,0,1,.29-.2.48.48,0,0,1,.26-.07.54.54,0,0,1,.28.09,3.34,3.34,0,0,1,.32.28l1.11,1.26a.66.66,0,0,1,.15.24.91.91,0,0,1,0,.23.56.56,0,0,1-.12.36A1.15,1.15,0,0,1,68.22,196.37Zm-5-8.75a2,2,0,0,0-.79.17,2.65,2.65,0,0,0-.72.43,3.58,3.58,0,0,0-.61.62,4.41,4.41,0,0,0-.43.7H66a5.6,5.6,0,0,0-.47-.75,3.11,3.11,0,0,0-.59-.61,2.42,2.42,0,0,0-.76-.41A3,3,0,0,0,63.17,187.62Z" style="fill:#fff"/><path d="M71.92,185.41a.78.78,0,0,1,.07-.35.65.65,0,0,1,.19-.24.92.92,0,0,1,.28-.14,1,1,0,0,1,.3-.05h1.58a.54.54,0,0,1,.42.16,1.17,1.17,0,0,1,.27.4,3.65,3.65,0,0,1,.19.53c.06.2.13.39.2.57l.63-.68a4.18,4.18,0,0,1,.67-.6,3,3,0,0,1,.78-.43,2.86,2.86,0,0,1,1-.16,6.08,6.08,0,0,1,1,.08,4.65,4.65,0,0,1,.85.25,5,5,0,0,1,.79.42c.26.16.55.36.86.58a.76.76,0,0,1,.45.62,1.08,1.08,0,0,1-.18.54l-1,1.63a.84.84,0,0,1-.7.41,1.13,1.13,0,0,1-.47-.12,3.59,3.59,0,0,0-.92-.66,2.59,2.59,0,0,0-1.07-.21,2,2,0,0,0-.72.12,1.85,1.85,0,0,0-.56.32,3.22,3.22,0,0,0-.47.5c-.15.2-.29.42-.44.66v7.6a.73.73,0,0,1-.84.81H72.74a.72.72,0,0,1-.82-.81Z" style="fill:#fff"/><path d="M83.88,185.4a.82.82,0,0,1,.22-.6.84.84,0,0,1,.62-.22h8.84a1,1,0,0,1,.59.2.75.75,0,0,1,.26.62v1.82a1.8,1.8,0,0,1,0,.22.58.58,0,0,1-.11.26l-5.78,6.86h5.18a.87.87,0,0,1,.61.21.83.83,0,0,1,.22.64v1.65a.91.91,0,0,1-.06.32.87.87,0,0,1-.16.3,1.15,1.15,0,0,1-.27.21.74.74,0,0,1-.34.08H84.42a.72.72,0,0,1-.32-.08,1.09,1.09,0,0,1-.27-.21.81.81,0,0,1-.19-.29.75.75,0,0,1-.07-.33v-1.45a1.33,1.33,0,0,1,0-.28.55.55,0,0,1,.15-.28c.47-.52,1-1.08,1.47-1.69s1-1.22,1.56-1.84l1.57-1.85c.52-.61,1-1.17,1.48-1.7H84.72a.88.88,0,0,1-.62-.21.86.86,0,0,1-.22-.66Z" style="fill:#fff"/><path d="M95.57,191.31a6.74,6.74,0,0,1,.25-1.86,6.92,6.92,0,0,1,.69-1.65,7.25,7.25,0,0,1,1.07-1.39A6.87,6.87,0,0,1,99,185.34a7.33,7.33,0,0,1,1.66-.68,7.06,7.06,0,0,1,1.85-.24,6.85,6.85,0,0,1,2.68.53,6.73,6.73,0,0,1,2.19,1.46,7,7,0,0,1,1.47,2.18,6.84,6.84,0,0,1,.54,2.72,6.66,6.66,0,0,1-.25,1.85,6.93,6.93,0,0,1-.69,1.66,6.8,6.8,0,0,1-2.46,2.46,7.1,7.1,0,0,1-1.65.69,6.85,6.85,0,0,1-1.83.24,7.06,7.06,0,0,1-1.85-.24,7.36,7.36,0,0,1-1.66-.69,6.8,6.8,0,0,1-2.46-2.46,7.36,7.36,0,0,1-.69-1.66A6.66,6.66,0,0,1,95.57,191.31Zm3.84,0a4,4,0,0,0,.21,1.3,3.07,3.07,0,0,0,.61,1,2.9,2.9,0,0,0,1,.7,3.07,3.07,0,0,0,1.27.26,2.84,2.84,0,0,0,2.17-1,3.2,3.2,0,0,0,.59-1,4.26,4.26,0,0,0,.2-1.3,4.13,4.13,0,0,0-.2-1.28,3.36,3.36,0,0,0-.59-1.07,2.81,2.81,0,0,0-.94-.73,2.71,2.71,0,0,0-1.23-.27,2.92,2.92,0,0,0-1.27.27,2.84,2.84,0,0,0-1,.73,3.21,3.21,0,0,0-.61,1.07A3.86,3.86,0,0,0,99.41,191.31Z" style="fill:#fff"/><path d="M111.45,185.41a.78.78,0,0,1,.07-.35.68.68,0,0,1,.2-.24.87.87,0,0,1,.27-.14,1,1,0,0,1,.3-.05h1.58a.54.54,0,0,1,.42.16,1.17,1.17,0,0,1,.27.4,3.65,3.65,0,0,1,.2.53,3.49,3.49,0,0,0,.2.57c.21-.23.41-.46.62-.68a4.18,4.18,0,0,1,.67-.6,3.3,3.3,0,0,1,.78-.43,2.9,2.9,0,0,1,1-.16,6,6,0,0,1,1,.08,4.4,4.4,0,0,1,1.64.67c.26.16.55.36.86.58a.76.76,0,0,1,.45.62,1.08,1.08,0,0,1-.18.54l-1,1.63a.85.85,0,0,1-.71.41,1.13,1.13,0,0,1-.47-.12,3.59,3.59,0,0,0-.92-.66,2.57,2.57,0,0,0-1.06-.21,1.94,1.94,0,0,0-.72.12,1.78,1.78,0,0,0-.57.32,3.78,3.78,0,0,0-.47.5c-.15.2-.29.42-.44.66v7.6a.83.83,0,0,1-.19.6.86.86,0,0,1-.65.21h-2.36a.72.72,0,0,1-.82-.81Z" style="fill:#fff"/><path d="M132.88,197.5A1.63,1.63,0,0,0,133,197a4.43,4.43,0,0,0,0-.52v-.22s0-.05,0-.08v-.14l-.62.64a4.69,4.69,0,0,1-.69.56,3.85,3.85,0,0,1-.87.4,3.8,3.8,0,0,1-1.12.15,7.07,7.07,0,0,1-2.63-.48A6.6,6.6,0,0,1,125,196a6.08,6.08,0,0,1-1.37-2.08,6.91,6.91,0,0,1-.5-2.65,7.32,7.32,0,0,1,.5-2.7,6.72,6.72,0,0,1,1.37-2.18,6.41,6.41,0,0,1,2.09-1.46,6.54,6.54,0,0,1,2.63-.53,4.33,4.33,0,0,1,1.18.15,4,4,0,0,1,1,.4,4.72,4.72,0,0,1,.81.6,9.46,9.46,0,0,1,.68.74l.3-.93.11-.33a.86.86,0,0,1,.14-.25.57.57,0,0,1,.21-.15,1.06,1.06,0,0,1,.34,0H136a1,1,0,0,1,.29,0,.89.89,0,0,1,.27.15.57.57,0,0,1,.19.24.74.74,0,0,1,.08.34V196a7.42,7.42,0,0,1-.54,2.92,6.29,6.29,0,0,1-1.46,2.17,6.47,6.47,0,0,1-2.2,1.34,7.9,7.9,0,0,1-2.73.46,8.83,8.83,0,0,1-2.52-.4,7.46,7.46,0,0,1-1.25-.51,4.71,4.71,0,0,1-1.06-.72.9.9,0,0,1-.27-.28.77.77,0,0,1-.11-.39,1,1,0,0,1,.2-.55l1-1.38a1.87,1.87,0,0,1,.27-.24.5.5,0,0,1,.27-.07,1,1,0,0,1,.58.25,2,2,0,0,0,.6.4,4.64,4.64,0,0,0,1.42.36l.64,0a4.33,4.33,0,0,0,1-.13,4.07,4.07,0,0,0,1-.37,3.4,3.4,0,0,0,.79-.61A1.84,1.84,0,0,0,132.88,197.5Zm-6-6.23a3.66,3.66,0,0,0,.22,1.3,2.89,2.89,0,0,0,2.82,2,3.28,3.28,0,0,0,2.3-.89,3.38,3.38,0,0,0,.71-1,3.47,3.47,0,0,0,.3-1.22v-.35a3.53,3.53,0,0,0-.3-1.21,3.47,3.47,0,0,0-.71-1,3.37,3.37,0,0,0-1-.69,3,3,0,0,0-1.26-.26,2.86,2.86,0,0,0-1.25.27,2.82,2.82,0,0,0-1,.72,3.17,3.17,0,0,0-.61,1.06A3.63,3.63,0,0,0,126.87,191.27Z" style="fill:#fff"/><path d="M140.17,182.55a.58.58,0,0,1,.21-.49,2.72,2.72,0,0,1,.62-.31l2.38-.83h.19a.55.55,0,0,1,.52.23,1.15,1.15,0,0,1,.13.59v2.89h1.44a.77.77,0,0,1,.54.2.78.78,0,0,1,.21.6v2a.88.88,0,0,1-.21.65.72.72,0,0,1-.54.2h-1.44v8.87a.77.77,0,0,1-.23.6.93.93,0,0,1-.64.21H141a.71.71,0,0,1-.8-.81v-8.87h-1.09c-.54,0-.81-.28-.81-.85v-2a.71.71,0,0,1,.81-.8h1.09Z" style="fill:#fff"/><path d="M148.55,194.94a.44.44,0,0,1,.11-.33.43.43,0,0,1,.35-.13h2.78a.48.48,0,0,1,.33.13.4.4,0,0,1,.15.33v2.54a.52.52,0,0,1-.12.34.43.43,0,0,1-.36.15H149c-.31,0-.46-.17-.46-.49Z" style="fill:#fff"/><rect x="43" y="227.83" width="30" height="5" style="fill:#fff"/></g></svg>